M48
; DRILL file {KiCad 8.0.2} date 2024-05-14T22:55:51+0300
; FORMAT={-:-/ absolute / inch / decimal}
; #@! TF.CreationDate,2024-05-14T22:55:51+03:00
; #@! TF.GenerationSoftware,Kicad,Pcbnew,8.0.2
; #@! TF.FileFunction,Plated,1,2,PTH
FMAT,2
INCH
; #@! TA.AperFunction,Plated,PTH,ViaDrill
T1C0.0118
; #@! TA.AperFunction,Plated,PTH,ComponentDrill
T2C0.0276
; #@! TA.AperFunction,Plated,PTH,ComponentDrill
T3C0.0315
; #@! TA.AperFunction,Plated,PTH,ComponentDrill
T4C0.0433
; #@! TA.AperFunction,Plated,PTH,ComponentDrill
T5C0.0520
%
G90
G05
T1
X6.902Y-1.965
X6.906Y-2.059
X7.1167Y-3.485
X7.1403Y-3.336
X7.165Y-1.967
X7.165Y-2.058
X7.3362Y-2.4516
X7.3493Y-2.3386
X7.3747Y-2.6656
X7.7164Y-2.8339
X7.9056Y-2.4424
X8.268Y-1.6105
X8.4258Y-2.8833
X8.7149Y-2.9434
T2
X6.001Y-2.881
X6.002Y-2.729
X6.201Y-2.881
X6.202Y-2.729
X6.335Y-2.73
X6.335Y-2.88
X6.535Y-2.73
X6.535Y-2.88
X7.006Y-3.336
X7.007Y-3.183
X7.014Y-3.646
X7.014Y-3.801
X7.015Y-3.485
X7.015Y-3.954
X7.017Y-4.103
X7.206Y-3.336
X7.207Y-3.183
X7.214Y-3.646
X7.214Y-3.801
X7.215Y-3.485
X7.215Y-3.954
X7.217Y-4.103
X8.426Y-3.195
X8.426Y-3.345
X8.428Y-3.501
X8.433Y-3.656
X8.435Y-4.119
X8.437Y-3.817
X8.437Y-3.964
X8.626Y-3.195
X8.626Y-3.345
X8.628Y-3.501
X8.633Y-3.656
X8.635Y-4.119
X8.637Y-3.817
X8.637Y-3.964
T3
X6.0218Y-1.917
X6.0248Y-2.084
X6.0371Y-2.3103
X6.1158Y-2.3103
X6.1202Y-1.917
X6.1232Y-2.084
X6.3424Y-2.2908
X6.3424Y-2.4877
X6.727Y-1.355
X6.727Y-1.455
X6.727Y-1.555
X6.727Y-1.655
X6.727Y-1.755
X6.727Y-1.855
X6.727Y-1.955
X6.7524Y-2.4074
X6.7524Y-2.5074
X6.7524Y-2.6074
X6.7524Y-2.7074
X7.027Y-1.355
X7.027Y-1.455
X7.027Y-1.555
X7.027Y-1.655
X7.027Y-1.755
X7.027Y-1.855
X7.027Y-1.955
X7.0524Y-2.4074
X7.0524Y-2.5074
X7.0524Y-2.6074
X7.0524Y-2.7074
X7.2534Y-1.3538
X7.2534Y-1.4538
X7.2534Y-1.5538
X7.2534Y-1.6538
X7.2534Y-1.7538
X7.2534Y-1.8538
X7.2534Y-1.9538
X7.2544Y-2.2386
X7.2544Y-2.3386
X7.2544Y-2.4386
X7.2544Y-2.5386
X7.2544Y-2.6386
X7.2544Y-2.7386
X7.2544Y-2.8386
X7.2544Y-2.9386
X7.5431Y-3.2011
X7.5431Y-3.3011
X7.5431Y-3.4011
X7.5431Y-3.5011
X7.5431Y-3.6011
X7.5534Y-1.3538
X7.5534Y-1.4538
X7.5534Y-1.5538
X7.5534Y-1.6538
X7.5534Y-1.7538
X7.5534Y-1.8538
X7.5534Y-1.9538
X7.5544Y-2.2386
X7.5544Y-2.3386
X7.5544Y-2.4386
X7.5544Y-2.5386
X7.5544Y-2.6386
X7.5544Y-2.7386
X7.5544Y-2.8386
X7.5544Y-2.9386
X7.7431Y-3.2011
X7.7431Y-3.3011
X7.7431Y-3.4011
X7.7431Y-3.5011
X7.7431Y-3.6011
X7.7686Y-2.2424
X7.7686Y-2.3424
X7.7686Y-2.4424
X7.7686Y-2.5424
X7.7686Y-2.6424
X7.7686Y-2.7424
X7.7686Y-2.8424
X7.7686Y-2.9424
X7.7804Y-1.3608
X7.7804Y-1.4608
X7.7804Y-1.5608
X7.7804Y-1.6608
X7.7804Y-1.7608
X7.7804Y-1.8608
X7.7804Y-1.9608
X7.9019Y-3.2005
X7.9019Y-3.3005
X7.9019Y-3.4005
X7.9019Y-3.5005
X7.9019Y-3.6005
X8.0686Y-2.2424
X8.0686Y-2.3424
X8.0686Y-2.4424
X8.0686Y-2.5424
X8.0686Y-2.6424
X8.0686Y-2.7424
X8.0686Y-2.8424
X8.0686Y-2.9424
X8.0804Y-1.3608
X8.0804Y-1.4608
X8.0804Y-1.5608
X8.0804Y-1.6608
X8.0804Y-1.7608
X8.0804Y-1.8608
X8.0804Y-1.9608
X8.1019Y-3.2005
X8.1019Y-3.3005
X8.1019Y-3.4005
X8.1019Y-3.5005
X8.1019Y-3.6005
X8.3114Y-1.3556
X8.3114Y-1.4556
X8.3114Y-1.5556
X8.3114Y-1.6556
X8.3114Y-1.7556
X8.3114Y-1.8556
X8.3114Y-1.9556
X8.3114Y-2.0556
X8.3116Y-2.2434
X8.3116Y-2.3434
X8.3116Y-2.4434
X8.3116Y-2.5434
X8.3116Y-2.6434
X8.3116Y-2.7434
X8.3116Y-2.8434
X8.3116Y-2.9434
X8.6114Y-1.3556
X8.6114Y-1.4556
X8.6114Y-1.5556
X8.6114Y-1.6556
X8.6114Y-1.7556
X8.6114Y-1.8556
X8.6114Y-1.9556
X8.6114Y-2.0556
X8.6116Y-2.2434
X8.6116Y-2.3434
X8.6116Y-2.4434
X8.6116Y-2.5434
X8.6116Y-2.6434
X8.6116Y-2.7434
X8.6116Y-2.8434
X8.6116Y-2.9434
T4
X6.317Y-1.901
X6.317Y-2.001
X6.317Y-2.101
X7.529Y-3.83
X7.529Y-4.086
X7.7062Y-3.83
X7.7062Y-4.086
X7.9424Y-3.83
X7.9424Y-4.086
X8.1196Y-3.83
X8.1196Y-4.086
T5
X6.201Y-1.426
X6.201Y-1.6229
M30
