%TF.GenerationSoftware,KiCad,Pcbnew,8.0.2*%
%TF.CreationDate,2024-05-14T22:55:47+03:00*%
%TF.ProjectId,practica,70726163-7469-4636-912e-6b696361645f,rev?*%
%TF.SameCoordinates,Original*%
%TF.FileFunction,Legend,Top*%
%TF.FilePolarity,Positive*%
%FSLAX46Y46*%
G04 Gerber Fmt 4.6, Leading zero omitted, Abs format (unit mm)*
G04 Created by KiCad (PCBNEW 8.0.2) date 2024-05-14 22:55:47*
%MOMM*%
%LPD*%
G01*
G04 APERTURE LIST*
%ADD10C,0.300000*%
%ADD11C,0.150000*%
%ADD12C,0.000000*%
%ADD13C,0.120000*%
G04 APERTURE END LIST*
D10*
X150848780Y-99530771D02*
X150777352Y-99602200D01*
X150777352Y-99602200D02*
X150563066Y-99673628D01*
X150563066Y-99673628D02*
X150420209Y-99673628D01*
X150420209Y-99673628D02*
X150205923Y-99602200D01*
X150205923Y-99602200D02*
X150063066Y-99459342D01*
X150063066Y-99459342D02*
X149991637Y-99316485D01*
X149991637Y-99316485D02*
X149920209Y-99030771D01*
X149920209Y-99030771D02*
X149920209Y-98816485D01*
X149920209Y-98816485D02*
X149991637Y-98530771D01*
X149991637Y-98530771D02*
X150063066Y-98387914D01*
X150063066Y-98387914D02*
X150205923Y-98245057D01*
X150205923Y-98245057D02*
X150420209Y-98173628D01*
X150420209Y-98173628D02*
X150563066Y-98173628D01*
X150563066Y-98173628D02*
X150777352Y-98245057D01*
X150777352Y-98245057D02*
X150848780Y-98316485D01*
X152348780Y-99673628D02*
X151848780Y-98959342D01*
X151491637Y-99673628D02*
X151491637Y-98173628D01*
X151491637Y-98173628D02*
X152063066Y-98173628D01*
X152063066Y-98173628D02*
X152205923Y-98245057D01*
X152205923Y-98245057D02*
X152277352Y-98316485D01*
X152277352Y-98316485D02*
X152348780Y-98459342D01*
X152348780Y-98459342D02*
X152348780Y-98673628D01*
X152348780Y-98673628D02*
X152277352Y-98816485D01*
X152277352Y-98816485D02*
X152205923Y-98887914D01*
X152205923Y-98887914D02*
X152063066Y-98959342D01*
X152063066Y-98959342D02*
X151491637Y-98959342D01*
X153277352Y-98173628D02*
X153563066Y-98173628D01*
X153563066Y-98173628D02*
X153705923Y-98245057D01*
X153705923Y-98245057D02*
X153848780Y-98387914D01*
X153848780Y-98387914D02*
X153920209Y-98673628D01*
X153920209Y-98673628D02*
X153920209Y-99173628D01*
X153920209Y-99173628D02*
X153848780Y-99459342D01*
X153848780Y-99459342D02*
X153705923Y-99602200D01*
X153705923Y-99602200D02*
X153563066Y-99673628D01*
X153563066Y-99673628D02*
X153277352Y-99673628D01*
X153277352Y-99673628D02*
X153134495Y-99602200D01*
X153134495Y-99602200D02*
X152991637Y-99459342D01*
X152991637Y-99459342D02*
X152920209Y-99173628D01*
X152920209Y-99173628D02*
X152920209Y-98673628D01*
X152920209Y-98673628D02*
X152991637Y-98387914D01*
X152991637Y-98387914D02*
X153134495Y-98245057D01*
X153134495Y-98245057D02*
X153277352Y-98173628D01*
X154563066Y-99673628D02*
X154563066Y-98173628D01*
X154563066Y-98173628D02*
X155420209Y-99673628D01*
X155420209Y-99673628D02*
X155420209Y-98173628D01*
X156420210Y-98173628D02*
X156705924Y-98173628D01*
X156705924Y-98173628D02*
X156848781Y-98245057D01*
X156848781Y-98245057D02*
X156991638Y-98387914D01*
X156991638Y-98387914D02*
X157063067Y-98673628D01*
X157063067Y-98673628D02*
X157063067Y-99173628D01*
X157063067Y-99173628D02*
X156991638Y-99459342D01*
X156991638Y-99459342D02*
X156848781Y-99602200D01*
X156848781Y-99602200D02*
X156705924Y-99673628D01*
X156705924Y-99673628D02*
X156420210Y-99673628D01*
X156420210Y-99673628D02*
X156277353Y-99602200D01*
X156277353Y-99602200D02*
X156134495Y-99459342D01*
X156134495Y-99459342D02*
X156063067Y-99173628D01*
X156063067Y-99173628D02*
X156063067Y-98673628D01*
X156063067Y-98673628D02*
X156134495Y-98387914D01*
X156134495Y-98387914D02*
X156277353Y-98245057D01*
X156277353Y-98245057D02*
X156420210Y-98173628D01*
X157705924Y-99673628D02*
X157705924Y-98173628D01*
X157705924Y-98173628D02*
X158205924Y-99245057D01*
X158205924Y-99245057D02*
X158705924Y-98173628D01*
X158705924Y-98173628D02*
X158705924Y-99673628D01*
X159420210Y-98887914D02*
X159920210Y-98887914D01*
X160134496Y-99673628D02*
X159420210Y-99673628D01*
X159420210Y-99673628D02*
X159420210Y-98173628D01*
X159420210Y-98173628D02*
X160134496Y-98173628D01*
X160563068Y-98173628D02*
X161420211Y-98173628D01*
X160991639Y-99673628D02*
X160991639Y-98173628D01*
X162777353Y-99673628D02*
X162277353Y-98959342D01*
X161920210Y-99673628D02*
X161920210Y-98173628D01*
X161920210Y-98173628D02*
X162491639Y-98173628D01*
X162491639Y-98173628D02*
X162634496Y-98245057D01*
X162634496Y-98245057D02*
X162705925Y-98316485D01*
X162705925Y-98316485D02*
X162777353Y-98459342D01*
X162777353Y-98459342D02*
X162777353Y-98673628D01*
X162777353Y-98673628D02*
X162705925Y-98816485D01*
X162705925Y-98816485D02*
X162634496Y-98887914D01*
X162634496Y-98887914D02*
X162491639Y-98959342D01*
X162491639Y-98959342D02*
X161920210Y-98959342D01*
X163420210Y-98173628D02*
X163420210Y-99387914D01*
X163420210Y-99387914D02*
X163491639Y-99530771D01*
X163491639Y-99530771D02*
X163563068Y-99602200D01*
X163563068Y-99602200D02*
X163705925Y-99673628D01*
X163705925Y-99673628D02*
X163991639Y-99673628D01*
X163991639Y-99673628D02*
X164134496Y-99602200D01*
X164134496Y-99602200D02*
X164205925Y-99530771D01*
X164205925Y-99530771D02*
X164277353Y-99387914D01*
X164277353Y-99387914D02*
X164277353Y-98173628D01*
X166134496Y-99673628D02*
X166134496Y-98173628D01*
X166134496Y-98173628D02*
X166491639Y-98173628D01*
X166491639Y-98173628D02*
X166705925Y-98245057D01*
X166705925Y-98245057D02*
X166848782Y-98387914D01*
X166848782Y-98387914D02*
X166920211Y-98530771D01*
X166920211Y-98530771D02*
X166991639Y-98816485D01*
X166991639Y-98816485D02*
X166991639Y-99030771D01*
X166991639Y-99030771D02*
X166920211Y-99316485D01*
X166920211Y-99316485D02*
X166848782Y-99459342D01*
X166848782Y-99459342D02*
X166705925Y-99602200D01*
X166705925Y-99602200D02*
X166491639Y-99673628D01*
X166491639Y-99673628D02*
X166134496Y-99673628D01*
X167634496Y-99673628D02*
X167634496Y-98173628D01*
X169134497Y-98245057D02*
X168991640Y-98173628D01*
X168991640Y-98173628D02*
X168777354Y-98173628D01*
X168777354Y-98173628D02*
X168563068Y-98245057D01*
X168563068Y-98245057D02*
X168420211Y-98387914D01*
X168420211Y-98387914D02*
X168348782Y-98530771D01*
X168348782Y-98530771D02*
X168277354Y-98816485D01*
X168277354Y-98816485D02*
X168277354Y-99030771D01*
X168277354Y-99030771D02*
X168348782Y-99316485D01*
X168348782Y-99316485D02*
X168420211Y-99459342D01*
X168420211Y-99459342D02*
X168563068Y-99602200D01*
X168563068Y-99602200D02*
X168777354Y-99673628D01*
X168777354Y-99673628D02*
X168920211Y-99673628D01*
X168920211Y-99673628D02*
X169134497Y-99602200D01*
X169134497Y-99602200D02*
X169205925Y-99530771D01*
X169205925Y-99530771D02*
X169205925Y-99030771D01*
X169205925Y-99030771D02*
X168920211Y-99030771D01*
X169848782Y-99673628D02*
X169848782Y-98173628D01*
X170348783Y-98173628D02*
X171205926Y-98173628D01*
X170777354Y-99673628D02*
X170777354Y-98173628D01*
X171634497Y-99245057D02*
X172348783Y-99245057D01*
X171491640Y-99673628D02*
X171991640Y-98173628D01*
X171991640Y-98173628D02*
X172491640Y-99673628D01*
X173705925Y-99673628D02*
X172991639Y-99673628D01*
X172991639Y-99673628D02*
X172991639Y-98173628D01*
X155222409Y-101747238D02*
X155393837Y-101804381D01*
X155393837Y-101804381D02*
X155450980Y-101861524D01*
X155450980Y-101861524D02*
X155508123Y-101975809D01*
X155508123Y-101975809D02*
X155508123Y-102147238D01*
X155508123Y-102147238D02*
X155450980Y-102261524D01*
X155450980Y-102261524D02*
X155393837Y-102318667D01*
X155393837Y-102318667D02*
X155279552Y-102375809D01*
X155279552Y-102375809D02*
X154822409Y-102375809D01*
X154822409Y-102375809D02*
X154822409Y-101175809D01*
X154822409Y-101175809D02*
X155222409Y-101175809D01*
X155222409Y-101175809D02*
X155336695Y-101232952D01*
X155336695Y-101232952D02*
X155393837Y-101290095D01*
X155393837Y-101290095D02*
X155450980Y-101404381D01*
X155450980Y-101404381D02*
X155450980Y-101518667D01*
X155450980Y-101518667D02*
X155393837Y-101632952D01*
X155393837Y-101632952D02*
X155336695Y-101690095D01*
X155336695Y-101690095D02*
X155222409Y-101747238D01*
X155222409Y-101747238D02*
X154822409Y-101747238D01*
X156022409Y-102375809D02*
X156022409Y-101575809D01*
X156022409Y-101175809D02*
X155965266Y-101232952D01*
X155965266Y-101232952D02*
X156022409Y-101290095D01*
X156022409Y-101290095D02*
X156079552Y-101232952D01*
X156079552Y-101232952D02*
X156022409Y-101175809D01*
X156022409Y-101175809D02*
X156022409Y-101290095D01*
X157108124Y-102318667D02*
X156993838Y-102375809D01*
X156993838Y-102375809D02*
X156765266Y-102375809D01*
X156765266Y-102375809D02*
X156650981Y-102318667D01*
X156650981Y-102318667D02*
X156593838Y-102261524D01*
X156593838Y-102261524D02*
X156536695Y-102147238D01*
X156536695Y-102147238D02*
X156536695Y-101804381D01*
X156536695Y-101804381D02*
X156593838Y-101690095D01*
X156593838Y-101690095D02*
X156650981Y-101632952D01*
X156650981Y-101632952D02*
X156765266Y-101575809D01*
X156765266Y-101575809D02*
X156993838Y-101575809D01*
X156993838Y-101575809D02*
X157108124Y-101632952D01*
X158136695Y-102375809D02*
X158136695Y-101747238D01*
X158136695Y-101747238D02*
X158079552Y-101632952D01*
X158079552Y-101632952D02*
X157965266Y-101575809D01*
X157965266Y-101575809D02*
X157736695Y-101575809D01*
X157736695Y-101575809D02*
X157622409Y-101632952D01*
X158136695Y-102318667D02*
X158022409Y-102375809D01*
X158022409Y-102375809D02*
X157736695Y-102375809D01*
X157736695Y-102375809D02*
X157622409Y-102318667D01*
X157622409Y-102318667D02*
X157565266Y-102204381D01*
X157565266Y-102204381D02*
X157565266Y-102090095D01*
X157565266Y-102090095D02*
X157622409Y-101975809D01*
X157622409Y-101975809D02*
X157736695Y-101918667D01*
X157736695Y-101918667D02*
X158022409Y-101918667D01*
X158022409Y-101918667D02*
X158136695Y-101861524D01*
X158708123Y-101575809D02*
X158708123Y-102375809D01*
X158708123Y-101690095D02*
X158765266Y-101632952D01*
X158765266Y-101632952D02*
X158879551Y-101575809D01*
X158879551Y-101575809D02*
X159050980Y-101575809D01*
X159050980Y-101575809D02*
X159165266Y-101632952D01*
X159165266Y-101632952D02*
X159222409Y-101747238D01*
X159222409Y-101747238D02*
X159222409Y-102375809D01*
X160536694Y-101175809D02*
X160936694Y-102375809D01*
X160936694Y-102375809D02*
X161336694Y-101175809D01*
X162250980Y-102375809D02*
X162250980Y-101747238D01*
X162250980Y-101747238D02*
X162193837Y-101632952D01*
X162193837Y-101632952D02*
X162079551Y-101575809D01*
X162079551Y-101575809D02*
X161850980Y-101575809D01*
X161850980Y-101575809D02*
X161736694Y-101632952D01*
X162250980Y-102318667D02*
X162136694Y-102375809D01*
X162136694Y-102375809D02*
X161850980Y-102375809D01*
X161850980Y-102375809D02*
X161736694Y-102318667D01*
X161736694Y-102318667D02*
X161679551Y-102204381D01*
X161679551Y-102204381D02*
X161679551Y-102090095D01*
X161679551Y-102090095D02*
X161736694Y-101975809D01*
X161736694Y-101975809D02*
X161850980Y-101918667D01*
X161850980Y-101918667D02*
X162136694Y-101918667D01*
X162136694Y-101918667D02*
X162250980Y-101861524D01*
X162993836Y-102375809D02*
X162879551Y-102318667D01*
X162879551Y-102318667D02*
X162822408Y-102204381D01*
X162822408Y-102204381D02*
X162822408Y-101175809D01*
X163908122Y-102318667D02*
X163793836Y-102375809D01*
X163793836Y-102375809D02*
X163565265Y-102375809D01*
X163565265Y-102375809D02*
X163450979Y-102318667D01*
X163450979Y-102318667D02*
X163393836Y-102204381D01*
X163393836Y-102204381D02*
X163393836Y-101747238D01*
X163393836Y-101747238D02*
X163450979Y-101632952D01*
X163450979Y-101632952D02*
X163565265Y-101575809D01*
X163565265Y-101575809D02*
X163793836Y-101575809D01*
X163793836Y-101575809D02*
X163908122Y-101632952D01*
X163908122Y-101632952D02*
X163965265Y-101747238D01*
X163965265Y-101747238D02*
X163965265Y-101861524D01*
X163965265Y-101861524D02*
X163393836Y-101975809D01*
X164479550Y-102375809D02*
X164479550Y-101575809D01*
X164479550Y-101804381D02*
X164536693Y-101690095D01*
X164536693Y-101690095D02*
X164593836Y-101632952D01*
X164593836Y-101632952D02*
X164708121Y-101575809D01*
X164708121Y-101575809D02*
X164822407Y-101575809D01*
X165222407Y-102375809D02*
X165222407Y-101575809D01*
X165222407Y-101175809D02*
X165165264Y-101232952D01*
X165165264Y-101232952D02*
X165222407Y-101290095D01*
X165222407Y-101290095D02*
X165279550Y-101232952D01*
X165279550Y-101232952D02*
X165222407Y-101175809D01*
X165222407Y-101175809D02*
X165222407Y-101290095D01*
X166308122Y-101575809D02*
X166308122Y-102375809D01*
X165793836Y-101575809D02*
X165793836Y-102204381D01*
X165793836Y-102204381D02*
X165850979Y-102318667D01*
X165850979Y-102318667D02*
X165965264Y-102375809D01*
X165965264Y-102375809D02*
X166136693Y-102375809D01*
X166136693Y-102375809D02*
X166250979Y-102318667D01*
X166250979Y-102318667D02*
X166308122Y-102261524D01*
X168479550Y-102261524D02*
X168422407Y-102318667D01*
X168422407Y-102318667D02*
X168250979Y-102375809D01*
X168250979Y-102375809D02*
X168136693Y-102375809D01*
X168136693Y-102375809D02*
X167965264Y-102318667D01*
X167965264Y-102318667D02*
X167850979Y-102204381D01*
X167850979Y-102204381D02*
X167793836Y-102090095D01*
X167793836Y-102090095D02*
X167736693Y-101861524D01*
X167736693Y-101861524D02*
X167736693Y-101690095D01*
X167736693Y-101690095D02*
X167793836Y-101461524D01*
X167793836Y-101461524D02*
X167850979Y-101347238D01*
X167850979Y-101347238D02*
X167965264Y-101232952D01*
X167965264Y-101232952D02*
X168136693Y-101175809D01*
X168136693Y-101175809D02*
X168250979Y-101175809D01*
X168250979Y-101175809D02*
X168422407Y-101232952D01*
X168422407Y-101232952D02*
X168479550Y-101290095D01*
X168993836Y-102375809D02*
X168993836Y-101575809D01*
X168993836Y-101804381D02*
X169050979Y-101690095D01*
X169050979Y-101690095D02*
X169108122Y-101632952D01*
X169108122Y-101632952D02*
X169222407Y-101575809D01*
X169222407Y-101575809D02*
X169336693Y-101575809D01*
X169736693Y-102375809D02*
X169736693Y-101575809D01*
X169736693Y-101175809D02*
X169679550Y-101232952D01*
X169679550Y-101232952D02*
X169736693Y-101290095D01*
X169736693Y-101290095D02*
X169793836Y-101232952D01*
X169793836Y-101232952D02*
X169736693Y-101175809D01*
X169736693Y-101175809D02*
X169736693Y-101290095D01*
X170250979Y-102318667D02*
X170365265Y-102375809D01*
X170365265Y-102375809D02*
X170593836Y-102375809D01*
X170593836Y-102375809D02*
X170708122Y-102318667D01*
X170708122Y-102318667D02*
X170765265Y-102204381D01*
X170765265Y-102204381D02*
X170765265Y-102147238D01*
X170765265Y-102147238D02*
X170708122Y-102032952D01*
X170708122Y-102032952D02*
X170593836Y-101975809D01*
X170593836Y-101975809D02*
X170422408Y-101975809D01*
X170422408Y-101975809D02*
X170308122Y-101918667D01*
X170308122Y-101918667D02*
X170250979Y-101804381D01*
X170250979Y-101804381D02*
X170250979Y-101747238D01*
X170250979Y-101747238D02*
X170308122Y-101632952D01*
X170308122Y-101632952D02*
X170422408Y-101575809D01*
X170422408Y-101575809D02*
X170593836Y-101575809D01*
X170593836Y-101575809D02*
X170708122Y-101632952D01*
X171108122Y-101575809D02*
X171565265Y-101575809D01*
X171279551Y-101175809D02*
X171279551Y-102204381D01*
X171279551Y-102204381D02*
X171336694Y-102318667D01*
X171336694Y-102318667D02*
X171450979Y-102375809D01*
X171450979Y-102375809D02*
X171565265Y-102375809D01*
X171965265Y-102375809D02*
X171965265Y-101575809D01*
X171965265Y-101175809D02*
X171908122Y-101232952D01*
X171908122Y-101232952D02*
X171965265Y-101290095D01*
X171965265Y-101290095D02*
X172022408Y-101232952D01*
X172022408Y-101232952D02*
X171965265Y-101175809D01*
X171965265Y-101175809D02*
X171965265Y-101290095D01*
X173050980Y-102375809D02*
X173050980Y-101747238D01*
X173050980Y-101747238D02*
X172993837Y-101632952D01*
X172993837Y-101632952D02*
X172879551Y-101575809D01*
X172879551Y-101575809D02*
X172650980Y-101575809D01*
X172650980Y-101575809D02*
X172536694Y-101632952D01*
X173050980Y-102318667D02*
X172936694Y-102375809D01*
X172936694Y-102375809D02*
X172650980Y-102375809D01*
X172650980Y-102375809D02*
X172536694Y-102318667D01*
X172536694Y-102318667D02*
X172479551Y-102204381D01*
X172479551Y-102204381D02*
X172479551Y-102090095D01*
X172479551Y-102090095D02*
X172536694Y-101975809D01*
X172536694Y-101975809D02*
X172650980Y-101918667D01*
X172650980Y-101918667D02*
X172936694Y-101918667D01*
X172936694Y-101918667D02*
X173050980Y-101861524D01*
X173622408Y-101575809D02*
X173622408Y-102375809D01*
X173622408Y-101690095D02*
X173679551Y-101632952D01*
X173679551Y-101632952D02*
X173793836Y-101575809D01*
X173793836Y-101575809D02*
X173965265Y-101575809D01*
X173965265Y-101575809D02*
X174079551Y-101632952D01*
X174079551Y-101632952D02*
X174136694Y-101747238D01*
X174136694Y-101747238D02*
X174136694Y-102375809D01*
X154765266Y-103222028D02*
X154822409Y-103164885D01*
X154822409Y-103164885D02*
X154936695Y-103107742D01*
X154936695Y-103107742D02*
X155222409Y-103107742D01*
X155222409Y-103107742D02*
X155336695Y-103164885D01*
X155336695Y-103164885D02*
X155393837Y-103222028D01*
X155393837Y-103222028D02*
X155450980Y-103336314D01*
X155450980Y-103336314D02*
X155450980Y-103450600D01*
X155450980Y-103450600D02*
X155393837Y-103622028D01*
X155393837Y-103622028D02*
X154708123Y-104307742D01*
X154708123Y-104307742D02*
X155450980Y-104307742D01*
X156193837Y-103107742D02*
X156308123Y-103107742D01*
X156308123Y-103107742D02*
X156422409Y-103164885D01*
X156422409Y-103164885D02*
X156479552Y-103222028D01*
X156479552Y-103222028D02*
X156536694Y-103336314D01*
X156536694Y-103336314D02*
X156593837Y-103564885D01*
X156593837Y-103564885D02*
X156593837Y-103850600D01*
X156593837Y-103850600D02*
X156536694Y-104079171D01*
X156536694Y-104079171D02*
X156479552Y-104193457D01*
X156479552Y-104193457D02*
X156422409Y-104250600D01*
X156422409Y-104250600D02*
X156308123Y-104307742D01*
X156308123Y-104307742D02*
X156193837Y-104307742D01*
X156193837Y-104307742D02*
X156079552Y-104250600D01*
X156079552Y-104250600D02*
X156022409Y-104193457D01*
X156022409Y-104193457D02*
X155965266Y-104079171D01*
X155965266Y-104079171D02*
X155908123Y-103850600D01*
X155908123Y-103850600D02*
X155908123Y-103564885D01*
X155908123Y-103564885D02*
X155965266Y-103336314D01*
X155965266Y-103336314D02*
X156022409Y-103222028D01*
X156022409Y-103222028D02*
X156079552Y-103164885D01*
X156079552Y-103164885D02*
X156193837Y-103107742D01*
X157050980Y-103222028D02*
X157108123Y-103164885D01*
X157108123Y-103164885D02*
X157222409Y-103107742D01*
X157222409Y-103107742D02*
X157508123Y-103107742D01*
X157508123Y-103107742D02*
X157622409Y-103164885D01*
X157622409Y-103164885D02*
X157679551Y-103222028D01*
X157679551Y-103222028D02*
X157736694Y-103336314D01*
X157736694Y-103336314D02*
X157736694Y-103450600D01*
X157736694Y-103450600D02*
X157679551Y-103622028D01*
X157679551Y-103622028D02*
X156993837Y-104307742D01*
X156993837Y-104307742D02*
X157736694Y-104307742D01*
X158765266Y-103507742D02*
X158765266Y-104307742D01*
X158479551Y-103050600D02*
X158193837Y-103907742D01*
X158193837Y-103907742D02*
X158936694Y-103907742D01*
X160432086Y-86401928D02*
X160146371Y-86401928D01*
X160146371Y-86401928D02*
X160003514Y-86473357D01*
X160003514Y-86473357D02*
X159932086Y-86544785D01*
X159932086Y-86544785D02*
X159789228Y-86759071D01*
X159789228Y-86759071D02*
X159717800Y-87044785D01*
X159717800Y-87044785D02*
X159717800Y-87616214D01*
X159717800Y-87616214D02*
X159789228Y-87759071D01*
X159789228Y-87759071D02*
X159860657Y-87830500D01*
X159860657Y-87830500D02*
X160003514Y-87901928D01*
X160003514Y-87901928D02*
X160289228Y-87901928D01*
X160289228Y-87901928D02*
X160432086Y-87830500D01*
X160432086Y-87830500D02*
X160503514Y-87759071D01*
X160503514Y-87759071D02*
X160574943Y-87616214D01*
X160574943Y-87616214D02*
X160574943Y-87259071D01*
X160574943Y-87259071D02*
X160503514Y-87116214D01*
X160503514Y-87116214D02*
X160432086Y-87044785D01*
X160432086Y-87044785D02*
X160289228Y-86973357D01*
X160289228Y-86973357D02*
X160003514Y-86973357D01*
X160003514Y-86973357D02*
X159860657Y-87044785D01*
X159860657Y-87044785D02*
X159789228Y-87116214D01*
X159789228Y-87116214D02*
X159717800Y-87259071D01*
X161503514Y-86401928D02*
X161646371Y-86401928D01*
X161646371Y-86401928D02*
X161789228Y-86473357D01*
X161789228Y-86473357D02*
X161860657Y-86544785D01*
X161860657Y-86544785D02*
X161932085Y-86687642D01*
X161932085Y-86687642D02*
X162003514Y-86973357D01*
X162003514Y-86973357D02*
X162003514Y-87330500D01*
X162003514Y-87330500D02*
X161932085Y-87616214D01*
X161932085Y-87616214D02*
X161860657Y-87759071D01*
X161860657Y-87759071D02*
X161789228Y-87830500D01*
X161789228Y-87830500D02*
X161646371Y-87901928D01*
X161646371Y-87901928D02*
X161503514Y-87901928D01*
X161503514Y-87901928D02*
X161360657Y-87830500D01*
X161360657Y-87830500D02*
X161289228Y-87759071D01*
X161289228Y-87759071D02*
X161217799Y-87616214D01*
X161217799Y-87616214D02*
X161146371Y-87330500D01*
X161146371Y-87330500D02*
X161146371Y-86973357D01*
X161146371Y-86973357D02*
X161217799Y-86687642D01*
X161217799Y-86687642D02*
X161289228Y-86544785D01*
X161289228Y-86544785D02*
X161360657Y-86473357D01*
X161360657Y-86473357D02*
X161503514Y-86401928D01*
X162574942Y-87830500D02*
X162717799Y-87901928D01*
X162717799Y-87901928D02*
X163003513Y-87901928D01*
X163003513Y-87901928D02*
X163146370Y-87830500D01*
X163146370Y-87830500D02*
X163217799Y-87687642D01*
X163217799Y-87687642D02*
X163217799Y-87616214D01*
X163217799Y-87616214D02*
X163146370Y-87473357D01*
X163146370Y-87473357D02*
X163003513Y-87401928D01*
X163003513Y-87401928D02*
X162789228Y-87401928D01*
X162789228Y-87401928D02*
X162646370Y-87330500D01*
X162646370Y-87330500D02*
X162574942Y-87187642D01*
X162574942Y-87187642D02*
X162574942Y-87116214D01*
X162574942Y-87116214D02*
X162646370Y-86973357D01*
X162646370Y-86973357D02*
X162789228Y-86901928D01*
X162789228Y-86901928D02*
X163003513Y-86901928D01*
X163003513Y-86901928D02*
X163146370Y-86973357D01*
D11*
X200593895Y-30869619D02*
X200593895Y-31679142D01*
X200593895Y-31679142D02*
X200641514Y-31774380D01*
X200641514Y-31774380D02*
X200689133Y-31822000D01*
X200689133Y-31822000D02*
X200784371Y-31869619D01*
X200784371Y-31869619D02*
X200974847Y-31869619D01*
X200974847Y-31869619D02*
X201070085Y-31822000D01*
X201070085Y-31822000D02*
X201117704Y-31774380D01*
X201117704Y-31774380D02*
X201165323Y-31679142D01*
X201165323Y-31679142D02*
X201165323Y-30869619D01*
X201593895Y-30964857D02*
X201641514Y-30917238D01*
X201641514Y-30917238D02*
X201736752Y-30869619D01*
X201736752Y-30869619D02*
X201974847Y-30869619D01*
X201974847Y-30869619D02*
X202070085Y-30917238D01*
X202070085Y-30917238D02*
X202117704Y-30964857D01*
X202117704Y-30964857D02*
X202165323Y-31060095D01*
X202165323Y-31060095D02*
X202165323Y-31155333D01*
X202165323Y-31155333D02*
X202117704Y-31298190D01*
X202117704Y-31298190D02*
X201546276Y-31869619D01*
X201546276Y-31869619D02*
X202165323Y-31869619D01*
X154801914Y-76070619D02*
X154230486Y-76070619D01*
X154516200Y-76070619D02*
X154516200Y-75070619D01*
X154516200Y-75070619D02*
X154420962Y-75213476D01*
X154420962Y-75213476D02*
X154325724Y-75308714D01*
X154325724Y-75308714D02*
X154230486Y-75356333D01*
X155230486Y-76070619D02*
X155230486Y-75070619D01*
X155801914Y-76070619D02*
X155373343Y-75499190D01*
X155801914Y-75070619D02*
X155230486Y-75642047D01*
X162936323Y-67587019D02*
X162364895Y-67587019D01*
X162650609Y-67587019D02*
X162650609Y-66587019D01*
X162650609Y-66587019D02*
X162555371Y-66729876D01*
X162555371Y-66729876D02*
X162460133Y-66825114D01*
X162460133Y-66825114D02*
X162364895Y-66872733D01*
X163555371Y-66587019D02*
X163650609Y-66587019D01*
X163650609Y-66587019D02*
X163745847Y-66634638D01*
X163745847Y-66634638D02*
X163793466Y-66682257D01*
X163793466Y-66682257D02*
X163841085Y-66777495D01*
X163841085Y-66777495D02*
X163888704Y-66967971D01*
X163888704Y-66967971D02*
X163888704Y-67206066D01*
X163888704Y-67206066D02*
X163841085Y-67396542D01*
X163841085Y-67396542D02*
X163793466Y-67491780D01*
X163793466Y-67491780D02*
X163745847Y-67539400D01*
X163745847Y-67539400D02*
X163650609Y-67587019D01*
X163650609Y-67587019D02*
X163555371Y-67587019D01*
X163555371Y-67587019D02*
X163460133Y-67539400D01*
X163460133Y-67539400D02*
X163412514Y-67491780D01*
X163412514Y-67491780D02*
X163364895Y-67396542D01*
X163364895Y-67396542D02*
X163317276Y-67206066D01*
X163317276Y-67206066D02*
X163317276Y-66967971D01*
X163317276Y-66967971D02*
X163364895Y-66777495D01*
X163364895Y-66777495D02*
X163412514Y-66682257D01*
X163412514Y-66682257D02*
X163460133Y-66634638D01*
X163460133Y-66634638D02*
X163555371Y-66587019D01*
X164317276Y-67587019D02*
X164317276Y-66587019D01*
X164888704Y-67587019D02*
X164460133Y-67015590D01*
X164888704Y-66587019D02*
X164317276Y-67158447D01*
X173837695Y-30722219D02*
X173837695Y-31531742D01*
X173837695Y-31531742D02*
X173885314Y-31626980D01*
X173885314Y-31626980D02*
X173932933Y-31674600D01*
X173932933Y-31674600D02*
X174028171Y-31722219D01*
X174028171Y-31722219D02*
X174218647Y-31722219D01*
X174218647Y-31722219D02*
X174313885Y-31674600D01*
X174313885Y-31674600D02*
X174361504Y-31626980D01*
X174361504Y-31626980D02*
X174409123Y-31531742D01*
X174409123Y-31531742D02*
X174409123Y-30722219D01*
X175313885Y-31055552D02*
X175313885Y-31722219D01*
X175075790Y-30674600D02*
X174837695Y-31388885D01*
X174837695Y-31388885D02*
X175456742Y-31388885D01*
X187452095Y-53226619D02*
X187452095Y-54036142D01*
X187452095Y-54036142D02*
X187499714Y-54131380D01*
X187499714Y-54131380D02*
X187547333Y-54179000D01*
X187547333Y-54179000D02*
X187642571Y-54226619D01*
X187642571Y-54226619D02*
X187833047Y-54226619D01*
X187833047Y-54226619D02*
X187928285Y-54179000D01*
X187928285Y-54179000D02*
X187975904Y-54131380D01*
X187975904Y-54131380D02*
X188023523Y-54036142D01*
X188023523Y-54036142D02*
X188023523Y-53226619D01*
X188404476Y-53226619D02*
X189071142Y-53226619D01*
X189071142Y-53226619D02*
X188642571Y-54226619D01*
X163336314Y-75918219D02*
X162764886Y-75918219D01*
X163050600Y-75918219D02*
X163050600Y-74918219D01*
X163050600Y-74918219D02*
X162955362Y-75061076D01*
X162955362Y-75061076D02*
X162860124Y-75156314D01*
X162860124Y-75156314D02*
X162764886Y-75203933D01*
X163764886Y-75918219D02*
X163764886Y-74918219D01*
X164336314Y-75918219D02*
X163907743Y-75346790D01*
X164336314Y-74918219D02*
X163764886Y-75489647D01*
X213671305Y-77026419D02*
X213671305Y-77835942D01*
X213671305Y-77835942D02*
X213718924Y-77931180D01*
X213718924Y-77931180D02*
X213766543Y-77978800D01*
X213766543Y-77978800D02*
X213861781Y-78026419D01*
X213861781Y-78026419D02*
X214052257Y-78026419D01*
X214052257Y-78026419D02*
X214147495Y-77978800D01*
X214147495Y-77978800D02*
X214195114Y-77931180D01*
X214195114Y-77931180D02*
X214242733Y-77835942D01*
X214242733Y-77835942D02*
X214242733Y-77026419D01*
X215242733Y-78026419D02*
X214671305Y-78026419D01*
X214957019Y-78026419D02*
X214957019Y-77026419D01*
X214957019Y-77026419D02*
X214861781Y-77169276D01*
X214861781Y-77169276D02*
X214766543Y-77264514D01*
X214766543Y-77264514D02*
X214671305Y-77312133D01*
X215861781Y-77026419D02*
X215957019Y-77026419D01*
X215957019Y-77026419D02*
X216052257Y-77074038D01*
X216052257Y-77074038D02*
X216099876Y-77121657D01*
X216099876Y-77121657D02*
X216147495Y-77216895D01*
X216147495Y-77216895D02*
X216195114Y-77407371D01*
X216195114Y-77407371D02*
X216195114Y-77645466D01*
X216195114Y-77645466D02*
X216147495Y-77835942D01*
X216147495Y-77835942D02*
X216099876Y-77931180D01*
X216099876Y-77931180D02*
X216052257Y-77978800D01*
X216052257Y-77978800D02*
X215957019Y-78026419D01*
X215957019Y-78026419D02*
X215861781Y-78026419D01*
X215861781Y-78026419D02*
X215766543Y-77978800D01*
X215766543Y-77978800D02*
X215718924Y-77931180D01*
X215718924Y-77931180D02*
X215671305Y-77835942D01*
X215671305Y-77835942D02*
X215623686Y-77645466D01*
X215623686Y-77645466D02*
X215623686Y-77407371D01*
X215623686Y-77407371D02*
X215671305Y-77216895D01*
X215671305Y-77216895D02*
X215718924Y-77121657D01*
X215718924Y-77121657D02*
X215766543Y-77074038D01*
X215766543Y-77074038D02*
X215861781Y-77026419D01*
X174726695Y-57620819D02*
X174726695Y-58430342D01*
X174726695Y-58430342D02*
X174774314Y-58525580D01*
X174774314Y-58525580D02*
X174821933Y-58573200D01*
X174821933Y-58573200D02*
X174917171Y-58620819D01*
X174917171Y-58620819D02*
X175107647Y-58620819D01*
X175107647Y-58620819D02*
X175202885Y-58573200D01*
X175202885Y-58573200D02*
X175250504Y-58525580D01*
X175250504Y-58525580D02*
X175298123Y-58430342D01*
X175298123Y-58430342D02*
X175298123Y-57620819D01*
X175821933Y-58620819D02*
X176012409Y-58620819D01*
X176012409Y-58620819D02*
X176107647Y-58573200D01*
X176107647Y-58573200D02*
X176155266Y-58525580D01*
X176155266Y-58525580D02*
X176250504Y-58382723D01*
X176250504Y-58382723D02*
X176298123Y-58192247D01*
X176298123Y-58192247D02*
X176298123Y-57811295D01*
X176298123Y-57811295D02*
X176250504Y-57716057D01*
X176250504Y-57716057D02*
X176202885Y-57668438D01*
X176202885Y-57668438D02*
X176107647Y-57620819D01*
X176107647Y-57620819D02*
X175917171Y-57620819D01*
X175917171Y-57620819D02*
X175821933Y-57668438D01*
X175821933Y-57668438D02*
X175774314Y-57716057D01*
X175774314Y-57716057D02*
X175726695Y-57811295D01*
X175726695Y-57811295D02*
X175726695Y-58049390D01*
X175726695Y-58049390D02*
X175774314Y-58144628D01*
X175774314Y-58144628D02*
X175821933Y-58192247D01*
X175821933Y-58192247D02*
X175917171Y-58239866D01*
X175917171Y-58239866D02*
X176107647Y-58239866D01*
X176107647Y-58239866D02*
X176202885Y-58192247D01*
X176202885Y-58192247D02*
X176250504Y-58144628D01*
X176250504Y-58144628D02*
X176298123Y-58049390D01*
X201758705Y-77940819D02*
X201758705Y-78750342D01*
X201758705Y-78750342D02*
X201806324Y-78845580D01*
X201806324Y-78845580D02*
X201853943Y-78893200D01*
X201853943Y-78893200D02*
X201949181Y-78940819D01*
X201949181Y-78940819D02*
X202139657Y-78940819D01*
X202139657Y-78940819D02*
X202234895Y-78893200D01*
X202234895Y-78893200D02*
X202282514Y-78845580D01*
X202282514Y-78845580D02*
X202330133Y-78750342D01*
X202330133Y-78750342D02*
X202330133Y-77940819D01*
X203330133Y-78940819D02*
X202758705Y-78940819D01*
X203044419Y-78940819D02*
X203044419Y-77940819D01*
X203044419Y-77940819D02*
X202949181Y-78083676D01*
X202949181Y-78083676D02*
X202853943Y-78178914D01*
X202853943Y-78178914D02*
X202758705Y-78226533D01*
X204282514Y-78940819D02*
X203711086Y-78940819D01*
X203996800Y-78940819D02*
X203996800Y-77940819D01*
X203996800Y-77940819D02*
X203901562Y-78083676D01*
X203901562Y-78083676D02*
X203806324Y-78178914D01*
X203806324Y-78178914D02*
X203711086Y-78226533D01*
X187208095Y-30691819D02*
X187208095Y-31501342D01*
X187208095Y-31501342D02*
X187255714Y-31596580D01*
X187255714Y-31596580D02*
X187303333Y-31644200D01*
X187303333Y-31644200D02*
X187398571Y-31691819D01*
X187398571Y-31691819D02*
X187589047Y-31691819D01*
X187589047Y-31691819D02*
X187684285Y-31644200D01*
X187684285Y-31644200D02*
X187731904Y-31596580D01*
X187731904Y-31596580D02*
X187779523Y-31501342D01*
X187779523Y-31501342D02*
X187779523Y-30691819D01*
X188160476Y-30691819D02*
X188779523Y-30691819D01*
X188779523Y-30691819D02*
X188446190Y-31072771D01*
X188446190Y-31072771D02*
X188589047Y-31072771D01*
X188589047Y-31072771D02*
X188684285Y-31120390D01*
X188684285Y-31120390D02*
X188731904Y-31168009D01*
X188731904Y-31168009D02*
X188779523Y-31263247D01*
X188779523Y-31263247D02*
X188779523Y-31501342D01*
X188779523Y-31501342D02*
X188731904Y-31596580D01*
X188731904Y-31596580D02*
X188684285Y-31644200D01*
X188684285Y-31644200D02*
X188589047Y-31691819D01*
X188589047Y-31691819D02*
X188303333Y-31691819D01*
X188303333Y-31691819D02*
X188208095Y-31644200D01*
X188208095Y-31644200D02*
X188160476Y-31596580D01*
X153730486Y-66383819D02*
X154349533Y-66383819D01*
X154349533Y-66383819D02*
X154016200Y-66764771D01*
X154016200Y-66764771D02*
X154159057Y-66764771D01*
X154159057Y-66764771D02*
X154254295Y-66812390D01*
X154254295Y-66812390D02*
X154301914Y-66860009D01*
X154301914Y-66860009D02*
X154349533Y-66955247D01*
X154349533Y-66955247D02*
X154349533Y-67193342D01*
X154349533Y-67193342D02*
X154301914Y-67288580D01*
X154301914Y-67288580D02*
X154254295Y-67336200D01*
X154254295Y-67336200D02*
X154159057Y-67383819D01*
X154159057Y-67383819D02*
X153873343Y-67383819D01*
X153873343Y-67383819D02*
X153778105Y-67336200D01*
X153778105Y-67336200D02*
X153730486Y-67288580D01*
X154968581Y-66383819D02*
X155063819Y-66383819D01*
X155063819Y-66383819D02*
X155159057Y-66431438D01*
X155159057Y-66431438D02*
X155206676Y-66479057D01*
X155206676Y-66479057D02*
X155254295Y-66574295D01*
X155254295Y-66574295D02*
X155301914Y-66764771D01*
X155301914Y-66764771D02*
X155301914Y-67002866D01*
X155301914Y-67002866D02*
X155254295Y-67193342D01*
X155254295Y-67193342D02*
X155206676Y-67288580D01*
X155206676Y-67288580D02*
X155159057Y-67336200D01*
X155159057Y-67336200D02*
X155063819Y-67383819D01*
X155063819Y-67383819D02*
X154968581Y-67383819D01*
X154968581Y-67383819D02*
X154873343Y-67336200D01*
X154873343Y-67336200D02*
X154825724Y-67288580D01*
X154825724Y-67288580D02*
X154778105Y-67193342D01*
X154778105Y-67193342D02*
X154730486Y-67002866D01*
X154730486Y-67002866D02*
X154730486Y-66764771D01*
X154730486Y-66764771D02*
X154778105Y-66574295D01*
X154778105Y-66574295D02*
X154825724Y-66479057D01*
X154825724Y-66479057D02*
X154873343Y-66431438D01*
X154873343Y-66431438D02*
X154968581Y-66383819D01*
X155920962Y-66383819D02*
X156016200Y-66383819D01*
X156016200Y-66383819D02*
X156111438Y-66431438D01*
X156111438Y-66431438D02*
X156159057Y-66479057D01*
X156159057Y-66479057D02*
X156206676Y-66574295D01*
X156206676Y-66574295D02*
X156254295Y-66764771D01*
X156254295Y-66764771D02*
X156254295Y-67002866D01*
X156254295Y-67002866D02*
X156206676Y-67193342D01*
X156206676Y-67193342D02*
X156159057Y-67288580D01*
X156159057Y-67288580D02*
X156111438Y-67336200D01*
X156111438Y-67336200D02*
X156016200Y-67383819D01*
X156016200Y-67383819D02*
X155920962Y-67383819D01*
X155920962Y-67383819D02*
X155825724Y-67336200D01*
X155825724Y-67336200D02*
X155778105Y-67288580D01*
X155778105Y-67288580D02*
X155730486Y-67193342D01*
X155730486Y-67193342D02*
X155682867Y-67002866D01*
X155682867Y-67002866D02*
X155682867Y-66764771D01*
X155682867Y-66764771D02*
X155730486Y-66574295D01*
X155730486Y-66574295D02*
X155778105Y-66479057D01*
X155778105Y-66479057D02*
X155825724Y-66431438D01*
X155825724Y-66431438D02*
X155920962Y-66383819D01*
X200736295Y-53125019D02*
X200736295Y-53934542D01*
X200736295Y-53934542D02*
X200783914Y-54029780D01*
X200783914Y-54029780D02*
X200831533Y-54077400D01*
X200831533Y-54077400D02*
X200926771Y-54125019D01*
X200926771Y-54125019D02*
X201117247Y-54125019D01*
X201117247Y-54125019D02*
X201212485Y-54077400D01*
X201212485Y-54077400D02*
X201260104Y-54029780D01*
X201260104Y-54029780D02*
X201307723Y-53934542D01*
X201307723Y-53934542D02*
X201307723Y-53125019D01*
X202212485Y-53125019D02*
X202022009Y-53125019D01*
X202022009Y-53125019D02*
X201926771Y-53172638D01*
X201926771Y-53172638D02*
X201879152Y-53220257D01*
X201879152Y-53220257D02*
X201783914Y-53363114D01*
X201783914Y-53363114D02*
X201736295Y-53553590D01*
X201736295Y-53553590D02*
X201736295Y-53934542D01*
X201736295Y-53934542D02*
X201783914Y-54029780D01*
X201783914Y-54029780D02*
X201831533Y-54077400D01*
X201831533Y-54077400D02*
X201926771Y-54125019D01*
X201926771Y-54125019D02*
X202117247Y-54125019D01*
X202117247Y-54125019D02*
X202212485Y-54077400D01*
X202212485Y-54077400D02*
X202260104Y-54029780D01*
X202260104Y-54029780D02*
X202307723Y-53934542D01*
X202307723Y-53934542D02*
X202307723Y-53696447D01*
X202307723Y-53696447D02*
X202260104Y-53601209D01*
X202260104Y-53601209D02*
X202212485Y-53553590D01*
X202212485Y-53553590D02*
X202117247Y-53505971D01*
X202117247Y-53505971D02*
X201926771Y-53505971D01*
X201926771Y-53505971D02*
X201831533Y-53553590D01*
X201831533Y-53553590D02*
X201783914Y-53601209D01*
X201783914Y-53601209D02*
X201736295Y-53696447D01*
X193344895Y-77940819D02*
X193344895Y-78750342D01*
X193344895Y-78750342D02*
X193392514Y-78845580D01*
X193392514Y-78845580D02*
X193440133Y-78893200D01*
X193440133Y-78893200D02*
X193535371Y-78940819D01*
X193535371Y-78940819D02*
X193725847Y-78940819D01*
X193725847Y-78940819D02*
X193821085Y-78893200D01*
X193821085Y-78893200D02*
X193868704Y-78845580D01*
X193868704Y-78845580D02*
X193916323Y-78750342D01*
X193916323Y-78750342D02*
X193916323Y-77940819D01*
X194868704Y-77940819D02*
X194392514Y-77940819D01*
X194392514Y-77940819D02*
X194344895Y-78417009D01*
X194344895Y-78417009D02*
X194392514Y-78369390D01*
X194392514Y-78369390D02*
X194487752Y-78321771D01*
X194487752Y-78321771D02*
X194725847Y-78321771D01*
X194725847Y-78321771D02*
X194821085Y-78369390D01*
X194821085Y-78369390D02*
X194868704Y-78417009D01*
X194868704Y-78417009D02*
X194916323Y-78512247D01*
X194916323Y-78512247D02*
X194916323Y-78750342D01*
X194916323Y-78750342D02*
X194868704Y-78845580D01*
X194868704Y-78845580D02*
X194821085Y-78893200D01*
X194821085Y-78893200D02*
X194725847Y-78940819D01*
X194725847Y-78940819D02*
X194487752Y-78940819D01*
X194487752Y-78940819D02*
X194392514Y-78893200D01*
X194392514Y-78893200D02*
X194344895Y-78845580D01*
X214081295Y-30737219D02*
X214081295Y-31546742D01*
X214081295Y-31546742D02*
X214128914Y-31641980D01*
X214128914Y-31641980D02*
X214176533Y-31689600D01*
X214176533Y-31689600D02*
X214271771Y-31737219D01*
X214271771Y-31737219D02*
X214462247Y-31737219D01*
X214462247Y-31737219D02*
X214557485Y-31689600D01*
X214557485Y-31689600D02*
X214605104Y-31641980D01*
X214605104Y-31641980D02*
X214652723Y-31546742D01*
X214652723Y-31546742D02*
X214652723Y-30737219D01*
X215271771Y-31165790D02*
X215176533Y-31118171D01*
X215176533Y-31118171D02*
X215128914Y-31070552D01*
X215128914Y-31070552D02*
X215081295Y-30975314D01*
X215081295Y-30975314D02*
X215081295Y-30927695D01*
X215081295Y-30927695D02*
X215128914Y-30832457D01*
X215128914Y-30832457D02*
X215176533Y-30784838D01*
X215176533Y-30784838D02*
X215271771Y-30737219D01*
X215271771Y-30737219D02*
X215462247Y-30737219D01*
X215462247Y-30737219D02*
X215557485Y-30784838D01*
X215557485Y-30784838D02*
X215605104Y-30832457D01*
X215605104Y-30832457D02*
X215652723Y-30927695D01*
X215652723Y-30927695D02*
X215652723Y-30975314D01*
X215652723Y-30975314D02*
X215605104Y-31070552D01*
X215605104Y-31070552D02*
X215557485Y-31118171D01*
X215557485Y-31118171D02*
X215462247Y-31165790D01*
X215462247Y-31165790D02*
X215271771Y-31165790D01*
X215271771Y-31165790D02*
X215176533Y-31213409D01*
X215176533Y-31213409D02*
X215128914Y-31261028D01*
X215128914Y-31261028D02*
X215081295Y-31356266D01*
X215081295Y-31356266D02*
X215081295Y-31546742D01*
X215081295Y-31546742D02*
X215128914Y-31641980D01*
X215128914Y-31641980D02*
X215176533Y-31689600D01*
X215176533Y-31689600D02*
X215271771Y-31737219D01*
X215271771Y-31737219D02*
X215462247Y-31737219D01*
X215462247Y-31737219D02*
X215557485Y-31689600D01*
X215557485Y-31689600D02*
X215605104Y-31641980D01*
X215605104Y-31641980D02*
X215652723Y-31546742D01*
X215652723Y-31546742D02*
X215652723Y-31356266D01*
X215652723Y-31356266D02*
X215605104Y-31261028D01*
X215605104Y-31261028D02*
X215557485Y-31213409D01*
X215557485Y-31213409D02*
X215462247Y-31165790D01*
D12*
%TO.C,60s*%
G36*
X165786495Y-78549730D02*
G01*
X165929995Y-78616982D01*
X165983923Y-78659431D01*
X166088679Y-78787999D01*
X166135394Y-78923564D01*
X166130430Y-79057611D01*
X166080149Y-79181623D01*
X165990913Y-79287082D01*
X165869084Y-79365472D01*
X165721023Y-79408277D01*
X165553092Y-79406979D01*
X165444726Y-79381255D01*
X165333586Y-79345057D01*
X164368692Y-80214411D01*
X163403797Y-81083765D01*
X162694132Y-81098777D01*
X161984466Y-81113789D01*
X161975786Y-82442335D01*
X161967106Y-83770881D01*
X162100786Y-83770881D01*
X162234466Y-83770881D01*
X162234466Y-82573148D01*
X162234695Y-82270850D01*
X162235538Y-82023167D01*
X162237232Y-81824663D01*
X162240012Y-81669907D01*
X162244113Y-81553465D01*
X162249771Y-81469905D01*
X162257221Y-81413794D01*
X162266700Y-81379698D01*
X162278442Y-81362184D01*
X162287192Y-81357190D01*
X162336541Y-81351258D01*
X162440624Y-81346133D01*
X162587511Y-81342155D01*
X162765272Y-81339663D01*
X162928096Y-81338966D01*
X163516273Y-81338966D01*
X164451718Y-80498304D01*
X165387164Y-79657642D01*
X165916110Y-79657642D01*
X166445057Y-79657642D01*
X166671782Y-79454237D01*
X166898506Y-79250831D01*
X166847503Y-79117492D01*
X166817016Y-79015061D01*
X166817922Y-78934364D01*
X166985263Y-78934364D01*
X166998357Y-79064218D01*
X167001421Y-79072968D01*
X167070510Y-79177619D01*
X167176321Y-79243287D01*
X167301893Y-79266599D01*
X167430268Y-79244178D01*
X167537030Y-79179574D01*
X167612945Y-79076097D01*
X167634353Y-78963916D01*
X167608245Y-78855335D01*
X167541611Y-78762657D01*
X167441442Y-78698186D01*
X167314728Y-78674224D01*
X167252954Y-78679585D01*
X167120871Y-78729051D01*
X167028870Y-78818309D01*
X166985263Y-78934364D01*
X166817922Y-78934364D01*
X166817998Y-78927609D01*
X166835821Y-78857659D01*
X166908313Y-78719325D01*
X167019842Y-78618237D01*
X167157430Y-78555754D01*
X167308100Y-78533235D01*
X167458876Y-78552037D01*
X167596781Y-78613520D01*
X167708838Y-78719042D01*
X167737639Y-78763243D01*
X167794044Y-78917139D01*
X167791833Y-79063355D01*
X167739055Y-79193931D01*
X167643760Y-79300901D01*
X167513998Y-79376305D01*
X167357817Y-79412179D01*
X167183267Y-79400560D01*
X167112519Y-79381622D01*
X167063005Y-79367324D01*
X167021396Y-79365923D01*
X166975906Y-79383575D01*
X166914749Y-79426439D01*
X166826139Y-79500671D01*
X166738980Y-79576775D01*
X166475455Y-79807760D01*
X165963071Y-79807760D01*
X165450686Y-79807760D01*
X164517800Y-80648422D01*
X163584913Y-81489084D01*
X162993023Y-81489084D01*
X162401133Y-81489084D01*
X162401133Y-82629983D01*
X162401133Y-83770881D01*
X162517800Y-83770881D01*
X162634466Y-83770881D01*
X162634977Y-82787607D01*
X162635865Y-82549422D01*
X162638148Y-82329811D01*
X162641634Y-82136152D01*
X162646135Y-81975823D01*
X162651457Y-81856199D01*
X162657412Y-81784659D01*
X162661348Y-81767672D01*
X162690885Y-81754527D01*
X162762390Y-81744361D01*
X162881376Y-81736883D01*
X163053355Y-81731805D01*
X163283841Y-81728837D01*
X163415549Y-81728082D01*
X164143889Y-81725153D01*
X164688758Y-81239329D01*
X165233627Y-80753505D01*
X165183397Y-80623779D01*
X165154759Y-80464739D01*
X165157198Y-80454510D01*
X165316789Y-80454510D01*
X165334755Y-80574150D01*
X165403843Y-80678801D01*
X165509654Y-80744469D01*
X165635227Y-80767781D01*
X165763601Y-80745360D01*
X165870364Y-80680756D01*
X165950652Y-80572207D01*
X165973400Y-80453918D01*
X165940868Y-80340196D01*
X165855316Y-80245349D01*
X165796095Y-80210733D01*
X165661117Y-80176277D01*
X165534052Y-80192599D01*
X165426545Y-80250528D01*
X165350242Y-80340890D01*
X165316789Y-80454510D01*
X165157198Y-80454510D01*
X165191660Y-80310008D01*
X165287776Y-80169976D01*
X165411314Y-80080017D01*
X165558999Y-80036617D01*
X165715529Y-80037931D01*
X165865599Y-80082112D01*
X165993907Y-80167315D01*
X166070972Y-80264425D01*
X166127356Y-80418298D01*
X166125128Y-80564516D01*
X166072341Y-80695109D01*
X165977049Y-80802105D01*
X165847304Y-80877531D01*
X165691162Y-80913416D01*
X165516674Y-80901787D01*
X165446163Y-80882905D01*
X165336460Y-80847174D01*
X164783580Y-81340765D01*
X164626712Y-81480782D01*
X164486213Y-81606132D01*
X164368810Y-81710817D01*
X164281233Y-81788839D01*
X164230209Y-81834199D01*
X164219930Y-81843251D01*
X164184905Y-81846185D01*
X164093187Y-81849304D01*
X163954744Y-81852399D01*
X163779550Y-81855255D01*
X163577574Y-81857662D01*
X163513479Y-81858263D01*
X162817800Y-81864380D01*
X162808998Y-82817630D01*
X162800196Y-83770881D01*
X162933471Y-83770881D01*
X163066745Y-83770881D01*
X163075606Y-82937725D01*
X163084466Y-82104569D01*
X163717262Y-82096375D01*
X164350058Y-82088181D01*
X164869614Y-81623502D01*
X165389171Y-81158824D01*
X165915764Y-81158824D01*
X166442358Y-81158824D01*
X166671601Y-80956165D01*
X166900844Y-80753505D01*
X166852466Y-80629338D01*
X166822358Y-80479169D01*
X166979195Y-80479169D01*
X167000150Y-80587116D01*
X167064004Y-80676315D01*
X167158960Y-80739538D01*
X167273219Y-80769557D01*
X167394983Y-80759146D01*
X167512453Y-80701077D01*
X167537030Y-80680756D01*
X167614481Y-80577277D01*
X167637219Y-80467546D01*
X167613268Y-80362189D01*
X167550652Y-80271834D01*
X167457395Y-80207107D01*
X167341522Y-80178634D01*
X167211057Y-80197043D01*
X167180584Y-80208701D01*
X167076655Y-80279000D01*
X167012938Y-80359701D01*
X166979195Y-80479169D01*
X166822358Y-80479169D01*
X166819933Y-80467075D01*
X166853023Y-80315385D01*
X166940120Y-80186370D01*
X167068625Y-80088263D01*
X167219582Y-80038559D01*
X167378267Y-80035816D01*
X167529956Y-80078593D01*
X167659923Y-80165449D01*
X167737639Y-80264425D01*
X167794072Y-80418281D01*
X167791802Y-80564332D01*
X167738795Y-80694767D01*
X167643015Y-80801776D01*
X167512425Y-80877548D01*
X167354990Y-80914273D01*
X167178675Y-80904139D01*
X167104634Y-80885212D01*
X167055826Y-80872122D01*
X167014161Y-80872494D01*
X166967824Y-80892745D01*
X166905000Y-80939289D01*
X166813874Y-81018542D01*
X166745233Y-81080366D01*
X166492280Y-81308942D01*
X165971303Y-81308942D01*
X165450326Y-81308942D01*
X164934466Y-81774309D01*
X164418606Y-82239675D01*
X163826536Y-82239675D01*
X163234466Y-82239675D01*
X163234466Y-83005278D01*
X163234466Y-83770881D01*
X163351133Y-83770881D01*
X163467800Y-83770881D01*
X163468310Y-83162902D01*
X163469767Y-82976105D01*
X163473537Y-82808659D01*
X163479199Y-82670275D01*
X163486337Y-82570660D01*
X163494531Y-82519523D01*
X163496184Y-82516072D01*
X163521422Y-82502574D01*
X163580177Y-82492363D01*
X163679253Y-82485088D01*
X163825457Y-82480400D01*
X164025592Y-82477949D01*
X164248369Y-82477362D01*
X164973191Y-82477504D01*
X165103825Y-82366095D01*
X165234459Y-82254687D01*
X165181719Y-82119581D01*
X165152060Y-81962435D01*
X165155696Y-81945673D01*
X165317822Y-81945673D01*
X165334755Y-82075332D01*
X165403843Y-82179983D01*
X165509654Y-82245651D01*
X165635227Y-82268963D01*
X165763601Y-82246542D01*
X165870364Y-82181938D01*
X165945285Y-82079240D01*
X165965808Y-81967603D01*
X165939181Y-81859236D01*
X165872651Y-81766350D01*
X165773466Y-81701155D01*
X165648874Y-81675863D01*
X165574187Y-81682974D01*
X165445824Y-81735903D01*
X165357606Y-81827997D01*
X165317822Y-81945673D01*
X165155696Y-81945673D01*
X165183878Y-81815735D01*
X165271990Y-81689139D01*
X165411214Y-81592304D01*
X165479843Y-81564138D01*
X165591721Y-81533862D01*
X165686157Y-81533325D01*
X165754485Y-81547253D01*
X165882863Y-81589415D01*
X165973551Y-81649320D01*
X166053762Y-81745693D01*
X166063456Y-81759828D01*
X166127633Y-81902766D01*
X166133247Y-82042329D01*
X166088208Y-82170600D01*
X166000428Y-82279662D01*
X165877818Y-82361597D01*
X165728290Y-82408487D01*
X165559756Y-82412416D01*
X165437506Y-82386249D01*
X165372223Y-82370074D01*
X165321734Y-82376775D01*
X165264354Y-82413921D01*
X165200959Y-82468814D01*
X165071322Y-82584947D01*
X164361227Y-82599959D01*
X163651133Y-82614971D01*
X163642080Y-83192926D01*
X163633027Y-83770881D01*
X163766212Y-83770881D01*
X163899396Y-83770881D01*
X163908598Y-83313021D01*
X163917800Y-82855160D01*
X164767800Y-82847150D01*
X165617800Y-82839140D01*
X166009466Y-82487336D01*
X166401133Y-82135531D01*
X166401133Y-81939475D01*
X166401133Y-81743419D01*
X166826596Y-81361051D01*
X167252060Y-80978682D01*
X167777887Y-80978682D01*
X168303714Y-80978682D01*
X168435221Y-80866094D01*
X168566727Y-80753505D01*
X168513895Y-80612488D01*
X168483471Y-80517038D01*
X168481959Y-80487435D01*
X168642682Y-80487435D01*
X168679818Y-80602705D01*
X168686870Y-80613979D01*
X168784392Y-80712506D01*
X168906740Y-80763009D01*
X169038360Y-80763480D01*
X169163702Y-80711910D01*
X169203697Y-80680756D01*
X169283438Y-80573210D01*
X169306436Y-80456742D01*
X169276140Y-80345366D01*
X169196001Y-80253093D01*
X169084886Y-80198193D01*
X168946209Y-80182783D01*
X168822606Y-80214496D01*
X168724120Y-80282837D01*
X168660797Y-80377315D01*
X168642682Y-80487435D01*
X168481959Y-80487435D01*
X168479742Y-80444016D01*
X168502025Y-80361099D01*
X168508224Y-80344035D01*
X168592702Y-80200708D01*
X168719759Y-80098299D01*
X168879134Y-80043663D01*
X168968649Y-80036402D01*
X169135215Y-80062582D01*
X169275545Y-80133790D01*
X169382483Y-80239027D01*
X169448869Y-80367294D01*
X169467547Y-80507594D01*
X169431359Y-80648927D01*
X169401313Y-80701238D01*
X169285099Y-80824807D01*
X169139953Y-80894309D01*
X168965010Y-80910143D01*
X168951133Y-80909214D01*
X168841915Y-80897518D01*
X168754248Y-80882352D01*
X168727865Y-80874905D01*
X168673534Y-80877323D01*
X168596057Y-80922241D01*
X168529483Y-80976069D01*
X168387703Y-81098777D01*
X167872507Y-81098777D01*
X167357311Y-81098777D01*
X166962555Y-81449958D01*
X166567800Y-81801138D01*
X166567800Y-81996661D01*
X166567800Y-82192183D01*
X166124769Y-82591225D01*
X165681739Y-82990266D01*
X164874769Y-82990266D01*
X164067800Y-82990266D01*
X164068243Y-83418103D01*
X164068686Y-83845940D01*
X164664157Y-84379731D01*
X165259629Y-84913522D01*
X165722048Y-84905145D01*
X166184466Y-84896768D01*
X166193769Y-84498728D01*
X166203071Y-84100688D01*
X166072400Y-83974510D01*
X165995871Y-83904011D01*
X165944382Y-83871354D01*
X165899390Y-83868940D01*
X165853196Y-83884666D01*
X165692812Y-83921834D01*
X165535823Y-83908526D01*
X165392642Y-83852799D01*
X165273687Y-83762710D01*
X165189370Y-83646317D01*
X165150109Y-83511677D01*
X165159949Y-83423749D01*
X165315988Y-83423749D01*
X165318341Y-83547857D01*
X165371633Y-83650500D01*
X165462282Y-83725323D01*
X165576706Y-83765970D01*
X165701323Y-83766089D01*
X165822552Y-83719323D01*
X165870364Y-83683120D01*
X165949758Y-83575291D01*
X165972333Y-83457455D01*
X165941104Y-83344064D01*
X165859089Y-83249574D01*
X165769774Y-83201169D01*
X165637342Y-83181252D01*
X165507571Y-83210978D01*
X165398410Y-83281542D01*
X165327810Y-83384141D01*
X165315988Y-83423749D01*
X165159949Y-83423749D01*
X165166317Y-83366847D01*
X165169951Y-83356102D01*
X165248725Y-83216691D01*
X165364347Y-83115864D01*
X165504121Y-83054880D01*
X165655348Y-83034998D01*
X165805332Y-83057475D01*
X165941373Y-83123571D01*
X166050776Y-83234545D01*
X166070972Y-83266789D01*
X166124784Y-83414360D01*
X166127276Y-83564995D01*
X166095278Y-83665382D01*
X166077494Y-83712683D01*
X166085755Y-83754310D01*
X166128077Y-83806708D01*
X166195278Y-83870591D01*
X166334466Y-83998331D01*
X166334466Y-84511890D01*
X166333713Y-84702094D01*
X166330904Y-84840569D01*
X166325216Y-84935625D01*
X166315824Y-84995568D01*
X166301906Y-85028708D01*
X166282636Y-85043354D01*
X166281740Y-85043674D01*
X166230387Y-85050320D01*
X166126212Y-85055881D01*
X165983058Y-85059868D01*
X165814764Y-85061794D01*
X165765073Y-85061898D01*
X165301133Y-85061898D01*
X165301133Y-85166980D01*
X165301133Y-85272063D01*
X165951133Y-85272063D01*
X166601133Y-85272063D01*
X166601133Y-84572125D01*
X166601133Y-83872186D01*
X166501133Y-83785893D01*
X166401133Y-83699599D01*
X166401133Y-83202985D01*
X166401133Y-82706370D01*
X166651349Y-82479668D01*
X166901566Y-82252966D01*
X166846168Y-82125940D01*
X166814330Y-81975685D01*
X166821964Y-81941590D01*
X166983281Y-81941590D01*
X166996696Y-82064672D01*
X167000996Y-82075717D01*
X167077003Y-82185107D01*
X167186649Y-82251500D01*
X167314019Y-82271746D01*
X167443200Y-82242688D01*
X167537030Y-82181938D01*
X167611952Y-82079240D01*
X167632475Y-81967603D01*
X167605848Y-81859236D01*
X167539317Y-81766350D01*
X167440133Y-81701155D01*
X167315541Y-81675863D01*
X167240854Y-81682974D01*
X167114680Y-81735481D01*
X167025716Y-81826773D01*
X166983281Y-81941590D01*
X166821964Y-81941590D01*
X166847930Y-81825627D01*
X166945919Y-81680321D01*
X166950047Y-81675864D01*
X167074719Y-81584699D01*
X167223498Y-81540158D01*
X167380995Y-81540490D01*
X167531827Y-81583940D01*
X167660607Y-81668756D01*
X167737639Y-81765607D01*
X167793369Y-81918466D01*
X167790483Y-82063988D01*
X167737026Y-82194278D01*
X167641045Y-82301441D01*
X167510586Y-82377581D01*
X167353697Y-82414803D01*
X167178424Y-82405212D01*
X167104869Y-82386468D01*
X167053207Y-82372756D01*
X167010216Y-82374104D01*
X166962795Y-82397373D01*
X166897845Y-82449427D01*
X166802264Y-82537127D01*
X166783228Y-82554949D01*
X166567800Y-82756780D01*
X166567800Y-83192314D01*
X166567800Y-83627847D01*
X166667800Y-83730433D01*
X166767800Y-83833018D01*
X166767800Y-84580108D01*
X166767012Y-84788019D01*
X166764798Y-84977511D01*
X166761380Y-85139830D01*
X166756981Y-85266222D01*
X166751825Y-85347931D01*
X166747567Y-85374690D01*
X166733496Y-85390584D01*
X166701149Y-85402550D01*
X166642274Y-85411123D01*
X166548617Y-85416838D01*
X166411924Y-85420228D01*
X166223945Y-85421829D01*
X166014233Y-85422181D01*
X165301133Y-85422181D01*
X165301133Y-85542783D01*
X165301133Y-85663384D01*
X166159466Y-85655371D01*
X167017800Y-85647359D01*
X167026703Y-84909399D01*
X167035606Y-84171439D01*
X167135036Y-84085637D01*
X167197617Y-84023813D01*
X167232117Y-83974530D01*
X167234466Y-83964977D01*
X167206719Y-83932523D01*
X167136849Y-83891779D01*
X167100564Y-83875733D01*
X166959343Y-83789979D01*
X166867011Y-83675062D01*
X166825115Y-83547370D01*
X166981977Y-83547370D01*
X166982804Y-83550430D01*
X167043536Y-83660569D01*
X167143937Y-83734541D01*
X167267403Y-83768370D01*
X167397328Y-83758079D01*
X167517106Y-83699693D01*
X167537030Y-83683120D01*
X167613562Y-83579017D01*
X167635001Y-83466588D01*
X167608402Y-83358068D01*
X167540820Y-83265690D01*
X167439310Y-83201686D01*
X167310927Y-83178291D01*
X167249067Y-83183788D01*
X167128545Y-83231608D01*
X167035521Y-83319622D01*
X166982498Y-83430614D01*
X166981977Y-83547370D01*
X166825115Y-83547370D01*
X166823561Y-83542634D01*
X166828982Y-83404350D01*
X166883269Y-83271861D01*
X166986411Y-83156821D01*
X167101133Y-83086532D01*
X167266310Y-83039925D01*
X167426214Y-83046268D01*
X167569957Y-83098677D01*
X167686654Y-83190267D01*
X167765417Y-83314155D01*
X167795359Y-83463455D01*
X167791935Y-83523360D01*
X167744951Y-83678908D01*
X167645683Y-83797988D01*
X167523982Y-83870931D01*
X167438359Y-83922667D01*
X167401582Y-83975047D01*
X167401133Y-83980679D01*
X167380724Y-84033397D01*
X167328350Y-84109718D01*
X167283487Y-84162244D01*
X167165840Y-84289076D01*
X167169004Y-85025277D01*
X167169296Y-85265656D01*
X167167639Y-85452099D01*
X167163709Y-85590701D01*
X167157179Y-85687555D01*
X167147723Y-85748756D01*
X167135017Y-85780398D01*
X167128317Y-85786524D01*
X167084411Y-85793203D01*
X166983044Y-85799246D01*
X166833417Y-85804401D01*
X166644735Y-85808418D01*
X166426198Y-85811045D01*
X166192800Y-85812029D01*
X165301133Y-85812489D01*
X165301133Y-85917571D01*
X165301133Y-86022654D01*
X166367800Y-86022654D01*
X167434466Y-86022654D01*
X167434466Y-85113846D01*
X167434466Y-84205038D01*
X167751133Y-83920999D01*
X168067800Y-83636961D01*
X168067800Y-83170543D01*
X168067800Y-82704125D01*
X168316491Y-82478671D01*
X168565182Y-82253217D01*
X168513747Y-82118846D01*
X168495613Y-82019059D01*
X168653200Y-82019059D01*
X168668873Y-82077475D01*
X168738736Y-82185785D01*
X168843958Y-82252440D01*
X168968817Y-82274369D01*
X169097589Y-82248500D01*
X169203697Y-82181938D01*
X169278815Y-82077793D01*
X169299835Y-81961878D01*
X169270511Y-81849527D01*
X169194599Y-81756071D01*
X169085569Y-81699578D01*
X168940102Y-81682766D01*
X168813531Y-81715921D01*
X168716457Y-81789430D01*
X168659480Y-81893681D01*
X168653200Y-82019059D01*
X168495613Y-82019059D01*
X168485124Y-81961337D01*
X168517909Y-81814422D01*
X168606849Y-81687831D01*
X168746691Y-81591294D01*
X168813176Y-81564138D01*
X168925054Y-81533862D01*
X169019490Y-81533325D01*
X169087818Y-81547253D01*
X169216197Y-81589415D01*
X169306884Y-81649320D01*
X169387096Y-81745693D01*
X169396789Y-81759828D01*
X169460962Y-81902816D01*
X169466655Y-82042522D01*
X169421844Y-82170905D01*
X169334508Y-82279924D01*
X169212622Y-82361537D01*
X169064163Y-82407703D01*
X168897109Y-82410382D01*
X168778001Y-82383600D01*
X168723892Y-82368093D01*
X168679995Y-82367509D01*
X168632580Y-82388426D01*
X168567914Y-82437416D01*
X168472265Y-82521057D01*
X168450634Y-82540357D01*
X168234466Y-82733331D01*
X168234466Y-83211276D01*
X168234466Y-83689221D01*
X167918284Y-83979088D01*
X167602102Y-84268954D01*
X167593284Y-85213357D01*
X167584466Y-86157760D01*
X166442800Y-86165661D01*
X165301133Y-86173561D01*
X165301133Y-86293618D01*
X165301133Y-86413675D01*
X166576133Y-86405812D01*
X167851133Y-86397950D01*
X167859905Y-85387760D01*
X167868678Y-84377571D01*
X168217342Y-84066720D01*
X168566005Y-83755869D01*
X168514159Y-83620763D01*
X168485052Y-83468695D01*
X168492965Y-83427249D01*
X168648592Y-83427249D01*
X168651311Y-83549835D01*
X168704962Y-83651256D01*
X168795884Y-83725216D01*
X168910416Y-83765419D01*
X169034901Y-83765569D01*
X169155676Y-83719369D01*
X169203697Y-83683120D01*
X169283438Y-83575574D01*
X169306436Y-83459106D01*
X169276140Y-83347730D01*
X169196001Y-83255457D01*
X169084886Y-83200557D01*
X168940413Y-83185229D01*
X168810199Y-83221486D01*
X168708737Y-83301795D01*
X168650522Y-83418626D01*
X168648592Y-83427249D01*
X168492965Y-83427249D01*
X168511440Y-83330485D01*
X168583079Y-83211972D01*
X168689727Y-83118994D01*
X168821141Y-83057390D01*
X168967079Y-83032999D01*
X169117299Y-83051658D01*
X169261557Y-83119207D01*
X169317256Y-83162977D01*
X169422334Y-83291694D01*
X169469196Y-83427104D01*
X169464167Y-83560854D01*
X169413569Y-83684590D01*
X169323727Y-83789961D01*
X169200965Y-83868614D01*
X169051607Y-83912195D01*
X168881977Y-83912352D01*
X168769157Y-83886903D01*
X168725071Y-83874585D01*
X168686750Y-83873018D01*
X168644589Y-83888028D01*
X168588981Y-83925440D01*
X168510323Y-83991078D01*
X168399009Y-84090767D01*
X168330849Y-84152704D01*
X168001133Y-84452601D01*
X168001133Y-85489616D01*
X168000856Y-85769195D01*
X167999831Y-85994571D01*
X167997766Y-86171585D01*
X167994368Y-86306080D01*
X167989347Y-86403898D01*
X167982410Y-86470882D01*
X167973265Y-86512875D01*
X167961620Y-86535717D01*
X167948407Y-86544856D01*
X167904274Y-86548901D01*
X167801022Y-86552634D01*
X167646196Y-86555954D01*
X167447342Y-86558758D01*
X167212007Y-86560945D01*
X166947736Y-86562412D01*
X166662077Y-86563058D01*
X166598407Y-86563080D01*
X165301133Y-86563080D01*
X165301133Y-86668162D01*
X165301133Y-86773245D01*
X166784466Y-86773245D01*
X168267800Y-86773245D01*
X168267800Y-85864774D01*
X168267799Y-84956303D01*
X169001133Y-84296295D01*
X169734466Y-83636286D01*
X169734466Y-83166266D01*
X169734466Y-82696246D01*
X169983777Y-82475466D01*
X170233088Y-82254687D01*
X170181034Y-82119581D01*
X170151933Y-81961918D01*
X170157487Y-81936692D01*
X170318547Y-81936692D01*
X170331613Y-82066385D01*
X170334605Y-82074924D01*
X170404890Y-82184636D01*
X170510303Y-82252234D01*
X170635286Y-82274609D01*
X170764282Y-82248656D01*
X170870364Y-82181938D01*
X170946279Y-82078461D01*
X170967687Y-81966280D01*
X170941579Y-81857699D01*
X170874945Y-81765021D01*
X170774775Y-81700550D01*
X170648061Y-81676588D01*
X170586287Y-81681949D01*
X170454245Y-81731420D01*
X170362212Y-81820685D01*
X170318547Y-81936692D01*
X170157487Y-81936692D01*
X170184297Y-81814935D01*
X170272933Y-81688285D01*
X170412649Y-81591620D01*
X170479843Y-81564138D01*
X170644547Y-81535062D01*
X170798368Y-81556972D01*
X170932998Y-81620854D01*
X171040130Y-81717691D01*
X171111456Y-81838467D01*
X171138670Y-81974168D01*
X171113463Y-82115777D01*
X171067980Y-82202420D01*
X170951766Y-82325989D01*
X170806619Y-82395491D01*
X170631677Y-82411325D01*
X170617800Y-82410396D01*
X170508274Y-82398612D01*
X170420021Y-82383238D01*
X170393392Y-82375694D01*
X170349481Y-82376625D01*
X170284313Y-82410262D01*
X170189419Y-82481716D01*
X170118392Y-82541663D01*
X169901133Y-82729572D01*
X169901133Y-83211169D01*
X169901133Y-83692767D01*
X169168285Y-84355234D01*
X168435438Y-85017702D01*
X168426619Y-85963027D01*
X168417800Y-86908351D01*
X166859466Y-86916154D01*
X165301133Y-86923957D01*
X165301133Y-87044030D01*
X165301133Y-87164103D01*
X166992800Y-87156322D01*
X168684466Y-87148541D01*
X168701133Y-86135995D01*
X168717800Y-85123449D01*
X169474968Y-84439300D01*
X170232136Y-83755151D01*
X170182381Y-83625075D01*
X170152662Y-83471524D01*
X170160904Y-83426441D01*
X170316170Y-83426441D01*
X170323782Y-83547294D01*
X170334329Y-83576899D01*
X170410336Y-83686289D01*
X170519982Y-83752682D01*
X170647352Y-83772928D01*
X170776534Y-83743870D01*
X170870364Y-83683120D01*
X170945196Y-83592085D01*
X170967795Y-83492032D01*
X170967800Y-83490422D01*
X170958812Y-83381106D01*
X170922849Y-83307663D01*
X170846405Y-83247154D01*
X170813262Y-83227930D01*
X170682465Y-83184404D01*
X170555364Y-83191231D01*
X170443953Y-83239671D01*
X170360224Y-83320987D01*
X170316170Y-83426441D01*
X170160904Y-83426441D01*
X170178157Y-83332071D01*
X170248774Y-83212535D01*
X170354421Y-83118733D01*
X170485007Y-83056485D01*
X170630439Y-83031606D01*
X170780626Y-83049917D01*
X170925477Y-83117234D01*
X170983923Y-83162977D01*
X171088883Y-83291624D01*
X171135663Y-83427046D01*
X171130587Y-83560862D01*
X171079983Y-83684692D01*
X170990178Y-83790156D01*
X170867499Y-83868874D01*
X170718272Y-83912466D01*
X170548824Y-83912551D01*
X170437079Y-83887297D01*
X170329743Y-83853595D01*
X169590438Y-84521639D01*
X168851133Y-85189683D01*
X168834466Y-86244171D01*
X168817800Y-87298659D01*
X167059466Y-87306430D01*
X165301133Y-87314201D01*
X165301133Y-87419019D01*
X165301133Y-87523836D01*
X166803324Y-87523836D01*
X167205384Y-87524545D01*
X167551117Y-87526649D01*
X167838738Y-87530112D01*
X168066463Y-87534899D01*
X168232507Y-87540975D01*
X168335084Y-87548303D01*
X168369991Y-87554916D01*
X168391181Y-87568362D01*
X168407150Y-87590704D01*
X168418632Y-87629723D01*
X168426362Y-87693200D01*
X168431073Y-87788915D01*
X168433501Y-87924649D01*
X168434378Y-88108182D01*
X168434466Y-88238148D01*
X168434466Y-88890300D01*
X169393377Y-89753614D01*
X170352287Y-90616929D01*
X170487680Y-90569026D01*
X170652444Y-90540320D01*
X170812618Y-90570528D01*
X170963400Y-90658516D01*
X170999472Y-90689787D01*
X171072789Y-90770006D01*
X171110610Y-90852548D01*
X171126271Y-90953074D01*
X171128858Y-91062413D01*
X171108034Y-91142808D01*
X171061771Y-91216744D01*
X170941193Y-91333304D01*
X170799422Y-91401451D01*
X170648091Y-91424268D01*
X170498828Y-91404839D01*
X170363265Y-91346249D01*
X170253033Y-91251581D01*
X170179761Y-91123919D01*
X170154979Y-90976304D01*
X170158042Y-90943784D01*
X170318547Y-90943784D01*
X170331613Y-91073477D01*
X170334605Y-91082016D01*
X170404890Y-91191728D01*
X170510303Y-91259326D01*
X170635286Y-91281702D01*
X170764282Y-91255748D01*
X170870364Y-91189030D01*
X170946279Y-91085553D01*
X170967687Y-90973373D01*
X170941579Y-90864791D01*
X170874945Y-90772113D01*
X170774775Y-90707642D01*
X170648061Y-90683681D01*
X170586287Y-90689042D01*
X170454245Y-90738512D01*
X170362212Y-90827778D01*
X170318547Y-90943784D01*
X170158042Y-90943784D01*
X170164070Y-90879778D01*
X170187051Y-90803103D01*
X170200397Y-90782199D01*
X170207484Y-90766351D01*
X170201668Y-90742787D01*
X170179059Y-90707624D01*
X170135768Y-90656978D01*
X170067903Y-90586967D01*
X169971575Y-90493708D01*
X169842893Y-90373316D01*
X169677968Y-90221908D01*
X169472909Y-90035602D01*
X169256808Y-89840277D01*
X168267800Y-88947647D01*
X168267800Y-88310801D01*
X168267800Y-87673954D01*
X166784466Y-87673954D01*
X165301133Y-87673954D01*
X165301133Y-87793708D01*
X165301133Y-87913462D01*
X166642800Y-87921309D01*
X167984466Y-87929155D01*
X168001133Y-88506492D01*
X168017800Y-89083828D01*
X168959466Y-89933829D01*
X169901133Y-90783831D01*
X169901133Y-91248788D01*
X169901133Y-91713744D01*
X170127984Y-91916506D01*
X170354836Y-92119268D01*
X170481438Y-92071623D01*
X170638181Y-92040678D01*
X170786891Y-92060703D01*
X170919237Y-92122623D01*
X171026889Y-92217362D01*
X171101517Y-92335842D01*
X171134791Y-92468989D01*
X171118381Y-92607726D01*
X171067980Y-92710694D01*
X170951304Y-92831654D01*
X170805732Y-92904873D01*
X170644803Y-92928926D01*
X170482055Y-92902386D01*
X170331025Y-92823826D01*
X170292766Y-92792390D01*
X170188888Y-92662285D01*
X170147824Y-92519568D01*
X170161900Y-92430841D01*
X170315988Y-92430841D01*
X170318341Y-92554950D01*
X170371633Y-92657593D01*
X170462282Y-92732415D01*
X170576706Y-92773063D01*
X170701323Y-92773181D01*
X170822552Y-92726415D01*
X170870364Y-92690212D01*
X170947776Y-92583590D01*
X170969113Y-92465687D01*
X170937608Y-92351597D01*
X170856496Y-92256411D01*
X170766822Y-92207159D01*
X170636267Y-92187977D01*
X170507604Y-92218085D01*
X170398900Y-92288517D01*
X170328223Y-92390309D01*
X170315988Y-92430841D01*
X170161900Y-92430841D01*
X170171367Y-92371171D01*
X170179037Y-92352349D01*
X170233970Y-92226388D01*
X169984218Y-91995227D01*
X169734466Y-91764065D01*
X169734466Y-91302556D01*
X169734466Y-90841046D01*
X168801133Y-90000786D01*
X167867800Y-89160527D01*
X167867800Y-88612394D01*
X167867800Y-88064262D01*
X166584466Y-88064262D01*
X165301133Y-88064262D01*
X165301133Y-88169344D01*
X165301133Y-88274427D01*
X166411133Y-88274427D01*
X166738588Y-88275060D01*
X167004020Y-88277056D01*
X167212059Y-88280559D01*
X167367334Y-88285714D01*
X167474476Y-88292668D01*
X167538114Y-88301564D01*
X167561133Y-88310455D01*
X167575805Y-88344839D01*
X167586883Y-88421059D01*
X167594620Y-88543452D01*
X167599270Y-88716353D01*
X167601087Y-88944100D01*
X167601133Y-88993835D01*
X167601133Y-89641185D01*
X168144316Y-90129762D01*
X168687500Y-90618338D01*
X168809912Y-90572269D01*
X168923681Y-90536440D01*
X169015388Y-90531264D01*
X169115415Y-90557876D01*
X169184472Y-90586250D01*
X169323762Y-90675851D01*
X169415463Y-90794373D01*
X169459328Y-90929615D01*
X169455107Y-91069375D01*
X169402555Y-91201451D01*
X169301423Y-91313643D01*
X169200468Y-91374321D01*
X169036551Y-91419881D01*
X168877477Y-91414075D01*
X168733091Y-91364545D01*
X168613236Y-91278932D01*
X168527758Y-91164874D01*
X168486499Y-91030014D01*
X168494879Y-90933160D01*
X168648592Y-90933160D01*
X168651311Y-91055745D01*
X168704962Y-91157166D01*
X168795884Y-91231126D01*
X168910416Y-91271329D01*
X169034901Y-91271479D01*
X169155676Y-91225279D01*
X169203697Y-91189030D01*
X169283410Y-91080325D01*
X169298822Y-90957524D01*
X169252705Y-90829175D01*
X169169816Y-90739942D01*
X169059991Y-90694484D01*
X168938589Y-90690157D01*
X168820965Y-90724318D01*
X168722476Y-90794323D01*
X168658479Y-90897530D01*
X168648592Y-90933160D01*
X168494879Y-90933160D01*
X168499306Y-90881991D01*
X168513240Y-90840936D01*
X168560567Y-90721354D01*
X167997517Y-90209007D01*
X167434466Y-89696660D01*
X167434466Y-89060603D01*
X167434466Y-88424545D01*
X166367800Y-88424545D01*
X165301133Y-88424545D01*
X165301133Y-88544165D01*
X165301133Y-88663785D01*
X166226133Y-88671765D01*
X167151133Y-88679746D01*
X167167800Y-89256558D01*
X167184466Y-89833369D01*
X167709466Y-90309504D01*
X168234466Y-90785638D01*
X168234466Y-91249691D01*
X168234466Y-91713744D01*
X168460493Y-91915769D01*
X168686519Y-92117793D01*
X168821463Y-92070049D01*
X168931486Y-92040597D01*
X169029168Y-92042926D01*
X169087103Y-92055386D01*
X169248887Y-92122602D01*
X169367441Y-92224274D01*
X169440844Y-92349210D01*
X169467181Y-92486221D01*
X169444531Y-92624117D01*
X169370978Y-92751707D01*
X169244602Y-92857802D01*
X169226438Y-92868206D01*
X169075793Y-92918229D01*
X168912376Y-92919431D01*
X168754643Y-92876041D01*
X168621053Y-92792290D01*
X168553056Y-92713883D01*
X168510522Y-92614789D01*
X168490546Y-92497469D01*
X168490980Y-92483830D01*
X168634591Y-92483830D01*
X168663125Y-92600225D01*
X168739079Y-92690942D01*
X168847050Y-92750396D01*
X168971631Y-92772999D01*
X169097421Y-92753166D01*
X169203697Y-92690212D01*
X169278698Y-92585338D01*
X169303376Y-92463440D01*
X169275251Y-92345189D01*
X169249927Y-92305155D01*
X169163552Y-92239060D01*
X169042958Y-92198865D01*
X168917404Y-92192118D01*
X168859481Y-92204464D01*
X168777258Y-92255314D01*
X168700095Y-92338014D01*
X168647091Y-92428840D01*
X168634591Y-92483830D01*
X168490980Y-92483830D01*
X168494142Y-92384502D01*
X168522325Y-92298471D01*
X168533716Y-92283397D01*
X168548860Y-92257003D01*
X168541728Y-92224267D01*
X168505756Y-92176416D01*
X168434377Y-92104678D01*
X168323460Y-92002487D01*
X168067800Y-91770853D01*
X168067800Y-91306492D01*
X168067800Y-90842131D01*
X167548532Y-90373736D01*
X167029264Y-89905340D01*
X167032873Y-89360097D01*
X167036481Y-88814853D01*
X166168807Y-88814853D01*
X165301133Y-88814853D01*
X165301133Y-88919935D01*
X165301133Y-89025018D01*
X165994466Y-89025018D01*
X166255021Y-89026263D01*
X166453737Y-89030156D01*
X166595391Y-89036930D01*
X166684755Y-89046820D01*
X166726606Y-89060061D01*
X166727799Y-89061047D01*
X166742459Y-89095400D01*
X166753531Y-89171559D01*
X166761268Y-89293862D01*
X166765923Y-89466647D01*
X166767751Y-89694250D01*
X166767800Y-89745497D01*
X166767800Y-90393919D01*
X166899647Y-90509882D01*
X166978555Y-90575189D01*
X167028969Y-90602201D01*
X167066845Y-90597380D01*
X167085787Y-90585260D01*
X167169209Y-90554209D01*
X167289055Y-90545438D01*
X167420265Y-90558017D01*
X167537777Y-90591016D01*
X167563310Y-90602991D01*
X167684257Y-90698850D01*
X167763607Y-90827833D01*
X167796665Y-90973315D01*
X167778734Y-91118671D01*
X167734646Y-91209512D01*
X167617976Y-91330457D01*
X167472398Y-91403677D01*
X167311464Y-91427743D01*
X167148725Y-91401224D01*
X166997734Y-91322690D01*
X166959549Y-91291313D01*
X166859152Y-91161015D01*
X166818922Y-91011257D01*
X166828638Y-90943820D01*
X166985263Y-90943820D01*
X166998357Y-91073674D01*
X167001421Y-91082425D01*
X167070510Y-91187075D01*
X167176321Y-91252744D01*
X167301893Y-91276055D01*
X167430268Y-91253634D01*
X167537030Y-91189030D01*
X167612945Y-91085553D01*
X167634353Y-90973373D01*
X167608245Y-90864791D01*
X167541611Y-90772113D01*
X167441442Y-90707642D01*
X167314728Y-90683681D01*
X167252954Y-90689042D01*
X167120871Y-90738507D01*
X167028870Y-90827765D01*
X166985263Y-90943820D01*
X166828638Y-90943820D01*
X166841692Y-90853215D01*
X166845744Y-90842063D01*
X166894556Y-90713031D01*
X166747844Y-90583341D01*
X166601133Y-90453651D01*
X166601133Y-89814393D01*
X166601133Y-89175136D01*
X165951133Y-89175136D01*
X165301133Y-89175136D01*
X165301133Y-89294449D01*
X165301133Y-89413761D01*
X165809466Y-89422049D01*
X166317800Y-89430337D01*
X166326693Y-90180928D01*
X166335587Y-90931519D01*
X166742860Y-91299309D01*
X167150132Y-91667099D01*
X167351096Y-91667099D01*
X167552059Y-91667099D01*
X167993263Y-92065314D01*
X168434466Y-92463530D01*
X168434466Y-92929907D01*
X168434466Y-93396283D01*
X168566314Y-93512246D01*
X168645221Y-93577553D01*
X168695636Y-93604565D01*
X168733512Y-93599744D01*
X168752453Y-93587624D01*
X168817534Y-93563026D01*
X168917893Y-93548610D01*
X168962944Y-93547040D01*
X169135050Y-93572051D01*
X169274741Y-93640052D01*
X169378635Y-93740491D01*
X169443352Y-93862820D01*
X169465512Y-93996488D01*
X169441735Y-94130946D01*
X169368641Y-94255644D01*
X169242848Y-94360031D01*
X169226438Y-94369388D01*
X169075055Y-94422537D01*
X168921994Y-94425357D01*
X168777367Y-94385376D01*
X168651291Y-94310122D01*
X168553879Y-94207121D01*
X168495246Y-94083902D01*
X168491277Y-94028515D01*
X168653200Y-94028515D01*
X168668873Y-94086931D01*
X168738736Y-94195241D01*
X168843958Y-94261896D01*
X168968817Y-94283825D01*
X169097589Y-94257957D01*
X169203697Y-94191394D01*
X169278815Y-94087249D01*
X169299835Y-93971335D01*
X169270511Y-93858984D01*
X169194599Y-93765527D01*
X169085569Y-93709034D01*
X168940102Y-93692222D01*
X168813531Y-93725377D01*
X168716457Y-93798887D01*
X168659480Y-93903137D01*
X168653200Y-94028515D01*
X168491277Y-94028515D01*
X168485507Y-93947992D01*
X168516824Y-93841284D01*
X168569629Y-93727453D01*
X168418714Y-93589448D01*
X168267800Y-93451443D01*
X168267800Y-92987558D01*
X168267800Y-92523674D01*
X167876654Y-92170445D01*
X167485508Y-91817217D01*
X167287751Y-91817217D01*
X167089994Y-91817217D01*
X166645564Y-91420836D01*
X166201133Y-91024455D01*
X166201133Y-90294949D01*
X166201133Y-89565444D01*
X165726471Y-89565444D01*
X165251809Y-89565444D01*
X164659804Y-90098050D01*
X164067799Y-90630657D01*
X164067800Y-91055767D01*
X164067800Y-91480878D01*
X164521555Y-91485248D01*
X164975310Y-91489619D01*
X165101671Y-91369975D01*
X165228032Y-91250332D01*
X165179695Y-91123965D01*
X165151675Y-90967480D01*
X165158240Y-90938926D01*
X165317707Y-90938926D01*
X165326680Y-91062033D01*
X165334329Y-91082809D01*
X165410336Y-91192199D01*
X165519982Y-91258593D01*
X165647352Y-91278838D01*
X165776534Y-91249780D01*
X165870364Y-91189030D01*
X165946279Y-91085553D01*
X165967687Y-90973373D01*
X165941579Y-90864791D01*
X165874945Y-90772113D01*
X165774775Y-90707642D01*
X165648061Y-90683681D01*
X165586287Y-90689042D01*
X165456775Y-90737952D01*
X165364161Y-90826073D01*
X165317707Y-90938926D01*
X165158240Y-90938926D01*
X165185342Y-90821047D01*
X165275715Y-90694514D01*
X165417815Y-90597730D01*
X165453667Y-90582145D01*
X165618861Y-90542317D01*
X165769497Y-90553004D01*
X165900586Y-90605297D01*
X166007139Y-90690285D01*
X166084169Y-90799057D01*
X166126685Y-90922704D01*
X166129701Y-91052316D01*
X166088226Y-91178982D01*
X165997273Y-91293792D01*
X165893104Y-91367024D01*
X165737003Y-91418684D01*
X165560081Y-91418030D01*
X165444984Y-91390795D01*
X165381415Y-91373393D01*
X165332616Y-91376396D01*
X165279067Y-91406935D01*
X165201253Y-91472141D01*
X165186380Y-91485265D01*
X165038658Y-91615848D01*
X164496979Y-91609742D01*
X164312865Y-91606799D01*
X164152182Y-91602589D01*
X164026749Y-91597551D01*
X163948387Y-91592126D01*
X163928216Y-91588560D01*
X163918741Y-91554791D01*
X163910712Y-91471847D01*
X163904764Y-91350599D01*
X163901533Y-91201914D01*
X163901133Y-91124901D01*
X163901133Y-90676318D01*
X163767800Y-90676318D01*
X163634466Y-90676318D01*
X163634466Y-91261779D01*
X163634466Y-91847240D01*
X164405066Y-91847240D01*
X165175665Y-91847240D01*
X165289559Y-91757169D01*
X165403453Y-91667099D01*
X165959889Y-91667099D01*
X166516325Y-91667099D01*
X166773493Y-91897374D01*
X166888664Y-91998743D01*
X166967749Y-92062412D01*
X167020490Y-92094296D01*
X167056623Y-92100308D01*
X167085370Y-92086754D01*
X167150730Y-92061961D01*
X167251275Y-92047436D01*
X167296277Y-92045858D01*
X167469053Y-92070827D01*
X167609204Y-92138722D01*
X167713361Y-92239030D01*
X167778156Y-92361236D01*
X167800219Y-92494827D01*
X167776181Y-92629289D01*
X167702675Y-92754106D01*
X167576329Y-92858765D01*
X167559771Y-92868206D01*
X167409165Y-92918209D01*
X167245753Y-92919423D01*
X167088023Y-92876081D01*
X166954466Y-92792415D01*
X166886545Y-92714120D01*
X166845549Y-92617289D01*
X166832909Y-92541285D01*
X166985329Y-92541285D01*
X166985843Y-92543429D01*
X167043488Y-92660005D01*
X167140671Y-92739147D01*
X167261718Y-92776680D01*
X167390954Y-92768430D01*
X167512708Y-92710224D01*
X167537030Y-92690212D01*
X167614757Y-92586801D01*
X167637873Y-92477555D01*
X167614533Y-92372805D01*
X167552889Y-92282882D01*
X167461093Y-92218115D01*
X167347298Y-92188836D01*
X167219656Y-92205374D01*
X167170178Y-92225355D01*
X167051364Y-92310289D01*
X166987908Y-92418775D01*
X166985329Y-92541285D01*
X166832909Y-92541285D01*
X166826176Y-92500796D01*
X166829318Y-92387359D01*
X166855863Y-92299695D01*
X166869563Y-92280669D01*
X166883258Y-92253320D01*
X166871703Y-92217495D01*
X166828220Y-92164083D01*
X166746128Y-92083975D01*
X166682638Y-92025722D01*
X166452921Y-91817217D01*
X165949930Y-91817217D01*
X165446939Y-91817217D01*
X165351133Y-91907288D01*
X165255327Y-91997359D01*
X164401563Y-91997359D01*
X164113952Y-91996447D01*
X163888125Y-91993581D01*
X163719231Y-91988565D01*
X163602416Y-91981203D01*
X163532827Y-91971301D01*
X163507799Y-91961330D01*
X163492847Y-91926277D01*
X163481632Y-91848709D01*
X163473894Y-91724324D01*
X163469372Y-91548822D01*
X163467805Y-91317903D01*
X163467800Y-91300810D01*
X163467800Y-90676318D01*
X163351133Y-90676318D01*
X163234466Y-90676318D01*
X163234466Y-91456933D01*
X163234466Y-92237548D01*
X164044896Y-92237548D01*
X164855327Y-92237548D01*
X164951133Y-92327619D01*
X165039966Y-92395950D01*
X165109755Y-92408836D01*
X165170475Y-92364889D01*
X165217800Y-92290563D01*
X165313358Y-92157912D01*
X165433986Y-92078357D01*
X165588128Y-92046846D01*
X165626673Y-92045858D01*
X165800226Y-92070729D01*
X165941124Y-92138379D01*
X166045985Y-92238365D01*
X166111425Y-92360242D01*
X166134060Y-92493568D01*
X166110507Y-92627898D01*
X166037381Y-92752788D01*
X165911299Y-92857796D01*
X165893104Y-92868206D01*
X165741733Y-92919466D01*
X165580445Y-92921641D01*
X165426251Y-92879196D01*
X165296159Y-92796599D01*
X165212668Y-92689538D01*
X165156990Y-92605132D01*
X165098016Y-92570654D01*
X165077293Y-92568582D01*
X165009279Y-92548967D01*
X164921487Y-92500162D01*
X164880145Y-92470231D01*
X164864945Y-92458203D01*
X165311452Y-92458203D01*
X165326648Y-92578788D01*
X165335292Y-92599627D01*
X165413281Y-92699672D01*
X165525816Y-92759438D01*
X165655183Y-92775925D01*
X165783666Y-92746135D01*
X165870364Y-92690212D01*
X165950652Y-92581663D01*
X165973400Y-92463374D01*
X165940868Y-92349652D01*
X165855316Y-92254805D01*
X165796095Y-92220190D01*
X165663435Y-92187010D01*
X165536935Y-92203859D01*
X165428301Y-92261100D01*
X165349238Y-92349095D01*
X165311452Y-92458203D01*
X164864945Y-92458203D01*
X164756836Y-92372654D01*
X163920651Y-92357642D01*
X163084466Y-92342630D01*
X163075606Y-91509474D01*
X163066745Y-90676318D01*
X162933939Y-90676318D01*
X162801133Y-90676318D01*
X162801133Y-91637075D01*
X162801133Y-92597831D01*
X163826791Y-92597831D01*
X164852450Y-92597831D01*
X165167800Y-92883056D01*
X165483149Y-93168281D01*
X165999737Y-93168281D01*
X166516325Y-93168281D01*
X166768843Y-93394392D01*
X167021361Y-93620503D01*
X167148033Y-93572831D01*
X167306826Y-93542236D01*
X167460875Y-93563882D01*
X167598717Y-93630265D01*
X167708893Y-93733884D01*
X167779941Y-93867237D01*
X167801008Y-94000240D01*
X167769675Y-94142331D01*
X167683938Y-94272196D01*
X167559771Y-94369388D01*
X167408692Y-94422397D01*
X167255771Y-94425218D01*
X167111144Y-94385363D01*
X166984946Y-94310347D01*
X166887312Y-94207681D01*
X166828377Y-94084879D01*
X166818276Y-93949455D01*
X166821841Y-93937257D01*
X166983588Y-93937257D01*
X166997544Y-94069210D01*
X166999543Y-94075409D01*
X167066332Y-94187743D01*
X167169158Y-94258478D01*
X167292704Y-94284312D01*
X167421654Y-94261938D01*
X167537030Y-94191394D01*
X167611834Y-94086853D01*
X167632831Y-93968939D01*
X167602609Y-93854060D01*
X167523754Y-93758627D01*
X167462965Y-93721466D01*
X167352205Y-93684373D01*
X167252309Y-93690767D01*
X167141969Y-93738856D01*
X167031689Y-93827236D01*
X166983588Y-93937257D01*
X166821841Y-93937257D01*
X166849441Y-93842828D01*
X166903147Y-93727053D01*
X166678034Y-93522726D01*
X166452921Y-93318399D01*
X165939024Y-93318399D01*
X165425128Y-93318399D01*
X165102814Y-93033174D01*
X164780501Y-92747950D01*
X163741990Y-92747950D01*
X163451273Y-92747795D01*
X163220105Y-92747074D01*
X163041368Y-92745402D01*
X162907945Y-92742393D01*
X162812717Y-92737662D01*
X162748567Y-92730824D01*
X162708377Y-92721494D01*
X162685030Y-92709287D01*
X162671407Y-92693817D01*
X162668972Y-92689876D01*
X162658672Y-92641730D01*
X162650046Y-92536859D01*
X162643203Y-92378570D01*
X162638255Y-92170169D01*
X162635311Y-91914962D01*
X162634466Y-91654060D01*
X162634466Y-90676318D01*
X162517800Y-90676318D01*
X162401133Y-90676318D01*
X162401133Y-91832229D01*
X162401133Y-92988139D01*
X163525589Y-92988139D01*
X164650044Y-92988139D01*
X165002231Y-93304373D01*
X165354418Y-93620607D01*
X165481228Y-93572883D01*
X165642991Y-93542054D01*
X165802036Y-93565846D01*
X165944717Y-93639644D01*
X166057384Y-93758834D01*
X166064658Y-93770137D01*
X166124570Y-93921566D01*
X166123272Y-94073900D01*
X166064245Y-94214973D01*
X165950972Y-94332623D01*
X165893104Y-94369388D01*
X165741800Y-94422417D01*
X165588837Y-94424982D01*
X165444329Y-94384651D01*
X165318390Y-94308992D01*
X165221136Y-94205574D01*
X165162681Y-94081965D01*
X165153797Y-93955130D01*
X165317822Y-93955130D01*
X165334755Y-94084789D01*
X165403843Y-94189439D01*
X165509654Y-94255108D01*
X165635227Y-94278419D01*
X165763601Y-94255999D01*
X165870364Y-94191394D01*
X165945285Y-94088696D01*
X165965808Y-93977059D01*
X165939181Y-93868692D01*
X165872651Y-93775806D01*
X165773466Y-93710612D01*
X165648874Y-93685319D01*
X165574187Y-93692431D01*
X165445824Y-93745359D01*
X165357606Y-93837453D01*
X165317822Y-93955130D01*
X165153797Y-93955130D01*
X165153139Y-93945734D01*
X165184481Y-93839149D01*
X165236859Y-93726239D01*
X164902167Y-93424742D01*
X164567475Y-93123245D01*
X163409304Y-93108233D01*
X162251133Y-93093221D01*
X162242421Y-91884770D01*
X162233710Y-90676318D01*
X162100755Y-90676318D01*
X161967800Y-90676318D01*
X161967800Y-92012370D01*
X161967800Y-93348422D01*
X162991104Y-93348422D01*
X164014408Y-93348422D01*
X164750391Y-94008942D01*
X165486374Y-94669463D01*
X165997581Y-94669463D01*
X166508789Y-94669463D01*
X166765432Y-94894416D01*
X167022076Y-95119370D01*
X167161922Y-95069892D01*
X167326926Y-95041212D01*
X167486599Y-95070928D01*
X167633242Y-95157425D01*
X167650472Y-95172328D01*
X167754121Y-95299791D01*
X167800112Y-95434263D01*
X167795253Y-95567452D01*
X167746353Y-95691070D01*
X167660220Y-95796825D01*
X167543662Y-95876429D01*
X167403487Y-95921590D01*
X167246505Y-95924019D01*
X167079524Y-95875426D01*
X167074805Y-95873266D01*
X166941601Y-95781255D01*
X166853794Y-95657131D01*
X166828108Y-95556826D01*
X166981977Y-95556826D01*
X166982804Y-95559886D01*
X167043536Y-95670026D01*
X167143937Y-95743998D01*
X167267403Y-95777826D01*
X167397328Y-95767535D01*
X167517106Y-95709150D01*
X167537030Y-95692576D01*
X167613562Y-95588473D01*
X167635001Y-95476045D01*
X167608402Y-95367524D01*
X167540820Y-95275146D01*
X167439310Y-95211142D01*
X167310927Y-95187747D01*
X167249067Y-95193244D01*
X167128545Y-95241064D01*
X167035521Y-95329078D01*
X166982498Y-95440071D01*
X166981977Y-95556826D01*
X166828108Y-95556826D01*
X166817470Y-95515282D01*
X166838714Y-95370100D01*
X166850250Y-95342267D01*
X166903147Y-95228236D01*
X166678034Y-95023908D01*
X166452921Y-94819581D01*
X165937056Y-94819581D01*
X165421191Y-94819581D01*
X164685208Y-94159061D01*
X163949225Y-93498541D01*
X162915179Y-93498541D01*
X162599126Y-93497844D01*
X162345012Y-93495648D01*
X162148127Y-93491796D01*
X162003758Y-93486129D01*
X161907196Y-93478489D01*
X161853730Y-93468718D01*
X161841133Y-93462512D01*
X161831060Y-93437453D01*
X161822650Y-93379477D01*
X161815797Y-93284823D01*
X161810395Y-93149729D01*
X161806335Y-92970435D01*
X161803513Y-92743179D01*
X161801821Y-92464201D01*
X161801153Y-92129738D01*
X161801133Y-92051401D01*
X161801133Y-90676318D01*
X161684466Y-90676318D01*
X161567800Y-90676318D01*
X161567800Y-92207524D01*
X161567800Y-93738730D01*
X162692539Y-93738730D01*
X163817278Y-93738730D01*
X164590360Y-94434579D01*
X164803617Y-94626046D01*
X164975115Y-94778593D01*
X165109809Y-94896139D01*
X165212654Y-94982603D01*
X165288608Y-95041903D01*
X165342627Y-95077958D01*
X165379666Y-95094687D01*
X165404681Y-95096008D01*
X165418427Y-95089325D01*
X165505948Y-95056230D01*
X165629054Y-95048243D01*
X165763428Y-95064112D01*
X165884752Y-95102588D01*
X165908278Y-95114517D01*
X166033159Y-95215542D01*
X166107838Y-95343004D01*
X166132572Y-95484096D01*
X166107618Y-95626009D01*
X166033233Y-95755939D01*
X165909674Y-95861076D01*
X165893104Y-95870570D01*
X165740430Y-95924349D01*
X165586486Y-95927414D01*
X165441459Y-95887253D01*
X165315534Y-95811352D01*
X165218897Y-95707197D01*
X165161735Y-95582275D01*
X165154234Y-95444073D01*
X165156361Y-95436706D01*
X165315259Y-95436706D01*
X165317978Y-95559291D01*
X165371629Y-95660712D01*
X165462550Y-95734672D01*
X165577083Y-95774875D01*
X165701567Y-95775025D01*
X165822343Y-95728825D01*
X165870364Y-95692576D01*
X165947776Y-95585954D01*
X165969113Y-95468051D01*
X165937608Y-95353961D01*
X165856496Y-95258775D01*
X165766822Y-95209523D01*
X165633075Y-95188961D01*
X165503966Y-95219018D01*
X165396249Y-95291263D01*
X165326679Y-95397269D01*
X165315259Y-95436706D01*
X165156361Y-95436706D01*
X165181997Y-95347925D01*
X165235166Y-95226010D01*
X164477177Y-94542798D01*
X163719189Y-93859587D01*
X162568494Y-93851700D01*
X161417800Y-93843812D01*
X161409171Y-92260065D01*
X161400543Y-90676318D01*
X161267505Y-90676318D01*
X161134466Y-90676318D01*
X161134466Y-92051401D01*
X161134001Y-92398101D01*
X161132535Y-92688521D01*
X161129961Y-92926420D01*
X161126173Y-93115562D01*
X161121064Y-93259705D01*
X161114527Y-93362613D01*
X161106456Y-93428046D01*
X161096744Y-93459764D01*
X161094466Y-93462512D01*
X161056203Y-93475759D01*
X160971400Y-93485752D01*
X160835248Y-93492721D01*
X160642937Y-93496896D01*
X160389656Y-93498506D01*
X160338930Y-93498541D01*
X159623393Y-93498541D01*
X158675623Y-94354095D01*
X157727852Y-95209650D01*
X157764493Y-95304320D01*
X157797428Y-95464889D01*
X157775246Y-95613977D01*
X157706461Y-95743561D01*
X157599583Y-95845619D01*
X157463126Y-95912125D01*
X157305603Y-95935057D01*
X157135526Y-95906390D01*
X157128303Y-95903961D01*
X156989703Y-95827531D01*
X156890465Y-95715294D01*
X156833753Y-95580894D01*
X156822730Y-95437974D01*
X156824039Y-95433205D01*
X156982654Y-95433205D01*
X156985007Y-95557314D01*
X157038299Y-95659957D01*
X157128949Y-95734779D01*
X157243373Y-95775427D01*
X157367990Y-95775545D01*
X157489218Y-95728779D01*
X157537030Y-95692576D01*
X157616425Y-95584747D01*
X157638999Y-95466911D01*
X157607771Y-95353520D01*
X157525756Y-95259030D01*
X157436441Y-95210625D01*
X157304009Y-95190708D01*
X157174237Y-95220434D01*
X157065077Y-95290999D01*
X156994477Y-95393597D01*
X156982654Y-95433205D01*
X156824039Y-95433205D01*
X156860562Y-95300178D01*
X156950413Y-95181150D01*
X156958935Y-95173701D01*
X157111278Y-95081464D01*
X157280425Y-95045812D01*
X157457998Y-95068430D01*
X157467746Y-95071368D01*
X157617693Y-95117933D01*
X158601080Y-94233301D01*
X159584466Y-93348670D01*
X160276133Y-93348546D01*
X160967800Y-93348422D01*
X160967800Y-92012370D01*
X160967800Y-90676318D01*
X160851133Y-90676318D01*
X160734466Y-90676318D01*
X160734466Y-91844785D01*
X160733960Y-92105344D01*
X160732518Y-92348104D01*
X160730254Y-92566267D01*
X160727279Y-92753037D01*
X160723707Y-92901616D01*
X160719651Y-93005208D01*
X160715225Y-93057016D01*
X160714233Y-93060742D01*
X160699229Y-93077654D01*
X160664824Y-93090090D01*
X160602174Y-93098704D01*
X160502434Y-93104152D01*
X160356759Y-93107089D01*
X160156306Y-93108171D01*
X160073317Y-93108233D01*
X159452635Y-93108233D01*
X158500557Y-93963907D01*
X157548480Y-94819581D01*
X157015510Y-94819581D01*
X156482540Y-94819581D01*
X156270840Y-95011972D01*
X156170903Y-95104083D01*
X156110832Y-95166304D01*
X156083171Y-95211042D01*
X156080468Y-95250704D01*
X156095268Y-95297699D01*
X156096803Y-95301676D01*
X156130023Y-95461807D01*
X156108874Y-95610079D01*
X156042066Y-95739027D01*
X155938306Y-95841186D01*
X155806304Y-95909090D01*
X155654768Y-95935275D01*
X155492407Y-95912274D01*
X155417800Y-95883734D01*
X155281480Y-95790210D01*
X155192985Y-95666344D01*
X155154066Y-95525195D01*
X155154745Y-95517239D01*
X155315286Y-95517239D01*
X155334801Y-95587474D01*
X155410710Y-95696353D01*
X155520449Y-95762332D01*
X155647958Y-95782258D01*
X155777177Y-95752979D01*
X155870364Y-95692576D01*
X155950105Y-95585030D01*
X155973103Y-95468563D01*
X155942807Y-95357186D01*
X155862668Y-95264914D01*
X155751553Y-95210013D01*
X155609707Y-95194186D01*
X155484107Y-95227004D01*
X155385803Y-95298458D01*
X155325846Y-95398539D01*
X155315286Y-95517239D01*
X155154745Y-95517239D01*
X155166476Y-95379822D01*
X155231968Y-95243284D01*
X155319657Y-95152399D01*
X155470171Y-95068887D01*
X155636524Y-95043672D01*
X155805284Y-95072706D01*
X155949063Y-95117323D01*
X156197679Y-94893393D01*
X156446294Y-94669463D01*
X156965603Y-94669463D01*
X157484913Y-94669463D01*
X158417076Y-93829452D01*
X159349240Y-92989442D01*
X159950187Y-92981284D01*
X160551133Y-92973127D01*
X160559862Y-91824723D01*
X160568592Y-90676318D01*
X160435300Y-90676318D01*
X160302008Y-90676318D01*
X160293237Y-91704628D01*
X160284466Y-92732938D01*
X159534171Y-92740989D01*
X158783875Y-92749040D01*
X158252510Y-93228963D01*
X157721146Y-93708886D01*
X157761139Y-93808504D01*
X157798425Y-93973353D01*
X157777190Y-94127018D01*
X157734646Y-94211876D01*
X157617976Y-94332821D01*
X157472398Y-94406041D01*
X157311464Y-94430107D01*
X157148725Y-94403588D01*
X156997734Y-94325054D01*
X156959549Y-94293677D01*
X156860335Y-94167117D01*
X156818837Y-94028013D01*
X156826202Y-93946148D01*
X156985214Y-93946148D01*
X156998279Y-94075842D01*
X157001271Y-94084380D01*
X157071557Y-94194092D01*
X157176970Y-94261690D01*
X157301953Y-94284066D01*
X157430948Y-94258112D01*
X157537030Y-94191394D01*
X157612945Y-94087917D01*
X157634353Y-93975737D01*
X157608245Y-93867156D01*
X157541611Y-93774477D01*
X157441442Y-93710006D01*
X157314728Y-93686045D01*
X157252954Y-93691406D01*
X157120912Y-93740876D01*
X157028878Y-93830142D01*
X156985214Y-93946148D01*
X156826202Y-93946148D01*
X156831482Y-93887451D01*
X156894696Y-93756515D01*
X157004906Y-93646288D01*
X157158540Y-93567857D01*
X157197313Y-93556104D01*
X157299267Y-93539448D01*
X157402548Y-93551940D01*
X157466186Y-93569702D01*
X157614573Y-93615783D01*
X158181976Y-93106807D01*
X158749378Y-92597831D01*
X159441922Y-92597831D01*
X160134466Y-92597831D01*
X160134466Y-91637075D01*
X160134466Y-90676318D01*
X160017800Y-90676318D01*
X159901133Y-90676318D01*
X159901133Y-91469489D01*
X159900391Y-91683756D01*
X159898299Y-91879687D01*
X159895063Y-92048824D01*
X159890885Y-92182711D01*
X159885968Y-92272892D01*
X159880900Y-92310151D01*
X159865890Y-92327070D01*
X159831472Y-92339508D01*
X159768797Y-92348122D01*
X159669018Y-92353568D01*
X159523287Y-92356503D01*
X159322754Y-92357582D01*
X159240504Y-92357642D01*
X158620341Y-92357642D01*
X158083453Y-92838021D01*
X157546565Y-93318399D01*
X157015515Y-93319255D01*
X156484466Y-93320112D01*
X156268932Y-93513151D01*
X156167703Y-93604865D01*
X156106499Y-93666676D01*
X156077970Y-93710931D01*
X156074766Y-93749976D01*
X156089540Y-93796159D01*
X156093932Y-93807157D01*
X156131169Y-93975097D01*
X156107490Y-94130832D01*
X156025970Y-94265753D01*
X155893104Y-94369388D01*
X155739233Y-94421458D01*
X155577005Y-94421715D01*
X155421541Y-94374546D01*
X155287961Y-94284339D01*
X155197632Y-94167558D01*
X155151581Y-94021828D01*
X155320160Y-94021828D01*
X155347762Y-94111389D01*
X155425490Y-94210787D01*
X155536461Y-94267912D01*
X155663905Y-94280197D01*
X155791053Y-94245076D01*
X155870364Y-94191394D01*
X155945482Y-94087249D01*
X155966501Y-93971335D01*
X155937178Y-93858984D01*
X155861266Y-93765527D01*
X155752236Y-93709034D01*
X155607005Y-93692004D01*
X155481322Y-93724576D01*
X155385048Y-93796943D01*
X155328040Y-93899296D01*
X155320160Y-94021828D01*
X155151581Y-94021828D01*
X155150457Y-94018270D01*
X155165115Y-93873021D01*
X155237054Y-93741378D01*
X155361724Y-93632907D01*
X155479387Y-93575341D01*
X155578130Y-93541344D01*
X155648321Y-93531101D01*
X155722163Y-93543643D01*
X155794528Y-93565869D01*
X155949676Y-93616120D01*
X156199895Y-93392200D01*
X156450114Y-93168281D01*
X156966911Y-93168281D01*
X157483708Y-93168281D01*
X158003248Y-92701011D01*
X158522789Y-92233742D01*
X159120294Y-92228139D01*
X159717800Y-92222536D01*
X159726696Y-91449427D01*
X159735592Y-90676318D01*
X159601696Y-90676318D01*
X159467800Y-90676318D01*
X159467800Y-91318614D01*
X159467260Y-91533756D01*
X159465245Y-91696289D01*
X159461162Y-91813648D01*
X159454417Y-91893265D01*
X159444417Y-91942574D01*
X159430568Y-91969009D01*
X159415073Y-91979135D01*
X159367153Y-91984554D01*
X159263221Y-91989333D01*
X159113928Y-91993215D01*
X158929927Y-91995946D01*
X158721872Y-91997273D01*
X158652648Y-91997359D01*
X157942950Y-91997359D01*
X157837669Y-92108374D01*
X157770540Y-92194133D01*
X157751595Y-92256280D01*
X157754446Y-92265998D01*
X157770135Y-92322260D01*
X157784984Y-92412308D01*
X157790673Y-92462725D01*
X157776565Y-92622380D01*
X157707700Y-92755359D01*
X157592541Y-92854051D01*
X157439548Y-92910843D01*
X157282143Y-92920236D01*
X157111525Y-92888807D01*
X156981876Y-92815296D01*
X156880706Y-92692048D01*
X156864780Y-92664397D01*
X156817560Y-92517608D01*
X156826015Y-92430841D01*
X156982654Y-92430841D01*
X156985007Y-92554950D01*
X157038299Y-92657593D01*
X157128949Y-92732415D01*
X157243373Y-92773063D01*
X157367990Y-92773181D01*
X157489218Y-92726415D01*
X157537030Y-92690212D01*
X157614443Y-92583590D01*
X157635779Y-92465687D01*
X157604274Y-92351597D01*
X157523163Y-92256411D01*
X157433488Y-92207159D01*
X157302933Y-92187977D01*
X157174270Y-92218085D01*
X157065567Y-92288517D01*
X156994890Y-92390309D01*
X156982654Y-92430841D01*
X156826015Y-92430841D01*
X156831616Y-92373361D01*
X156902113Y-92241963D01*
X157024221Y-92133718D01*
X157140615Y-92076189D01*
X157238786Y-92043013D01*
X157311472Y-92034079D01*
X157392922Y-92048281D01*
X157455458Y-92066025D01*
X157615746Y-92113555D01*
X157765696Y-91980398D01*
X157915646Y-91847240D01*
X158608389Y-91847240D01*
X159301133Y-91847240D01*
X159301133Y-91261779D01*
X159301133Y-90676318D01*
X159185334Y-90676318D01*
X159069536Y-90676318D01*
X159060334Y-91134179D01*
X159051133Y-91592039D01*
X158193280Y-91607051D01*
X157335427Y-91622063D01*
X156951613Y-91966845D01*
X156567800Y-92311627D01*
X156567800Y-92506042D01*
X156567800Y-92700458D01*
X156124769Y-93099499D01*
X155681739Y-93498541D01*
X155161783Y-93498541D01*
X154641827Y-93498541D01*
X154514913Y-93600263D01*
X154387999Y-93701984D01*
X154432582Y-93823658D01*
X154463327Y-93988376D01*
X154436173Y-94139572D01*
X154357078Y-94267811D01*
X154232000Y-94363659D01*
X154066894Y-94417683D01*
X154056468Y-94419298D01*
X153903575Y-94423901D01*
X153770743Y-94383683D01*
X153653779Y-94307244D01*
X153537205Y-94183445D01*
X153485658Y-94047228D01*
X153494276Y-93947734D01*
X153652196Y-93947734D01*
X153663574Y-94071637D01*
X153667938Y-94084380D01*
X153738223Y-94194092D01*
X153843636Y-94261690D01*
X153968619Y-94284066D01*
X154097615Y-94258112D01*
X154203697Y-94191394D01*
X154281597Y-94084122D01*
X154301162Y-93965976D01*
X154264657Y-93851118D01*
X154174343Y-93753706D01*
X154129281Y-93725735D01*
X154001496Y-93686948D01*
X153878247Y-93698810D01*
X153771181Y-93752265D01*
X153691948Y-93838259D01*
X153652196Y-93947734D01*
X153494276Y-93947734D01*
X153498648Y-93897265D01*
X153500140Y-93892167D01*
X153575315Y-93738043D01*
X153690773Y-93625600D01*
X153836877Y-93559714D01*
X154003987Y-93545266D01*
X154135525Y-93570564D01*
X154284316Y-93616737D01*
X154435536Y-93482580D01*
X154586756Y-93348422D01*
X155101777Y-93348422D01*
X155616798Y-93348422D01*
X156008966Y-92996114D01*
X156401133Y-92643805D01*
X156401133Y-92450763D01*
X156401133Y-92257720D01*
X156823923Y-91872851D01*
X157246713Y-91487982D01*
X158065590Y-91479963D01*
X158884466Y-91471945D01*
X158893062Y-91051614D01*
X158901658Y-90631283D01*
X158306073Y-90098363D01*
X157710487Y-89565444D01*
X157239143Y-89565444D01*
X156767800Y-89565444D01*
X156767800Y-89979681D01*
X156767800Y-90393919D01*
X156894234Y-90505121D01*
X157020669Y-90616322D01*
X157155204Y-90568722D01*
X157319475Y-90540279D01*
X157479527Y-90570661D01*
X157630230Y-90658656D01*
X157666139Y-90689787D01*
X157757199Y-90813057D01*
X157798220Y-90956508D01*
X157786730Y-91101921D01*
X157736626Y-91209512D01*
X157620848Y-91328529D01*
X157482071Y-91399605D01*
X157331997Y-91425722D01*
X157182329Y-91409863D01*
X157044768Y-91355012D01*
X156931016Y-91264149D01*
X156852776Y-91140258D01*
X156821750Y-90986322D01*
X156821646Y-90976304D01*
X156824695Y-90943784D01*
X156985214Y-90943784D01*
X156998279Y-91073477D01*
X157001271Y-91082016D01*
X157071557Y-91191728D01*
X157176970Y-91259326D01*
X157301953Y-91281702D01*
X157430948Y-91255748D01*
X157537030Y-91189030D01*
X157612945Y-91085553D01*
X157634353Y-90973373D01*
X157608245Y-90864791D01*
X157541611Y-90772113D01*
X157441442Y-90707642D01*
X157314728Y-90683681D01*
X157252954Y-90689042D01*
X157120912Y-90738512D01*
X157028878Y-90827778D01*
X156985214Y-90943784D01*
X156824695Y-90943784D01*
X156830689Y-90879843D01*
X156853551Y-90803294D01*
X156866842Y-90782440D01*
X156885603Y-90750779D01*
X156875596Y-90714227D01*
X156829637Y-90660324D01*
X156756586Y-90591234D01*
X156601133Y-90449078D01*
X156601133Y-89979693D01*
X156602381Y-89814834D01*
X156605824Y-89668992D01*
X156611008Y-89553750D01*
X156617479Y-89480691D01*
X156621366Y-89462816D01*
X156638115Y-89444134D01*
X156676414Y-89430976D01*
X156746136Y-89422435D01*
X156857154Y-89417604D01*
X157019339Y-89415576D01*
X157138032Y-89415325D01*
X157634466Y-89415325D01*
X157634466Y-89294583D01*
X157634466Y-89173840D01*
X156992800Y-89181994D01*
X156351133Y-89190148D01*
X156344529Y-89872210D01*
X156337925Y-90554271D01*
X156452862Y-90678183D01*
X156567800Y-90802094D01*
X156567800Y-91264302D01*
X156567800Y-91726510D01*
X156395089Y-91899464D01*
X156299458Y-91992962D01*
X156209766Y-92076808D01*
X156144295Y-92133948D01*
X156140629Y-92136873D01*
X156087079Y-92187686D01*
X156077316Y-92237068D01*
X156096673Y-92298977D01*
X156132040Y-92466556D01*
X156108845Y-92622074D01*
X156030959Y-92755809D01*
X155902251Y-92858040D01*
X155867135Y-92875503D01*
X155703659Y-92922514D01*
X155550012Y-92918736D01*
X155412517Y-92872703D01*
X155297497Y-92792945D01*
X155211274Y-92687994D01*
X155160172Y-92566382D01*
X155153528Y-92477135D01*
X155309222Y-92477135D01*
X155325626Y-92581093D01*
X155391460Y-92675961D01*
X155460596Y-92725802D01*
X155600728Y-92774135D01*
X155737255Y-92765014D01*
X155859846Y-92699335D01*
X155870364Y-92690212D01*
X155950105Y-92582666D01*
X155973103Y-92466199D01*
X155942807Y-92354822D01*
X155862668Y-92262550D01*
X155751553Y-92207649D01*
X155613851Y-92191349D01*
X155494564Y-92221194D01*
X155399895Y-92286139D01*
X155336047Y-92375135D01*
X155309222Y-92477135D01*
X155153528Y-92477135D01*
X155150514Y-92436641D01*
X155188623Y-92307301D01*
X155280821Y-92186895D01*
X155327847Y-92147842D01*
X155480185Y-92065229D01*
X155640364Y-92041123D01*
X155806319Y-92070727D01*
X155951133Y-92115730D01*
X156176133Y-91914737D01*
X156401133Y-91713744D01*
X156401133Y-91279026D01*
X156401133Y-90844307D01*
X156301882Y-90752074D01*
X156202632Y-90659841D01*
X156200002Y-89867766D01*
X156199857Y-89617360D01*
X156201473Y-89421156D01*
X156205143Y-89273320D01*
X156211157Y-89168022D01*
X156219809Y-89099429D01*
X156231390Y-89061710D01*
X156240919Y-89050814D01*
X156286295Y-89043224D01*
X156387548Y-89036523D01*
X156533890Y-89031090D01*
X156714534Y-89027305D01*
X156918692Y-89025551D01*
X156959466Y-89025478D01*
X157634466Y-89025018D01*
X157634466Y-88919935D01*
X157634466Y-88814853D01*
X156784466Y-88814853D01*
X155934466Y-88814853D01*
X155934466Y-89534375D01*
X155934466Y-90253898D01*
X155834466Y-90356483D01*
X155773990Y-90427178D01*
X155738928Y-90484953D01*
X155735326Y-90500140D01*
X155763602Y-90537258D01*
X155833273Y-90580360D01*
X155862378Y-90593523D01*
X155987311Y-90675884D01*
X156080511Y-90797498D01*
X156129786Y-90940211D01*
X156134466Y-90998720D01*
X156104606Y-91142420D01*
X156023656Y-91262978D01*
X155904560Y-91353962D01*
X155760261Y-91408938D01*
X155603705Y-91421469D01*
X155447836Y-91385124D01*
X155401722Y-91362949D01*
X155288792Y-91290221D01*
X155218719Y-91210851D01*
X155170714Y-91100326D01*
X155165714Y-91084657D01*
X155154187Y-90948682D01*
X155316615Y-90948682D01*
X155330029Y-91071764D01*
X155334329Y-91082809D01*
X155410336Y-91192199D01*
X155519982Y-91258593D01*
X155647352Y-91278838D01*
X155776534Y-91249780D01*
X155870364Y-91189030D01*
X155945285Y-91086332D01*
X155965808Y-90974695D01*
X155939181Y-90866328D01*
X155872651Y-90773442D01*
X155773466Y-90708248D01*
X155648874Y-90682955D01*
X155574187Y-90690067D01*
X155448013Y-90742573D01*
X155359049Y-90833865D01*
X155316615Y-90948682D01*
X155154187Y-90948682D01*
X155153642Y-90942256D01*
X155197560Y-90801187D01*
X155288564Y-90676530D01*
X155417750Y-90583364D01*
X155476133Y-90558967D01*
X155549701Y-90513976D01*
X155567800Y-90457501D01*
X155591110Y-90392279D01*
X155649059Y-90318371D01*
X155667248Y-90301499D01*
X155766697Y-90215681D01*
X155775582Y-89447713D01*
X155784466Y-88679746D01*
X156709466Y-88671765D01*
X157634466Y-88663785D01*
X157634466Y-88543743D01*
X157634466Y-88423702D01*
X156576133Y-88431629D01*
X155517800Y-88439557D01*
X155508995Y-89356327D01*
X155500190Y-90273096D01*
X155200661Y-90541635D01*
X154901133Y-90810173D01*
X154901102Y-91276165D01*
X154901072Y-91742158D01*
X154645280Y-91977019D01*
X154533602Y-92080393D01*
X154461839Y-92151624D01*
X154423080Y-92201316D01*
X154410417Y-92240067D01*
X154416939Y-92278481D01*
X154428644Y-92309410D01*
X154463722Y-92470446D01*
X154442279Y-92618290D01*
X154373202Y-92745489D01*
X154265378Y-92844592D01*
X154127695Y-92908145D01*
X153969042Y-92928696D01*
X153798304Y-92898792D01*
X153748363Y-92879860D01*
X153619028Y-92794210D01*
X153532612Y-92674739D01*
X153491608Y-92535372D01*
X153492516Y-92516265D01*
X153647864Y-92516265D01*
X153652783Y-92544551D01*
X153710416Y-92660671D01*
X153807729Y-92739429D01*
X153928941Y-92776653D01*
X154058267Y-92768168D01*
X154179925Y-92709803D01*
X154203697Y-92690212D01*
X154280831Y-92587042D01*
X154303509Y-92477432D01*
X154279721Y-92372036D01*
X154217454Y-92281509D01*
X154124699Y-92216505D01*
X154009445Y-92187678D01*
X153879680Y-92205683D01*
X153849122Y-92217353D01*
X153735873Y-92293845D01*
X153665358Y-92399198D01*
X153647864Y-92516265D01*
X153492516Y-92516265D01*
X153498512Y-92390038D01*
X153555817Y-92252663D01*
X153621874Y-92173670D01*
X153763167Y-92080659D01*
X153926614Y-92043123D01*
X154105395Y-92062458D01*
X154130588Y-92069578D01*
X154284466Y-92116250D01*
X154509466Y-91910240D01*
X154734466Y-91704230D01*
X154734466Y-91232382D01*
X154734466Y-90760534D01*
X155051773Y-90465558D01*
X155369079Y-90170582D01*
X155366807Y-89247703D01*
X155366709Y-88975787D01*
X155368054Y-88758507D01*
X155371076Y-88590460D01*
X155376008Y-88466244D01*
X155383085Y-88380456D01*
X155392539Y-88327696D01*
X155404606Y-88302560D01*
X155407834Y-88300085D01*
X155450590Y-88294105D01*
X155551796Y-88288617D01*
X155703236Y-88283805D01*
X155896695Y-88279850D01*
X156123957Y-88276935D01*
X156376807Y-88275242D01*
X156542800Y-88274887D01*
X157634466Y-88274427D01*
X157634466Y-88169344D01*
X157634466Y-88064262D01*
X156367800Y-88064262D01*
X155101133Y-88064262D01*
X155101133Y-89062057D01*
X155101133Y-90059853D01*
X154745193Y-90381448D01*
X154389254Y-90703044D01*
X154433209Y-90823006D01*
X154463779Y-90986188D01*
X154437834Y-91135506D01*
X154362621Y-91262041D01*
X154245386Y-91356877D01*
X154093378Y-91411095D01*
X153948809Y-91419054D01*
X153776173Y-91383072D01*
X153641933Y-91307434D01*
X153547716Y-91202573D01*
X153495148Y-91078922D01*
X153486270Y-90952766D01*
X153651155Y-90952766D01*
X153668088Y-91082425D01*
X153737177Y-91187075D01*
X153842987Y-91252744D01*
X153968560Y-91276055D01*
X154096935Y-91253634D01*
X154203697Y-91189030D01*
X154278619Y-91086332D01*
X154299142Y-90974695D01*
X154272514Y-90866328D01*
X154205984Y-90773442D01*
X154106799Y-90708248D01*
X153982207Y-90682955D01*
X153907521Y-90690067D01*
X153779157Y-90742995D01*
X153690939Y-90835089D01*
X153651155Y-90952766D01*
X153486270Y-90952766D01*
X153485858Y-90946914D01*
X153521471Y-90816982D01*
X153603616Y-90699558D01*
X153733918Y-90605075D01*
X153816414Y-90570116D01*
X153913274Y-90540629D01*
X153987025Y-90534382D01*
X154072173Y-90550949D01*
X154125321Y-90566309D01*
X154284466Y-90614018D01*
X154601133Y-90329763D01*
X154917800Y-90045509D01*
X154934466Y-88987332D01*
X154951133Y-87929155D01*
X156292800Y-87921309D01*
X157634466Y-87913462D01*
X157634466Y-87793396D01*
X157634466Y-87673330D01*
X156159466Y-87681148D01*
X154684466Y-87688966D01*
X154675662Y-88605373D01*
X154666858Y-89521779D01*
X153950662Y-90166340D01*
X153234466Y-90810901D01*
X153234466Y-91272471D01*
X153234466Y-91734041D01*
X152978018Y-91971401D01*
X152866374Y-92075519D01*
X152794467Y-92147286D01*
X152755459Y-92197319D01*
X152742515Y-92236233D01*
X152748798Y-92274643D01*
X152761351Y-92307851D01*
X152797025Y-92469525D01*
X152776550Y-92617460D01*
X152708766Y-92744406D01*
X152602516Y-92843111D01*
X152466638Y-92906326D01*
X152309973Y-92926800D01*
X152141363Y-92897284D01*
X152074805Y-92870902D01*
X151940481Y-92780225D01*
X151856840Y-92663766D01*
X151821761Y-92532398D01*
X151829095Y-92445002D01*
X151985263Y-92445002D01*
X151998357Y-92574856D01*
X152001421Y-92583607D01*
X152070510Y-92688257D01*
X152176321Y-92753926D01*
X152301893Y-92777237D01*
X152430268Y-92754816D01*
X152537030Y-92690212D01*
X152612945Y-92586735D01*
X152634353Y-92474555D01*
X152608245Y-92365973D01*
X152541611Y-92273295D01*
X152441442Y-92208824D01*
X152314728Y-92184863D01*
X152252954Y-92190224D01*
X152120871Y-92239689D01*
X152028870Y-92328947D01*
X151985263Y-92445002D01*
X151829095Y-92445002D01*
X151833123Y-92396996D01*
X151888806Y-92268433D01*
X151986689Y-92157582D01*
X152124651Y-92075318D01*
X152236468Y-92041998D01*
X152322384Y-92040987D01*
X152432147Y-92059340D01*
X152470319Y-92069836D01*
X152616143Y-92115088D01*
X152841971Y-91910875D01*
X153067800Y-91706661D01*
X153067799Y-91230547D01*
X153067799Y-90754433D01*
X153801133Y-90091526D01*
X154534466Y-89428619D01*
X154534466Y-88494452D01*
X154534785Y-88230320D01*
X154535968Y-88020076D01*
X154538357Y-87857562D01*
X154542293Y-87736618D01*
X154548115Y-87651088D01*
X154556167Y-87594813D01*
X154566787Y-87561635D01*
X154580318Y-87545395D01*
X154587192Y-87542060D01*
X154630579Y-87538288D01*
X154733657Y-87534780D01*
X154889452Y-87531617D01*
X155090989Y-87528882D01*
X155331294Y-87526657D01*
X155603390Y-87525024D01*
X155900304Y-87524064D01*
X156137192Y-87523836D01*
X157634466Y-87523836D01*
X157634466Y-87418753D01*
X157634466Y-87313671D01*
X155951133Y-87313671D01*
X154267800Y-87313671D01*
X154267800Y-88313631D01*
X154267800Y-89313591D01*
X153497053Y-90007851D01*
X152726307Y-90702111D01*
X152763720Y-90798777D01*
X152798601Y-90960894D01*
X152779886Y-91114739D01*
X152734646Y-91209512D01*
X152617976Y-91330457D01*
X152472398Y-91403677D01*
X152311464Y-91427743D01*
X152148725Y-91401224D01*
X151997734Y-91322690D01*
X151959549Y-91291313D01*
X151860725Y-91166807D01*
X151818787Y-91032949D01*
X151824712Y-90938926D01*
X151984374Y-90938926D01*
X151993346Y-91062033D01*
X152000996Y-91082809D01*
X152077003Y-91192199D01*
X152186649Y-91258593D01*
X152314019Y-91278838D01*
X152443200Y-91249780D01*
X152537030Y-91189030D01*
X152612945Y-91085553D01*
X152634353Y-90973373D01*
X152608245Y-90864791D01*
X152541611Y-90772113D01*
X152441442Y-90707642D01*
X152314728Y-90683681D01*
X152252954Y-90689042D01*
X152123442Y-90737952D01*
X152030827Y-90826073D01*
X151984374Y-90938926D01*
X151824712Y-90938926D01*
X151827230Y-90898977D01*
X151879549Y-90774130D01*
X151969241Y-90667648D01*
X152089800Y-90588770D01*
X152234721Y-90546733D01*
X152397499Y-90550777D01*
X152468702Y-90568152D01*
X152617336Y-90614276D01*
X153358164Y-89947247D01*
X154098992Y-89280219D01*
X154108396Y-88229392D01*
X154117272Y-87237541D01*
X157801133Y-87237541D01*
X157801133Y-89458828D01*
X158392800Y-89992213D01*
X158984466Y-90525598D01*
X161467461Y-90525899D01*
X163950457Y-90526200D01*
X164542461Y-89993593D01*
X165134466Y-89460987D01*
X165134145Y-87223913D01*
X165133824Y-84986838D01*
X164539759Y-84453919D01*
X163945694Y-83920999D01*
X161482076Y-83920999D01*
X159018458Y-83920999D01*
X158409795Y-84468626D01*
X157801133Y-85016253D01*
X157801133Y-87237541D01*
X154117272Y-87237541D01*
X154117800Y-87178564D01*
X155876133Y-87170793D01*
X157634466Y-87163022D01*
X157634466Y-87043492D01*
X157634466Y-86923963D01*
X156092800Y-86916157D01*
X154551133Y-86908351D01*
X154534466Y-86240452D01*
X154517800Y-85572552D01*
X153567800Y-84715680D01*
X153323902Y-84496307D01*
X153122327Y-84316556D01*
X152958917Y-84173003D01*
X152829514Y-84062227D01*
X152729962Y-83980802D01*
X152656101Y-83925305D01*
X152603775Y-83892313D01*
X152568825Y-83878402D01*
X152551133Y-83878542D01*
X152475085Y-83894685D01*
X152371121Y-83909703D01*
X152346990Y-83912360D01*
X152182676Y-83902061D01*
X152037630Y-83843262D01*
X151921587Y-83746581D01*
X151844287Y-83622636D01*
X151815467Y-83482042D01*
X151824753Y-83427249D01*
X151981925Y-83427249D01*
X151984645Y-83549835D01*
X152038295Y-83651256D01*
X152129217Y-83725216D01*
X152243750Y-83765419D01*
X152368234Y-83765569D01*
X152489010Y-83719369D01*
X152537030Y-83683120D01*
X152614443Y-83576497D01*
X152635779Y-83458595D01*
X152604274Y-83344505D01*
X152523163Y-83249318D01*
X152433488Y-83200067D01*
X152299742Y-83179505D01*
X152170633Y-83209562D01*
X152062916Y-83281807D01*
X151993345Y-83387813D01*
X151981925Y-83427249D01*
X151824753Y-83427249D01*
X151836811Y-83356102D01*
X151896272Y-83234436D01*
X151983667Y-83147802D01*
X152117769Y-83077996D01*
X152127777Y-83073918D01*
X152288706Y-83037456D01*
X152442538Y-83052526D01*
X152580188Y-83110640D01*
X152692570Y-83203309D01*
X152770600Y-83322045D01*
X152805193Y-83458359D01*
X152787263Y-83603762D01*
X152761581Y-83666101D01*
X152753220Y-83686596D01*
X152752182Y-83708668D01*
X152762531Y-83736473D01*
X152788328Y-83774167D01*
X152833635Y-83825905D01*
X152902515Y-83895843D01*
X152999029Y-83988137D01*
X153127240Y-84106942D01*
X153291209Y-84256414D01*
X153494999Y-84440710D01*
X153694915Y-84620952D01*
X154667799Y-85497616D01*
X154667799Y-86135430D01*
X154667800Y-86773245D01*
X156151133Y-86773245D01*
X157634466Y-86773245D01*
X157634466Y-86668162D01*
X157634466Y-86563080D01*
X156348941Y-86563080D01*
X155984769Y-86562251D01*
X155673496Y-86559805D01*
X155417704Y-86555802D01*
X155219971Y-86550300D01*
X155082879Y-86543359D01*
X155009006Y-86535038D01*
X154998941Y-86532000D01*
X154976318Y-86517469D01*
X154959695Y-86493250D01*
X154948153Y-86450904D01*
X154940777Y-86381992D01*
X154936649Y-86278077D01*
X154934851Y-86130719D01*
X154934466Y-85938832D01*
X154934466Y-85376744D01*
X154001133Y-84536484D01*
X153067800Y-83696224D01*
X153067799Y-83229851D01*
X153067799Y-82763479D01*
X152835909Y-82556213D01*
X152728205Y-82461397D01*
X152654970Y-82403126D01*
X152604184Y-82374910D01*
X152563823Y-82370258D01*
X152521868Y-82382678D01*
X152517674Y-82384382D01*
X152362719Y-82417384D01*
X152194998Y-82402195D01*
X152069336Y-82356940D01*
X151934293Y-82258983D01*
X151851169Y-82136209D01*
X151818850Y-82000187D01*
X151828202Y-81926067D01*
X151981925Y-81926067D01*
X151984645Y-82048653D01*
X152038295Y-82150074D01*
X152129217Y-82224034D01*
X152243750Y-82264237D01*
X152368234Y-82264387D01*
X152489010Y-82218187D01*
X152537030Y-82181938D01*
X152616743Y-82073233D01*
X152632155Y-81950431D01*
X152586038Y-81822082D01*
X152503149Y-81732850D01*
X152393325Y-81687392D01*
X152271922Y-81683065D01*
X152154298Y-81717226D01*
X152055809Y-81787231D01*
X151991812Y-81890437D01*
X151981925Y-81926067D01*
X151828202Y-81926067D01*
X151836224Y-81862488D01*
X151902176Y-81734682D01*
X152015594Y-81628339D01*
X152145578Y-81564458D01*
X152257476Y-81534033D01*
X152351444Y-81533139D01*
X152421151Y-81547253D01*
X152549530Y-81589415D01*
X152640217Y-81649320D01*
X152720429Y-81745693D01*
X152730122Y-81759828D01*
X152787657Y-81894536D01*
X152796929Y-82041871D01*
X152762312Y-82163475D01*
X152748196Y-82199857D01*
X152751209Y-82235043D01*
X152778237Y-82278988D01*
X152836165Y-82341643D01*
X152931877Y-82432963D01*
X152978979Y-82476688D01*
X153234466Y-82713158D01*
X153234466Y-83173779D01*
X153234466Y-83634399D01*
X154167800Y-84476964D01*
X155101133Y-85319528D01*
X155101133Y-85866245D01*
X155101133Y-86412961D01*
X156367800Y-86412961D01*
X157634466Y-86412961D01*
X157634466Y-86292867D01*
X157634466Y-86172772D01*
X156519767Y-86172772D01*
X156253768Y-86172032D01*
X156009460Y-86169932D01*
X155794723Y-86166649D01*
X155617437Y-86162362D01*
X155485483Y-86157250D01*
X155406741Y-86151491D01*
X155387469Y-86147125D01*
X155382126Y-86110730D01*
X155377123Y-86023428D01*
X155372743Y-85894357D01*
X155369274Y-85732659D01*
X155367000Y-85547471D01*
X155366528Y-85476682D01*
X155363185Y-84831887D01*
X154817283Y-84340866D01*
X154642857Y-84184352D01*
X154508840Y-84065723D01*
X154408670Y-83980256D01*
X154335784Y-83923225D01*
X154283619Y-83889904D01*
X154245612Y-83875569D01*
X154215201Y-83875496D01*
X154185822Y-83884958D01*
X154184688Y-83885422D01*
X154023444Y-83921058D01*
X153857276Y-83905982D01*
X153705097Y-83844943D01*
X153585819Y-83742689D01*
X153578520Y-83733214D01*
X153499604Y-83589614D01*
X153484599Y-83450581D01*
X153492376Y-83427249D01*
X153648592Y-83427249D01*
X153651311Y-83549835D01*
X153704962Y-83651256D01*
X153795884Y-83725216D01*
X153910416Y-83765419D01*
X154034901Y-83765569D01*
X154155676Y-83719369D01*
X154203697Y-83683120D01*
X154281110Y-83576497D01*
X154302446Y-83458595D01*
X154270941Y-83344505D01*
X154189830Y-83249318D01*
X154100155Y-83200067D01*
X153966408Y-83179505D01*
X153837300Y-83209562D01*
X153729583Y-83281807D01*
X153660012Y-83387813D01*
X153648592Y-83427249D01*
X153492376Y-83427249D01*
X153532683Y-83306327D01*
X153541344Y-83290503D01*
X153647372Y-83160416D01*
X153784077Y-83076017D01*
X153938409Y-83038380D01*
X154097318Y-83048575D01*
X154247754Y-83107675D01*
X154376668Y-83216752D01*
X154380673Y-83221541D01*
X154435836Y-83327812D01*
X154461126Y-83460854D01*
X154453065Y-83592297D01*
X154433545Y-83652789D01*
X154390745Y-83745857D01*
X154945939Y-84246575D01*
X155501133Y-84747293D01*
X155501133Y-85384974D01*
X155501133Y-86022654D01*
X156567800Y-86022654D01*
X157634466Y-86022654D01*
X157634466Y-85917571D01*
X157634466Y-85812489D01*
X156741133Y-85812489D01*
X156447104Y-85811634D01*
X156214884Y-85808946D01*
X156039641Y-85804239D01*
X155916542Y-85797324D01*
X155840755Y-85788017D01*
X155807799Y-85776460D01*
X155791909Y-85739062D01*
X155780257Y-85656748D01*
X155772565Y-85525423D01*
X155768559Y-85340998D01*
X155767799Y-85183130D01*
X155767799Y-84625828D01*
X155251133Y-84161188D01*
X154734466Y-83696548D01*
X154734466Y-83230014D01*
X154734466Y-82763479D01*
X154502575Y-82556213D01*
X154394871Y-82461397D01*
X154321637Y-82403126D01*
X154270850Y-82374910D01*
X154230490Y-82370258D01*
X154188534Y-82382678D01*
X154184340Y-82384382D01*
X154025380Y-82420917D01*
X153868952Y-82407302D01*
X153725934Y-82351514D01*
X153607203Y-82261529D01*
X153523638Y-82145321D01*
X153486116Y-82010867D01*
X153493697Y-81941590D01*
X153649948Y-81941590D01*
X153663363Y-82064672D01*
X153667663Y-82075717D01*
X153743669Y-82185107D01*
X153853315Y-82251500D01*
X153980686Y-82271746D01*
X154109867Y-82242688D01*
X154203697Y-82181938D01*
X154278619Y-82079240D01*
X154299142Y-81967603D01*
X154272514Y-81859236D01*
X154205984Y-81766350D01*
X154106799Y-81701155D01*
X153982207Y-81675863D01*
X153907521Y-81682974D01*
X153781347Y-81735481D01*
X153692382Y-81826773D01*
X153649948Y-81941590D01*
X153493697Y-81941590D01*
X153500140Y-81882711D01*
X153576097Y-81727149D01*
X153692063Y-81615035D01*
X153838081Y-81550068D01*
X154004191Y-81535944D01*
X154180436Y-81576362D01*
X154245972Y-81605753D01*
X154353033Y-81692209D01*
X154427426Y-81815169D01*
X154463057Y-81956065D01*
X154453834Y-82096331D01*
X154428979Y-82163475D01*
X154414863Y-82199857D01*
X154417876Y-82235043D01*
X154444904Y-82278988D01*
X154502831Y-82341643D01*
X154598544Y-82432963D01*
X154645645Y-82476688D01*
X154901133Y-82713158D01*
X154901133Y-83173289D01*
X154901133Y-83633420D01*
X155417800Y-84102083D01*
X155934466Y-84570745D01*
X155934466Y-85116558D01*
X155934466Y-85662370D01*
X156784466Y-85662370D01*
X157634466Y-85662370D01*
X157634466Y-85542276D01*
X157634466Y-85422181D01*
X156936433Y-85422181D01*
X156715041Y-85420875D01*
X156524015Y-85417186D01*
X156372108Y-85411459D01*
X156268071Y-85404039D01*
X156220657Y-85395272D01*
X156218990Y-85393892D01*
X156213150Y-85356684D01*
X156207793Y-85268624D01*
X156203216Y-85138907D01*
X156199716Y-84976730D01*
X156197593Y-84791286D01*
X156197226Y-84721701D01*
X156194873Y-84077798D01*
X156065657Y-83964151D01*
X155987346Y-83899246D01*
X155934217Y-83871280D01*
X155886333Y-83872986D01*
X155850552Y-83885751D01*
X155690370Y-83922712D01*
X155533678Y-83908960D01*
X155390895Y-83852624D01*
X155272443Y-83761836D01*
X155188740Y-83644724D01*
X155150209Y-83509421D01*
X155159852Y-83427249D01*
X155315259Y-83427249D01*
X155317978Y-83549835D01*
X155371629Y-83651256D01*
X155462550Y-83725216D01*
X155577083Y-83765419D01*
X155701567Y-83765569D01*
X155822343Y-83719369D01*
X155870364Y-83683120D01*
X155950742Y-83574467D01*
X155973434Y-83456132D01*
X155940708Y-83342376D01*
X155854832Y-83247457D01*
X155795528Y-83212833D01*
X155661543Y-83180597D01*
X155529598Y-83199717D01*
X155416032Y-83262898D01*
X155337183Y-83362846D01*
X155315259Y-83427249D01*
X155159852Y-83427249D01*
X155167268Y-83364055D01*
X155170343Y-83355033D01*
X155250713Y-83213171D01*
X155369515Y-83110393D01*
X155513814Y-83049754D01*
X155670676Y-83034306D01*
X155827167Y-83067103D01*
X155970354Y-83151198D01*
X155983923Y-83162977D01*
X156087786Y-83294395D01*
X156134961Y-83443495D01*
X156122404Y-83596540D01*
X156095278Y-83665382D01*
X156077583Y-83712367D01*
X156085631Y-83753815D01*
X156127421Y-83805937D01*
X156197532Y-83872659D01*
X156338973Y-84002467D01*
X156335861Y-84637265D01*
X156332749Y-85272063D01*
X156983607Y-85272063D01*
X157634466Y-85272063D01*
X157634466Y-85166980D01*
X157634466Y-85061898D01*
X157157799Y-85061898D01*
X156935590Y-85059550D01*
X156776912Y-85052373D01*
X156678830Y-85040159D01*
X156641133Y-85025869D01*
X156637036Y-85016253D01*
X156627417Y-84993678D01*
X156616830Y-84921849D01*
X156609148Y-84806003D01*
X156604142Y-84641759D01*
X156601587Y-84424740D01*
X156601133Y-84252291D01*
X156601133Y-83514741D01*
X156208966Y-83162433D01*
X155816798Y-82810125D01*
X155619724Y-82810125D01*
X155422651Y-82810125D01*
X154975930Y-82410771D01*
X154529210Y-82011417D01*
X154532541Y-81546797D01*
X154535872Y-81082176D01*
X154402823Y-80965158D01*
X154323305Y-80898994D01*
X154269642Y-80869667D01*
X154222423Y-80869926D01*
X154183885Y-80883387D01*
X154036706Y-80915395D01*
X153872510Y-80906690D01*
X153749789Y-80871013D01*
X153618487Y-80785865D01*
X153533705Y-80670966D01*
X153494122Y-80538387D01*
X153494326Y-80531829D01*
X153651996Y-80531829D01*
X153652509Y-80533973D01*
X153710155Y-80650549D01*
X153807338Y-80729691D01*
X153928384Y-80767224D01*
X154057621Y-80758974D01*
X154179374Y-80700768D01*
X154203697Y-80680756D01*
X154281423Y-80577345D01*
X154304540Y-80468099D01*
X154281200Y-80363349D01*
X154219556Y-80273425D01*
X154127760Y-80208659D01*
X154013964Y-80179379D01*
X153886323Y-80195918D01*
X153836844Y-80215899D01*
X153718031Y-80300833D01*
X153654574Y-80409319D01*
X153651996Y-80531829D01*
X153494326Y-80531829D01*
X153498418Y-80400198D01*
X153545273Y-80268469D01*
X153633366Y-80155271D01*
X153761378Y-80072674D01*
X153839963Y-80046616D01*
X154008545Y-80032933D01*
X154163547Y-80069280D01*
X154296049Y-80146314D01*
X154397127Y-80254693D01*
X154457860Y-80385074D01*
X154469326Y-80528114D01*
X154428612Y-80663018D01*
X154410827Y-80710319D01*
X154419088Y-80751946D01*
X154461410Y-80804344D01*
X154528612Y-80868227D01*
X154667800Y-80995967D01*
X154667800Y-81460648D01*
X154667800Y-81925328D01*
X155076614Y-82292667D01*
X155485429Y-82660006D01*
X155684501Y-82660006D01*
X155883572Y-82660006D01*
X156325686Y-83057402D01*
X156767800Y-83454799D01*
X156767800Y-84183289D01*
X156767800Y-84911779D01*
X157226471Y-84911779D01*
X157685142Y-84911779D01*
X158293137Y-84363551D01*
X158901133Y-83815324D01*
X158901133Y-83402795D01*
X158901133Y-82990266D01*
X158433355Y-82990266D01*
X157965577Y-82990266D01*
X157847317Y-83096785D01*
X157777801Y-83163910D01*
X157749254Y-83211977D01*
X157753012Y-83262020D01*
X157765094Y-83296419D01*
X157798810Y-83456002D01*
X157779763Y-83608977D01*
X157734646Y-83703602D01*
X157617976Y-83824547D01*
X157472398Y-83897767D01*
X157311464Y-83921833D01*
X157148725Y-83895314D01*
X156997734Y-83816780D01*
X156959549Y-83785403D01*
X156860769Y-83660897D01*
X156818829Y-83526941D01*
X156822429Y-83469452D01*
X156979519Y-83469452D01*
X156996830Y-83577524D01*
X157057492Y-83668409D01*
X157149873Y-83734687D01*
X157262341Y-83768940D01*
X157383265Y-83763751D01*
X157501011Y-83711702D01*
X157537030Y-83683120D01*
X157615127Y-83576171D01*
X157636827Y-83458960D01*
X157606507Y-83345776D01*
X157528539Y-83250910D01*
X157407298Y-83188652D01*
X157383819Y-83182591D01*
X157267094Y-83184004D01*
X157147458Y-83229456D01*
X157048719Y-83307970D01*
X157017192Y-83351609D01*
X156979519Y-83469452D01*
X156822429Y-83469452D01*
X156827228Y-83392817D01*
X156879465Y-83267804D01*
X156969040Y-83161184D01*
X157089453Y-83082237D01*
X157234201Y-83040244D01*
X157396786Y-83044484D01*
X157466566Y-83061579D01*
X157613064Y-83107040D01*
X157765432Y-82973610D01*
X157917800Y-82840181D01*
X158458293Y-82840164D01*
X158660540Y-82840644D01*
X158806266Y-82842780D01*
X158905614Y-82847595D01*
X158968726Y-82856115D01*
X159005744Y-82869362D01*
X159026811Y-82888362D01*
X159033293Y-82898222D01*
X159046067Y-82948813D01*
X159056704Y-83046358D01*
X159064232Y-83177775D01*
X159067684Y-83329980D01*
X159067800Y-83363588D01*
X159067800Y-83770881D01*
X159184466Y-83770881D01*
X159301133Y-83770881D01*
X159301133Y-83184405D01*
X159301133Y-82597928D01*
X158544176Y-82601111D01*
X157787220Y-82604293D01*
X157660747Y-82707209D01*
X157534274Y-82810125D01*
X156997209Y-82810125D01*
X156460144Y-82810125D01*
X156198557Y-82580838D01*
X156083385Y-82480720D01*
X156004214Y-82416529D01*
X155949439Y-82382158D01*
X155907455Y-82371496D01*
X155866658Y-82378435D01*
X155835165Y-82389533D01*
X155703019Y-82413998D01*
X155551028Y-82406383D01*
X155411470Y-82369930D01*
X155355574Y-82341342D01*
X155262927Y-82255138D01*
X155190299Y-82140624D01*
X155149211Y-82020551D01*
X155149186Y-82019059D01*
X155319867Y-82019059D01*
X155335540Y-82077475D01*
X155405403Y-82185785D01*
X155510625Y-82252440D01*
X155635483Y-82274369D01*
X155764255Y-82248500D01*
X155870364Y-82181938D01*
X155945482Y-82077793D01*
X155966501Y-81961878D01*
X155937178Y-81849527D01*
X155861266Y-81756071D01*
X155752236Y-81699578D01*
X155606768Y-81682766D01*
X155480197Y-81715921D01*
X155383123Y-81789430D01*
X155326146Y-81893681D01*
X155319867Y-82019059D01*
X155149186Y-82019059D01*
X155147726Y-81930946D01*
X155212187Y-81770681D01*
X155327837Y-81645434D01*
X155453667Y-81575053D01*
X155626978Y-81535141D01*
X155791663Y-81552136D01*
X155937447Y-81622917D01*
X156054052Y-81744360D01*
X156064658Y-81760681D01*
X156125319Y-81906958D01*
X156123598Y-82058608D01*
X156096786Y-82147931D01*
X156081392Y-82194409D01*
X156081985Y-82233300D01*
X156105852Y-82276241D01*
X156160280Y-82334873D01*
X156252557Y-82420834D01*
X156287558Y-82452648D01*
X156516012Y-82660006D01*
X156998652Y-82660006D01*
X157481292Y-82660006D01*
X157583499Y-82570780D01*
X157685705Y-82481554D01*
X158543291Y-82478866D01*
X158776732Y-82478836D01*
X158988592Y-82480149D01*
X159169610Y-82482637D01*
X159310524Y-82486135D01*
X159402073Y-82490479D01*
X159434338Y-82494805D01*
X159446060Y-82531092D01*
X159455522Y-82622420D01*
X159462465Y-82763807D01*
X159466632Y-82950276D01*
X159467800Y-83142156D01*
X159467800Y-83770881D01*
X159601133Y-83770881D01*
X159734466Y-83770881D01*
X159734466Y-83005278D01*
X159734466Y-82239675D01*
X158924036Y-82239675D01*
X158113606Y-82239675D01*
X158017800Y-82149604D01*
X157928388Y-82080736D01*
X157857626Y-82066796D01*
X157795215Y-82108621D01*
X157751133Y-82171274D01*
X157643755Y-82297904D01*
X157508743Y-82379220D01*
X157358533Y-82416310D01*
X157205561Y-82410266D01*
X157062263Y-82362178D01*
X156941074Y-82273136D01*
X156854432Y-82144231D01*
X156834880Y-82090942D01*
X156820328Y-81940495D01*
X156821445Y-81936692D01*
X156985214Y-81936692D01*
X156998279Y-82066385D01*
X157001271Y-82074924D01*
X157071557Y-82184636D01*
X157176970Y-82252234D01*
X157301953Y-82274609D01*
X157430948Y-82248656D01*
X157537030Y-82181938D01*
X157612945Y-82078461D01*
X157634353Y-81966280D01*
X157608245Y-81857699D01*
X157541611Y-81765021D01*
X157441442Y-81700550D01*
X157314728Y-81676588D01*
X157252954Y-81681949D01*
X157120912Y-81731420D01*
X157028878Y-81820685D01*
X156985214Y-81936692D01*
X156821445Y-81936692D01*
X156861300Y-81800947D01*
X156947703Y-81681601D01*
X157069445Y-81591764D01*
X157216434Y-81540741D01*
X157378577Y-81537836D01*
X157425023Y-81546841D01*
X157570331Y-81607223D01*
X157693614Y-81704453D01*
X157773076Y-81821112D01*
X157775394Y-81826850D01*
X157821762Y-81892395D01*
X157886567Y-81909415D01*
X157959540Y-81928672D01*
X158048415Y-81976987D01*
X158079373Y-81999486D01*
X158193267Y-82089557D01*
X159007200Y-82089557D01*
X159288249Y-82090535D01*
X159507528Y-82093604D01*
X159669898Y-82098971D01*
X159780223Y-82106840D01*
X159843365Y-82117417D01*
X159861133Y-82125586D01*
X159874256Y-82156489D01*
X159884520Y-82225763D01*
X159892133Y-82337759D01*
X159897301Y-82496831D01*
X159900232Y-82707330D01*
X159901133Y-82966247D01*
X159901133Y-83770881D01*
X160017800Y-83770881D01*
X160134466Y-83770881D01*
X160134466Y-82810125D01*
X160134466Y-81849368D01*
X159108771Y-81849368D01*
X158083076Y-81849368D01*
X157784466Y-81579155D01*
X157485856Y-81308942D01*
X156973000Y-81308942D01*
X156460144Y-81308942D01*
X156197606Y-81078822D01*
X156081416Y-80978233D01*
X156001201Y-80914006D01*
X155945908Y-80879940D01*
X155904488Y-80869831D01*
X155865889Y-80877480D01*
X155849865Y-80883669D01*
X155696964Y-80916122D01*
X155528865Y-80901873D01*
X155408138Y-80861445D01*
X155273231Y-80769188D01*
X155187812Y-80647868D01*
X155152901Y-80509656D01*
X155157782Y-80467679D01*
X155309222Y-80467679D01*
X155325626Y-80571637D01*
X155391460Y-80666504D01*
X155460596Y-80716346D01*
X155600728Y-80764679D01*
X155737255Y-80755558D01*
X155859846Y-80689879D01*
X155870364Y-80680756D01*
X155950105Y-80573210D01*
X155973103Y-80456742D01*
X155942807Y-80345366D01*
X155862668Y-80253093D01*
X155751553Y-80198193D01*
X155613851Y-80181892D01*
X155494564Y-80211738D01*
X155399895Y-80276683D01*
X155336047Y-80365679D01*
X155309222Y-80467679D01*
X155157782Y-80467679D01*
X155169521Y-80366721D01*
X155238693Y-80231231D01*
X155346410Y-80125942D01*
X155493004Y-80054340D01*
X155653369Y-80033606D01*
X155811818Y-80060743D01*
X155952662Y-80132752D01*
X156060216Y-80246635D01*
X156070972Y-80264425D01*
X156124836Y-80412243D01*
X156127168Y-80563112D01*
X156095125Y-80663321D01*
X156080005Y-80701760D01*
X156083202Y-80737803D01*
X156111922Y-80782279D01*
X156173371Y-80846015D01*
X156274758Y-80939840D01*
X156285898Y-80949958D01*
X156516012Y-81158824D01*
X157031590Y-81158824D01*
X157547168Y-81158824D01*
X157867621Y-81442402D01*
X158188073Y-81725981D01*
X159215845Y-81728402D01*
X159471608Y-81729504D01*
X159706002Y-81731470D01*
X159910687Y-81734155D01*
X160077323Y-81737413D01*
X160197571Y-81741099D01*
X160263091Y-81745068D01*
X160272374Y-81746832D01*
X160279224Y-81779610D01*
X160285490Y-81865335D01*
X160290972Y-81996908D01*
X160295470Y-82167230D01*
X160298784Y-82369200D01*
X160300713Y-82595721D01*
X160301133Y-82766861D01*
X160301133Y-83770881D01*
X160434466Y-83770881D01*
X160567800Y-83770881D01*
X160567800Y-82629983D01*
X160567800Y-81489084D01*
X159443344Y-81489084D01*
X158318888Y-81489084D01*
X157962647Y-81169210D01*
X157606406Y-80849335D01*
X157503217Y-80887834D01*
X157371509Y-80912631D01*
X157220916Y-80905722D01*
X157082955Y-80870246D01*
X157024569Y-80840160D01*
X156901482Y-80724948D01*
X156833924Y-80589934D01*
X156820704Y-80446873D01*
X156828007Y-80421385D01*
X156982654Y-80421385D01*
X156985007Y-80545493D01*
X157038299Y-80648136D01*
X157128949Y-80722959D01*
X157243373Y-80763606D01*
X157367990Y-80763725D01*
X157489218Y-80716959D01*
X157537030Y-80680756D01*
X157614443Y-80574133D01*
X157635779Y-80456231D01*
X157604274Y-80342141D01*
X157523163Y-80246954D01*
X157433488Y-80197703D01*
X157302933Y-80178521D01*
X157174270Y-80208628D01*
X157065567Y-80279060D01*
X156994890Y-80380853D01*
X156982654Y-80421385D01*
X156828007Y-80421385D01*
X156860631Y-80307518D01*
X156952517Y-80183624D01*
X157095169Y-80086945D01*
X157101133Y-80084168D01*
X157263199Y-80035160D01*
X157421232Y-80042741D01*
X157579305Y-80103246D01*
X157687543Y-80192080D01*
X157762032Y-80316963D01*
X157796726Y-80459325D01*
X157785579Y-80600597D01*
X157761709Y-80663484D01*
X157748485Y-80696468D01*
X157749617Y-80728700D01*
X157771501Y-80768455D01*
X157820530Y-80824011D01*
X157903098Y-80903644D01*
X158025599Y-81015629D01*
X158052750Y-81040192D01*
X158383215Y-81338966D01*
X159524335Y-81338966D01*
X159830477Y-81339098D01*
X160076723Y-81339717D01*
X160269846Y-81341158D01*
X160416616Y-81343755D01*
X160523803Y-81347843D01*
X160598181Y-81353755D01*
X160646519Y-81361827D01*
X160675588Y-81372393D01*
X160692161Y-81385788D01*
X160699960Y-81397040D01*
X160709689Y-81444276D01*
X160717908Y-81549223D01*
X160724551Y-81709555D01*
X160729552Y-81922949D01*
X160732846Y-82187081D01*
X160734365Y-82499628D01*
X160734466Y-82612997D01*
X160734466Y-83770881D01*
X160851133Y-83770881D01*
X160967800Y-83770881D01*
X160967800Y-82434218D01*
X160967800Y-81097556D01*
X159944753Y-81099675D01*
X158921707Y-81101793D01*
X158202809Y-80454777D01*
X157483910Y-79807760D01*
X156972027Y-79807760D01*
X156460144Y-79807760D01*
X156197606Y-79577640D01*
X156081416Y-79477051D01*
X156001201Y-79412824D01*
X155945908Y-79378758D01*
X155904488Y-79368649D01*
X155865889Y-79376298D01*
X155849865Y-79382487D01*
X155698606Y-79414847D01*
X155535119Y-79402038D01*
X155401722Y-79353493D01*
X155288792Y-79280765D01*
X155218719Y-79201395D01*
X155170714Y-79090870D01*
X155165714Y-79075200D01*
X155146829Y-78982453D01*
X155155107Y-78923703D01*
X155315259Y-78923703D01*
X155317978Y-79046289D01*
X155371629Y-79147710D01*
X155462550Y-79221670D01*
X155577083Y-79261873D01*
X155701567Y-79262023D01*
X155822343Y-79215823D01*
X155870364Y-79179574D01*
X155950077Y-79070869D01*
X155965488Y-78948067D01*
X155919371Y-78819718D01*
X155836482Y-78730486D01*
X155726658Y-78685028D01*
X155605255Y-78680701D01*
X155487631Y-78714862D01*
X155389142Y-78784867D01*
X155325146Y-78888073D01*
X155315259Y-78923703D01*
X155155107Y-78923703D01*
X155158995Y-78896109D01*
X155184816Y-78826989D01*
X155273208Y-78689967D01*
X155396135Y-78594863D01*
X155540751Y-78542679D01*
X155694211Y-78534418D01*
X155843669Y-78571081D01*
X155976280Y-78653673D01*
X156064658Y-78758317D01*
X156122724Y-78902733D01*
X156128613Y-79053239D01*
X156095125Y-79162139D01*
X156080005Y-79200578D01*
X156083202Y-79236621D01*
X156111922Y-79281097D01*
X156173371Y-79344833D01*
X156274758Y-79438658D01*
X156285898Y-79448776D01*
X156516012Y-79657642D01*
X157033294Y-79657642D01*
X157550577Y-79657642D01*
X158276092Y-80310656D01*
X159001607Y-80963671D01*
X160059703Y-80978682D01*
X161117800Y-80993694D01*
X161126466Y-82382288D01*
X161135132Y-83770881D01*
X161268132Y-83770881D01*
X161401133Y-83770881D01*
X161401133Y-82254687D01*
X161401133Y-80738493D01*
X160277759Y-80738493D01*
X159154385Y-80738493D01*
X158383708Y-80046632D01*
X157613032Y-79354770D01*
X157464123Y-79390642D01*
X157273257Y-79412035D01*
X157108100Y-79378207D01*
X156970256Y-79290278D01*
X156866137Y-79157120D01*
X156820751Y-79012983D01*
X156826359Y-78934328D01*
X156985214Y-78934328D01*
X156998279Y-79064021D01*
X157001271Y-79072560D01*
X157071557Y-79182272D01*
X157176970Y-79249870D01*
X157301953Y-79272245D01*
X157430948Y-79246292D01*
X157537030Y-79179574D01*
X157612945Y-79076097D01*
X157634353Y-78963916D01*
X157608245Y-78855335D01*
X157541611Y-78762657D01*
X157441442Y-78698186D01*
X157314728Y-78674224D01*
X157252954Y-78679585D01*
X157120912Y-78729056D01*
X157028878Y-78818321D01*
X156985214Y-78934328D01*
X156826359Y-78934328D01*
X156831009Y-78869107D01*
X156893826Y-78736729D01*
X157006113Y-78627087D01*
X157164785Y-78551419D01*
X157173963Y-78548706D01*
X157334081Y-78531655D01*
X157489433Y-78565780D01*
X157626142Y-78642773D01*
X157730330Y-78754327D01*
X157788120Y-78892134D01*
X157792512Y-78918995D01*
X157793410Y-79037234D01*
X157770662Y-79140412D01*
X157766853Y-79149299D01*
X157724027Y-79242424D01*
X158470635Y-79915399D01*
X159217244Y-80588375D01*
X160352522Y-80588375D01*
X160683701Y-80588989D01*
X160952828Y-80590926D01*
X161164505Y-80594325D01*
X161323334Y-80599330D01*
X161433917Y-80606079D01*
X161500856Y-80614716D01*
X161527800Y-80624403D01*
X161537288Y-80648473D01*
X161545305Y-80704599D01*
X161551940Y-80796371D01*
X161557283Y-80927376D01*
X161561426Y-81101202D01*
X161564456Y-81321436D01*
X161566466Y-81591667D01*
X161567546Y-81915481D01*
X161567800Y-82215656D01*
X161567800Y-83770881D01*
X161684466Y-83770881D01*
X161801133Y-83770881D01*
X161801643Y-82412311D01*
X161802303Y-82131574D01*
X161803989Y-81868825D01*
X161806584Y-81630258D01*
X161809970Y-81422063D01*
X161814033Y-81250433D01*
X161818654Y-81121559D01*
X161823716Y-81041634D01*
X161827964Y-81017154D01*
X161857595Y-81004054D01*
X161929423Y-80993912D01*
X162048905Y-80986443D01*
X162221498Y-80981361D01*
X162452659Y-80978384D01*
X162585787Y-80977619D01*
X163317800Y-80974672D01*
X164274513Y-80111949D01*
X165231226Y-79249226D01*
X165180102Y-79115668D01*
X165151731Y-78964806D01*
X165159870Y-78923703D01*
X165315259Y-78923703D01*
X165317978Y-79046289D01*
X165371629Y-79147710D01*
X165462550Y-79221670D01*
X165577083Y-79261873D01*
X165701567Y-79262023D01*
X165822343Y-79215823D01*
X165870364Y-79179574D01*
X165947776Y-79072951D01*
X165969113Y-78955049D01*
X165937608Y-78840959D01*
X165856496Y-78745772D01*
X165766822Y-78696521D01*
X165633075Y-78675959D01*
X165503966Y-78706016D01*
X165396249Y-78778261D01*
X165326679Y-78884266D01*
X165315259Y-78923703D01*
X165159870Y-78923703D01*
X165178918Y-78827505D01*
X165251327Y-78709631D01*
X165358625Y-78617051D01*
X165490475Y-78555630D01*
X165636543Y-78531234D01*
X165786495Y-78549730D01*
G37*
G36*
X164349062Y-84640812D02*
G01*
X164884466Y-85120436D01*
X164893471Y-87213755D01*
X164902477Y-89307074D01*
X164342384Y-89811555D01*
X163782292Y-90316035D01*
X161467832Y-90316035D01*
X159153372Y-90316035D01*
X158610586Y-89827142D01*
X158067800Y-89338250D01*
X158067800Y-87238612D01*
X158234466Y-87238612D01*
X158234466Y-89279492D01*
X158725716Y-89722704D01*
X159216966Y-90165916D01*
X161466992Y-90165916D01*
X163717018Y-90165916D01*
X164225742Y-89708419D01*
X164734466Y-89250922D01*
X164734466Y-87224326D01*
X164734466Y-85197731D01*
X164243216Y-84754519D01*
X163751966Y-84311307D01*
X161484466Y-84311307D01*
X159216966Y-84311307D01*
X158725716Y-84754519D01*
X158234466Y-85197731D01*
X158234466Y-87238612D01*
X158067800Y-87238612D01*
X158067800Y-87237262D01*
X158067800Y-85197731D01*
X158067800Y-85136274D01*
X158609834Y-84648731D01*
X159151869Y-84161188D01*
X161482764Y-84161188D01*
X163813659Y-84161188D01*
X164349062Y-84640812D01*
G37*
%TO.C,G\u002A\u002A\u002A*%
G36*
X149913120Y-103466846D02*
G01*
X149913120Y-104894706D01*
X149657696Y-104894706D01*
X149402272Y-104894706D01*
X149402272Y-103466846D01*
X149402272Y-102038985D01*
X149657696Y-102038985D01*
X149913120Y-102038985D01*
X149913120Y-103466846D01*
G37*
G36*
X150708702Y-103466846D02*
G01*
X150708702Y-104894706D01*
X150453278Y-104894706D01*
X150197854Y-104894706D01*
X150197854Y-103466846D01*
X150197854Y-102038985D01*
X150453278Y-102038985D01*
X150708702Y-102038985D01*
X150708702Y-103466846D01*
G37*
G36*
X151466598Y-104249866D02*
G01*
X151466598Y-104890518D01*
X151213053Y-104892735D01*
X151137838Y-104893247D01*
X151077894Y-104893291D01*
X151031749Y-104892821D01*
X150997931Y-104891789D01*
X150974966Y-104890146D01*
X150961383Y-104887845D01*
X150955709Y-104884838D01*
X150955464Y-104884361D01*
X150954843Y-104874472D01*
X150954307Y-104849154D01*
X150953861Y-104809725D01*
X150953508Y-104757505D01*
X150953252Y-104693814D01*
X150953096Y-104619970D01*
X150953045Y-104537293D01*
X150953103Y-104447103D01*
X150953273Y-104350717D01*
X150953559Y-104249457D01*
X150953585Y-104241491D01*
X150955751Y-103609213D01*
X151211174Y-103609213D01*
X151466598Y-103609213D01*
X151466598Y-104249866D01*
G37*
G36*
X152241244Y-104249866D02*
G01*
X152241244Y-104894706D01*
X151985820Y-104894706D01*
X151730396Y-104894706D01*
X151730396Y-104249866D01*
X151730396Y-103605026D01*
X151985820Y-103605026D01*
X152241244Y-103605026D01*
X152241244Y-104249866D01*
G37*
G36*
X153095447Y-103466846D02*
G01*
X153095447Y-104894706D01*
X152840024Y-104894706D01*
X152584600Y-104894706D01*
X152584600Y-103466846D01*
X152584600Y-102038985D01*
X152840024Y-102038985D01*
X153095447Y-102038985D01*
X153095447Y-103466846D01*
G37*
G36*
X153840782Y-103466846D02*
G01*
X153840782Y-104894706D01*
X153585358Y-104894706D01*
X153329935Y-104894706D01*
X153329935Y-103466846D01*
X153329935Y-102038985D01*
X153585358Y-102038985D01*
X153840782Y-102038985D01*
X153840782Y-103466846D01*
G37*
G36*
X152266367Y-102679588D02*
G01*
X152266367Y-103328666D01*
X151600539Y-103328666D01*
X150934711Y-103328666D01*
X150936525Y-102781661D01*
X151371666Y-102781661D01*
X151371887Y-102826586D01*
X151372419Y-102861415D01*
X151373241Y-102883752D01*
X151374065Y-102890944D01*
X151379085Y-102894274D01*
X151392306Y-102896882D01*
X151415244Y-102898838D01*
X151449416Y-102900212D01*
X151496338Y-102901074D01*
X151557526Y-102901494D01*
X151604515Y-102901564D01*
X151830891Y-102901564D01*
X151830891Y-102679504D01*
X151830891Y-102457444D01*
X151602685Y-102459672D01*
X151374478Y-102461900D01*
X151372234Y-102671113D01*
X151371775Y-102729037D01*
X151371666Y-102781661D01*
X150936525Y-102781661D01*
X150936856Y-102681732D01*
X150939002Y-102034798D01*
X151602685Y-102032654D01*
X152266367Y-102030510D01*
X152266367Y-102679588D01*
G37*
G36*
X153840782Y-101498827D02*
G01*
X153840782Y-101754251D01*
X151621527Y-101754251D01*
X149402272Y-101754251D01*
X149402272Y-101498827D01*
X149402272Y-101243403D01*
X151621527Y-101243403D01*
X153840782Y-101243403D01*
X153840782Y-101498827D01*
G37*
G36*
X153840782Y-100745118D02*
G01*
X153840782Y-101000542D01*
X151621527Y-101000542D01*
X149402272Y-101000542D01*
X149402272Y-100745118D01*
X149402272Y-100489694D01*
X151621527Y-100489694D01*
X153840782Y-100489694D01*
X153840782Y-100745118D01*
G37*
D13*
%TO.C,R1*%
X178597800Y-79928200D02*
X182437800Y-79928200D01*
X178597800Y-81768200D02*
X182437800Y-81768200D01*
%TO.C,R8*%
X218709000Y-103702600D02*
X214869000Y-103702600D01*
X218709000Y-105542600D02*
X214869000Y-105542600D01*
%TO.C,C4*%
X156962400Y-58680600D02*
G75*
G02*
X151722400Y-58680600I-2620000J0D01*
G01*
X151722400Y-58680600D02*
G75*
G02*
X156962400Y-58680600I2620000J0D01*
G01*
%TO.C,U2*%
X198782000Y-33234400D02*
X198782000Y-51134400D01*
X198782000Y-51134400D02*
X204082000Y-51134400D01*
X200432000Y-33234400D02*
X198782000Y-33234400D01*
X204082000Y-33234400D02*
X202432000Y-33234400D01*
X204082000Y-51134400D02*
X204082000Y-33234400D01*
X202432000Y-33234400D02*
G75*
G02*
X200432000Y-33234400I-1000000J0D01*
G01*
%TO.C,SW2*%
X200737400Y-98283200D02*
X200737400Y-102783200D01*
X203237400Y-104033200D02*
X204737400Y-104033200D01*
X204737400Y-97033200D02*
X203237400Y-97033200D01*
X207237400Y-102783200D02*
X207237400Y-98283200D01*
%TO.C,1K*%
X153045400Y-72257400D02*
X156885400Y-72257400D01*
X153045400Y-74097400D02*
X156885400Y-74097400D01*
%TO.C,C2*%
X152583400Y-47571800D02*
X152583400Y-47636800D01*
X152583400Y-47571800D02*
X155823400Y-47571800D01*
X152583400Y-49746800D02*
X152583400Y-49811800D01*
X152583400Y-49811800D02*
X155823400Y-49811800D01*
X155823400Y-47571800D02*
X155823400Y-47636800D01*
X155823400Y-49746800D02*
X155823400Y-49811800D01*
%TO.C,10K*%
X165369000Y-68422000D02*
X161529000Y-68422000D01*
X165369000Y-70262000D02*
X161529000Y-70262000D01*
%TO.C,R5*%
X178775600Y-95625400D02*
X182615600Y-95625400D01*
X178775600Y-97465400D02*
X182615600Y-97465400D01*
%TO.C,R12*%
X218531200Y-88005400D02*
X214691200Y-88005400D01*
X218531200Y-89845400D02*
X214691200Y-89845400D01*
%TO.C,R14*%
X218480400Y-84043000D02*
X214640400Y-84043000D01*
X218480400Y-85883000D02*
X214640400Y-85883000D01*
%TO.C,U4*%
X172025800Y-33087000D02*
X172025800Y-50987000D01*
X172025800Y-50987000D02*
X177325800Y-50987000D01*
X173675800Y-33087000D02*
X172025800Y-33087000D01*
X177325800Y-33087000D02*
X175675800Y-33087000D01*
X177325800Y-50987000D02*
X177325800Y-33087000D01*
X175675800Y-33087000D02*
G75*
G02*
X173675800Y-33087000I-1000000J0D01*
G01*
%TO.C,U7*%
X185421600Y-55530200D02*
X185421600Y-75970200D01*
X185421600Y-75970200D02*
X190721600Y-75970200D01*
X187071600Y-55530200D02*
X185421600Y-55530200D01*
X190721600Y-55530200D02*
X189071600Y-55530200D01*
X190721600Y-75970200D02*
X190721600Y-55530200D01*
X189071600Y-55530200D02*
G75*
G02*
X187071600Y-55530200I-1000000J0D01*
G01*
%TO.C,1K*%
X165369000Y-74072000D02*
X161529000Y-74072000D01*
X165369000Y-72232000D02*
X161529000Y-72232000D01*
%TO.C,R4*%
X178775600Y-91688400D02*
X182615600Y-91688400D01*
X178775600Y-93528400D02*
X182615600Y-93528400D01*
%TO.C,U1*%
X159080800Y-45705400D02*
X159080800Y-55945400D01*
X162211800Y-45705400D02*
X162211800Y-55945400D01*
X163721800Y-45705400D02*
X159080800Y-45705400D01*
X163721800Y-45705400D02*
X163721800Y-55945400D01*
X163721800Y-48975400D02*
X162211800Y-48975400D01*
X163721800Y-52676400D02*
X162211800Y-52676400D01*
X163721800Y-55945400D02*
X159080800Y-55945400D01*
%TO.C,U10*%
X212274800Y-55652600D02*
X212274800Y-76092600D01*
X212274800Y-76092600D02*
X213924800Y-76092600D01*
X215924800Y-76092600D02*
X217574800Y-76092600D01*
X217574800Y-55652600D02*
X212274800Y-55652600D01*
X217574800Y-76092600D02*
X217574800Y-55652600D01*
X213924800Y-76092600D02*
G75*
G02*
X215924800Y-76092600I1000000J0D01*
G01*
%TO.C,C1*%
X152659600Y-51813600D02*
X152659600Y-51878600D01*
X152659600Y-51813600D02*
X155899600Y-51813600D01*
X152659600Y-53988600D02*
X152659600Y-54053600D01*
X152659600Y-54053600D02*
X155899600Y-54053600D01*
X155899600Y-51813600D02*
X155899600Y-51878600D01*
X155899600Y-53988600D02*
X155899600Y-54053600D01*
%TO.C,R10*%
X218759800Y-96031800D02*
X214919800Y-96031800D01*
X218759800Y-97871800D02*
X214919800Y-97871800D01*
%TO.C,U9*%
X172670800Y-59817800D02*
X172670800Y-70097800D01*
X172670800Y-70097800D02*
X177970800Y-70097800D01*
X174320800Y-59817800D02*
X172670800Y-59817800D01*
X177970800Y-59817800D02*
X176320800Y-59817800D01*
X177970800Y-70097800D02*
X177970800Y-59817800D01*
X176320800Y-59817800D02*
G75*
G02*
X174320800Y-59817800I-1000000J0D01*
G01*
%TO.C,U11*%
X199077100Y-79661700D02*
X200707100Y-79661700D01*
X199077100Y-81291700D02*
X199077100Y-79661700D01*
D11*
X199437100Y-80021700D02*
X199437100Y-92721700D01*
X199437100Y-92721700D02*
X207057100Y-92721700D01*
X207057100Y-80021700D02*
X199437100Y-80021700D01*
X207057100Y-92721700D02*
X207057100Y-80021700D01*
D13*
%TO.C,R11*%
X218658200Y-91942400D02*
X214818200Y-91942400D01*
X218658200Y-93782400D02*
X214818200Y-93782400D01*
%TO.C,R2*%
X178572400Y-83814400D02*
X182412400Y-83814400D01*
X178572400Y-85654400D02*
X182412400Y-85654400D01*
%TO.C,C3*%
X159726400Y-57067200D02*
X162466400Y-57067200D01*
X159726400Y-64307200D02*
X159726400Y-57067200D01*
X159726400Y-64307200D02*
X162466400Y-64307200D01*
X162466400Y-64307200D02*
X162466400Y-57067200D01*
%TO.C,R13*%
X218480400Y-80233000D02*
X214640400Y-80233000D01*
X218480400Y-82073000D02*
X214640400Y-82073000D01*
%TO.C,R9*%
X218759800Y-99765600D02*
X214919800Y-99765600D01*
X218759800Y-101605600D02*
X214919800Y-101605600D01*
%TO.C,R3*%
X178801000Y-87599000D02*
X182641000Y-87599000D01*
X178801000Y-89439000D02*
X182641000Y-89439000D01*
%TO.C,J1*%
X151205400Y-33020400D02*
X151205400Y-43870400D01*
X151205400Y-43870400D02*
X163805400Y-43870400D01*
X156005400Y-33520400D02*
X156305400Y-33020400D01*
X156305400Y-33020400D02*
X151205400Y-33020400D01*
X161155400Y-33020400D02*
X161405400Y-33520400D01*
X161205400Y-33020400D02*
X161155400Y-33020400D01*
X161405400Y-33520400D02*
X156005400Y-33520400D01*
X162855400Y-33520400D02*
X163105400Y-33020400D01*
X163105400Y-33020400D02*
X161205400Y-33020400D01*
X163805400Y-33520400D02*
X162855400Y-33520400D01*
X163805400Y-43870400D02*
X163805400Y-33520400D01*
%TO.C,R6*%
X178801000Y-99511600D02*
X182641000Y-99511600D01*
X178801000Y-101351600D02*
X182641000Y-101351600D01*
%TO.C,U3*%
X185396200Y-33056600D02*
X185396200Y-50956600D01*
X185396200Y-50956600D02*
X190696200Y-50956600D01*
X187046200Y-33056600D02*
X185396200Y-33056600D01*
X190696200Y-33056600D02*
X189046200Y-33056600D01*
X190696200Y-50956600D02*
X190696200Y-33056600D01*
X189046200Y-33056600D02*
G75*
G02*
X187046200Y-33056600I-1000000J0D01*
G01*
%TO.C,R7*%
X178851800Y-103296200D02*
X182691800Y-103296200D01*
X178851800Y-105136200D02*
X182691800Y-105136200D01*
%TO.C,300*%
X156910800Y-68396600D02*
X153070800Y-68396600D01*
X156910800Y-70236600D02*
X153070800Y-70236600D01*
%TO.C,U6*%
X198482600Y-55627200D02*
X198482600Y-76067200D01*
X198482600Y-76067200D02*
X200132600Y-76067200D01*
X202132600Y-76067200D02*
X203782600Y-76067200D01*
X203782600Y-55627200D02*
X198482600Y-55627200D01*
X203782600Y-76067200D02*
X203782600Y-55627200D01*
X200132600Y-76067200D02*
G75*
G02*
X202132600Y-76067200I1000000J0D01*
G01*
%TO.C,U5*%
X189964600Y-79679200D02*
X191594600Y-79679200D01*
X189964600Y-81309200D02*
X189964600Y-79679200D01*
D11*
X190324600Y-80039200D02*
X190324600Y-92739200D01*
X190324600Y-92739200D02*
X197944600Y-92739200D01*
X197944600Y-80039200D02*
X190324600Y-80039200D01*
X197944600Y-92739200D02*
X197944600Y-80039200D01*
D13*
%TO.C,SW1*%
X190237400Y-98283200D02*
X190237400Y-102783200D01*
X192737400Y-104033200D02*
X194237400Y-104033200D01*
X194237400Y-97033200D02*
X192737400Y-97033200D01*
X196737400Y-102783200D02*
X196737400Y-98283200D01*
%TO.C,U8*%
X212269400Y-33102000D02*
X212269400Y-53542000D01*
X212269400Y-53542000D02*
X217569400Y-53542000D01*
X213919400Y-33102000D02*
X212269400Y-33102000D01*
X217569400Y-33102000D02*
X215919400Y-33102000D01*
X217569400Y-53542000D02*
X217569400Y-33102000D01*
X215919400Y-33102000D02*
G75*
G02*
X213919400Y-33102000I-1000000J0D01*
G01*
%TD*%
M02*
