%TF.GenerationSoftware,KiCad,Pcbnew,8.0.2*%
%TF.CreationDate,2024-05-14T22:55:47+03:00*%
%TF.ProjectId,practica,70726163-7469-4636-912e-6b696361645f,rev?*%
%TF.SameCoordinates,Original*%
%TF.FileFunction,Copper,L2,Bot*%
%TF.FilePolarity,Positive*%
%FSLAX46Y46*%
G04 Gerber Fmt 4.6, Leading zero omitted, Abs format (unit mm)*
G04 Created by KiCad (PCBNEW 8.0.2) date 2024-05-14 22:55:47*
%MOMM*%
%LPD*%
G01*
G04 APERTURE LIST*
%TA.AperFunction,ComponentPad*%
%ADD10C,1.400000*%
%TD*%
%TA.AperFunction,ComponentPad*%
%ADD11O,1.400000X1.400000*%
%TD*%
%TA.AperFunction,ComponentPad*%
%ADD12C,1.600000*%
%TD*%
%TA.AperFunction,ComponentPad*%
%ADD13R,1.600000X1.600000*%
%TD*%
%TA.AperFunction,ComponentPad*%
%ADD14O,1.600000X1.600000*%
%TD*%
%TA.AperFunction,ComponentPad*%
%ADD15C,2.000000*%
%TD*%
%TA.AperFunction,ComponentPad*%
%ADD16R,2.000000X1.905000*%
%TD*%
%TA.AperFunction,ComponentPad*%
%ADD17O,2.000000X1.905000*%
%TD*%
%TA.AperFunction,ComponentPad*%
%ADD18R,3.960000X1.980000*%
%TD*%
%TA.AperFunction,ComponentPad*%
%ADD19O,3.960000X1.980000*%
%TD*%
%TA.AperFunction,ViaPad*%
%ADD20C,0.600000*%
%TD*%
%TA.AperFunction,Conductor*%
%ADD21C,0.200000*%
%TD*%
G04 APERTURE END LIST*
D10*
%TO.P,R1,1*%
%TO.N,Net-(U6-Qa)*%
X177977800Y-80848200D03*
D11*
%TO.P,R1,2*%
%TO.N,Net-(U5-A)*%
X183057800Y-80848200D03*
%TD*%
D10*
%TO.P,R8,1*%
%TO.N,Net-(U10-Qa)*%
X219329000Y-104622600D03*
D11*
%TO.P,R8,2*%
%TO.N,Net-(U11-A)*%
X214249000Y-104622600D03*
%TD*%
D12*
%TO.P,C4,1*%
%TO.N,GND*%
X155342400Y-58680600D03*
%TO.P,C4,2*%
%TO.N,+5V*%
X153342400Y-58680600D03*
%TD*%
D13*
%TO.P,U2,1,C*%
%TO.N,unconnected-(U2B-C-Pad1)*%
X197622000Y-34564400D03*
D14*
%TO.P,U2,2,~{R}*%
%TO.N,unconnected-(U2B-~{R}-Pad2)*%
X197622000Y-37104400D03*
%TO.P,U2,3,K*%
%TO.N,unconnected-(U2B-K-Pad3)*%
X197622000Y-39644400D03*
%TO.P,U2,4,VCC*%
%TO.N,+5V*%
X197622000Y-42184400D03*
%TO.P,U2,5,C*%
%TO.N,Net-(U2A-C)*%
X197622000Y-44724400D03*
%TO.P,U2,6,~{R}*%
%TO.N,+5V*%
X197622000Y-47264400D03*
%TO.P,U2,7,J*%
X197622000Y-49804400D03*
%TO.P,U2,8,~{Q}*%
%TO.N,unconnected-(U2A-~{Q}-Pad8)*%
X205242000Y-49804400D03*
%TO.P,U2,9,Q*%
%TO.N,Net-(U2A-Q)*%
X205242000Y-47264400D03*
%TO.P,U2,10,K*%
%TO.N,+5V*%
X205242000Y-44724400D03*
%TO.P,U2,11,GND*%
%TO.N,GND*%
X205242000Y-42184400D03*
%TO.P,U2,12,Q*%
%TO.N,unconnected-(U2B-Q-Pad12)*%
X205242000Y-39644400D03*
%TO.P,U2,13,~{Q}*%
%TO.N,unconnected-(U2B-~{Q}-Pad13)*%
X205242000Y-37104400D03*
%TO.P,U2,14,J*%
%TO.N,unconnected-(U2B-J-Pad14)*%
X205242000Y-34564400D03*
%TD*%
D15*
%TO.P,SW2,1,1*%
%TO.N,+5V*%
X206237400Y-97283200D03*
X206237400Y-103783200D03*
%TO.P,SW2,2,2*%
%TO.N,Net-(U2A-C)*%
X201737400Y-97283200D03*
X201737400Y-103783200D03*
%TD*%
D10*
%TO.P,1K,1*%
%TO.N,Net-(R15-Pad1)*%
X152425400Y-73177400D03*
D11*
%TO.P,1K,2*%
%TO.N,GND*%
X157505400Y-73177400D03*
%TD*%
D12*
%TO.P,C2,1*%
%TO.N,Net-(J1-Pin_1)*%
X152953400Y-48691800D03*
%TO.P,C2,2*%
%TO.N,GND*%
X155453400Y-48691800D03*
%TD*%
D10*
%TO.P,10K,1*%
%TO.N,Net-(U9-THR)*%
X165989000Y-69342000D03*
D11*
%TO.P,10K,2*%
%TO.N,Net-(U9-DIS)*%
X160909000Y-69342000D03*
%TD*%
D10*
%TO.P,R5,1*%
%TO.N,Net-(U6-Qe)*%
X178155600Y-96545400D03*
D11*
%TO.P,R5,2*%
%TO.N,Net-(U5-E)*%
X183235600Y-96545400D03*
%TD*%
D10*
%TO.P,R12,1*%
%TO.N,Net-(U10-Qe)*%
X219151200Y-88925400D03*
D11*
%TO.P,R12,2*%
%TO.N,Net-(U11-E)*%
X214071200Y-88925400D03*
%TD*%
D10*
%TO.P,R14,1*%
%TO.N,Net-(U10-Qg)*%
X219100400Y-84963000D03*
D11*
%TO.P,R14,2*%
%TO.N,Net-(U11-G)*%
X214020400Y-84963000D03*
%TD*%
D13*
%TO.P,U4,1*%
%TO.N,Net-(R15-Pad1)*%
X170865800Y-34417000D03*
D14*
%TO.P,U4,2*%
%TO.N,Net-(U7-UP)*%
X170865800Y-36957000D03*
%TO.P,U4,3*%
%TO.N,Net-(U8-CLR)*%
X170865800Y-39497000D03*
%TO.P,U4,4*%
%TO.N,Net-(U7-CLR)*%
X170865800Y-42037000D03*
%TO.P,U4,5*%
%TO.N,Net-(R15-Pad1)*%
X170865800Y-44577000D03*
%TO.P,U4,6*%
%TO.N,Net-(U3-Pad8)*%
X170865800Y-47117000D03*
%TO.P,U4,7,VSS*%
%TO.N,GND*%
X170865800Y-49657000D03*
%TO.P,U4,8*%
%TO.N,unconnected-(U4-Pad8)*%
X178485800Y-49657000D03*
%TO.P,U4,9*%
%TO.N,unconnected-(U4-Pad9)*%
X178485800Y-47117000D03*
%TO.P,U4,10*%
%TO.N,unconnected-(U4-Pad10)*%
X178485800Y-44577000D03*
%TO.P,U4,11*%
%TO.N,unconnected-(U4-Pad11)*%
X178485800Y-42037000D03*
%TO.P,U4,12*%
%TO.N,unconnected-(U4-Pad12)*%
X178485800Y-39497000D03*
%TO.P,U4,13*%
%TO.N,unconnected-(U4-Pad13)*%
X178485800Y-36957000D03*
%TO.P,U4,14,VDD*%
%TO.N,+5V*%
X178485800Y-34417000D03*
%TD*%
D13*
%TO.P,U7,1,B*%
%TO.N,unconnected-(U7-B-Pad1)*%
X184261600Y-56860200D03*
D14*
%TO.P,U7,2,QB*%
%TO.N,Net-(U6-DB)*%
X184261600Y-59400200D03*
%TO.P,U7,3,QA*%
%TO.N,Net-(U6-DA)*%
X184261600Y-61940200D03*
%TO.P,U7,4,DOWN*%
%TO.N,+5V*%
X184261600Y-64480200D03*
%TO.P,U7,5,UP*%
%TO.N,Net-(U7-UP)*%
X184261600Y-67020200D03*
%TO.P,U7,6,QC*%
%TO.N,Net-(U6-DC)*%
X184261600Y-69560200D03*
%TO.P,U7,7,QD*%
%TO.N,Net-(U6-DD)*%
X184261600Y-72100200D03*
%TO.P,U7,8,GND*%
%TO.N,GND*%
X184261600Y-74640200D03*
%TO.P,U7,9,D*%
%TO.N,unconnected-(U7-D-Pad9)*%
X191881600Y-74640200D03*
%TO.P,U7,10,C*%
%TO.N,unconnected-(U7-C-Pad10)*%
X191881600Y-72100200D03*
%TO.P,U7,11,~{LOAD}*%
%TO.N,unconnected-(U7-~{LOAD}-Pad11)*%
X191881600Y-69560200D03*
%TO.P,U7,12,~{CO}*%
%TO.N,unconnected-(U7-~{CO}-Pad12)*%
X191881600Y-67020200D03*
%TO.P,U7,13,~{BO}*%
%TO.N,unconnected-(U7-~{BO}-Pad13)*%
X191881600Y-64480200D03*
%TO.P,U7,14,CLR*%
%TO.N,Net-(U7-CLR)*%
X191881600Y-61940200D03*
%TO.P,U7,15,A*%
%TO.N,unconnected-(U7-A-Pad15)*%
X191881600Y-59400200D03*
%TO.P,U7,16,VCC*%
%TO.N,+5V*%
X191881600Y-56860200D03*
%TD*%
D11*
%TO.P,1K,2*%
%TO.N,GND*%
X160909000Y-73152000D03*
D10*
%TO.P,1K,1*%
%TO.N,Net-(U2A-C)*%
X165989000Y-73152000D03*
%TD*%
%TO.P,R4,1*%
%TO.N,Net-(U6-Qd)*%
X178155600Y-92608400D03*
D11*
%TO.P,R4,2*%
%TO.N,Net-(U5-D)*%
X183235600Y-92608400D03*
%TD*%
D16*
%TO.P,U1,1,IN*%
%TO.N,Net-(J1-Pin_1)*%
X160451800Y-48285400D03*
D17*
%TO.P,U1,2,GND*%
%TO.N,GND*%
X160451800Y-50825400D03*
%TO.P,U1,3,OUT*%
%TO.N,+5V*%
X160451800Y-53365400D03*
%TD*%
D13*
%TO.P,U10,1,DB*%
%TO.N,Net-(U10-DB)*%
X218734800Y-74762600D03*
D14*
%TO.P,U10,2,DC*%
%TO.N,Net-(U10-DC)*%
X218734800Y-72222600D03*
%TO.P,U10,3,~{LT}*%
%TO.N,+5V*%
X218734800Y-69682600D03*
%TO.P,U10,4,~{BI}*%
X218734800Y-67142600D03*
%TO.P,U10,5,~{EL}*%
%TO.N,GND*%
X218734800Y-64602600D03*
%TO.P,U10,6,DD*%
%TO.N,Net-(U10-DD)*%
X218734800Y-62062600D03*
%TO.P,U10,7,DA*%
%TO.N,Net-(U10-DA)*%
X218734800Y-59522600D03*
%TO.P,U10,8,Vss*%
%TO.N,GND*%
X218734800Y-56982600D03*
%TO.P,U10,9,Qe*%
%TO.N,Net-(U10-Qe)*%
X211114800Y-56982600D03*
%TO.P,U10,10,Qd*%
%TO.N,Net-(U10-Qd)*%
X211114800Y-59522600D03*
%TO.P,U10,11,Qc*%
%TO.N,Net-(U10-Qc)*%
X211114800Y-62062600D03*
%TO.P,U10,12,Qb*%
%TO.N,Net-(U10-Qb)*%
X211114800Y-64602600D03*
%TO.P,U10,13,Qa*%
%TO.N,Net-(U10-Qa)*%
X211114800Y-67142600D03*
%TO.P,U10,14,Qg*%
%TO.N,Net-(U10-Qg)*%
X211114800Y-69682600D03*
%TO.P,U10,15,Qf*%
%TO.N,Net-(U10-Qf)*%
X211114800Y-72222600D03*
%TO.P,U10,16,Vdd*%
%TO.N,+5V*%
X211114800Y-74762600D03*
%TD*%
D12*
%TO.P,C1,1*%
%TO.N,+5V*%
X153029600Y-52933600D03*
%TO.P,C1,2*%
%TO.N,GND*%
X155529600Y-52933600D03*
%TD*%
D10*
%TO.P,R10,1*%
%TO.N,Net-(U10-Qc)*%
X219379800Y-96951800D03*
D11*
%TO.P,R10,2*%
%TO.N,Net-(U11-C)*%
X214299800Y-96951800D03*
%TD*%
D13*
%TO.P,U9,1,GND*%
%TO.N,GND*%
X171510800Y-61147800D03*
D14*
%TO.P,U9,2,TR*%
%TO.N,Net-(U9-THR)*%
X171510800Y-63687800D03*
%TO.P,U9,3,Q*%
%TO.N,Net-(U9-Q)*%
X171510800Y-66227800D03*
%TO.P,U9,4,R*%
%TO.N,+5V*%
X171510800Y-68767800D03*
%TO.P,U9,5,CV*%
%TO.N,Net-(U9-CV)*%
X179130800Y-68767800D03*
%TO.P,U9,6,THR*%
%TO.N,Net-(U9-THR)*%
X179130800Y-66227800D03*
%TO.P,U9,7,DIS*%
%TO.N,Net-(U9-DIS)*%
X179130800Y-63687800D03*
%TO.P,U9,8,VCC*%
%TO.N,+5V*%
X179130800Y-61147800D03*
%TD*%
D13*
%TO.P,U11,1,CC*%
%TO.N,GND*%
X200707100Y-81291700D03*
D12*
%TO.P,U11,2,F*%
%TO.N,Net-(U11-F)*%
X200707100Y-83831700D03*
%TO.P,U11,3,G*%
%TO.N,Net-(U11-G)*%
X200707100Y-86371700D03*
%TO.P,U11,4,E*%
%TO.N,Net-(U11-E)*%
X200707100Y-88911700D03*
%TO.P,U11,5,D*%
%TO.N,Net-(U11-D)*%
X200707100Y-91451700D03*
%TO.P,U11,6,CC*%
%TO.N,GND*%
X205787100Y-91451700D03*
%TO.P,U11,7,DP*%
%TO.N,unconnected-(U11-DP-Pad7)*%
X205787100Y-88911700D03*
%TO.P,U11,8,C*%
%TO.N,Net-(U11-C)*%
X205787100Y-86371700D03*
%TO.P,U11,9,B*%
%TO.N,Net-(U11-B)*%
X205787100Y-83831700D03*
%TO.P,U11,10,A*%
%TO.N,Net-(U11-A)*%
X205787100Y-81291700D03*
%TD*%
D10*
%TO.P,R11,1*%
%TO.N,Net-(U10-Qd)*%
X219278200Y-92862400D03*
D11*
%TO.P,R11,2*%
%TO.N,Net-(U11-D)*%
X214198200Y-92862400D03*
%TD*%
D10*
%TO.P,R2,1*%
%TO.N,Net-(U6-Qb)*%
X177952400Y-84734400D03*
D11*
%TO.P,R2,2*%
%TO.N,Net-(U5-B)*%
X183032400Y-84734400D03*
%TD*%
D12*
%TO.P,C3,1*%
%TO.N,GND*%
X161096400Y-63187200D03*
%TO.P,C3,2*%
%TO.N,Net-(U9-CV)*%
X161096400Y-58187200D03*
%TD*%
D10*
%TO.P,R13,1*%
%TO.N,Net-(U10-Qf)*%
X219100400Y-81153000D03*
D11*
%TO.P,R13,2*%
%TO.N,Net-(U11-F)*%
X214020400Y-81153000D03*
%TD*%
D10*
%TO.P,R9,1*%
%TO.N,Net-(U10-Qb)*%
X219379800Y-100685600D03*
D11*
%TO.P,R9,2*%
%TO.N,Net-(U11-B)*%
X214299800Y-100685600D03*
%TD*%
D10*
%TO.P,R3,1*%
%TO.N,Net-(U6-Qc)*%
X178181000Y-88519000D03*
D11*
%TO.P,R3,2*%
%TO.N,Net-(U5-C)*%
X183261000Y-88519000D03*
%TD*%
D18*
%TO.P,J1,1,Pin_1*%
%TO.N,Net-(J1-Pin_1)*%
X157505400Y-41220400D03*
D19*
%TO.P,J1,2,Pin_2*%
%TO.N,GND*%
X157505400Y-36220400D03*
%TD*%
D10*
%TO.P,R6,1*%
%TO.N,Net-(U6-Qf)*%
X178181000Y-100431600D03*
D11*
%TO.P,R6,2*%
%TO.N,Net-(U5-F)*%
X183261000Y-100431600D03*
%TD*%
D13*
%TO.P,U3,1*%
%TO.N,Net-(U2A-Q)*%
X184236200Y-34386600D03*
D14*
%TO.P,U3,2*%
%TO.N,Net-(U9-Q)*%
X184236200Y-36926600D03*
%TO.P,U3,3*%
%TO.N,Net-(U8-UP)*%
X184236200Y-39466600D03*
%TO.P,U3,4*%
%TO.N,Net-(U10-DD)*%
X184236200Y-42006600D03*
%TO.P,U3,5*%
%TO.N,Net-(U10-DB)*%
X184236200Y-44546600D03*
%TO.P,U3,6*%
%TO.N,Net-(U7-UP)*%
X184236200Y-47086600D03*
%TO.P,U3,7,GND*%
%TO.N,GND*%
X184236200Y-49626600D03*
%TO.P,U3,8*%
%TO.N,Net-(U3-Pad8)*%
X191856200Y-49626600D03*
%TO.P,U3,9*%
%TO.N,Net-(U6-DC)*%
X191856200Y-47086600D03*
%TO.P,U3,10*%
%TO.N,Net-(U6-DB)*%
X191856200Y-44546600D03*
%TO.P,U3,11*%
%TO.N,unconnected-(U3-Pad11)*%
X191856200Y-42006600D03*
%TO.P,U3,12*%
%TO.N,unconnected-(U3-Pad12)*%
X191856200Y-39466600D03*
%TO.P,U3,13*%
%TO.N,unconnected-(U3-Pad13)*%
X191856200Y-36926600D03*
%TO.P,U3,14,VCC*%
%TO.N,+5V*%
X191856200Y-34386600D03*
%TD*%
D10*
%TO.P,R7,1*%
%TO.N,Net-(U6-Qg)*%
X178231800Y-104216200D03*
D11*
%TO.P,R7,2*%
%TO.N,Net-(U5-G)*%
X183311800Y-104216200D03*
%TD*%
D10*
%TO.P,300,1*%
%TO.N,Net-(U9-DIS)*%
X157530800Y-69316600D03*
D11*
%TO.P,300,2*%
%TO.N,+5V*%
X152450800Y-69316600D03*
%TD*%
D13*
%TO.P,U6,1,DB*%
%TO.N,Net-(U6-DB)*%
X204942600Y-74737200D03*
D14*
%TO.P,U6,2,DC*%
%TO.N,Net-(U6-DC)*%
X204942600Y-72197200D03*
%TO.P,U6,3,~{LT}*%
%TO.N,+5V*%
X204942600Y-69657200D03*
%TO.P,U6,4,~{BI}*%
X204942600Y-67117200D03*
%TO.P,U6,5,~{EL}*%
%TO.N,GND*%
X204942600Y-64577200D03*
%TO.P,U6,6,DD*%
%TO.N,Net-(U6-DD)*%
X204942600Y-62037200D03*
%TO.P,U6,7,DA*%
%TO.N,Net-(U6-DA)*%
X204942600Y-59497200D03*
%TO.P,U6,8,Vss*%
%TO.N,GND*%
X204942600Y-56957200D03*
%TO.P,U6,9,Qe*%
%TO.N,Net-(U6-Qe)*%
X197322600Y-56957200D03*
%TO.P,U6,10,Qd*%
%TO.N,Net-(U6-Qd)*%
X197322600Y-59497200D03*
%TO.P,U6,11,Qc*%
%TO.N,Net-(U6-Qc)*%
X197322600Y-62037200D03*
%TO.P,U6,12,Qb*%
%TO.N,Net-(U6-Qb)*%
X197322600Y-64577200D03*
%TO.P,U6,13,Qa*%
%TO.N,Net-(U6-Qa)*%
X197322600Y-67117200D03*
%TO.P,U6,14,Qg*%
%TO.N,Net-(U6-Qg)*%
X197322600Y-69657200D03*
%TO.P,U6,15,Qf*%
%TO.N,Net-(U6-Qf)*%
X197322600Y-72197200D03*
%TO.P,U6,16,Vdd*%
%TO.N,+5V*%
X197322600Y-74737200D03*
%TD*%
D13*
%TO.P,U5,1,CC*%
%TO.N,GND*%
X191594600Y-81309200D03*
D12*
%TO.P,U5,2,F*%
%TO.N,Net-(U5-F)*%
X191594600Y-83849200D03*
%TO.P,U5,3,G*%
%TO.N,Net-(U5-G)*%
X191594600Y-86389200D03*
%TO.P,U5,4,E*%
%TO.N,Net-(U5-E)*%
X191594600Y-88929200D03*
%TO.P,U5,5,D*%
%TO.N,Net-(U5-D)*%
X191594600Y-91469200D03*
%TO.P,U5,6,CC*%
%TO.N,GND*%
X196674600Y-91469200D03*
%TO.P,U5,7,DP*%
%TO.N,unconnected-(U5-DP-Pad7)*%
X196674600Y-88929200D03*
%TO.P,U5,8,C*%
%TO.N,Net-(U5-C)*%
X196674600Y-86389200D03*
%TO.P,U5,9,B*%
%TO.N,Net-(U5-B)*%
X196674600Y-83849200D03*
%TO.P,U5,10,A*%
%TO.N,Net-(U5-A)*%
X196674600Y-81309200D03*
%TD*%
D15*
%TO.P,SW1,1,1*%
%TO.N,+5V*%
X195737400Y-97283200D03*
X195737400Y-103783200D03*
%TO.P,SW1,2,2*%
%TO.N,Net-(R15-Pad1)*%
X191237400Y-97283200D03*
X191237400Y-103783200D03*
%TD*%
D13*
%TO.P,U8,1,B*%
%TO.N,unconnected-(U8-B-Pad1)*%
X211109400Y-34432000D03*
D14*
%TO.P,U8,2,QB*%
%TO.N,Net-(U10-DB)*%
X211109400Y-36972000D03*
%TO.P,U8,3,QA*%
%TO.N,Net-(U10-DA)*%
X211109400Y-39512000D03*
%TO.P,U8,4,DOWN*%
%TO.N,+5V*%
X211109400Y-42052000D03*
%TO.P,U8,5,UP*%
%TO.N,Net-(U8-UP)*%
X211109400Y-44592000D03*
%TO.P,U8,6,QC*%
%TO.N,Net-(U10-DC)*%
X211109400Y-47132000D03*
%TO.P,U8,7,QD*%
%TO.N,Net-(U10-DD)*%
X211109400Y-49672000D03*
%TO.P,U8,8,GND*%
%TO.N,GND*%
X211109400Y-52212000D03*
%TO.P,U8,9,D*%
%TO.N,unconnected-(U8-D-Pad9)*%
X218729400Y-52212000D03*
%TO.P,U8,10,C*%
%TO.N,unconnected-(U8-C-Pad10)*%
X218729400Y-49672000D03*
%TO.P,U8,11,~{LOAD}*%
%TO.N,unconnected-(U8-~{LOAD}-Pad11)*%
X218729400Y-47132000D03*
%TO.P,U8,12,~{CO}*%
%TO.N,unconnected-(U8-~{CO}-Pad12)*%
X218729400Y-44592000D03*
%TO.P,U8,13,~{BO}*%
%TO.N,unconnected-(U8-~{BO}-Pad13)*%
X218729400Y-42052000D03*
%TO.P,U8,14,CLR*%
%TO.N,Net-(U8-CLR)*%
X218729400Y-39512000D03*
%TO.P,U8,15,A*%
%TO.N,unconnected-(U8-A-Pad15)*%
X218729400Y-36972000D03*
%TO.P,U8,16,VCC*%
%TO.N,+5V*%
X218729400Y-34432000D03*
%TD*%
D20*
%TO.N,GND*%
X175310800Y-49911000D03*
X175412400Y-52298600D03*
X181991000Y-52273200D03*
X181991000Y-49961800D03*
%TO.N,Net-(U6-Qb)*%
X181364800Y-84734400D03*
%TO.N,Net-(U6-Qc)*%
X180763100Y-88519000D03*
%TO.N,Net-(U10-Qd)*%
X214015600Y-73234700D03*
%TO.N,Net-(U8-UP)*%
X210007700Y-40906400D03*
%TO.N,Net-(U10-DB)*%
X221358900Y-74762600D03*
%TO.N,Net-(U6-DC)*%
X187316200Y-67706000D03*
%TO.N,Net-(U6-DB)*%
X186672300Y-59400200D03*
%TO.N,Net-(U7-CLR)*%
X186339800Y-62270500D03*
%TO.N,Net-(U6-DD)*%
X195997800Y-71981500D03*
X200801500Y-62037200D03*
%TD*%
D21*
%TO.N,+5V*%
X204942600Y-67117200D02*
X204942600Y-69657200D01*
X194739100Y-42184400D02*
X197622000Y-42184400D01*
X181696200Y-64480200D02*
X184261600Y-64480200D01*
X197622000Y-49804400D02*
X197622000Y-47264400D01*
X194739100Y-34386600D02*
X194739100Y-42184400D01*
X198748400Y-42184400D02*
X197622000Y-42184400D01*
X197622000Y-47264400D02*
X198748400Y-47264400D01*
X218734800Y-67142600D02*
X218734800Y-69682600D01*
X171510800Y-68767800D02*
X171510800Y-69869500D01*
X197322600Y-79319700D02*
X195572900Y-79319700D01*
X195572900Y-97283200D02*
X195737400Y-97283200D01*
X197322600Y-74737200D02*
X197322600Y-79319700D01*
X181696200Y-69869500D02*
X181696200Y-64480200D01*
X171510800Y-69869500D02*
X181696200Y-69869500D01*
X198748400Y-47264400D02*
X198748400Y-42184400D01*
X191856200Y-34386600D02*
X194739100Y-34386600D01*
X195572900Y-79319700D02*
X195572900Y-97283200D01*
%TO.N,Net-(U6-Qb)*%
X193275200Y-73738500D02*
X193275200Y-75741900D01*
X197322600Y-64577200D02*
X194895100Y-64577200D01*
X194895100Y-73738500D02*
X193275200Y-73738500D01*
X193275200Y-75741900D02*
X181364800Y-75741900D01*
X194895100Y-64577200D02*
X194895100Y-73738500D01*
X181364800Y-75741900D02*
X181364800Y-84734400D01*
%TO.N,Net-(U6-Qc)*%
X197322600Y-62037200D02*
X194493400Y-62037200D01*
X192873500Y-73136800D02*
X192873500Y-73538500D01*
X194493400Y-73136800D02*
X192873500Y-73136800D01*
X180763100Y-73538500D02*
X180763100Y-88519000D01*
X194493400Y-62037200D02*
X194493400Y-73136800D01*
X192873500Y-73538500D02*
X180763100Y-73538500D01*
%TO.N,Net-(U6-Qd)*%
X194091700Y-70672900D02*
X194091700Y-59497200D01*
X180094600Y-70672900D02*
X194091700Y-70672900D01*
X194091700Y-59497200D02*
X197322600Y-59497200D01*
X180094600Y-92608400D02*
X180094600Y-70672900D01*
X178155600Y-92608400D02*
X180094600Y-92608400D01*
%TO.N,Net-(U6-Qe)*%
X182298800Y-68307700D02*
X192983800Y-68307700D01*
X176950700Y-70271200D02*
X182298800Y-70271200D01*
X192983800Y-68307700D02*
X192983800Y-56957200D01*
X182298800Y-70271200D02*
X182298800Y-68307700D01*
X192983800Y-56957200D02*
X197322600Y-56957200D01*
X178155600Y-96545400D02*
X176950700Y-96545400D01*
X176950700Y-96545400D02*
X176950700Y-70271200D01*
%TO.N,Net-(U5-E)*%
X188482800Y-96545400D02*
X183235600Y-96545400D01*
X188482800Y-88929200D02*
X188482800Y-96545400D01*
X191594600Y-88929200D02*
X188482800Y-88929200D01*
%TO.N,Net-(U5-F)*%
X182233900Y-100431600D02*
X182233900Y-94012000D01*
X188079700Y-83849200D02*
X191594600Y-83849200D01*
X182233900Y-94012000D02*
X188079700Y-94012000D01*
X183261000Y-100431600D02*
X182233900Y-100431600D01*
X188079700Y-94012000D02*
X188079700Y-83849200D01*
%TO.N,Net-(U6-Qf)*%
X181966500Y-93008600D02*
X181966500Y-77229900D01*
X195774800Y-72583200D02*
X197322600Y-72583200D01*
X193676900Y-77229900D02*
X193676900Y-74270400D01*
X181966500Y-77229900D02*
X193676900Y-77229900D01*
X180493300Y-100431600D02*
X180493300Y-93008600D01*
X178181000Y-100431600D02*
X180493300Y-100431600D01*
X197322600Y-72583200D02*
X197322600Y-72197200D01*
X180493300Y-93008600D02*
X181966500Y-93008600D01*
X193676900Y-74270400D02*
X195774800Y-74270400D01*
X195774800Y-74270400D02*
X195774800Y-72583200D01*
%TO.N,Net-(U6-Qg)*%
X185769500Y-78919500D02*
X185769500Y-93610300D01*
X180895000Y-104216200D02*
X178231800Y-104216200D01*
X197322600Y-69657200D02*
X198424300Y-69657200D01*
X196220900Y-73635500D02*
X196220900Y-75785100D01*
X194078600Y-78919500D02*
X185769500Y-78919500D01*
X180895000Y-93610300D02*
X180895000Y-104216200D01*
X194078600Y-75785100D02*
X194078600Y-78919500D01*
X198424300Y-69657200D02*
X198424300Y-73635500D01*
X196220900Y-75785100D02*
X194078600Y-75785100D01*
X198424300Y-73635500D02*
X196220900Y-73635500D01*
X185769500Y-93610300D02*
X180895000Y-93610300D01*
%TO.N,Net-(U5-G)*%
X193395600Y-105105200D02*
X193395600Y-87122000D01*
X183311800Y-104216200D02*
X186867800Y-104216200D01*
X192662800Y-86389200D02*
X191594600Y-86389200D01*
X186867800Y-104216200D02*
X189179200Y-106527600D01*
X193395600Y-87122000D02*
X192662800Y-86389200D01*
X189179200Y-106527600D02*
X191973200Y-106527600D01*
X191973200Y-106527600D02*
X193395600Y-105105200D01*
%TO.N,Net-(U10-Qa)*%
X210013100Y-86053500D02*
X210013100Y-67142600D01*
X216611000Y-104622600D02*
X216611000Y-86053500D01*
X216611000Y-86053500D02*
X210013100Y-86053500D01*
X219329000Y-104622600D02*
X216611000Y-104622600D01*
X210013100Y-67142600D02*
X211114800Y-67142600D01*
%TO.N,Net-(U10-Qb)*%
X217231400Y-76265100D02*
X220913000Y-76265100D01*
X218378100Y-94907100D02*
X218378100Y-100685600D01*
X220913000Y-76265100D02*
X220913000Y-94907100D01*
X217231400Y-64602600D02*
X217231400Y-76265100D01*
X218378100Y-100685600D02*
X219379800Y-100685600D01*
X211114800Y-64602600D02*
X217231400Y-64602600D01*
X220913000Y-94907100D02*
X218378100Y-94907100D01*
%TO.N,Net-(U11-C)*%
X215199900Y-91860700D02*
X215199900Y-96951800D01*
X211525100Y-87543100D02*
X211525100Y-91860700D01*
X215199900Y-96951800D02*
X214299800Y-96951800D01*
X211525100Y-91860700D02*
X215199900Y-91860700D01*
X205787100Y-87543100D02*
X211525100Y-87543100D01*
X205787100Y-86371700D02*
X205787100Y-87543100D01*
%TO.N,Net-(U10-Qc)*%
X215157200Y-63502400D02*
X215157200Y-62062600D01*
X219836500Y-75462400D02*
X219836500Y-70784300D01*
X219379800Y-96951800D02*
X221314700Y-96951800D01*
X219836500Y-70784300D02*
X217633100Y-70784300D01*
X221314700Y-96951800D02*
X221314700Y-75462400D01*
X217633100Y-63502400D02*
X215157200Y-63502400D01*
X221314700Y-75462400D02*
X219836500Y-75462400D01*
X215157200Y-62062600D02*
X211114800Y-62062600D01*
X217633100Y-70784300D02*
X217633100Y-63502400D01*
%TO.N,Net-(U11-D)*%
X200707100Y-92862400D02*
X214198200Y-92862400D01*
X200707100Y-91451700D02*
X200707100Y-92862400D01*
%TO.N,Net-(U10-Qd)*%
X214015600Y-73234700D02*
X214015600Y-78273000D01*
X217012700Y-92862400D02*
X219278200Y-92862400D01*
X214015600Y-78273000D02*
X217012700Y-78273000D01*
X217012700Y-78273000D02*
X217012700Y-92862400D01*
%TO.N,Net-(U10-Qe)*%
X210013100Y-56982600D02*
X210013100Y-65807900D01*
X211114800Y-56982600D02*
X210013100Y-56982600D01*
X220503800Y-88925400D02*
X219151200Y-88925400D01*
X215821000Y-65807900D02*
X215821000Y-77067900D01*
X215821000Y-77067900D02*
X220503800Y-77067900D01*
X210013100Y-65807900D02*
X215821000Y-65807900D01*
X220503800Y-77067900D02*
X220503800Y-88925400D01*
%TO.N,Net-(U11-E)*%
X214071200Y-86874500D02*
X206888800Y-86874500D01*
X206888800Y-86874500D02*
X206888800Y-85270000D01*
X203247100Y-85270000D02*
X203247100Y-88911700D01*
X203247100Y-88911700D02*
X200707100Y-88911700D01*
X206888800Y-85270000D02*
X203247100Y-85270000D01*
X214071200Y-88925400D02*
X214071200Y-86874500D01*
%TO.N,Net-(U10-Qf)*%
X211114800Y-72222600D02*
X214617400Y-72222600D01*
X214617400Y-72222600D02*
X214617400Y-77871300D01*
X214617400Y-77871300D02*
X219100400Y-77871300D01*
X219100400Y-77871300D02*
X219100400Y-81153000D01*
%TO.N,Net-(U10-Qg)*%
X215419300Y-69682600D02*
X215419300Y-77469600D01*
X211114800Y-69682600D02*
X215419300Y-69682600D01*
X220102100Y-77469600D02*
X220102100Y-84963000D01*
X220102100Y-84963000D02*
X219100400Y-84963000D01*
X215419300Y-77469600D02*
X220102100Y-77469600D01*
%TO.N,Net-(U8-UP)*%
X210007700Y-44592000D02*
X210007700Y-40906400D01*
X211109400Y-44592000D02*
X210007700Y-44592000D01*
%TO.N,Net-(U2A-C)*%
X206887300Y-80190000D02*
X201808800Y-80190000D01*
X206887300Y-50906100D02*
X206887300Y-80190000D01*
X199553400Y-84933400D02*
X199553400Y-97283200D01*
X199553400Y-97283200D02*
X201737400Y-97283200D01*
X201808800Y-80190000D02*
X201808800Y-84933400D01*
X196520300Y-44724400D02*
X196520300Y-50906100D01*
X201737400Y-103783200D02*
X201737400Y-97283200D01*
X197622000Y-44724400D02*
X196520300Y-44724400D01*
X201808800Y-84933400D02*
X199553400Y-84933400D01*
X196520300Y-50906100D02*
X206887300Y-50906100D01*
%TO.N,Net-(U2A-Q)*%
X184236200Y-33284900D02*
X202477400Y-33284900D01*
X202477400Y-47264400D02*
X205242000Y-47264400D01*
X202477400Y-33284900D02*
X202477400Y-47264400D01*
X184236200Y-34386600D02*
X184236200Y-33284900D01*
%TO.N,Net-(U10-DB)*%
X221358900Y-43153700D02*
X221358900Y-74762600D01*
X211109400Y-36972000D02*
X217627700Y-36972000D01*
X217627700Y-43153700D02*
X221358900Y-43153700D01*
X217627700Y-36972000D02*
X217627700Y-43153700D01*
%TO.N,Net-(U7-UP)*%
X184261600Y-67020200D02*
X185363300Y-67020200D01*
X185363300Y-47086600D02*
X184236200Y-47086600D01*
X185363300Y-67020200D02*
X185363300Y-47086600D01*
%TO.N,Net-(U6-DC)*%
X202199300Y-72197200D02*
X204942600Y-72197200D01*
X192983800Y-47086600D02*
X192983800Y-55589500D01*
X192983800Y-55589500D02*
X187316200Y-55589500D01*
X187316200Y-55589500D02*
X187316200Y-67706000D01*
X191856200Y-47086600D02*
X192983800Y-47086600D01*
X202199300Y-55589500D02*
X202199300Y-72197200D01*
X192983800Y-55589500D02*
X202199300Y-55589500D01*
%TO.N,Net-(U9-Q)*%
X180232500Y-36926600D02*
X184236200Y-36926600D01*
X171510800Y-67329500D02*
X180232500Y-67329500D01*
X180232500Y-67329500D02*
X180232500Y-36926600D01*
X171510800Y-66227800D02*
X171510800Y-67329500D01*
%TO.N,Net-(U6-DB)*%
X191856200Y-44546600D02*
X194952900Y-44546600D01*
X186672300Y-44546600D02*
X186672300Y-59400200D01*
X191856200Y-44546600D02*
X186672300Y-44546600D01*
X194952900Y-54607900D02*
X202601000Y-54607900D01*
X202601000Y-54607900D02*
X202601000Y-65847200D01*
X202601000Y-65847200D02*
X206044300Y-65847200D01*
X206044300Y-65847200D02*
X206044300Y-74737200D01*
X194952900Y-44546600D02*
X194952900Y-54607900D01*
X206044300Y-74737200D02*
X204942600Y-74737200D01*
%TO.N,Net-(U7-CLR)*%
X186339800Y-62270500D02*
X186070500Y-62270500D01*
X174040300Y-35824900D02*
X174040300Y-33315300D01*
X186070500Y-35824900D02*
X174040300Y-35824900D01*
X169764100Y-33315300D02*
X169764100Y-42037000D01*
X174040300Y-33315300D02*
X169764100Y-33315300D01*
X186070500Y-62270500D02*
X186070500Y-35824900D01*
X169764100Y-42037000D02*
X170865800Y-42037000D01*
%TO.N,Net-(U6-DD)*%
X200801500Y-68555500D02*
X200801500Y-62037200D01*
X195997800Y-68555500D02*
X200801500Y-68555500D01*
X195997800Y-71981500D02*
X195997800Y-68555500D01*
%TO.N,Net-(U10-DA)*%
X214016100Y-39512000D02*
X214016100Y-53841800D01*
X214016100Y-53841800D02*
X219836500Y-53841800D01*
X211109400Y-39512000D02*
X214016100Y-39512000D01*
X219836500Y-53841800D02*
X219836500Y-59522600D01*
X219836500Y-59522600D02*
X218734800Y-59522600D01*
%TO.N,Net-(U9-THR)*%
X171510800Y-64789500D02*
X171510800Y-63687800D01*
X179130800Y-64789500D02*
X171510800Y-64789500D01*
X171510800Y-64789500D02*
X165989000Y-64789500D01*
X165989000Y-64789500D02*
X165989000Y-69342000D01*
X179130800Y-66227800D02*
X179130800Y-64789500D01*
%TO.N,Net-(R15-Pad1)*%
X156503700Y-59780800D02*
X156503700Y-73177400D01*
X170865800Y-34417000D02*
X171967500Y-34417000D01*
X163560000Y-59780800D02*
X156503700Y-59780800D01*
X163560000Y-44577000D02*
X163560000Y-59780800D01*
X171967500Y-44577000D02*
X170865800Y-44577000D01*
X171967500Y-34417000D02*
X171967500Y-44577000D01*
X170865800Y-44577000D02*
X163560000Y-44577000D01*
X191237400Y-103783200D02*
X191237400Y-97283200D01*
X156503700Y-73177400D02*
X152425400Y-73177400D01*
%TD*%
%TA.AperFunction,Conductor*%
%TO.N,GND*%
G36*
X196670027Y-76302897D02*
G01*
X196713218Y-76357818D01*
X196722100Y-76403904D01*
X196722100Y-78595200D01*
X196702415Y-78662239D01*
X196649611Y-78707994D01*
X196598100Y-78719200D01*
X195493843Y-78719200D01*
X195341116Y-78760123D01*
X195341109Y-78760126D01*
X195204190Y-78839175D01*
X195204182Y-78839181D01*
X195092381Y-78950982D01*
X195092375Y-78950990D01*
X195013326Y-79087909D01*
X195013323Y-79087916D01*
X194972400Y-79240643D01*
X194972400Y-95917394D01*
X194952715Y-95984433D01*
X194917894Y-96019521D01*
X194917938Y-96019577D01*
X194917505Y-96019913D01*
X194916236Y-96021193D01*
X194913901Y-96022718D01*
X194717657Y-96175461D01*
X194549233Y-96358417D01*
X194413226Y-96566593D01*
X194313336Y-96794318D01*
X194252292Y-97035375D01*
X194252290Y-97035387D01*
X194243676Y-97139352D01*
X194218523Y-97204537D01*
X194162121Y-97245775D01*
X194092378Y-97249973D01*
X194031436Y-97215799D01*
X193998644Y-97154102D01*
X193996100Y-97129112D01*
X193996100Y-87211060D01*
X193996101Y-87211047D01*
X193996101Y-87042944D01*
X193996101Y-87042943D01*
X193955177Y-86890216D01*
X193900461Y-86795444D01*
X193876124Y-86753290D01*
X193876118Y-86753282D01*
X193721222Y-86598386D01*
X193150389Y-86027554D01*
X193150388Y-86027552D01*
X193031517Y-85908681D01*
X193031516Y-85908680D01*
X192944704Y-85858560D01*
X192944704Y-85858559D01*
X192944700Y-85858558D01*
X192894585Y-85829623D01*
X192894584Y-85829622D01*
X192894583Y-85829622D01*
X192806468Y-85806010D01*
X192746808Y-85769644D01*
X192726184Y-85738645D01*
X192725168Y-85736466D01*
X192594647Y-85550061D01*
X192594645Y-85550058D01*
X192433741Y-85389154D01*
X192247334Y-85258632D01*
X192247328Y-85258629D01*
X192189325Y-85231582D01*
X192136885Y-85185410D01*
X192117733Y-85118217D01*
X192137948Y-85051335D01*
X192189325Y-85006818D01*
X192247334Y-84979768D01*
X192433739Y-84849247D01*
X192594647Y-84688339D01*
X192725168Y-84501934D01*
X192821339Y-84295696D01*
X192880235Y-84075892D01*
X192900068Y-83849200D01*
X192880235Y-83622508D01*
X192821339Y-83402704D01*
X192725168Y-83196466D01*
X192594647Y-83010061D01*
X192594645Y-83010058D01*
X192433743Y-82849156D01*
X192408512Y-82831489D01*
X192364887Y-82776912D01*
X192357695Y-82707413D01*
X192389217Y-82645059D01*
X192449447Y-82609645D01*
X192466381Y-82606624D01*
X192501980Y-82602796D01*
X192636686Y-82552554D01*
X192636693Y-82552550D01*
X192751787Y-82466390D01*
X192751790Y-82466387D01*
X192837950Y-82351293D01*
X192837954Y-82351286D01*
X192888196Y-82216579D01*
X192888198Y-82216572D01*
X192894599Y-82157044D01*
X192894600Y-82157027D01*
X192894600Y-81559200D01*
X191910286Y-81559200D01*
X191914680Y-81554806D01*
X191967341Y-81463594D01*
X191994600Y-81361861D01*
X191994600Y-81256539D01*
X191967341Y-81154806D01*
X191914680Y-81063594D01*
X191910286Y-81059200D01*
X192894600Y-81059200D01*
X192894600Y-80461372D01*
X192894599Y-80461355D01*
X192888198Y-80401827D01*
X192888196Y-80401820D01*
X192837954Y-80267113D01*
X192837950Y-80267106D01*
X192751790Y-80152012D01*
X192751787Y-80152009D01*
X192636693Y-80065849D01*
X192636686Y-80065845D01*
X192501979Y-80015603D01*
X192501972Y-80015601D01*
X192442444Y-80009200D01*
X191844600Y-80009200D01*
X191844600Y-80993514D01*
X191840206Y-80989120D01*
X191748994Y-80936459D01*
X191647261Y-80909200D01*
X191541939Y-80909200D01*
X191440206Y-80936459D01*
X191348994Y-80989120D01*
X191344600Y-80993514D01*
X191344600Y-80009200D01*
X190746755Y-80009200D01*
X190687227Y-80015601D01*
X190687220Y-80015603D01*
X190552513Y-80065845D01*
X190552506Y-80065849D01*
X190437412Y-80152009D01*
X190437409Y-80152012D01*
X190351249Y-80267106D01*
X190351245Y-80267113D01*
X190301003Y-80401820D01*
X190301001Y-80401827D01*
X190294600Y-80461355D01*
X190294600Y-81059200D01*
X191278914Y-81059200D01*
X191274520Y-81063594D01*
X191221859Y-81154806D01*
X191194600Y-81256539D01*
X191194600Y-81361861D01*
X191221859Y-81463594D01*
X191274520Y-81554806D01*
X191278914Y-81559200D01*
X190294600Y-81559200D01*
X190294600Y-82157044D01*
X190301001Y-82216572D01*
X190301003Y-82216579D01*
X190351245Y-82351286D01*
X190351249Y-82351293D01*
X190437409Y-82466387D01*
X190437412Y-82466390D01*
X190552506Y-82552550D01*
X190552513Y-82552554D01*
X190687220Y-82602796D01*
X190687227Y-82602798D01*
X190722818Y-82606625D01*
X190787369Y-82633363D01*
X190827218Y-82690755D01*
X190829711Y-82760580D01*
X190794059Y-82820669D01*
X190780688Y-82831487D01*
X190755461Y-82849151D01*
X190594554Y-83010058D01*
X190518050Y-83119318D01*
X190464481Y-83195824D01*
X190409907Y-83239448D01*
X190362908Y-83248700D01*
X188000643Y-83248700D01*
X187847916Y-83289623D01*
X187847909Y-83289626D01*
X187710990Y-83368675D01*
X187710982Y-83368681D01*
X187599181Y-83480482D01*
X187599175Y-83480490D01*
X187520126Y-83617409D01*
X187520123Y-83617416D01*
X187479200Y-83770143D01*
X187479200Y-93287500D01*
X187459515Y-93354539D01*
X187406711Y-93400294D01*
X187355200Y-93411500D01*
X186494000Y-93411500D01*
X186426961Y-93391815D01*
X186381206Y-93339011D01*
X186370000Y-93287500D01*
X186370000Y-79644000D01*
X186389685Y-79576961D01*
X186442489Y-79531206D01*
X186494000Y-79520000D01*
X194157655Y-79520000D01*
X194157657Y-79520000D01*
X194310384Y-79479077D01*
X194447316Y-79400020D01*
X194559120Y-79288216D01*
X194638177Y-79151284D01*
X194679100Y-78998557D01*
X194679100Y-76509600D01*
X194698785Y-76442561D01*
X194751589Y-76396806D01*
X194803100Y-76385600D01*
X196299955Y-76385600D01*
X196299957Y-76385600D01*
X196452684Y-76344677D01*
X196536100Y-76296516D01*
X196604000Y-76280044D01*
X196670027Y-76302897D01*
G37*
%TD.AperFunction*%
%TA.AperFunction,Conductor*%
G36*
X204480458Y-85890185D02*
G01*
X204526213Y-85942989D01*
X204536157Y-86012147D01*
X204533194Y-86026593D01*
X204501466Y-86145002D01*
X204501464Y-86145013D01*
X204481632Y-86371698D01*
X204481632Y-86371701D01*
X204501464Y-86598386D01*
X204501466Y-86598397D01*
X204560358Y-86818188D01*
X204560361Y-86818197D01*
X204656531Y-87024432D01*
X204656532Y-87024434D01*
X204787054Y-87210841D01*
X204947958Y-87371745D01*
X204947961Y-87371747D01*
X205133724Y-87501818D01*
X205177348Y-87556393D01*
X205186600Y-87603392D01*
X205186600Y-87622158D01*
X205191866Y-87641811D01*
X205190203Y-87711661D01*
X205151039Y-87769523D01*
X205138797Y-87778023D01*
X205138800Y-87778027D01*
X204947958Y-87911654D01*
X204787054Y-88072558D01*
X204656532Y-88258965D01*
X204656531Y-88258967D01*
X204560361Y-88465202D01*
X204560358Y-88465211D01*
X204501466Y-88685002D01*
X204501464Y-88685013D01*
X204481632Y-88911698D01*
X204481632Y-88911701D01*
X204501464Y-89138386D01*
X204501466Y-89138397D01*
X204560358Y-89358188D01*
X204560361Y-89358197D01*
X204656531Y-89564432D01*
X204656532Y-89564434D01*
X204787054Y-89750841D01*
X204947958Y-89911745D01*
X204947961Y-89911747D01*
X205134366Y-90042268D01*
X205192965Y-90069593D01*
X205245405Y-90115765D01*
X205264557Y-90182958D01*
X205244342Y-90249839D01*
X205192967Y-90294357D01*
X205134613Y-90321568D01*
X205134612Y-90321568D01*
X205061626Y-90372673D01*
X205061626Y-90372674D01*
X205740653Y-91051700D01*
X205734439Y-91051700D01*
X205632706Y-91078959D01*
X205541494Y-91131620D01*
X205467020Y-91206094D01*
X205414359Y-91297306D01*
X205387100Y-91399039D01*
X205387100Y-91405252D01*
X204708074Y-90726226D01*
X204708073Y-90726226D01*
X204656968Y-90799212D01*
X204656966Y-90799216D01*
X204560834Y-91005373D01*
X204560830Y-91005382D01*
X204501960Y-91225089D01*
X204501958Y-91225100D01*
X204482134Y-91451697D01*
X204482134Y-91451702D01*
X204501958Y-91678299D01*
X204501960Y-91678310D01*
X204560830Y-91898017D01*
X204560834Y-91898026D01*
X204648252Y-92085495D01*
X204658744Y-92154573D01*
X204630224Y-92218357D01*
X204571748Y-92256596D01*
X204535870Y-92261900D01*
X201958881Y-92261900D01*
X201891842Y-92242215D01*
X201846087Y-92189411D01*
X201836143Y-92120253D01*
X201846499Y-92085495D01*
X201933839Y-91898196D01*
X201992735Y-91678392D01*
X202012568Y-91451700D01*
X201992735Y-91225008D01*
X201933839Y-91005204D01*
X201837668Y-90798966D01*
X201707147Y-90612561D01*
X201707145Y-90612558D01*
X201546241Y-90451654D01*
X201359834Y-90321132D01*
X201359828Y-90321129D01*
X201301825Y-90294082D01*
X201249385Y-90247910D01*
X201230233Y-90180717D01*
X201250448Y-90113835D01*
X201301825Y-90069318D01*
X201359834Y-90042268D01*
X201546239Y-89911747D01*
X201707147Y-89750839D01*
X201837218Y-89565075D01*
X201891793Y-89521452D01*
X201938792Y-89512200D01*
X203326155Y-89512200D01*
X203326157Y-89512200D01*
X203478884Y-89471277D01*
X203615816Y-89392220D01*
X203727620Y-89280416D01*
X203806677Y-89143484D01*
X203847600Y-88990757D01*
X203847600Y-85994500D01*
X203867285Y-85927461D01*
X203920089Y-85881706D01*
X203971600Y-85870500D01*
X204413419Y-85870500D01*
X204480458Y-85890185D01*
G37*
%TD.AperFunction*%
%TA.AperFunction,Conductor*%
G36*
X210867639Y-88163285D02*
G01*
X210913394Y-88216089D01*
X210924600Y-88267600D01*
X210924600Y-91781643D01*
X210924600Y-91939757D01*
X210963650Y-92085495D01*
X210967627Y-92100335D01*
X210965796Y-92100825D01*
X210972146Y-92159928D01*
X210940865Y-92222404D01*
X210880773Y-92258051D01*
X210850118Y-92261900D01*
X207038330Y-92261900D01*
X206971291Y-92242215D01*
X206925536Y-92189411D01*
X206915592Y-92120253D01*
X206925948Y-92085495D01*
X207013365Y-91898026D01*
X207013369Y-91898017D01*
X207072239Y-91678310D01*
X207072241Y-91678299D01*
X207092066Y-91451702D01*
X207092066Y-91451697D01*
X207072241Y-91225100D01*
X207072239Y-91225089D01*
X207013369Y-91005382D01*
X207013364Y-91005368D01*
X206917236Y-90799221D01*
X206917232Y-90799213D01*
X206866125Y-90726226D01*
X206187100Y-91405251D01*
X206187100Y-91399039D01*
X206159841Y-91297306D01*
X206107180Y-91206094D01*
X206032706Y-91131620D01*
X205941494Y-91078959D01*
X205839761Y-91051700D01*
X205833548Y-91051700D01*
X206512572Y-90372674D01*
X206439580Y-90321564D01*
X206381234Y-90294357D01*
X206328795Y-90248184D01*
X206309643Y-90180991D01*
X206329859Y-90114110D01*
X206381234Y-90069593D01*
X206439834Y-90042268D01*
X206626239Y-89911747D01*
X206787147Y-89750839D01*
X206917668Y-89564434D01*
X207013839Y-89358196D01*
X207072735Y-89138392D01*
X207091369Y-88925400D01*
X207092568Y-88911701D01*
X207092568Y-88911698D01*
X207077593Y-88740535D01*
X207072735Y-88685008D01*
X207013839Y-88465204D01*
X206946130Y-88320004D01*
X206935639Y-88250928D01*
X206964159Y-88187143D01*
X207022635Y-88148904D01*
X207058513Y-88143600D01*
X210800600Y-88143600D01*
X210867639Y-88163285D01*
G37*
%TD.AperFunction*%
%TA.AperFunction,Conductor*%
G36*
X182955475Y-74158685D02*
G01*
X183001230Y-74211489D01*
X183011174Y-74280647D01*
X183008211Y-74295093D01*
X182982727Y-74390199D01*
X182982728Y-74390200D01*
X183945914Y-74390200D01*
X183941520Y-74394594D01*
X183888859Y-74485806D01*
X183861600Y-74587539D01*
X183861600Y-74692861D01*
X183888859Y-74794594D01*
X183941520Y-74885806D01*
X183945914Y-74890200D01*
X182982727Y-74890200D01*
X183008211Y-74985307D01*
X183006548Y-75055157D01*
X182967385Y-75113019D01*
X182903157Y-75140523D01*
X182888436Y-75141400D01*
X181487600Y-75141400D01*
X181420561Y-75121715D01*
X181374806Y-75068911D01*
X181363600Y-75017400D01*
X181363600Y-74263000D01*
X181383285Y-74195961D01*
X181436089Y-74150206D01*
X181487600Y-74139000D01*
X182888436Y-74139000D01*
X182955475Y-74158685D01*
G37*
%TD.AperFunction*%
%TA.AperFunction,Conductor*%
G36*
X190574958Y-74158685D02*
G01*
X190620713Y-74211489D01*
X190630657Y-74280647D01*
X190627694Y-74295093D01*
X190595966Y-74413502D01*
X190595964Y-74413513D01*
X190576132Y-74640198D01*
X190576132Y-74640201D01*
X190595964Y-74866886D01*
X190595966Y-74866897D01*
X190627694Y-74985307D01*
X190626031Y-75055157D01*
X190586868Y-75113019D01*
X190522640Y-75140523D01*
X190507919Y-75141400D01*
X185634764Y-75141400D01*
X185567725Y-75121715D01*
X185521970Y-75068911D01*
X185512026Y-74999753D01*
X185514989Y-74985307D01*
X185540472Y-74890200D01*
X184577286Y-74890200D01*
X184581680Y-74885806D01*
X184634341Y-74794594D01*
X184661600Y-74692861D01*
X184661600Y-74587539D01*
X184634341Y-74485806D01*
X184581680Y-74394594D01*
X184577286Y-74390200D01*
X185540472Y-74390200D01*
X185540472Y-74390199D01*
X185514989Y-74295093D01*
X185516652Y-74225243D01*
X185555815Y-74167381D01*
X185620043Y-74139877D01*
X185634764Y-74139000D01*
X190507919Y-74139000D01*
X190574958Y-74158685D01*
G37*
%TD.AperFunction*%
%TA.AperFunction,Conductor*%
G36*
X220701439Y-43773885D02*
G01*
X220747194Y-43826689D01*
X220758400Y-43878200D01*
X220758400Y-74180187D01*
X220738715Y-74247226D01*
X220731350Y-74257496D01*
X220729084Y-74260337D01*
X220665993Y-74360745D01*
X220613658Y-74407035D01*
X220544605Y-74417683D01*
X220480757Y-74389308D01*
X220442385Y-74330918D01*
X220437000Y-74294772D01*
X220437000Y-70705245D01*
X220437000Y-70705243D01*
X220396077Y-70552516D01*
X220375630Y-70517100D01*
X220317024Y-70415590D01*
X220317018Y-70415582D01*
X220205217Y-70303781D01*
X220205209Y-70303775D01*
X220068290Y-70224726D01*
X220068277Y-70224720D01*
X220064548Y-70223721D01*
X220061759Y-70222020D01*
X220060777Y-70221614D01*
X220060840Y-70221460D01*
X220004891Y-70187352D01*
X219974366Y-70124503D01*
X219976875Y-70071857D01*
X220020435Y-69909292D01*
X220040268Y-69682600D01*
X220020435Y-69455908D01*
X219961539Y-69236104D01*
X219865368Y-69029866D01*
X219734847Y-68843461D01*
X219734845Y-68843458D01*
X219573940Y-68682553D01*
X219388177Y-68552481D01*
X219344552Y-68497904D01*
X219335300Y-68450906D01*
X219335300Y-68374292D01*
X219354985Y-68307253D01*
X219388174Y-68272719D01*
X219573939Y-68142647D01*
X219734847Y-67981739D01*
X219865368Y-67795334D01*
X219961539Y-67589096D01*
X220020435Y-67369292D01*
X220040268Y-67142600D01*
X220020435Y-66915908D01*
X219961539Y-66696104D01*
X219865368Y-66489866D01*
X219734847Y-66303461D01*
X219734845Y-66303458D01*
X219573941Y-66142554D01*
X219387534Y-66012032D01*
X219387532Y-66012031D01*
X219364118Y-66001113D01*
X219328932Y-65984705D01*
X219276494Y-65938534D01*
X219257342Y-65871340D01*
X219277558Y-65804459D01*
X219328934Y-65759941D01*
X219387284Y-65732732D01*
X219573620Y-65602257D01*
X219734457Y-65441420D01*
X219864934Y-65255082D01*
X219961065Y-65048926D01*
X219961069Y-65048917D01*
X220013672Y-64852600D01*
X219050486Y-64852600D01*
X219054880Y-64848206D01*
X219107541Y-64756994D01*
X219134800Y-64655261D01*
X219134800Y-64549939D01*
X219107541Y-64448206D01*
X219054880Y-64356994D01*
X219050486Y-64352600D01*
X220013672Y-64352600D01*
X220013672Y-64352599D01*
X219961069Y-64156282D01*
X219961065Y-64156273D01*
X219864934Y-63950117D01*
X219734457Y-63763779D01*
X219573620Y-63602942D01*
X219387282Y-63472465D01*
X219328933Y-63445257D01*
X219276494Y-63399084D01*
X219257342Y-63331891D01*
X219277558Y-63265010D01*
X219328929Y-63220495D01*
X219387534Y-63193168D01*
X219573939Y-63062647D01*
X219734847Y-62901739D01*
X219865368Y-62715334D01*
X219961539Y-62509096D01*
X220020435Y-62289292D01*
X220040268Y-62062600D01*
X220038045Y-62037196D01*
X220033649Y-61986941D01*
X220020435Y-61835908D01*
X219961539Y-61616104D01*
X219865368Y-61409866D01*
X219754711Y-61251830D01*
X219734845Y-61223458D01*
X219573941Y-61062554D01*
X219387534Y-60932032D01*
X219387528Y-60932029D01*
X219359838Y-60919117D01*
X219329524Y-60904981D01*
X219277085Y-60858810D01*
X219257933Y-60791617D01*
X219278148Y-60724735D01*
X219329525Y-60680218D01*
X219387534Y-60653168D01*
X219573939Y-60522647D01*
X219734847Y-60361739D01*
X219865368Y-60175334D01*
X219865376Y-60175315D01*
X219866168Y-60173946D01*
X219866684Y-60173453D01*
X219868473Y-60170899D01*
X219868985Y-60171258D01*
X219916727Y-60125723D01*
X219941459Y-60116159D01*
X220068284Y-60082177D01*
X220205216Y-60003120D01*
X220317020Y-59891316D01*
X220396077Y-59754384D01*
X220437000Y-59601657D01*
X220437000Y-53762743D01*
X220396077Y-53610016D01*
X220382257Y-53586078D01*
X220317024Y-53473090D01*
X220317018Y-53473082D01*
X220205217Y-53361281D01*
X220205209Y-53361275D01*
X220068290Y-53282226D01*
X220068286Y-53282224D01*
X220068284Y-53282223D01*
X219915557Y-53241300D01*
X219915556Y-53241300D01*
X219834497Y-53241300D01*
X219767458Y-53221615D01*
X219721703Y-53168811D01*
X219711759Y-53099653D01*
X219732922Y-53046177D01*
X219780651Y-52978010D01*
X219859968Y-52864734D01*
X219956139Y-52658496D01*
X220015035Y-52438692D01*
X220034868Y-52212000D01*
X220033416Y-52195408D01*
X220021360Y-52057606D01*
X220015035Y-51985308D01*
X219956139Y-51765504D01*
X219859968Y-51559266D01*
X219729447Y-51372861D01*
X219729445Y-51372858D01*
X219568541Y-51211954D01*
X219382134Y-51081432D01*
X219382128Y-51081429D01*
X219324125Y-51054382D01*
X219271685Y-51008210D01*
X219252533Y-50941017D01*
X219272748Y-50874135D01*
X219324125Y-50829618D01*
X219329643Y-50827045D01*
X219382134Y-50802568D01*
X219568539Y-50672047D01*
X219729447Y-50511139D01*
X219859968Y-50324734D01*
X219956139Y-50118496D01*
X220015035Y-49898692D01*
X220034868Y-49672000D01*
X220033555Y-49656998D01*
X220026619Y-49577713D01*
X220015035Y-49445308D01*
X219956139Y-49225504D01*
X219859968Y-49019266D01*
X219729447Y-48832861D01*
X219729445Y-48832858D01*
X219568541Y-48671954D01*
X219382134Y-48541432D01*
X219382128Y-48541429D01*
X219324125Y-48514382D01*
X219271685Y-48468210D01*
X219252533Y-48401017D01*
X219272748Y-48334135D01*
X219324125Y-48289618D01*
X219382134Y-48262568D01*
X219568539Y-48132047D01*
X219729447Y-47971139D01*
X219859968Y-47784734D01*
X219956139Y-47578496D01*
X220015035Y-47358692D01*
X220034868Y-47132000D01*
X220033555Y-47116998D01*
X220026619Y-47037713D01*
X220015035Y-46905308D01*
X219956139Y-46685504D01*
X219859968Y-46479266D01*
X219729447Y-46292861D01*
X219729445Y-46292858D01*
X219568541Y-46131954D01*
X219382134Y-46001432D01*
X219382128Y-46001429D01*
X219324125Y-45974382D01*
X219271685Y-45928210D01*
X219252533Y-45861017D01*
X219272748Y-45794135D01*
X219324125Y-45749618D01*
X219326019Y-45748735D01*
X219382134Y-45722568D01*
X219568539Y-45592047D01*
X219729447Y-45431139D01*
X219859968Y-45244734D01*
X219956139Y-45038496D01*
X220015035Y-44818692D01*
X220034868Y-44592000D01*
X220033555Y-44576998D01*
X220026619Y-44497713D01*
X220015035Y-44365308D01*
X219961316Y-44164826D01*
X219956141Y-44145511D01*
X219956138Y-44145502D01*
X219934968Y-44100104D01*
X219859968Y-43939266D01*
X219859967Y-43939264D01*
X219857680Y-43934360D01*
X219858946Y-43933769D01*
X219844034Y-43872301D01*
X219866886Y-43806274D01*
X219921807Y-43763083D01*
X219967894Y-43754200D01*
X220634400Y-43754200D01*
X220701439Y-43773885D01*
G37*
%TD.AperFunction*%
%TA.AperFunction,Conductor*%
G36*
X183071547Y-37546785D02*
G01*
X183106080Y-37579974D01*
X183151604Y-37644989D01*
X183236154Y-37765741D01*
X183397058Y-37926645D01*
X183397061Y-37926647D01*
X183583466Y-38057168D01*
X183641475Y-38084218D01*
X183693914Y-38130391D01*
X183713066Y-38197584D01*
X183692850Y-38264465D01*
X183641475Y-38308981D01*
X183624472Y-38316910D01*
X183583467Y-38336031D01*
X183583465Y-38336032D01*
X183397058Y-38466554D01*
X183236154Y-38627458D01*
X183105632Y-38813865D01*
X183105631Y-38813867D01*
X183009461Y-39020102D01*
X183009458Y-39020111D01*
X182950566Y-39239902D01*
X182950564Y-39239913D01*
X182930732Y-39466598D01*
X182930732Y-39466601D01*
X182950564Y-39693286D01*
X182950566Y-39693297D01*
X183009458Y-39913088D01*
X183009461Y-39913097D01*
X183105631Y-40119332D01*
X183105632Y-40119334D01*
X183236154Y-40305741D01*
X183397058Y-40466645D01*
X183397061Y-40466647D01*
X183583466Y-40597168D01*
X183641475Y-40624218D01*
X183693914Y-40670391D01*
X183713066Y-40737584D01*
X183692850Y-40804465D01*
X183641475Y-40848981D01*
X183624472Y-40856910D01*
X183583467Y-40876031D01*
X183583465Y-40876032D01*
X183397058Y-41006554D01*
X183236154Y-41167458D01*
X183105632Y-41353865D01*
X183105631Y-41353867D01*
X183009461Y-41560102D01*
X183009458Y-41560111D01*
X182950566Y-41779902D01*
X182950564Y-41779913D01*
X182930732Y-42006598D01*
X182930732Y-42006601D01*
X182950564Y-42233286D01*
X182950566Y-42233297D01*
X183009458Y-42453088D01*
X183009461Y-42453097D01*
X183105631Y-42659332D01*
X183105632Y-42659334D01*
X183236154Y-42845741D01*
X183397058Y-43006645D01*
X183397061Y-43006647D01*
X183583466Y-43137168D01*
X183641475Y-43164218D01*
X183693914Y-43210391D01*
X183713066Y-43277584D01*
X183692850Y-43344465D01*
X183641475Y-43388981D01*
X183624472Y-43396910D01*
X183583467Y-43416031D01*
X183583465Y-43416032D01*
X183397058Y-43546554D01*
X183236154Y-43707458D01*
X183105632Y-43893865D01*
X183105631Y-43893867D01*
X183009461Y-44100102D01*
X183009458Y-44100111D01*
X182950566Y-44319902D01*
X182950564Y-44319913D01*
X182930732Y-44546598D01*
X182930732Y-44546601D01*
X182950564Y-44773286D01*
X182950566Y-44773297D01*
X183009458Y-44993088D01*
X183009461Y-44993097D01*
X183105631Y-45199332D01*
X183105632Y-45199334D01*
X183236154Y-45385741D01*
X183397058Y-45546645D01*
X183397061Y-45546647D01*
X183583466Y-45677168D01*
X183641475Y-45704218D01*
X183693914Y-45750391D01*
X183713066Y-45817584D01*
X183692850Y-45884465D01*
X183641475Y-45928982D01*
X183583467Y-45956031D01*
X183583465Y-45956032D01*
X183397058Y-46086554D01*
X183236154Y-46247458D01*
X183105632Y-46433865D01*
X183105631Y-46433867D01*
X183009461Y-46640102D01*
X183009458Y-46640111D01*
X182950566Y-46859902D01*
X182950564Y-46859913D01*
X182930732Y-47086598D01*
X182930732Y-47086601D01*
X182950564Y-47313286D01*
X182950566Y-47313297D01*
X183009458Y-47533088D01*
X183009461Y-47533097D01*
X183105631Y-47739332D01*
X183105632Y-47739334D01*
X183236154Y-47925741D01*
X183397058Y-48086645D01*
X183397061Y-48086647D01*
X183583466Y-48217168D01*
X183642065Y-48244493D01*
X183694505Y-48290665D01*
X183713657Y-48357858D01*
X183693442Y-48424739D01*
X183642067Y-48469257D01*
X183583715Y-48496467D01*
X183397379Y-48626942D01*
X183236542Y-48787779D01*
X183106065Y-48974117D01*
X183009934Y-49180273D01*
X183009930Y-49180282D01*
X182957327Y-49376599D01*
X182957328Y-49376600D01*
X183920514Y-49376600D01*
X183916120Y-49380994D01*
X183863459Y-49472206D01*
X183836200Y-49573939D01*
X183836200Y-49679261D01*
X183863459Y-49780994D01*
X183916120Y-49872206D01*
X183920514Y-49876600D01*
X182957328Y-49876600D01*
X183009930Y-50072917D01*
X183009934Y-50072926D01*
X183106065Y-50279082D01*
X183236542Y-50465420D01*
X183397379Y-50626257D01*
X183583717Y-50756734D01*
X183789873Y-50852865D01*
X183789882Y-50852869D01*
X183986199Y-50905472D01*
X183986200Y-50905471D01*
X183986200Y-49942286D01*
X183990594Y-49946680D01*
X184081806Y-49999341D01*
X184183539Y-50026600D01*
X184288861Y-50026600D01*
X184390594Y-49999341D01*
X184481806Y-49946680D01*
X184486200Y-49942286D01*
X184486200Y-50905471D01*
X184606706Y-50873182D01*
X184676556Y-50874845D01*
X184734419Y-50914007D01*
X184761923Y-50978235D01*
X184762800Y-50992957D01*
X184762800Y-55435700D01*
X184743115Y-55502739D01*
X184690311Y-55548494D01*
X184638800Y-55559700D01*
X183413729Y-55559700D01*
X183413723Y-55559701D01*
X183354116Y-55566108D01*
X183219271Y-55616402D01*
X183219264Y-55616406D01*
X183104055Y-55702652D01*
X183104052Y-55702655D01*
X183017806Y-55817864D01*
X183017802Y-55817871D01*
X182967508Y-55952717D01*
X182961101Y-56012316D01*
X182961100Y-56012335D01*
X182961100Y-57708070D01*
X182961101Y-57708076D01*
X182967508Y-57767683D01*
X183017802Y-57902528D01*
X183017806Y-57902535D01*
X183104052Y-58017744D01*
X183104055Y-58017747D01*
X183219264Y-58103993D01*
X183219271Y-58103997D01*
X183247544Y-58114542D01*
X183354117Y-58154291D01*
X183389196Y-58158062D01*
X183453744Y-58184799D01*
X183493593Y-58242191D01*
X183496088Y-58312016D01*
X183460436Y-58372105D01*
X183447064Y-58382925D01*
X183422458Y-58400154D01*
X183261554Y-58561058D01*
X183131032Y-58747465D01*
X183131031Y-58747467D01*
X183034861Y-58953702D01*
X183034858Y-58953711D01*
X182975966Y-59173502D01*
X182975964Y-59173513D01*
X182956132Y-59400198D01*
X182956132Y-59400201D01*
X182975964Y-59626886D01*
X182975966Y-59626897D01*
X183034858Y-59846688D01*
X183034861Y-59846697D01*
X183131031Y-60052932D01*
X183131032Y-60052934D01*
X183261554Y-60239341D01*
X183422458Y-60400245D01*
X183422461Y-60400247D01*
X183608866Y-60530768D01*
X183666875Y-60557818D01*
X183719314Y-60603991D01*
X183738466Y-60671184D01*
X183718250Y-60738065D01*
X183666875Y-60782582D01*
X183608867Y-60809631D01*
X183608865Y-60809632D01*
X183422458Y-60940154D01*
X183261554Y-61101058D01*
X183131032Y-61287465D01*
X183131031Y-61287467D01*
X183034861Y-61493702D01*
X183034858Y-61493711D01*
X182975966Y-61713502D01*
X182975964Y-61713513D01*
X182956132Y-61940198D01*
X182956132Y-61940201D01*
X182975964Y-62166886D01*
X182975966Y-62166897D01*
X183034858Y-62386688D01*
X183034861Y-62386697D01*
X183131031Y-62592932D01*
X183131032Y-62592934D01*
X183261554Y-62779341D01*
X183422458Y-62940245D01*
X183422461Y-62940247D01*
X183608866Y-63070768D01*
X183660287Y-63094746D01*
X183666875Y-63097818D01*
X183719314Y-63143991D01*
X183738466Y-63211184D01*
X183718250Y-63278065D01*
X183666875Y-63322582D01*
X183608867Y-63349631D01*
X183608865Y-63349632D01*
X183422458Y-63480154D01*
X183261554Y-63641058D01*
X183193633Y-63738061D01*
X183131481Y-63826824D01*
X183076907Y-63870448D01*
X183029908Y-63879700D01*
X181617143Y-63879700D01*
X181464416Y-63920623D01*
X181464409Y-63920626D01*
X181327490Y-63999675D01*
X181327482Y-63999681D01*
X181215681Y-64111482D01*
X181215675Y-64111490D01*
X181136626Y-64248409D01*
X181136623Y-64248416D01*
X181095700Y-64401143D01*
X181095700Y-69145000D01*
X181076015Y-69212039D01*
X181023211Y-69257794D01*
X180971700Y-69269000D01*
X180504481Y-69269000D01*
X180437442Y-69249315D01*
X180391687Y-69196511D01*
X180381743Y-69127353D01*
X180384706Y-69112907D01*
X180392290Y-69084604D01*
X180416435Y-68994492D01*
X180433533Y-68799064D01*
X180436268Y-68767801D01*
X180436268Y-68767798D01*
X180424611Y-68634557D01*
X180416435Y-68541108D01*
X180357539Y-68321304D01*
X180261368Y-68115066D01*
X180261364Y-68115061D01*
X180258662Y-68110380D01*
X180259771Y-68109739D01*
X180239430Y-68049409D01*
X180256445Y-67981643D01*
X180307397Y-67933833D01*
X180331231Y-67924728D01*
X180464284Y-67889077D01*
X180601216Y-67810020D01*
X180713020Y-67698216D01*
X180792077Y-67561284D01*
X180833000Y-67408557D01*
X180833000Y-37651100D01*
X180852685Y-37584061D01*
X180905489Y-37538306D01*
X180957000Y-37527100D01*
X183004508Y-37527100D01*
X183071547Y-37546785D01*
G37*
%TD.AperFunction*%
%TA.AperFunction,Conductor*%
G36*
X194081639Y-35006785D02*
G01*
X194127394Y-35059589D01*
X194138600Y-35111100D01*
X194138600Y-42263457D01*
X194176719Y-42405717D01*
X194179523Y-42416183D01*
X194179526Y-42416190D01*
X194258575Y-42553109D01*
X194258579Y-42553114D01*
X194258580Y-42553116D01*
X194370384Y-42664920D01*
X194370386Y-42664921D01*
X194370390Y-42664924D01*
X194450024Y-42710900D01*
X194507316Y-42743977D01*
X194660043Y-42784900D01*
X194818157Y-42784900D01*
X196390308Y-42784900D01*
X196457347Y-42804585D01*
X196491880Y-42837774D01*
X196564627Y-42941668D01*
X196621954Y-43023541D01*
X196782858Y-43184445D01*
X196782861Y-43184447D01*
X196969266Y-43314968D01*
X197026681Y-43341741D01*
X197027275Y-43342018D01*
X197079714Y-43388191D01*
X197098866Y-43455384D01*
X197078650Y-43522265D01*
X197027275Y-43566782D01*
X196969267Y-43593831D01*
X196969265Y-43593832D01*
X196782858Y-43724354D01*
X196621954Y-43885258D01*
X196491430Y-44071669D01*
X196490619Y-44073074D01*
X196490100Y-44073568D01*
X196488327Y-44076101D01*
X196487817Y-44075744D01*
X196440050Y-44121287D01*
X196415332Y-44130842D01*
X196362911Y-44144888D01*
X196288514Y-44164823D01*
X196288509Y-44164826D01*
X196151590Y-44243875D01*
X196151582Y-44243881D01*
X196039781Y-44355682D01*
X196039775Y-44355690D01*
X195960726Y-44492609D01*
X195960723Y-44492616D01*
X195919800Y-44645343D01*
X195919800Y-50827043D01*
X195919800Y-50985157D01*
X195945714Y-51081867D01*
X195960723Y-51137883D01*
X195960726Y-51137890D01*
X196039775Y-51274809D01*
X196039779Y-51274814D01*
X196039780Y-51274816D01*
X196151584Y-51386620D01*
X196151586Y-51386621D01*
X196151590Y-51386624D01*
X196288509Y-51465673D01*
X196288516Y-51465677D01*
X196441243Y-51506600D01*
X206162800Y-51506600D01*
X206229839Y-51526285D01*
X206275594Y-51579089D01*
X206286800Y-51630600D01*
X206286800Y-56217157D01*
X206267115Y-56284196D01*
X206214311Y-56329951D01*
X206145153Y-56339895D01*
X206081597Y-56310870D01*
X206061225Y-56288281D01*
X205942257Y-56118379D01*
X205781420Y-55957542D01*
X205595082Y-55827065D01*
X205388928Y-55730934D01*
X205192600Y-55678327D01*
X205192600Y-56641514D01*
X205188206Y-56637120D01*
X205096994Y-56584459D01*
X204995261Y-56557200D01*
X204889939Y-56557200D01*
X204788206Y-56584459D01*
X204696994Y-56637120D01*
X204692600Y-56641514D01*
X204692600Y-55678327D01*
X204496271Y-55730934D01*
X204290117Y-55827065D01*
X204103779Y-55957542D01*
X203942942Y-56118379D01*
X203812465Y-56304717D01*
X203716334Y-56510873D01*
X203716330Y-56510882D01*
X203663727Y-56707199D01*
X203663728Y-56707200D01*
X204626914Y-56707200D01*
X204622520Y-56711594D01*
X204569859Y-56802806D01*
X204542600Y-56904539D01*
X204542600Y-57009861D01*
X204569859Y-57111594D01*
X204622520Y-57202806D01*
X204626914Y-57207200D01*
X203663728Y-57207200D01*
X203716330Y-57403517D01*
X203716334Y-57403526D01*
X203812465Y-57609682D01*
X203942942Y-57796020D01*
X204103779Y-57956857D01*
X204290118Y-58087334D01*
X204290120Y-58087335D01*
X204348465Y-58114542D01*
X204400905Y-58160714D01*
X204420057Y-58227907D01*
X204399842Y-58294789D01*
X204348467Y-58339305D01*
X204289868Y-58366631D01*
X204289864Y-58366633D01*
X204103458Y-58497154D01*
X203942554Y-58658058D01*
X203812032Y-58844465D01*
X203812031Y-58844467D01*
X203715861Y-59050702D01*
X203715858Y-59050711D01*
X203656966Y-59270502D01*
X203656964Y-59270513D01*
X203637132Y-59497198D01*
X203637132Y-59497201D01*
X203656964Y-59723886D01*
X203656966Y-59723897D01*
X203715858Y-59943688D01*
X203715861Y-59943697D01*
X203812031Y-60149932D01*
X203812032Y-60149934D01*
X203942554Y-60336341D01*
X204103458Y-60497245D01*
X204103461Y-60497247D01*
X204289866Y-60627768D01*
X204347875Y-60654818D01*
X204400314Y-60700991D01*
X204419466Y-60768184D01*
X204399250Y-60835065D01*
X204347875Y-60879582D01*
X204289867Y-60906631D01*
X204289865Y-60906632D01*
X204103458Y-61037154D01*
X203942554Y-61198058D01*
X203812032Y-61384465D01*
X203812031Y-61384467D01*
X203715861Y-61590702D01*
X203715858Y-61590711D01*
X203656966Y-61810502D01*
X203656964Y-61810513D01*
X203637132Y-62037198D01*
X203637132Y-62037201D01*
X203656964Y-62263886D01*
X203656966Y-62263897D01*
X203715858Y-62483688D01*
X203715861Y-62483697D01*
X203812031Y-62689932D01*
X203812032Y-62689934D01*
X203942554Y-62876341D01*
X204103458Y-63037245D01*
X204103461Y-63037247D01*
X204289866Y-63167768D01*
X204348465Y-63195093D01*
X204400905Y-63241265D01*
X204420057Y-63308458D01*
X204399842Y-63375339D01*
X204348467Y-63419857D01*
X204290115Y-63447067D01*
X204103779Y-63577542D01*
X203942942Y-63738379D01*
X203812465Y-63924717D01*
X203716334Y-64130873D01*
X203716330Y-64130882D01*
X203663727Y-64327199D01*
X203663728Y-64327200D01*
X204626914Y-64327200D01*
X204622520Y-64331594D01*
X204569859Y-64422806D01*
X204542600Y-64524539D01*
X204542600Y-64629861D01*
X204569859Y-64731594D01*
X204622520Y-64822806D01*
X204626914Y-64827200D01*
X203663728Y-64827200D01*
X203716330Y-65023517D01*
X203716335Y-65023531D01*
X203738142Y-65070296D01*
X203748634Y-65139374D01*
X203720114Y-65203157D01*
X203661637Y-65241396D01*
X203625760Y-65246700D01*
X203325500Y-65246700D01*
X203258461Y-65227015D01*
X203212706Y-65174211D01*
X203201500Y-65122700D01*
X203201500Y-54528845D01*
X203201500Y-54528843D01*
X203160577Y-54376116D01*
X203160573Y-54376109D01*
X203081524Y-54239190D01*
X203081518Y-54239182D01*
X202969717Y-54127381D01*
X202969709Y-54127375D01*
X202832790Y-54048326D01*
X202832786Y-54048324D01*
X202832784Y-54048323D01*
X202680057Y-54007400D01*
X202680056Y-54007400D01*
X195677400Y-54007400D01*
X195610361Y-53987715D01*
X195564606Y-53934911D01*
X195553400Y-53883400D01*
X195553400Y-44467545D01*
X195553400Y-44467543D01*
X195512477Y-44314816D01*
X195471523Y-44243881D01*
X195433424Y-44177890D01*
X195433418Y-44177882D01*
X195321617Y-44066081D01*
X195321609Y-44066075D01*
X195184690Y-43987026D01*
X195184686Y-43987024D01*
X195184684Y-43987023D01*
X195031957Y-43946100D01*
X195031956Y-43946100D01*
X193087892Y-43946100D01*
X193020853Y-43926415D01*
X192986319Y-43893225D01*
X192871264Y-43728908D01*
X192856245Y-43707458D01*
X192695341Y-43546554D01*
X192508934Y-43416032D01*
X192508928Y-43416029D01*
X192481238Y-43403117D01*
X192450924Y-43388981D01*
X192398485Y-43342810D01*
X192379333Y-43275617D01*
X192399548Y-43208735D01*
X192450925Y-43164218D01*
X192508934Y-43137168D01*
X192695339Y-43006647D01*
X192856247Y-42845739D01*
X192986768Y-42659334D01*
X193082939Y-42453096D01*
X193141835Y-42233292D01*
X193161668Y-42006600D01*
X193141835Y-41779908D01*
X193095103Y-41605502D01*
X193082941Y-41560111D01*
X193082938Y-41560102D01*
X193076632Y-41546579D01*
X192986768Y-41353866D01*
X192868347Y-41184742D01*
X192856245Y-41167458D01*
X192695341Y-41006554D01*
X192508934Y-40876032D01*
X192508928Y-40876029D01*
X192481238Y-40863117D01*
X192450924Y-40848981D01*
X192398485Y-40802810D01*
X192379333Y-40735617D01*
X192399548Y-40668735D01*
X192450925Y-40624218D01*
X192508934Y-40597168D01*
X192695339Y-40466647D01*
X192856247Y-40305739D01*
X192986768Y-40119334D01*
X193082939Y-39913096D01*
X193141835Y-39693292D01*
X193161668Y-39466600D01*
X193157390Y-39417708D01*
X193144495Y-39270313D01*
X193141835Y-39239908D01*
X193095103Y-39065502D01*
X193082941Y-39020111D01*
X193082938Y-39020102D01*
X192986768Y-38813866D01*
X192877531Y-38657858D01*
X192856245Y-38627458D01*
X192695341Y-38466554D01*
X192508934Y-38336032D01*
X192508928Y-38336029D01*
X192481238Y-38323117D01*
X192450924Y-38308981D01*
X192398485Y-38262810D01*
X192379333Y-38195617D01*
X192399548Y-38128735D01*
X192450925Y-38084218D01*
X192508934Y-38057168D01*
X192695339Y-37926647D01*
X192856247Y-37765739D01*
X192986768Y-37579334D01*
X193082939Y-37373096D01*
X193141835Y-37153292D01*
X193161668Y-36926600D01*
X193157390Y-36877708D01*
X193144495Y-36730313D01*
X193141835Y-36699908D01*
X193090000Y-36506456D01*
X193082941Y-36480111D01*
X193082938Y-36480102D01*
X193078414Y-36470400D01*
X192986768Y-36273866D01*
X192868077Y-36104356D01*
X192856245Y-36087458D01*
X192695341Y-35926554D01*
X192508934Y-35796032D01*
X192508928Y-35796029D01*
X192450925Y-35768982D01*
X192398485Y-35722810D01*
X192379333Y-35655617D01*
X192399548Y-35588735D01*
X192450925Y-35544218D01*
X192508934Y-35517168D01*
X192695339Y-35386647D01*
X192856247Y-35225739D01*
X192986318Y-35039975D01*
X193040893Y-34996352D01*
X193087892Y-34987100D01*
X194014600Y-34987100D01*
X194081639Y-35006785D01*
G37*
%TD.AperFunction*%
%TA.AperFunction,Conductor*%
G36*
X220313802Y-30929392D02*
G01*
X220380776Y-30949279D01*
X220426370Y-31002221D01*
X220437175Y-31045604D01*
X220450110Y-31251204D01*
X220450111Y-31251211D01*
X220509070Y-31560283D01*
X220606297Y-31859516D01*
X220606299Y-31859521D01*
X220740261Y-32144203D01*
X220740264Y-32144209D01*
X220908851Y-32409861D01*
X220908854Y-32409865D01*
X221109406Y-32652290D01*
X221109408Y-32652292D01*
X221109410Y-32652294D01*
X221219551Y-32755723D01*
X221338768Y-32867676D01*
X221338778Y-32867684D01*
X221593304Y-33052608D01*
X221593309Y-33052610D01*
X221593316Y-33052616D01*
X221869034Y-33204194D01*
X221869039Y-33204196D01*
X221869041Y-33204197D01*
X221869042Y-33204198D01*
X222161571Y-33320018D01*
X222161574Y-33320019D01*
X222466323Y-33398265D01*
X222466327Y-33398266D01*
X222614251Y-33416953D01*
X222778473Y-33437699D01*
X222778475Y-33437699D01*
X222778482Y-33437700D01*
X222778489Y-33437700D01*
X222781585Y-33437895D01*
X222847259Y-33461743D01*
X222889614Y-33517312D01*
X222897811Y-33561046D01*
X223053667Y-65480245D01*
X223253058Y-106315497D01*
X223233702Y-106382629D01*
X223181122Y-106428642D01*
X223129060Y-106440100D01*
X223089870Y-106440100D01*
X222777736Y-106479532D01*
X222777723Y-106479534D01*
X222472974Y-106557780D01*
X222472971Y-106557781D01*
X222180442Y-106673601D01*
X222180441Y-106673602D01*
X221904716Y-106825184D01*
X221904704Y-106825191D01*
X221650178Y-107010115D01*
X221650168Y-107010123D01*
X221420808Y-107225507D01*
X221420806Y-107225509D01*
X221220254Y-107467934D01*
X221220251Y-107467938D01*
X221051664Y-107733590D01*
X221051661Y-107733596D01*
X220917699Y-108018278D01*
X220917697Y-108018283D01*
X220820470Y-108317516D01*
X220761511Y-108626588D01*
X220761510Y-108626595D01*
X220747469Y-108849786D01*
X220723614Y-108915457D01*
X220668042Y-108957806D01*
X220623714Y-108966000D01*
X150204086Y-108966000D01*
X150137047Y-108946315D01*
X150091292Y-108893511D01*
X150080331Y-108849786D01*
X150066289Y-108626595D01*
X150066288Y-108626588D01*
X150066288Y-108626585D01*
X150007331Y-108317521D01*
X149910103Y-108018285D01*
X149776137Y-107733593D01*
X149607547Y-107467937D01*
X149589583Y-107446222D01*
X149406993Y-107225509D01*
X149406991Y-107225507D01*
X149303265Y-107128101D01*
X149177630Y-107010122D01*
X149177627Y-107010120D01*
X149177621Y-107010115D01*
X148923095Y-106825191D01*
X148923088Y-106825186D01*
X148923084Y-106825184D01*
X148647366Y-106673606D01*
X148647363Y-106673604D01*
X148647358Y-106673602D01*
X148647357Y-106673601D01*
X148354828Y-106557781D01*
X148354825Y-106557780D01*
X148050076Y-106479534D01*
X148050063Y-106479532D01*
X147737929Y-106440100D01*
X147737918Y-106440100D01*
X147698860Y-106440100D01*
X147631821Y-106420415D01*
X147586066Y-106367611D01*
X147574860Y-106316062D01*
X147585616Y-73177399D01*
X151219757Y-73177399D01*
X151219757Y-73177400D01*
X151240284Y-73398935D01*
X151240285Y-73398937D01*
X151301169Y-73612923D01*
X151301175Y-73612938D01*
X151400338Y-73812083D01*
X151400343Y-73812091D01*
X151534420Y-73989638D01*
X151698837Y-74139523D01*
X151698839Y-74139525D01*
X151887995Y-74256645D01*
X151887996Y-74256645D01*
X151887999Y-74256647D01*
X152095460Y-74337018D01*
X152314157Y-74377900D01*
X152314159Y-74377900D01*
X152536641Y-74377900D01*
X152536643Y-74377900D01*
X152755340Y-74337018D01*
X152962801Y-74256647D01*
X153151962Y-74139524D01*
X153291682Y-74012151D01*
X153316379Y-73989638D01*
X153316635Y-73989300D01*
X153439067Y-73827172D01*
X153495176Y-73785537D01*
X153538021Y-73777900D01*
X156393404Y-73777900D01*
X156460443Y-73797585D01*
X156492358Y-73827173D01*
X156614791Y-73989299D01*
X156779138Y-74139121D01*
X156968220Y-74256197D01*
X156968222Y-74256198D01*
X157175595Y-74336535D01*
X157255400Y-74351452D01*
X157755400Y-74351452D01*
X157835204Y-74336535D01*
X158042577Y-74256198D01*
X158042579Y-74256197D01*
X158231661Y-74139121D01*
X158396008Y-73989300D01*
X158530031Y-73811825D01*
X158629160Y-73612749D01*
X158681895Y-73427400D01*
X157755400Y-73427400D01*
X157755400Y-74351452D01*
X157255400Y-74351452D01*
X157255400Y-73422375D01*
X157290495Y-73457470D01*
X157370305Y-73503548D01*
X157459322Y-73527400D01*
X157551478Y-73527400D01*
X157640495Y-73503548D01*
X157720305Y-73457470D01*
X157775775Y-73402000D01*
X159732505Y-73402000D01*
X159785239Y-73587349D01*
X159884368Y-73786425D01*
X160018391Y-73963900D01*
X160182738Y-74113721D01*
X160371820Y-74230797D01*
X160371822Y-74230798D01*
X160579195Y-74311135D01*
X160659000Y-74326052D01*
X161159000Y-74326052D01*
X161238804Y-74311135D01*
X161446177Y-74230798D01*
X161446179Y-74230797D01*
X161635261Y-74113721D01*
X161799608Y-73963900D01*
X161933631Y-73786425D01*
X162032760Y-73587349D01*
X162085495Y-73402000D01*
X161159000Y-73402000D01*
X161159000Y-74326052D01*
X160659000Y-74326052D01*
X160659000Y-73402000D01*
X159732505Y-73402000D01*
X157775775Y-73402000D01*
X157785470Y-73392305D01*
X157831548Y-73312495D01*
X157855400Y-73223478D01*
X157855400Y-73131322D01*
X157848594Y-73105922D01*
X160559000Y-73105922D01*
X160559000Y-73198078D01*
X160582852Y-73287095D01*
X160628930Y-73366905D01*
X160694095Y-73432070D01*
X160773905Y-73478148D01*
X160862922Y-73502000D01*
X160955078Y-73502000D01*
X161044095Y-73478148D01*
X161123905Y-73432070D01*
X161189070Y-73366905D01*
X161235148Y-73287095D01*
X161259000Y-73198078D01*
X161259000Y-73151999D01*
X164783357Y-73151999D01*
X164783357Y-73152000D01*
X164803884Y-73373535D01*
X164803885Y-73373537D01*
X164864769Y-73587523D01*
X164864775Y-73587538D01*
X164963938Y-73786683D01*
X164963943Y-73786691D01*
X165098020Y-73964238D01*
X165262437Y-74114123D01*
X165262439Y-74114125D01*
X165451595Y-74231245D01*
X165451596Y-74231245D01*
X165451599Y-74231247D01*
X165659060Y-74311618D01*
X165877757Y-74352500D01*
X165877759Y-74352500D01*
X166100241Y-74352500D01*
X166100243Y-74352500D01*
X166318940Y-74311618D01*
X166526401Y-74231247D01*
X166715562Y-74114124D01*
X166879981Y-73964236D01*
X167014058Y-73786689D01*
X167113229Y-73587528D01*
X167174115Y-73373536D01*
X167194643Y-73152000D01*
X167185696Y-73055450D01*
X167174115Y-72930464D01*
X167174114Y-72930462D01*
X167173731Y-72929117D01*
X167113229Y-72716472D01*
X167043730Y-72576900D01*
X167014061Y-72517316D01*
X167014056Y-72517308D01*
X166879979Y-72339761D01*
X166715562Y-72189876D01*
X166715560Y-72189874D01*
X166526404Y-72072754D01*
X166526398Y-72072752D01*
X166318940Y-71992382D01*
X166100243Y-71951500D01*
X165877757Y-71951500D01*
X165659060Y-71992382D01*
X165592251Y-72018264D01*
X165451601Y-72072752D01*
X165451595Y-72072754D01*
X165262439Y-72189874D01*
X165262437Y-72189876D01*
X165098020Y-72339761D01*
X164963943Y-72517308D01*
X164963938Y-72517316D01*
X164864775Y-72716461D01*
X164864769Y-72716476D01*
X164803885Y-72930462D01*
X164803884Y-72930464D01*
X164783357Y-73151999D01*
X161259000Y-73151999D01*
X161259000Y-73105922D01*
X161235148Y-73016905D01*
X161189070Y-72937095D01*
X161153975Y-72902000D01*
X161159000Y-72902000D01*
X162085495Y-72902000D01*
X162032760Y-72716650D01*
X161933631Y-72517574D01*
X161799608Y-72340099D01*
X161635261Y-72190278D01*
X161446179Y-72073202D01*
X161446177Y-72073201D01*
X161238799Y-71992864D01*
X161159000Y-71977946D01*
X161159000Y-72902000D01*
X161153975Y-72902000D01*
X161123905Y-72871930D01*
X161044095Y-72825852D01*
X160955078Y-72802000D01*
X160862922Y-72802000D01*
X160773905Y-72825852D01*
X160694095Y-72871930D01*
X160628930Y-72937095D01*
X160582852Y-73016905D01*
X160559000Y-73105922D01*
X157848594Y-73105922D01*
X157831548Y-73042305D01*
X157785470Y-72962495D01*
X157750375Y-72927400D01*
X157755400Y-72927400D01*
X158681895Y-72927400D01*
X158674668Y-72902000D01*
X159732505Y-72902000D01*
X160659000Y-72902000D01*
X160659000Y-71977946D01*
X160579200Y-71992864D01*
X160371822Y-72073201D01*
X160371820Y-72073202D01*
X160182738Y-72190278D01*
X160018391Y-72340099D01*
X159884368Y-72517574D01*
X159785239Y-72716650D01*
X159732505Y-72902000D01*
X158674668Y-72902000D01*
X158629160Y-72742050D01*
X158530031Y-72542974D01*
X158396008Y-72365499D01*
X158231661Y-72215678D01*
X158042579Y-72098602D01*
X158042577Y-72098601D01*
X157835199Y-72018264D01*
X157755400Y-72003346D01*
X157755400Y-72927400D01*
X157750375Y-72927400D01*
X157720305Y-72897330D01*
X157640495Y-72851252D01*
X157551478Y-72827400D01*
X157459322Y-72827400D01*
X157370305Y-72851252D01*
X157290495Y-72897330D01*
X157255400Y-72932425D01*
X157255400Y-72003345D01*
X157250984Y-72004171D01*
X157181469Y-71997139D01*
X157126791Y-71953642D01*
X157104309Y-71887488D01*
X157104200Y-71882282D01*
X157104200Y-70607476D01*
X157123885Y-70540437D01*
X157176689Y-70494682D01*
X157245847Y-70484738D01*
X157250927Y-70485577D01*
X157419557Y-70517100D01*
X157419560Y-70517100D01*
X157642041Y-70517100D01*
X157642043Y-70517100D01*
X157860740Y-70476218D01*
X158068201Y-70395847D01*
X158257362Y-70278724D01*
X158421781Y-70128836D01*
X158555858Y-69951289D01*
X158655029Y-69752128D01*
X158715915Y-69538136D01*
X158734089Y-69341999D01*
X159703357Y-69341999D01*
X159703357Y-69342000D01*
X159723884Y-69563535D01*
X159723885Y-69563537D01*
X159784769Y-69777523D01*
X159784775Y-69777538D01*
X159883938Y-69976683D01*
X159883943Y-69976691D01*
X160018020Y-70154238D01*
X160182437Y-70304123D01*
X160182439Y-70304125D01*
X160371595Y-70421245D01*
X160371596Y-70421245D01*
X160371599Y-70421247D01*
X160579060Y-70501618D01*
X160797757Y-70542500D01*
X160797759Y-70542500D01*
X161020241Y-70542500D01*
X161020243Y-70542500D01*
X161238940Y-70501618D01*
X161446401Y-70421247D01*
X161635562Y-70304124D01*
X161799981Y-70154236D01*
X161934058Y-69976689D01*
X162033229Y-69777528D01*
X162094115Y-69563536D01*
X162114643Y-69342000D01*
X162102477Y-69210711D01*
X162094115Y-69120464D01*
X162094114Y-69120462D01*
X162092193Y-69113711D01*
X162033229Y-68906472D01*
X162033224Y-68906461D01*
X161934061Y-68707316D01*
X161934056Y-68707308D01*
X161799979Y-68529761D01*
X161635562Y-68379876D01*
X161635560Y-68379874D01*
X161446404Y-68262754D01*
X161446398Y-68262752D01*
X161238940Y-68182382D01*
X161020243Y-68141500D01*
X160797757Y-68141500D01*
X160579060Y-68182382D01*
X160470767Y-68224335D01*
X160371601Y-68262752D01*
X160371595Y-68262754D01*
X160182439Y-68379874D01*
X160182437Y-68379876D01*
X160018020Y-68529761D01*
X159883943Y-68707308D01*
X159883938Y-68707316D01*
X159784775Y-68906461D01*
X159784769Y-68906476D01*
X159723885Y-69120462D01*
X159723884Y-69120464D01*
X159703357Y-69341999D01*
X158734089Y-69341999D01*
X158736443Y-69316600D01*
X158722384Y-69164882D01*
X158715915Y-69095064D01*
X158715914Y-69095062D01*
X158712938Y-69084604D01*
X158655029Y-68881072D01*
X158636301Y-68843461D01*
X158555861Y-68681916D01*
X158555856Y-68681908D01*
X158421779Y-68504361D01*
X158257362Y-68354476D01*
X158257360Y-68354474D01*
X158068204Y-68237354D01*
X158068198Y-68237352D01*
X157860740Y-68156982D01*
X157642043Y-68116100D01*
X157419557Y-68116100D01*
X157250985Y-68147612D01*
X157181470Y-68140581D01*
X157126791Y-68097083D01*
X157104309Y-68030930D01*
X157104200Y-68025723D01*
X157104200Y-63187197D01*
X159791434Y-63187197D01*
X159791434Y-63187202D01*
X159811258Y-63413799D01*
X159811260Y-63413810D01*
X159870130Y-63633517D01*
X159870135Y-63633531D01*
X159966263Y-63839678D01*
X160017374Y-63912672D01*
X160696400Y-63233646D01*
X160696400Y-63239861D01*
X160723659Y-63341594D01*
X160776320Y-63432806D01*
X160850794Y-63507280D01*
X160942006Y-63559941D01*
X161043739Y-63587200D01*
X161049953Y-63587200D01*
X160370926Y-64266225D01*
X160443913Y-64317332D01*
X160443921Y-64317336D01*
X160650068Y-64413464D01*
X160650082Y-64413469D01*
X160869789Y-64472339D01*
X160869800Y-64472341D01*
X161096398Y-64492166D01*
X161096402Y-64492166D01*
X161322999Y-64472341D01*
X161323010Y-64472339D01*
X161542717Y-64413469D01*
X161542731Y-64413464D01*
X161748878Y-64317336D01*
X161821871Y-64266224D01*
X161142847Y-63587200D01*
X161149061Y-63587200D01*
X161250794Y-63559941D01*
X161342006Y-63507280D01*
X161416480Y-63432806D01*
X161469141Y-63341594D01*
X161496400Y-63239861D01*
X161496400Y-63233647D01*
X162175424Y-63912671D01*
X162226536Y-63839678D01*
X162322664Y-63633531D01*
X162322669Y-63633517D01*
X162381539Y-63413810D01*
X162381541Y-63413799D01*
X162401366Y-63187202D01*
X162401366Y-63187197D01*
X162381541Y-62960600D01*
X162381539Y-62960589D01*
X162322669Y-62740882D01*
X162322664Y-62740868D01*
X162226536Y-62534721D01*
X162226532Y-62534713D01*
X162175425Y-62461726D01*
X161496400Y-63140751D01*
X161496400Y-63134539D01*
X161469141Y-63032806D01*
X161416480Y-62941594D01*
X161342006Y-62867120D01*
X161250794Y-62814459D01*
X161149061Y-62787200D01*
X161142848Y-62787200D01*
X161821872Y-62108174D01*
X161748878Y-62057063D01*
X161542731Y-61960935D01*
X161542717Y-61960930D01*
X161323010Y-61902060D01*
X161322999Y-61902058D01*
X161096402Y-61882234D01*
X161096398Y-61882234D01*
X160869800Y-61902058D01*
X160869789Y-61902060D01*
X160650082Y-61960930D01*
X160650073Y-61960934D01*
X160443916Y-62057066D01*
X160443912Y-62057068D01*
X160370926Y-62108173D01*
X160370926Y-62108174D01*
X161049953Y-62787200D01*
X161043739Y-62787200D01*
X160942006Y-62814459D01*
X160850794Y-62867120D01*
X160776320Y-62941594D01*
X160723659Y-63032806D01*
X160696400Y-63134539D01*
X160696400Y-63140752D01*
X160017374Y-62461726D01*
X160017373Y-62461726D01*
X159966268Y-62534712D01*
X159966266Y-62534716D01*
X159870134Y-62740873D01*
X159870130Y-62740882D01*
X159811260Y-62960589D01*
X159811258Y-62960600D01*
X159791434Y-63187197D01*
X157104200Y-63187197D01*
X157104200Y-60505300D01*
X157123885Y-60438261D01*
X157176689Y-60392506D01*
X157228200Y-60381300D01*
X163639055Y-60381300D01*
X163639057Y-60381300D01*
X163791784Y-60340377D01*
X163928716Y-60261320D01*
X164040520Y-60149516D01*
X164119577Y-60012584D01*
X164160500Y-59859857D01*
X164160500Y-45301500D01*
X164180185Y-45234461D01*
X164232989Y-45188706D01*
X164284500Y-45177500D01*
X169634108Y-45177500D01*
X169701147Y-45197185D01*
X169735680Y-45230374D01*
X169764197Y-45271100D01*
X169865754Y-45416141D01*
X170026658Y-45577045D01*
X170048083Y-45592047D01*
X170213066Y-45707568D01*
X170271075Y-45734618D01*
X170323514Y-45780791D01*
X170342666Y-45847984D01*
X170322450Y-45914865D01*
X170271075Y-45959382D01*
X170213067Y-45986431D01*
X170213065Y-45986432D01*
X170026658Y-46116954D01*
X169865754Y-46277858D01*
X169735232Y-46464265D01*
X169735231Y-46464267D01*
X169639061Y-46670502D01*
X169639058Y-46670511D01*
X169580166Y-46890302D01*
X169580164Y-46890313D01*
X169560332Y-47116998D01*
X169560332Y-47117001D01*
X169580164Y-47343686D01*
X169580166Y-47343697D01*
X169639058Y-47563488D01*
X169639061Y-47563497D01*
X169735231Y-47769732D01*
X169735232Y-47769734D01*
X169865754Y-47956141D01*
X170026658Y-48117045D01*
X170048083Y-48132047D01*
X170213066Y-48247568D01*
X170271665Y-48274893D01*
X170324105Y-48321065D01*
X170343257Y-48388258D01*
X170323042Y-48455139D01*
X170271667Y-48499657D01*
X170213315Y-48526867D01*
X170026979Y-48657342D01*
X169866142Y-48818179D01*
X169735665Y-49004517D01*
X169639534Y-49210673D01*
X169639530Y-49210682D01*
X169586927Y-49406999D01*
X169586928Y-49407000D01*
X170550114Y-49407000D01*
X170545720Y-49411394D01*
X170493059Y-49502606D01*
X170465800Y-49604339D01*
X170465800Y-49709661D01*
X170493059Y-49811394D01*
X170545720Y-49902606D01*
X170550114Y-49907000D01*
X169586928Y-49907000D01*
X169639530Y-50103317D01*
X169639534Y-50103326D01*
X169735665Y-50309482D01*
X169866142Y-50495820D01*
X170026979Y-50656657D01*
X170213317Y-50787134D01*
X170419473Y-50883265D01*
X170419482Y-50883269D01*
X170615799Y-50935872D01*
X170615800Y-50935871D01*
X170615800Y-49972686D01*
X170620194Y-49977080D01*
X170711406Y-50029741D01*
X170813139Y-50057000D01*
X170918461Y-50057000D01*
X171020194Y-50029741D01*
X171111406Y-49977080D01*
X171115800Y-49972686D01*
X171115800Y-50935872D01*
X171312117Y-50883269D01*
X171312126Y-50883265D01*
X171518282Y-50787134D01*
X171704620Y-50656657D01*
X171865457Y-50495820D01*
X171995934Y-50309482D01*
X172092065Y-50103326D01*
X172092069Y-50103317D01*
X172144672Y-49907000D01*
X171181486Y-49907000D01*
X171185880Y-49902606D01*
X171238541Y-49811394D01*
X171265800Y-49709661D01*
X171265800Y-49604339D01*
X171238541Y-49502606D01*
X171185880Y-49411394D01*
X171181486Y-49407000D01*
X172144672Y-49407000D01*
X172144672Y-49406999D01*
X172092069Y-49210682D01*
X172092065Y-49210673D01*
X171995934Y-49004517D01*
X171865457Y-48818179D01*
X171704620Y-48657342D01*
X171518282Y-48526865D01*
X171459933Y-48499657D01*
X171407494Y-48453484D01*
X171388342Y-48386291D01*
X171408558Y-48319410D01*
X171459929Y-48274895D01*
X171518534Y-48247568D01*
X171704939Y-48117047D01*
X171865847Y-47956139D01*
X171996368Y-47769734D01*
X172092539Y-47563496D01*
X172151435Y-47343692D01*
X172171268Y-47117000D01*
X172168608Y-47086601D01*
X172161692Y-47007543D01*
X172151435Y-46890308D01*
X172092539Y-46670504D01*
X171996368Y-46464266D01*
X171865847Y-46277861D01*
X171865845Y-46277858D01*
X171704941Y-46116954D01*
X171518534Y-45986432D01*
X171518528Y-45986429D01*
X171460525Y-45959382D01*
X171408085Y-45913210D01*
X171388933Y-45846017D01*
X171409148Y-45779135D01*
X171460525Y-45734618D01*
X171518534Y-45707568D01*
X171704939Y-45577047D01*
X171865847Y-45416139D01*
X171996368Y-45229734D01*
X171996376Y-45229715D01*
X171997168Y-45228346D01*
X171997684Y-45227853D01*
X171999473Y-45225299D01*
X171999985Y-45225658D01*
X172047727Y-45180123D01*
X172072459Y-45170559D01*
X172199284Y-45136577D01*
X172336216Y-45057520D01*
X172448020Y-44945716D01*
X172527077Y-44808784D01*
X172568000Y-44656057D01*
X172568000Y-34337943D01*
X172527077Y-34185216D01*
X172478916Y-34101799D01*
X172462444Y-34033900D01*
X172485297Y-33967873D01*
X172540218Y-33924682D01*
X172586304Y-33915800D01*
X173315800Y-33915800D01*
X173382839Y-33935485D01*
X173428594Y-33988289D01*
X173439800Y-34039800D01*
X173439800Y-35745843D01*
X173439800Y-35903957D01*
X173473007Y-36027885D01*
X173480723Y-36056683D01*
X173480726Y-36056690D01*
X173559775Y-36193609D01*
X173559779Y-36193614D01*
X173559780Y-36193616D01*
X173671584Y-36305420D01*
X173671586Y-36305421D01*
X173671590Y-36305424D01*
X173751943Y-36351815D01*
X173808516Y-36384477D01*
X173961243Y-36425400D01*
X177120264Y-36425400D01*
X177187303Y-36445085D01*
X177233058Y-36497889D01*
X177243002Y-36567047D01*
X177240039Y-36581493D01*
X177200166Y-36730302D01*
X177200164Y-36730313D01*
X177180332Y-36956998D01*
X177180332Y-36957001D01*
X177200164Y-37183686D01*
X177200166Y-37183697D01*
X177259058Y-37403488D01*
X177259061Y-37403497D01*
X177355231Y-37609732D01*
X177355232Y-37609734D01*
X177485754Y-37796141D01*
X177646658Y-37957045D01*
X177668083Y-37972047D01*
X177833066Y-38087568D01*
X177891075Y-38114618D01*
X177943514Y-38160791D01*
X177962666Y-38227984D01*
X177942450Y-38294865D01*
X177891075Y-38339382D01*
X177833067Y-38366431D01*
X177833065Y-38366432D01*
X177646658Y-38496954D01*
X177485754Y-38657858D01*
X177355232Y-38844265D01*
X177355231Y-38844267D01*
X177259061Y-39050502D01*
X177259058Y-39050511D01*
X177200166Y-39270302D01*
X177200164Y-39270313D01*
X177180332Y-39496998D01*
X177180332Y-39497001D01*
X177200164Y-39723686D01*
X177200166Y-39723697D01*
X177259058Y-39943488D01*
X177259061Y-39943497D01*
X177355231Y-40149732D01*
X177355232Y-40149734D01*
X177485754Y-40336141D01*
X177646658Y-40497045D01*
X177668083Y-40512047D01*
X177833066Y-40627568D01*
X177891075Y-40654618D01*
X177943514Y-40700791D01*
X177962666Y-40767984D01*
X177942450Y-40834865D01*
X177891075Y-40879382D01*
X177833067Y-40906431D01*
X177833065Y-40906432D01*
X177646658Y-41036954D01*
X177485754Y-41197858D01*
X177355232Y-41384265D01*
X177355231Y-41384267D01*
X177259061Y-41590502D01*
X177259058Y-41590511D01*
X177200166Y-41810302D01*
X177200164Y-41810313D01*
X177180332Y-42036998D01*
X177180332Y-42037001D01*
X177200164Y-42263686D01*
X177200166Y-42263697D01*
X177259058Y-42483488D01*
X177259061Y-42483497D01*
X177355231Y-42689732D01*
X177355232Y-42689734D01*
X177485754Y-42876141D01*
X177646658Y-43037045D01*
X177668083Y-43052047D01*
X177833066Y-43167568D01*
X177891075Y-43194618D01*
X177943514Y-43240791D01*
X177962666Y-43307984D01*
X177942450Y-43374865D01*
X177891075Y-43419382D01*
X177833067Y-43446431D01*
X177833065Y-43446432D01*
X177646658Y-43576954D01*
X177485754Y-43737858D01*
X177355232Y-43924265D01*
X177355231Y-43924267D01*
X177259061Y-44130502D01*
X177259058Y-44130511D01*
X177200166Y-44350302D01*
X177200164Y-44350313D01*
X177180332Y-44576998D01*
X177180332Y-44577001D01*
X177200164Y-44803686D01*
X177200166Y-44803697D01*
X177259058Y-45023488D01*
X177259061Y-45023497D01*
X177355231Y-45229732D01*
X177355232Y-45229734D01*
X177485754Y-45416141D01*
X177646658Y-45577045D01*
X177668083Y-45592047D01*
X177833066Y-45707568D01*
X177891075Y-45734618D01*
X177943514Y-45780791D01*
X177962666Y-45847984D01*
X177942450Y-45914865D01*
X177891075Y-45959382D01*
X177833067Y-45986431D01*
X177833065Y-45986432D01*
X177646658Y-46116954D01*
X177485754Y-46277858D01*
X177355232Y-46464265D01*
X177355231Y-46464267D01*
X177259061Y-46670502D01*
X177259058Y-46670511D01*
X177200166Y-46890302D01*
X177200164Y-46890313D01*
X177180332Y-47116998D01*
X177180332Y-47117001D01*
X177200164Y-47343686D01*
X177200166Y-47343697D01*
X177259058Y-47563488D01*
X177259061Y-47563497D01*
X177355231Y-47769732D01*
X177355232Y-47769734D01*
X177485754Y-47956141D01*
X177646658Y-48117045D01*
X177668083Y-48132047D01*
X177833066Y-48247568D01*
X177891075Y-48274618D01*
X177943514Y-48320791D01*
X177962666Y-48387984D01*
X177942450Y-48454865D01*
X177891075Y-48499382D01*
X177833067Y-48526431D01*
X177833065Y-48526432D01*
X177646658Y-48656954D01*
X177485754Y-48817858D01*
X177355232Y-49004265D01*
X177355231Y-49004267D01*
X177259061Y-49210502D01*
X177259058Y-49210511D01*
X177200166Y-49430302D01*
X177200164Y-49430313D01*
X177180332Y-49656998D01*
X177180332Y-49657001D01*
X177200164Y-49883686D01*
X177200166Y-49883697D01*
X177259058Y-50103488D01*
X177259061Y-50103497D01*
X177355231Y-50309732D01*
X177355232Y-50309734D01*
X177485754Y-50496141D01*
X177646658Y-50657045D01*
X177668083Y-50672047D01*
X177833066Y-50787568D01*
X178039304Y-50883739D01*
X178259108Y-50942635D01*
X178421030Y-50956801D01*
X178485798Y-50962468D01*
X178485800Y-50962468D01*
X178485802Y-50962468D01*
X178542473Y-50957509D01*
X178712492Y-50942635D01*
X178932296Y-50883739D01*
X179138534Y-50787568D01*
X179324939Y-50657047D01*
X179368878Y-50613108D01*
X179420319Y-50561668D01*
X179481642Y-50528183D01*
X179551334Y-50533167D01*
X179607267Y-50575039D01*
X179631684Y-50640503D01*
X179632000Y-50649349D01*
X179632000Y-59774118D01*
X179612315Y-59841157D01*
X179559511Y-59886912D01*
X179490353Y-59896856D01*
X179475908Y-59893893D01*
X179357500Y-59862167D01*
X179357497Y-59862166D01*
X179357492Y-59862165D01*
X179357489Y-59862164D01*
X179357486Y-59862164D01*
X179130802Y-59842332D01*
X179130798Y-59842332D01*
X178904113Y-59862164D01*
X178904102Y-59862166D01*
X178684311Y-59921058D01*
X178684302Y-59921061D01*
X178478067Y-60017231D01*
X178478065Y-60017232D01*
X178291658Y-60147754D01*
X178130754Y-60308658D01*
X178000232Y-60495065D01*
X178000231Y-60495067D01*
X177904061Y-60701302D01*
X177904058Y-60701311D01*
X177845166Y-60921102D01*
X177845164Y-60921113D01*
X177825332Y-61147798D01*
X177825332Y-61147801D01*
X177845164Y-61374486D01*
X177845166Y-61374497D01*
X177904058Y-61594288D01*
X177904061Y-61594297D01*
X178000231Y-61800532D01*
X178000232Y-61800534D01*
X178130754Y-61986941D01*
X178291658Y-62147845D01*
X178291661Y-62147847D01*
X178478066Y-62278368D01*
X178535157Y-62304990D01*
X178536075Y-62305418D01*
X178588514Y-62351591D01*
X178607666Y-62418784D01*
X178587450Y-62485665D01*
X178536075Y-62530181D01*
X178526341Y-62534721D01*
X178478067Y-62557231D01*
X178478065Y-62557232D01*
X178291658Y-62687754D01*
X178130754Y-62848658D01*
X178000232Y-63035065D01*
X178000231Y-63035067D01*
X177904061Y-63241302D01*
X177904058Y-63241311D01*
X177845166Y-63461102D01*
X177845164Y-63461113D01*
X177825332Y-63687798D01*
X177825332Y-63687801D01*
X177845164Y-63914486D01*
X177845166Y-63914497D01*
X177876894Y-64032907D01*
X177875231Y-64102757D01*
X177836068Y-64160619D01*
X177771840Y-64188123D01*
X177757119Y-64189000D01*
X172884481Y-64189000D01*
X172817442Y-64169315D01*
X172771687Y-64116511D01*
X172761743Y-64047353D01*
X172764706Y-64032907D01*
X172766505Y-64026192D01*
X172796435Y-63914492D01*
X172816268Y-63687800D01*
X172796435Y-63461108D01*
X172743575Y-63263829D01*
X172737541Y-63241311D01*
X172737538Y-63241302D01*
X172715862Y-63194818D01*
X172641368Y-63035066D01*
X172523772Y-62867120D01*
X172510845Y-62848658D01*
X172349943Y-62687756D01*
X172324712Y-62670089D01*
X172281087Y-62615512D01*
X172273895Y-62546013D01*
X172305417Y-62483659D01*
X172365647Y-62448245D01*
X172382581Y-62445224D01*
X172418180Y-62441396D01*
X172552886Y-62391154D01*
X172552893Y-62391150D01*
X172667987Y-62304990D01*
X172667990Y-62304987D01*
X172754150Y-62189893D01*
X172754154Y-62189886D01*
X172804396Y-62055179D01*
X172804398Y-62055172D01*
X172810799Y-61995644D01*
X172810800Y-61995627D01*
X172810800Y-61397800D01*
X171826486Y-61397800D01*
X171830880Y-61393406D01*
X171883541Y-61302194D01*
X171910800Y-61200461D01*
X171910800Y-61095139D01*
X171883541Y-60993406D01*
X171830880Y-60902194D01*
X171826486Y-60897800D01*
X172810800Y-60897800D01*
X172810800Y-60299972D01*
X172810799Y-60299955D01*
X172804398Y-60240427D01*
X172804396Y-60240420D01*
X172754154Y-60105713D01*
X172754150Y-60105706D01*
X172667990Y-59990612D01*
X172667987Y-59990609D01*
X172552893Y-59904449D01*
X172552886Y-59904445D01*
X172418179Y-59854203D01*
X172418172Y-59854201D01*
X172358644Y-59847800D01*
X171760800Y-59847800D01*
X171760800Y-60832114D01*
X171756406Y-60827720D01*
X171665194Y-60775059D01*
X171563461Y-60747800D01*
X171458139Y-60747800D01*
X171356406Y-60775059D01*
X171265194Y-60827720D01*
X171260800Y-60832114D01*
X171260800Y-59847800D01*
X170662955Y-59847800D01*
X170603427Y-59854201D01*
X170603420Y-59854203D01*
X170468713Y-59904445D01*
X170468706Y-59904449D01*
X170353612Y-59990609D01*
X170353609Y-59990612D01*
X170267449Y-60105706D01*
X170267445Y-60105713D01*
X170217203Y-60240420D01*
X170217201Y-60240427D01*
X170210800Y-60299955D01*
X170210800Y-60897800D01*
X171195114Y-60897800D01*
X171190720Y-60902194D01*
X171138059Y-60993406D01*
X171110800Y-61095139D01*
X171110800Y-61200461D01*
X171138059Y-61302194D01*
X171190720Y-61393406D01*
X171195114Y-61397800D01*
X170210800Y-61397800D01*
X170210800Y-61995644D01*
X170217201Y-62055172D01*
X170217203Y-62055179D01*
X170267445Y-62189886D01*
X170267449Y-62189893D01*
X170353609Y-62304987D01*
X170353612Y-62304990D01*
X170468706Y-62391150D01*
X170468713Y-62391154D01*
X170603420Y-62441396D01*
X170603427Y-62441398D01*
X170639018Y-62445225D01*
X170703569Y-62471963D01*
X170743418Y-62529355D01*
X170745911Y-62599180D01*
X170710259Y-62659269D01*
X170696888Y-62670087D01*
X170671661Y-62687751D01*
X170510754Y-62848658D01*
X170380232Y-63035065D01*
X170380231Y-63035067D01*
X170284061Y-63241302D01*
X170284058Y-63241311D01*
X170225166Y-63461102D01*
X170225164Y-63461113D01*
X170205332Y-63687798D01*
X170205332Y-63687801D01*
X170225164Y-63914486D01*
X170225166Y-63914497D01*
X170256894Y-64032907D01*
X170255231Y-64102757D01*
X170216068Y-64160619D01*
X170151840Y-64188123D01*
X170137119Y-64189000D01*
X165909943Y-64189000D01*
X165757216Y-64229923D01*
X165757209Y-64229926D01*
X165620290Y-64308975D01*
X165620282Y-64308981D01*
X165508481Y-64420782D01*
X165508475Y-64420790D01*
X165429426Y-64557709D01*
X165429423Y-64557716D01*
X165388500Y-64710443D01*
X165388500Y-68232754D01*
X165368815Y-68299793D01*
X165329778Y-68338181D01*
X165262436Y-68379877D01*
X165098020Y-68529761D01*
X164963943Y-68707308D01*
X164963938Y-68707316D01*
X164864775Y-68906461D01*
X164864769Y-68906476D01*
X164803885Y-69120462D01*
X164803884Y-69120464D01*
X164783357Y-69341999D01*
X164783357Y-69342000D01*
X164803884Y-69563535D01*
X164803885Y-69563537D01*
X164864769Y-69777523D01*
X164864775Y-69777538D01*
X164963938Y-69976683D01*
X164963943Y-69976691D01*
X165098020Y-70154238D01*
X165262437Y-70304123D01*
X165262439Y-70304125D01*
X165451595Y-70421245D01*
X165451596Y-70421245D01*
X165451599Y-70421247D01*
X165659060Y-70501618D01*
X165877757Y-70542500D01*
X165877759Y-70542500D01*
X166100241Y-70542500D01*
X166100243Y-70542500D01*
X166318940Y-70501618D01*
X166526401Y-70421247D01*
X166715562Y-70304124D01*
X166879981Y-70154236D01*
X167014058Y-69976689D01*
X167113229Y-69777528D01*
X167174115Y-69563536D01*
X167194643Y-69342000D01*
X167182477Y-69210711D01*
X167174115Y-69120464D01*
X167174114Y-69120462D01*
X167172193Y-69113711D01*
X167113229Y-68906472D01*
X167113224Y-68906461D01*
X167014061Y-68707316D01*
X167014056Y-68707308D01*
X166879979Y-68529761D01*
X166715563Y-68379877D01*
X166715562Y-68379876D01*
X166648221Y-68338180D01*
X166601587Y-68286153D01*
X166589500Y-68232754D01*
X166589500Y-65514000D01*
X166609185Y-65446961D01*
X166661989Y-65401206D01*
X166713500Y-65390000D01*
X170272306Y-65390000D01*
X170339345Y-65409685D01*
X170385100Y-65462489D01*
X170395044Y-65531647D01*
X170381826Y-65569836D01*
X170382520Y-65570160D01*
X170380232Y-65575064D01*
X170380232Y-65575066D01*
X170379216Y-65577245D01*
X170284061Y-65781302D01*
X170284058Y-65781311D01*
X170225166Y-66001102D01*
X170225164Y-66001113D01*
X170205332Y-66227798D01*
X170205332Y-66227801D01*
X170225164Y-66454486D01*
X170225166Y-66454497D01*
X170284058Y-66674288D01*
X170284061Y-66674297D01*
X170380231Y-66880532D01*
X170380232Y-66880534D01*
X170510754Y-67066941D01*
X170671658Y-67227845D01*
X170671661Y-67227847D01*
X170858066Y-67358368D01*
X170858078Y-67358373D01*
X170859461Y-67359172D01*
X170859955Y-67359690D01*
X170862501Y-67361473D01*
X170862142Y-67361984D01*
X170907680Y-67409735D01*
X170917244Y-67434472D01*
X170932036Y-67489679D01*
X170930373Y-67559529D01*
X170891209Y-67617391D01*
X170864675Y-67634149D01*
X170858070Y-67637229D01*
X170858068Y-67637230D01*
X170671658Y-67767754D01*
X170510754Y-67928658D01*
X170380232Y-68115065D01*
X170380231Y-68115067D01*
X170284061Y-68321302D01*
X170284058Y-68321311D01*
X170225166Y-68541102D01*
X170225164Y-68541113D01*
X170205332Y-68767798D01*
X170205332Y-68767801D01*
X170225164Y-68994486D01*
X170225166Y-68994497D01*
X170284058Y-69214288D01*
X170284061Y-69214297D01*
X170380231Y-69420532D01*
X170380232Y-69420534D01*
X170510754Y-69606941D01*
X170671658Y-69767845D01*
X170671661Y-69767847D01*
X170858066Y-69898368D01*
X170858078Y-69898373D01*
X170859461Y-69899172D01*
X170859955Y-69899690D01*
X170862501Y-69901473D01*
X170862142Y-69901984D01*
X170907680Y-69949735D01*
X170917242Y-69974467D01*
X170928221Y-70015439D01*
X170951223Y-70101283D01*
X170951226Y-70101290D01*
X171030275Y-70238209D01*
X171030279Y-70238214D01*
X171030280Y-70238216D01*
X171142084Y-70350020D01*
X171142086Y-70350021D01*
X171142090Y-70350024D01*
X171265450Y-70421245D01*
X171279016Y-70429077D01*
X171431743Y-70470000D01*
X176226200Y-70470000D01*
X176293239Y-70489685D01*
X176338994Y-70542489D01*
X176350200Y-70594000D01*
X176350200Y-96624457D01*
X176388378Y-96766937D01*
X176391123Y-96777183D01*
X176391126Y-96777190D01*
X176470175Y-96914109D01*
X176470179Y-96914114D01*
X176470180Y-96914116D01*
X176581984Y-97025920D01*
X176581986Y-97025921D01*
X176581990Y-97025924D01*
X176718909Y-97104973D01*
X176718916Y-97104977D01*
X176871643Y-97145900D01*
X177029757Y-97145900D01*
X177042979Y-97145900D01*
X177110018Y-97165585D01*
X177141933Y-97195173D01*
X177264620Y-97357638D01*
X177429037Y-97507523D01*
X177429039Y-97507525D01*
X177618195Y-97624645D01*
X177618196Y-97624645D01*
X177618199Y-97624647D01*
X177825660Y-97705018D01*
X178044357Y-97745900D01*
X178044359Y-97745900D01*
X178266841Y-97745900D01*
X178266843Y-97745900D01*
X178485540Y-97705018D01*
X178693001Y-97624647D01*
X178882162Y-97507524D01*
X179046581Y-97357636D01*
X179180658Y-97180089D01*
X179279829Y-96980928D01*
X179340715Y-96766936D01*
X179361243Y-96545400D01*
X179340715Y-96323864D01*
X179279829Y-96109872D01*
X179279824Y-96109861D01*
X179180661Y-95910716D01*
X179180656Y-95910708D01*
X179046579Y-95733161D01*
X178882162Y-95583276D01*
X178882160Y-95583274D01*
X178693004Y-95466154D01*
X178692998Y-95466152D01*
X178485540Y-95385782D01*
X178266843Y-95344900D01*
X178044357Y-95344900D01*
X177825660Y-95385782D01*
X177719991Y-95426718D01*
X177650370Y-95432580D01*
X177588630Y-95399870D01*
X177554375Y-95338973D01*
X177551200Y-95311091D01*
X177551200Y-93842709D01*
X177570885Y-93775670D01*
X177623689Y-93729915D01*
X177692847Y-93719971D01*
X177719988Y-93727080D01*
X177825660Y-93768018D01*
X178044357Y-93808900D01*
X178044359Y-93808900D01*
X178266841Y-93808900D01*
X178266843Y-93808900D01*
X178485540Y-93768018D01*
X178693001Y-93687647D01*
X178882162Y-93570524D01*
X179046581Y-93420636D01*
X179169267Y-93258172D01*
X179225376Y-93216537D01*
X179268221Y-93208900D01*
X179768800Y-93208900D01*
X179835839Y-93228585D01*
X179881594Y-93281389D01*
X179892800Y-93332900D01*
X179892800Y-99707100D01*
X179873115Y-99774139D01*
X179820311Y-99819894D01*
X179768800Y-99831100D01*
X179293621Y-99831100D01*
X179226582Y-99811415D01*
X179194667Y-99781827D01*
X179071979Y-99619361D01*
X178907562Y-99469476D01*
X178907560Y-99469474D01*
X178718404Y-99352354D01*
X178718398Y-99352352D01*
X178510940Y-99271982D01*
X178292243Y-99231100D01*
X178069757Y-99231100D01*
X177851060Y-99271982D01*
X177754401Y-99309428D01*
X177643601Y-99352352D01*
X177643595Y-99352354D01*
X177454439Y-99469474D01*
X177454437Y-99469476D01*
X177290020Y-99619361D01*
X177155943Y-99796908D01*
X177155938Y-99796916D01*
X177056775Y-99996061D01*
X177056769Y-99996076D01*
X176995885Y-100210062D01*
X176995884Y-100210064D01*
X176975357Y-100431599D01*
X176975357Y-100431600D01*
X176995884Y-100653135D01*
X176995885Y-100653137D01*
X177056769Y-100867123D01*
X177056775Y-100867138D01*
X177155938Y-101066283D01*
X177155943Y-101066291D01*
X177290020Y-101243838D01*
X177454437Y-101393723D01*
X177454439Y-101393725D01*
X177643595Y-101510845D01*
X177643596Y-101510845D01*
X177643599Y-101510847D01*
X177851060Y-101591218D01*
X178069757Y-101632100D01*
X178069759Y-101632100D01*
X178292241Y-101632100D01*
X178292243Y-101632100D01*
X178510940Y-101591218D01*
X178718401Y-101510847D01*
X178907562Y-101393724D01*
X179070511Y-101245176D01*
X179071979Y-101243838D01*
X179130671Y-101166118D01*
X179194667Y-101081372D01*
X179250776Y-101039737D01*
X179293621Y-101032100D01*
X180170500Y-101032100D01*
X180237539Y-101051785D01*
X180283294Y-101104589D01*
X180294500Y-101156100D01*
X180294500Y-103491700D01*
X180274815Y-103558739D01*
X180222011Y-103604494D01*
X180170500Y-103615700D01*
X179344421Y-103615700D01*
X179277382Y-103596015D01*
X179245467Y-103566427D01*
X179122779Y-103403961D01*
X178958362Y-103254076D01*
X178958360Y-103254074D01*
X178769204Y-103136954D01*
X178769198Y-103136952D01*
X178754312Y-103131185D01*
X178561740Y-103056582D01*
X178343043Y-103015700D01*
X178120557Y-103015700D01*
X177901860Y-103056582D01*
X177784210Y-103102160D01*
X177694401Y-103136952D01*
X177694395Y-103136954D01*
X177505239Y-103254074D01*
X177505237Y-103254076D01*
X177340820Y-103403961D01*
X177206743Y-103581508D01*
X177206738Y-103581516D01*
X177107575Y-103780661D01*
X177107569Y-103780676D01*
X177046685Y-103994662D01*
X177046684Y-103994664D01*
X177026157Y-104216199D01*
X177026157Y-104216200D01*
X177046684Y-104437735D01*
X177046685Y-104437737D01*
X177107569Y-104651723D01*
X177107575Y-104651738D01*
X177206738Y-104850883D01*
X177206743Y-104850891D01*
X177340820Y-105028438D01*
X177505237Y-105178323D01*
X177505239Y-105178325D01*
X177694395Y-105295445D01*
X177694396Y-105295445D01*
X177694399Y-105295447D01*
X177901860Y-105375818D01*
X178120557Y-105416700D01*
X178120559Y-105416700D01*
X178343041Y-105416700D01*
X178343043Y-105416700D01*
X178561740Y-105375818D01*
X178769201Y-105295447D01*
X178958362Y-105178324D01*
X179122781Y-105028436D01*
X179245467Y-104865972D01*
X179301576Y-104824337D01*
X179344421Y-104816700D01*
X180974055Y-104816700D01*
X180974057Y-104816700D01*
X181126784Y-104775777D01*
X181263716Y-104696720D01*
X181375520Y-104584916D01*
X181454577Y-104447984D01*
X181495500Y-104295257D01*
X181495500Y-100816428D01*
X181515185Y-100749389D01*
X181567989Y-100703634D01*
X181637147Y-100693690D01*
X181700703Y-100722715D01*
X181726885Y-100754426D01*
X181753380Y-100800316D01*
X181865184Y-100912120D01*
X181865186Y-100912121D01*
X181865190Y-100912124D01*
X182002109Y-100991173D01*
X182002116Y-100991177D01*
X182154843Y-101032100D01*
X182154851Y-101032100D01*
X182162903Y-101033161D01*
X182162496Y-101036245D01*
X182215418Y-101051785D01*
X182247333Y-101081373D01*
X182370020Y-101243838D01*
X182534437Y-101393723D01*
X182534439Y-101393725D01*
X182723595Y-101510845D01*
X182723596Y-101510845D01*
X182723599Y-101510847D01*
X182931060Y-101591218D01*
X183149757Y-101632100D01*
X183149759Y-101632100D01*
X183372241Y-101632100D01*
X183372243Y-101632100D01*
X183590940Y-101591218D01*
X183798401Y-101510847D01*
X183987562Y-101393724D01*
X184150511Y-101245176D01*
X184151979Y-101243838D01*
X184210671Y-101166118D01*
X184286058Y-101066289D01*
X184385229Y-100867128D01*
X184446115Y-100653136D01*
X184466643Y-100431600D01*
X184446115Y-100210064D01*
X184385229Y-99996072D01*
X184385224Y-99996061D01*
X184286061Y-99796916D01*
X184286056Y-99796908D01*
X184151979Y-99619361D01*
X183987562Y-99469476D01*
X183987560Y-99469474D01*
X183798404Y-99352354D01*
X183798398Y-99352352D01*
X183590940Y-99271982D01*
X183372243Y-99231100D01*
X183149757Y-99231100D01*
X182981185Y-99262612D01*
X182911670Y-99255581D01*
X182856991Y-99212083D01*
X182834509Y-99145930D01*
X182834400Y-99140723D01*
X182834400Y-97841024D01*
X182854085Y-97773985D01*
X182906889Y-97728230D01*
X182976047Y-97718286D01*
X182981166Y-97719132D01*
X183124357Y-97745900D01*
X183124358Y-97745900D01*
X183346841Y-97745900D01*
X183346843Y-97745900D01*
X183565540Y-97705018D01*
X183773001Y-97624647D01*
X183962162Y-97507524D01*
X184126581Y-97357636D01*
X184249267Y-97195172D01*
X184305376Y-97153537D01*
X184348221Y-97145900D01*
X188561855Y-97145900D01*
X188561857Y-97145900D01*
X188714584Y-97104977D01*
X188851516Y-97025920D01*
X188963320Y-96914116D01*
X189042377Y-96777184D01*
X189083300Y-96624457D01*
X189083300Y-89653700D01*
X189102985Y-89586661D01*
X189155789Y-89540906D01*
X189207300Y-89529700D01*
X190362908Y-89529700D01*
X190429947Y-89549385D01*
X190464480Y-89582574D01*
X190530198Y-89676430D01*
X190594554Y-89768341D01*
X190755458Y-89929245D01*
X190755461Y-89929247D01*
X190941866Y-90059768D01*
X190999875Y-90086818D01*
X191052314Y-90132991D01*
X191071466Y-90200184D01*
X191051250Y-90267065D01*
X190999875Y-90311582D01*
X190941867Y-90338631D01*
X190941865Y-90338632D01*
X190755458Y-90469154D01*
X190594554Y-90630058D01*
X190464032Y-90816465D01*
X190464031Y-90816467D01*
X190367861Y-91022702D01*
X190367858Y-91022711D01*
X190308966Y-91242502D01*
X190308964Y-91242513D01*
X190289132Y-91469198D01*
X190289132Y-91469201D01*
X190308964Y-91695886D01*
X190308966Y-91695897D01*
X190367858Y-91915688D01*
X190367861Y-91915697D01*
X190464031Y-92121932D01*
X190464032Y-92121934D01*
X190594554Y-92308341D01*
X190755458Y-92469245D01*
X190755461Y-92469247D01*
X190941866Y-92599768D01*
X191148104Y-92695939D01*
X191367908Y-92754835D01*
X191529830Y-92769001D01*
X191594598Y-92774668D01*
X191594600Y-92774668D01*
X191594602Y-92774668D01*
X191651273Y-92769709D01*
X191821292Y-92754835D01*
X192041096Y-92695939D01*
X192247334Y-92599768D01*
X192433739Y-92469247D01*
X192506092Y-92396894D01*
X192583419Y-92319568D01*
X192644742Y-92286083D01*
X192714434Y-92291067D01*
X192770367Y-92332939D01*
X192794784Y-92398403D01*
X192795100Y-92407249D01*
X192795100Y-96508447D01*
X192775415Y-96575486D01*
X192722611Y-96621241D01*
X192653453Y-96631185D01*
X192589897Y-96602160D01*
X192564648Y-96570709D01*
X192564378Y-96570886D01*
X192562574Y-96568125D01*
X192562049Y-96567471D01*
X192561576Y-96566597D01*
X192425566Y-96358417D01*
X192393756Y-96323862D01*
X192257144Y-96175462D01*
X192060909Y-96022726D01*
X192060907Y-96022725D01*
X192060906Y-96022724D01*
X191842211Y-95904372D01*
X191842202Y-95904369D01*
X191607016Y-95823629D01*
X191361735Y-95782700D01*
X191113065Y-95782700D01*
X190867783Y-95823629D01*
X190632597Y-95904369D01*
X190632588Y-95904372D01*
X190413893Y-96022724D01*
X190217657Y-96175461D01*
X190049233Y-96358417D01*
X189913226Y-96566593D01*
X189813336Y-96794318D01*
X189752292Y-97035375D01*
X189752290Y-97035387D01*
X189731757Y-97283194D01*
X189731757Y-97283205D01*
X189752290Y-97531012D01*
X189752292Y-97531024D01*
X189813336Y-97772081D01*
X189913226Y-97999806D01*
X190049233Y-98207982D01*
X190049236Y-98207985D01*
X190217656Y-98390938D01*
X190413891Y-98543674D01*
X190413894Y-98543676D01*
X190413896Y-98543677D01*
X190480009Y-98579455D01*
X190571917Y-98629193D01*
X190621508Y-98678412D01*
X190636900Y-98738248D01*
X190636900Y-102328151D01*
X190617215Y-102395190D01*
X190571918Y-102437206D01*
X190413893Y-102522724D01*
X190217657Y-102675461D01*
X190049233Y-102858417D01*
X189913226Y-103066593D01*
X189813336Y-103294318D01*
X189752292Y-103535375D01*
X189752290Y-103535387D01*
X189731757Y-103783194D01*
X189731757Y-103783205D01*
X189752290Y-104031012D01*
X189752292Y-104031024D01*
X189813336Y-104272081D01*
X189913226Y-104499806D01*
X190049233Y-104707982D01*
X190049236Y-104707985D01*
X190217656Y-104890938D01*
X190413891Y-105043674D01*
X190632590Y-105162028D01*
X190867786Y-105242771D01*
X191113065Y-105283700D01*
X191361735Y-105283700D01*
X191607014Y-105242771D01*
X191842210Y-105162028D01*
X192060909Y-105043674D01*
X192257144Y-104890938D01*
X192425564Y-104707985D01*
X192561573Y-104499807D01*
X192561577Y-104499797D01*
X192562044Y-104498937D01*
X192562329Y-104498649D01*
X192564378Y-104495514D01*
X192565022Y-104495935D01*
X192611262Y-104449345D01*
X192679479Y-104434235D01*
X192745035Y-104458405D01*
X192787117Y-104514180D01*
X192795100Y-104557952D01*
X192795100Y-104805103D01*
X192775415Y-104872142D01*
X192758781Y-104892784D01*
X191760784Y-105890781D01*
X191699461Y-105924266D01*
X191673103Y-105927100D01*
X189479297Y-105927100D01*
X189412258Y-105907415D01*
X189391616Y-105890781D01*
X187355390Y-103854555D01*
X187355388Y-103854552D01*
X187236517Y-103735681D01*
X187236516Y-103735680D01*
X187129748Y-103674038D01*
X187129747Y-103674037D01*
X187099583Y-103656622D01*
X187035130Y-103639352D01*
X186946857Y-103615699D01*
X186788743Y-103615699D01*
X186781147Y-103615699D01*
X186781131Y-103615700D01*
X184424421Y-103615700D01*
X184357382Y-103596015D01*
X184325467Y-103566427D01*
X184202779Y-103403961D01*
X184038362Y-103254076D01*
X184038360Y-103254074D01*
X183849204Y-103136954D01*
X183849198Y-103136952D01*
X183834312Y-103131185D01*
X183641740Y-103056582D01*
X183423043Y-103015700D01*
X183200557Y-103015700D01*
X182981860Y-103056582D01*
X182864210Y-103102160D01*
X182774401Y-103136952D01*
X182774395Y-103136954D01*
X182585239Y-103254074D01*
X182585237Y-103254076D01*
X182420820Y-103403961D01*
X182286743Y-103581508D01*
X182286738Y-103581516D01*
X182187575Y-103780661D01*
X182187569Y-103780676D01*
X182126685Y-103994662D01*
X182126684Y-103994664D01*
X182106157Y-104216199D01*
X182106157Y-104216200D01*
X182126684Y-104437735D01*
X182126685Y-104437737D01*
X182187569Y-104651723D01*
X182187575Y-104651738D01*
X182286738Y-104850883D01*
X182286743Y-104850891D01*
X182420820Y-105028438D01*
X182585237Y-105178323D01*
X182585239Y-105178325D01*
X182774395Y-105295445D01*
X182774396Y-105295445D01*
X182774399Y-105295447D01*
X182981860Y-105375818D01*
X183200557Y-105416700D01*
X183200559Y-105416700D01*
X183423041Y-105416700D01*
X183423043Y-105416700D01*
X183641740Y-105375818D01*
X183849201Y-105295447D01*
X184038362Y-105178324D01*
X184202781Y-105028436D01*
X184325467Y-104865972D01*
X184381576Y-104824337D01*
X184424421Y-104816700D01*
X186567703Y-104816700D01*
X186634742Y-104836385D01*
X186655384Y-104853019D01*
X188694339Y-106891974D01*
X188694349Y-106891985D01*
X188698679Y-106896315D01*
X188698680Y-106896316D01*
X188810484Y-107008120D01*
X188897295Y-107058239D01*
X188897297Y-107058241D01*
X188947413Y-107087176D01*
X188947415Y-107087177D01*
X189100142Y-107128100D01*
X189100143Y-107128100D01*
X191886531Y-107128100D01*
X191886547Y-107128101D01*
X191894143Y-107128101D01*
X192052254Y-107128101D01*
X192052257Y-107128101D01*
X192204985Y-107087177D01*
X192255104Y-107058239D01*
X192341916Y-107008120D01*
X192453720Y-106896316D01*
X192453720Y-106896314D01*
X192463928Y-106886107D01*
X192463930Y-106886104D01*
X193754106Y-105595928D01*
X193754111Y-105595924D01*
X193764314Y-105585720D01*
X193764316Y-105585720D01*
X193876120Y-105473916D01*
X193955177Y-105336984D01*
X193996100Y-105184257D01*
X193996100Y-103937287D01*
X194015785Y-103870248D01*
X194068589Y-103824493D01*
X194137747Y-103814549D01*
X194201303Y-103843574D01*
X194239077Y-103902352D01*
X194243676Y-103927047D01*
X194252290Y-104031012D01*
X194252292Y-104031024D01*
X194313336Y-104272081D01*
X194413226Y-104499806D01*
X194549233Y-104707982D01*
X194549236Y-104707985D01*
X194717656Y-104890938D01*
X194913891Y-105043674D01*
X195132590Y-105162028D01*
X195367786Y-105242771D01*
X195613065Y-105283700D01*
X195861735Y-105283700D01*
X196107014Y-105242771D01*
X196342210Y-105162028D01*
X196560909Y-105043674D01*
X196757144Y-104890938D01*
X196925564Y-104707985D01*
X197061573Y-104499807D01*
X197161463Y-104272081D01*
X197222508Y-104031021D01*
X197223880Y-104014463D01*
X197243043Y-103783205D01*
X197243043Y-103783194D01*
X197222509Y-103535387D01*
X197222507Y-103535375D01*
X197161463Y-103294318D01*
X197061573Y-103066593D01*
X196925566Y-102858417D01*
X196903957Y-102834944D01*
X196757144Y-102675462D01*
X196560909Y-102522726D01*
X196560907Y-102522725D01*
X196560906Y-102522724D01*
X196342211Y-102404372D01*
X196342202Y-102404369D01*
X196107016Y-102323629D01*
X195861735Y-102282700D01*
X195613065Y-102282700D01*
X195367783Y-102323629D01*
X195132597Y-102404369D01*
X195132588Y-102404372D01*
X194913893Y-102522724D01*
X194717657Y-102675461D01*
X194549233Y-102858417D01*
X194413226Y-103066593D01*
X194313336Y-103294318D01*
X194252292Y-103535375D01*
X194252290Y-103535387D01*
X194243676Y-103639352D01*
X194218523Y-103704537D01*
X194162121Y-103745775D01*
X194092378Y-103749973D01*
X194031436Y-103715799D01*
X193998644Y-103654102D01*
X193996100Y-103629112D01*
X193996100Y-97437287D01*
X194015785Y-97370248D01*
X194068589Y-97324493D01*
X194137747Y-97314549D01*
X194201303Y-97343574D01*
X194239077Y-97402352D01*
X194243676Y-97427047D01*
X194252290Y-97531012D01*
X194252292Y-97531024D01*
X194313336Y-97772081D01*
X194413226Y-97999806D01*
X194549233Y-98207982D01*
X194549236Y-98207985D01*
X194717656Y-98390938D01*
X194913891Y-98543674D01*
X195132590Y-98662028D01*
X195367786Y-98742771D01*
X195613065Y-98783700D01*
X195861735Y-98783700D01*
X196107014Y-98742771D01*
X196342210Y-98662028D01*
X196560909Y-98543674D01*
X196757144Y-98390938D01*
X196925564Y-98207985D01*
X197061573Y-97999807D01*
X197161463Y-97772081D01*
X197222508Y-97531021D01*
X197223556Y-97518375D01*
X197243043Y-97283205D01*
X197243043Y-97283194D01*
X197222509Y-97035387D01*
X197222507Y-97035375D01*
X197161463Y-96794318D01*
X197061573Y-96566593D01*
X196925566Y-96358417D01*
X196893756Y-96323862D01*
X196757144Y-96175462D01*
X196560909Y-96022726D01*
X196560907Y-96022725D01*
X196560906Y-96022724D01*
X196342211Y-95904372D01*
X196342205Y-95904370D01*
X196257136Y-95875165D01*
X196200121Y-95834779D01*
X196173991Y-95769979D01*
X196173400Y-95757884D01*
X196173400Y-92842362D01*
X196193085Y-92775323D01*
X196245889Y-92729568D01*
X196315047Y-92719624D01*
X196329495Y-92722588D01*
X196447985Y-92754338D01*
X196448000Y-92754341D01*
X196674598Y-92774166D01*
X196674602Y-92774166D01*
X196901199Y-92754341D01*
X196901210Y-92754339D01*
X197120917Y-92695469D01*
X197120931Y-92695464D01*
X197327078Y-92599336D01*
X197400071Y-92548224D01*
X196721047Y-91869200D01*
X196727261Y-91869200D01*
X196828994Y-91841941D01*
X196920206Y-91789280D01*
X196994680Y-91714806D01*
X197047341Y-91623594D01*
X197074600Y-91521861D01*
X197074600Y-91515647D01*
X197753624Y-92194671D01*
X197804736Y-92121678D01*
X197900864Y-91915531D01*
X197900869Y-91915517D01*
X197959739Y-91695810D01*
X197959741Y-91695799D01*
X197979566Y-91469202D01*
X197979566Y-91469197D01*
X197959741Y-91242600D01*
X197959739Y-91242589D01*
X197900869Y-91022882D01*
X197900864Y-91022868D01*
X197804736Y-90816721D01*
X197804732Y-90816713D01*
X197753625Y-90743726D01*
X197074600Y-91422751D01*
X197074600Y-91416539D01*
X197047341Y-91314806D01*
X196994680Y-91223594D01*
X196920206Y-91149120D01*
X196828994Y-91096459D01*
X196727261Y-91069200D01*
X196721047Y-91069200D01*
X197400072Y-90390174D01*
X197327080Y-90339064D01*
X197268734Y-90311857D01*
X197216295Y-90265684D01*
X197197143Y-90198491D01*
X197217359Y-90131610D01*
X197268734Y-90087093D01*
X197327334Y-90059768D01*
X197513739Y-89929247D01*
X197674647Y-89768339D01*
X197805168Y-89581934D01*
X197901339Y-89375696D01*
X197960235Y-89155892D01*
X197980068Y-88929200D01*
X197979735Y-88925399D01*
X197963562Y-88740535D01*
X197960235Y-88702508D01*
X197901339Y-88482704D01*
X197805168Y-88276466D01*
X197674647Y-88090061D01*
X197674645Y-88090058D01*
X197513741Y-87929154D01*
X197327334Y-87798632D01*
X197327328Y-87798629D01*
X197289799Y-87781129D01*
X197269324Y-87771581D01*
X197216885Y-87725410D01*
X197197733Y-87658217D01*
X197217948Y-87591335D01*
X197269325Y-87546818D01*
X197327334Y-87519768D01*
X197513739Y-87389247D01*
X197674647Y-87228339D01*
X197805168Y-87041934D01*
X197901339Y-86835696D01*
X197960235Y-86615892D01*
X197980068Y-86389200D01*
X197960235Y-86162508D01*
X197915218Y-85994500D01*
X197901341Y-85942711D01*
X197901338Y-85942702D01*
X197893182Y-85925211D01*
X197805168Y-85736466D01*
X197674647Y-85550061D01*
X197674645Y-85550058D01*
X197513741Y-85389154D01*
X197327334Y-85258632D01*
X197327328Y-85258629D01*
X197269325Y-85231582D01*
X197216885Y-85185410D01*
X197197733Y-85118217D01*
X197217948Y-85051335D01*
X197269325Y-85006818D01*
X197327334Y-84979768D01*
X197513739Y-84849247D01*
X197674647Y-84688339D01*
X197805168Y-84501934D01*
X197901339Y-84295696D01*
X197960235Y-84075892D01*
X197980068Y-83849200D01*
X197960235Y-83622508D01*
X197901339Y-83402704D01*
X197805168Y-83196466D01*
X197674647Y-83010061D01*
X197674645Y-83010058D01*
X197513741Y-82849154D01*
X197327334Y-82718632D01*
X197327328Y-82718629D01*
X197269325Y-82691582D01*
X197216885Y-82645410D01*
X197197733Y-82578217D01*
X197217948Y-82511335D01*
X197269325Y-82466818D01*
X197270243Y-82466390D01*
X197327334Y-82439768D01*
X197513739Y-82309247D01*
X197674647Y-82148339D01*
X197805168Y-81961934D01*
X197901339Y-81755696D01*
X197960235Y-81535892D01*
X197980068Y-81309200D01*
X197977839Y-81283728D01*
X197960235Y-81082513D01*
X197960235Y-81082508D01*
X197913798Y-80909200D01*
X197901341Y-80862711D01*
X197901338Y-80862702D01*
X197894231Y-80847461D01*
X197805168Y-80656466D01*
X197674647Y-80470061D01*
X197674645Y-80470058D01*
X197513741Y-80309154D01*
X197327334Y-80178632D01*
X197327332Y-80178631D01*
X197321018Y-80175686D01*
X197280045Y-80156581D01*
X197227608Y-80110410D01*
X197208456Y-80043216D01*
X197228672Y-79976335D01*
X197281837Y-79931001D01*
X197332452Y-79920200D01*
X197401655Y-79920200D01*
X197401657Y-79920200D01*
X197554384Y-79879277D01*
X197691316Y-79800220D01*
X197803120Y-79688416D01*
X197882177Y-79551484D01*
X197923100Y-79398757D01*
X197923100Y-75968892D01*
X197942785Y-75901853D01*
X197975974Y-75867319D01*
X198161739Y-75737247D01*
X198322647Y-75576339D01*
X198453168Y-75389934D01*
X198549339Y-75183696D01*
X198608235Y-74963892D01*
X198628068Y-74737200D01*
X198608235Y-74510508D01*
X198575999Y-74390200D01*
X198564676Y-74347942D01*
X198566339Y-74278092D01*
X198605502Y-74220230D01*
X198652359Y-74196075D01*
X198656084Y-74195077D01*
X198656088Y-74195074D01*
X198656090Y-74195074D01*
X198793009Y-74116024D01*
X198793008Y-74116024D01*
X198793016Y-74116020D01*
X198904820Y-74004216D01*
X198983877Y-73867284D01*
X199024800Y-73714557D01*
X199024800Y-69578143D01*
X198983877Y-69425416D01*
X198935716Y-69341999D01*
X198919244Y-69274100D01*
X198942097Y-69208073D01*
X198997018Y-69164882D01*
X199043104Y-69156000D01*
X200880555Y-69156000D01*
X200880557Y-69156000D01*
X201033284Y-69115077D01*
X201170216Y-69036020D01*
X201282020Y-68924216D01*
X201306935Y-68881061D01*
X201365141Y-68780246D01*
X201366779Y-68781192D01*
X201404074Y-68734907D01*
X201470367Y-68712838D01*
X201538067Y-68730114D01*
X201585681Y-68781248D01*
X201598800Y-68836759D01*
X201598800Y-72276257D01*
X201622713Y-72365499D01*
X201639723Y-72428983D01*
X201639726Y-72428990D01*
X201718775Y-72565909D01*
X201718779Y-72565914D01*
X201718780Y-72565916D01*
X201830584Y-72677720D01*
X201830586Y-72677721D01*
X201830590Y-72677724D01*
X201941706Y-72741876D01*
X201967516Y-72756777D01*
X202120243Y-72797700D01*
X202278357Y-72797700D01*
X203710908Y-72797700D01*
X203777947Y-72817385D01*
X203812480Y-72850574D01*
X203866274Y-72927400D01*
X203942554Y-73036341D01*
X204103458Y-73197245D01*
X204128062Y-73214473D01*
X204171687Y-73269049D01*
X204178881Y-73338548D01*
X204147358Y-73400903D01*
X204087129Y-73436317D01*
X204070193Y-73439338D01*
X204035116Y-73443108D01*
X203900271Y-73493402D01*
X203900264Y-73493406D01*
X203785055Y-73579652D01*
X203785052Y-73579655D01*
X203698806Y-73694864D01*
X203698802Y-73694871D01*
X203648508Y-73829717D01*
X203642101Y-73889316D01*
X203642100Y-73889335D01*
X203642100Y-75585070D01*
X203642101Y-75585076D01*
X203648508Y-75644683D01*
X203698802Y-75779528D01*
X203698806Y-75779535D01*
X203785052Y-75894744D01*
X203785055Y-75894747D01*
X203900264Y-75980993D01*
X203900271Y-75980997D01*
X204035117Y-76031291D01*
X204035116Y-76031291D01*
X204042044Y-76032035D01*
X204094727Y-76037700D01*
X205790472Y-76037699D01*
X205850083Y-76031291D01*
X205984931Y-75980996D01*
X206088491Y-75903470D01*
X206153952Y-75879054D01*
X206222225Y-75893905D01*
X206271631Y-75943310D01*
X206286800Y-76002738D01*
X206286800Y-79465500D01*
X206267115Y-79532539D01*
X206214311Y-79578294D01*
X206162800Y-79589500D01*
X201729743Y-79589500D01*
X201577016Y-79630423D01*
X201577009Y-79630426D01*
X201440090Y-79709475D01*
X201440082Y-79709481D01*
X201328281Y-79821282D01*
X201328277Y-79821287D01*
X201265686Y-79929700D01*
X201215119Y-79977915D01*
X201158299Y-79991700D01*
X200957100Y-79991700D01*
X200957100Y-80976014D01*
X200952706Y-80971620D01*
X200861494Y-80918959D01*
X200759761Y-80891700D01*
X200654439Y-80891700D01*
X200552706Y-80918959D01*
X200461494Y-80971620D01*
X200457100Y-80976014D01*
X200457100Y-79991700D01*
X199859255Y-79991700D01*
X199799727Y-79998101D01*
X199799720Y-79998103D01*
X199665013Y-80048345D01*
X199665006Y-80048349D01*
X199549912Y-80134509D01*
X199549909Y-80134512D01*
X199463749Y-80249606D01*
X199463745Y-80249613D01*
X199413503Y-80384320D01*
X199413501Y-80384327D01*
X199407100Y-80443855D01*
X199407100Y-81041700D01*
X200391414Y-81041700D01*
X200387020Y-81046094D01*
X200334359Y-81137306D01*
X200307100Y-81239039D01*
X200307100Y-81344361D01*
X200334359Y-81446094D01*
X200387020Y-81537306D01*
X200391414Y-81541700D01*
X199407100Y-81541700D01*
X199407100Y-82139544D01*
X199413501Y-82199072D01*
X199413503Y-82199079D01*
X199463745Y-82333786D01*
X199463749Y-82333793D01*
X199549909Y-82448887D01*
X199549912Y-82448890D01*
X199665006Y-82535050D01*
X199665013Y-82535054D01*
X199799720Y-82585296D01*
X199799727Y-82585298D01*
X199835318Y-82589125D01*
X199899869Y-82615863D01*
X199939718Y-82673255D01*
X199942211Y-82743080D01*
X199906559Y-82803169D01*
X199893188Y-82813987D01*
X199867961Y-82831651D01*
X199707054Y-82992558D01*
X199576532Y-83178965D01*
X199576531Y-83178967D01*
X199480361Y-83385202D01*
X199480358Y-83385211D01*
X199421466Y-83605002D01*
X199421464Y-83605013D01*
X199401632Y-83831698D01*
X199401632Y-83831701D01*
X199421464Y-84058386D01*
X199421466Y-84058397D01*
X199461540Y-84207957D01*
X199459877Y-84277807D01*
X199420714Y-84335669D01*
X199373860Y-84359824D01*
X199350199Y-84366164D01*
X199321614Y-84373823D01*
X199321609Y-84373826D01*
X199184690Y-84452875D01*
X199184682Y-84452881D01*
X199072881Y-84564682D01*
X199072875Y-84564690D01*
X198993826Y-84701609D01*
X198993823Y-84701616D01*
X198952900Y-84854343D01*
X198952900Y-97204143D01*
X198952900Y-97362257D01*
X198992857Y-97511376D01*
X198993823Y-97514983D01*
X198993826Y-97514990D01*
X199072875Y-97651909D01*
X199072879Y-97651914D01*
X199072880Y-97651916D01*
X199184684Y-97763720D01*
X199184686Y-97763721D01*
X199184690Y-97763724D01*
X199318580Y-97841024D01*
X199321616Y-97842777D01*
X199474343Y-97883700D01*
X200281284Y-97883700D01*
X200348323Y-97903385D01*
X200394078Y-97956189D01*
X200394840Y-97957889D01*
X200413227Y-97999808D01*
X200549233Y-98207982D01*
X200549236Y-98207985D01*
X200717656Y-98390938D01*
X200913891Y-98543674D01*
X200913894Y-98543676D01*
X200913896Y-98543677D01*
X200980009Y-98579455D01*
X201071917Y-98629193D01*
X201121508Y-98678412D01*
X201136900Y-98738248D01*
X201136900Y-102328151D01*
X201117215Y-102395190D01*
X201071918Y-102437206D01*
X200913893Y-102522724D01*
X200717657Y-102675461D01*
X200549233Y-102858417D01*
X200413226Y-103066593D01*
X200313336Y-103294318D01*
X200252292Y-103535375D01*
X200252290Y-103535387D01*
X200231757Y-103783194D01*
X200231757Y-103783205D01*
X200252290Y-104031012D01*
X200252292Y-104031024D01*
X200313336Y-104272081D01*
X200413226Y-104499806D01*
X200549233Y-104707982D01*
X200549236Y-104707985D01*
X200717656Y-104890938D01*
X200913891Y-105043674D01*
X201132590Y-105162028D01*
X201367786Y-105242771D01*
X201613065Y-105283700D01*
X201861735Y-105283700D01*
X202107014Y-105242771D01*
X202342210Y-105162028D01*
X202560909Y-105043674D01*
X202757144Y-104890938D01*
X202925564Y-104707985D01*
X203061573Y-104499807D01*
X203161463Y-104272081D01*
X203222508Y-104031021D01*
X203223880Y-104014463D01*
X203243043Y-103783205D01*
X203243043Y-103783194D01*
X204731757Y-103783194D01*
X204731757Y-103783205D01*
X204752290Y-104031012D01*
X204752292Y-104031024D01*
X204813336Y-104272081D01*
X204913226Y-104499806D01*
X205049233Y-104707982D01*
X205049236Y-104707985D01*
X205217656Y-104890938D01*
X205413891Y-105043674D01*
X205632590Y-105162028D01*
X205867786Y-105242771D01*
X206113065Y-105283700D01*
X206361735Y-105283700D01*
X206607014Y-105242771D01*
X206842210Y-105162028D01*
X207060909Y-105043674D01*
X207257144Y-104890938D01*
X207425564Y-104707985D01*
X207481349Y-104622599D01*
X213043357Y-104622599D01*
X213043357Y-104622600D01*
X213063884Y-104844135D01*
X213063885Y-104844137D01*
X213124769Y-105058123D01*
X213124775Y-105058138D01*
X213223938Y-105257283D01*
X213223943Y-105257291D01*
X213358020Y-105434838D01*
X213522437Y-105584723D01*
X213522439Y-105584725D01*
X213711595Y-105701845D01*
X213711596Y-105701845D01*
X213711599Y-105701847D01*
X213919060Y-105782218D01*
X214137757Y-105823100D01*
X214137759Y-105823100D01*
X214360241Y-105823100D01*
X214360243Y-105823100D01*
X214578940Y-105782218D01*
X214786401Y-105701847D01*
X214975562Y-105584724D01*
X215139981Y-105434836D01*
X215274058Y-105257289D01*
X215373229Y-105058128D01*
X215434115Y-104844136D01*
X215454643Y-104622600D01*
X215451150Y-104584909D01*
X215434115Y-104401064D01*
X215434114Y-104401062D01*
X215404009Y-104295255D01*
X215373229Y-104187072D01*
X215295526Y-104031024D01*
X215274061Y-103987916D01*
X215274056Y-103987908D01*
X215139979Y-103810361D01*
X214975562Y-103660476D01*
X214975560Y-103660474D01*
X214786404Y-103543354D01*
X214786398Y-103543352D01*
X214765838Y-103535387D01*
X214578940Y-103462982D01*
X214360243Y-103422100D01*
X214137757Y-103422100D01*
X213919060Y-103462982D01*
X213787864Y-103513807D01*
X213711601Y-103543352D01*
X213711595Y-103543354D01*
X213522439Y-103660474D01*
X213522437Y-103660476D01*
X213358020Y-103810361D01*
X213223943Y-103987908D01*
X213223938Y-103987916D01*
X213124775Y-104187061D01*
X213124769Y-104187076D01*
X213063885Y-104401062D01*
X213063884Y-104401064D01*
X213043357Y-104622599D01*
X207481349Y-104622599D01*
X207561573Y-104499807D01*
X207661463Y-104272081D01*
X207722508Y-104031021D01*
X207723880Y-104014463D01*
X207743043Y-103783205D01*
X207743043Y-103783194D01*
X207722509Y-103535387D01*
X207722507Y-103535375D01*
X207661463Y-103294318D01*
X207561573Y-103066593D01*
X207425566Y-102858417D01*
X207403957Y-102834944D01*
X207257144Y-102675462D01*
X207060909Y-102522726D01*
X207060907Y-102522725D01*
X207060906Y-102522724D01*
X206842211Y-102404372D01*
X206842202Y-102404369D01*
X206607016Y-102323629D01*
X206361735Y-102282700D01*
X206113065Y-102282700D01*
X205867783Y-102323629D01*
X205632597Y-102404369D01*
X205632588Y-102404372D01*
X205413893Y-102522724D01*
X205217657Y-102675461D01*
X205049233Y-102858417D01*
X204913226Y-103066593D01*
X204813336Y-103294318D01*
X204752292Y-103535375D01*
X204752290Y-103535387D01*
X204731757Y-103783194D01*
X203243043Y-103783194D01*
X203222509Y-103535387D01*
X203222507Y-103535375D01*
X203161463Y-103294318D01*
X203061573Y-103066593D01*
X202925566Y-102858417D01*
X202903957Y-102834944D01*
X202757144Y-102675462D01*
X202560909Y-102522726D01*
X202560907Y-102522725D01*
X202560906Y-102522724D01*
X202402882Y-102437206D01*
X202353292Y-102387986D01*
X202337900Y-102328151D01*
X202337900Y-100685599D01*
X213094157Y-100685599D01*
X213094157Y-100685600D01*
X213114684Y-100907135D01*
X213114685Y-100907137D01*
X213175569Y-101121123D01*
X213175575Y-101121138D01*
X213274738Y-101320283D01*
X213274743Y-101320291D01*
X213408820Y-101497838D01*
X213573237Y-101647723D01*
X213573239Y-101647725D01*
X213762395Y-101764845D01*
X213762396Y-101764845D01*
X213762399Y-101764847D01*
X213969860Y-101845218D01*
X214188557Y-101886100D01*
X214188559Y-101886100D01*
X214411041Y-101886100D01*
X214411043Y-101886100D01*
X214629740Y-101845218D01*
X214837201Y-101764847D01*
X215026362Y-101647724D01*
X215190781Y-101497836D01*
X215324858Y-101320289D01*
X215424029Y-101121128D01*
X215484915Y-100907136D01*
X215505443Y-100685600D01*
X215503384Y-100663384D01*
X215484915Y-100464064D01*
X215484914Y-100464062D01*
X215453184Y-100352543D01*
X215424029Y-100250072D01*
X215424024Y-100250061D01*
X215324861Y-100050916D01*
X215324856Y-100050908D01*
X215190779Y-99873361D01*
X215026362Y-99723476D01*
X215026360Y-99723474D01*
X214837204Y-99606354D01*
X214837198Y-99606352D01*
X214629740Y-99525982D01*
X214411043Y-99485100D01*
X214188557Y-99485100D01*
X213969860Y-99525982D01*
X213898601Y-99553588D01*
X213762401Y-99606352D01*
X213762395Y-99606354D01*
X213573239Y-99723474D01*
X213573237Y-99723476D01*
X213408820Y-99873361D01*
X213274743Y-100050908D01*
X213274738Y-100050916D01*
X213175575Y-100250061D01*
X213175569Y-100250076D01*
X213114685Y-100464062D01*
X213114684Y-100464064D01*
X213094157Y-100685599D01*
X202337900Y-100685599D01*
X202337900Y-98738248D01*
X202357585Y-98671209D01*
X202402881Y-98629193D01*
X202560909Y-98543674D01*
X202757144Y-98390938D01*
X202925564Y-98207985D01*
X203061573Y-97999807D01*
X203161463Y-97772081D01*
X203222508Y-97531021D01*
X203223556Y-97518375D01*
X203243043Y-97283205D01*
X203243043Y-97283194D01*
X204731757Y-97283194D01*
X204731757Y-97283205D01*
X204752290Y-97531012D01*
X204752292Y-97531024D01*
X204813336Y-97772081D01*
X204913226Y-97999806D01*
X205049233Y-98207982D01*
X205049236Y-98207985D01*
X205217656Y-98390938D01*
X205413891Y-98543674D01*
X205632590Y-98662028D01*
X205867786Y-98742771D01*
X206113065Y-98783700D01*
X206361735Y-98783700D01*
X206607014Y-98742771D01*
X206842210Y-98662028D01*
X207060909Y-98543674D01*
X207257144Y-98390938D01*
X207425564Y-98207985D01*
X207561573Y-97999807D01*
X207661463Y-97772081D01*
X207722508Y-97531021D01*
X207723556Y-97518375D01*
X207743043Y-97283205D01*
X207743043Y-97283194D01*
X207722509Y-97035387D01*
X207722507Y-97035375D01*
X207661463Y-96794318D01*
X207561573Y-96566593D01*
X207425566Y-96358417D01*
X207393756Y-96323862D01*
X207257144Y-96175462D01*
X207060909Y-96022726D01*
X207060907Y-96022725D01*
X207060906Y-96022724D01*
X206842211Y-95904372D01*
X206842202Y-95904369D01*
X206607016Y-95823629D01*
X206361735Y-95782700D01*
X206113065Y-95782700D01*
X205867783Y-95823629D01*
X205632597Y-95904369D01*
X205632588Y-95904372D01*
X205413893Y-96022724D01*
X205217657Y-96175461D01*
X205049233Y-96358417D01*
X204913226Y-96566593D01*
X204813336Y-96794318D01*
X204752292Y-97035375D01*
X204752290Y-97035387D01*
X204731757Y-97283194D01*
X203243043Y-97283194D01*
X203222509Y-97035387D01*
X203222507Y-97035375D01*
X203161463Y-96794318D01*
X203061573Y-96566593D01*
X202925566Y-96358417D01*
X202893756Y-96323862D01*
X202757144Y-96175462D01*
X202560909Y-96022726D01*
X202560907Y-96022725D01*
X202560906Y-96022724D01*
X202342211Y-95904372D01*
X202342202Y-95904369D01*
X202107016Y-95823629D01*
X201861735Y-95782700D01*
X201613065Y-95782700D01*
X201367783Y-95823629D01*
X201132597Y-95904369D01*
X201132588Y-95904372D01*
X200913893Y-96022724D01*
X200717657Y-96175461D01*
X200549233Y-96358417D01*
X200413227Y-96566591D01*
X200394840Y-96608511D01*
X200349883Y-96661996D01*
X200283147Y-96682686D01*
X200281284Y-96682700D01*
X200277900Y-96682700D01*
X200210861Y-96663015D01*
X200165106Y-96610211D01*
X200153900Y-96558700D01*
X200153900Y-93451182D01*
X200173585Y-93384143D01*
X200226389Y-93338388D01*
X200295547Y-93328444D01*
X200339898Y-93343794D01*
X200475316Y-93421977D01*
X200628043Y-93462900D01*
X200786157Y-93462900D01*
X213085579Y-93462900D01*
X213152618Y-93482585D01*
X213184533Y-93512173D01*
X213307220Y-93674638D01*
X213471637Y-93824523D01*
X213471639Y-93824525D01*
X213660795Y-93941645D01*
X213660796Y-93941645D01*
X213660799Y-93941647D01*
X213868260Y-94022018D01*
X214086957Y-94062900D01*
X214086959Y-94062900D01*
X214309442Y-94062900D01*
X214309443Y-94062900D01*
X214452615Y-94036136D01*
X214522129Y-94043166D01*
X214576808Y-94086663D01*
X214599291Y-94152817D01*
X214599400Y-94158024D01*
X214599400Y-95637182D01*
X214579715Y-95704221D01*
X214526911Y-95749976D01*
X214457753Y-95759920D01*
X214452616Y-95759071D01*
X214422753Y-95753489D01*
X214411043Y-95751300D01*
X214188557Y-95751300D01*
X213969860Y-95792182D01*
X213888686Y-95823629D01*
X213762401Y-95872552D01*
X213762395Y-95872554D01*
X213573239Y-95989674D01*
X213573237Y-95989676D01*
X213408820Y-96139561D01*
X213274743Y-96317108D01*
X213274738Y-96317116D01*
X213175575Y-96516261D01*
X213175569Y-96516276D01*
X213114685Y-96730262D01*
X213114684Y-96730264D01*
X213094157Y-96951799D01*
X213094157Y-96951800D01*
X213114684Y-97173335D01*
X213114685Y-97173337D01*
X213175569Y-97387323D01*
X213175575Y-97387338D01*
X213274738Y-97586483D01*
X213274743Y-97586491D01*
X213408820Y-97764038D01*
X213573237Y-97913923D01*
X213573239Y-97913925D01*
X213762395Y-98031045D01*
X213762396Y-98031045D01*
X213762399Y-98031047D01*
X213969860Y-98111418D01*
X214188557Y-98152300D01*
X214188559Y-98152300D01*
X214411041Y-98152300D01*
X214411043Y-98152300D01*
X214629740Y-98111418D01*
X214837201Y-98031047D01*
X215026362Y-97913924D01*
X215177429Y-97776207D01*
X215190780Y-97764037D01*
X215190781Y-97764036D01*
X215324858Y-97586489D01*
X215326651Y-97582887D01*
X215374148Y-97531647D01*
X215405559Y-97518376D01*
X215431684Y-97511377D01*
X215431688Y-97511374D01*
X215431690Y-97511374D01*
X215568609Y-97432324D01*
X215568608Y-97432324D01*
X215568616Y-97432320D01*
X215680420Y-97320516D01*
X215759477Y-97183584D01*
X215766725Y-97156530D01*
X215803090Y-97096872D01*
X215865936Y-97066342D01*
X215935312Y-97074636D01*
X215989190Y-97119121D01*
X216010465Y-97185673D01*
X216010500Y-97188625D01*
X216010500Y-104543543D01*
X216010500Y-104701657D01*
X216051058Y-104853019D01*
X216051423Y-104854383D01*
X216051426Y-104854390D01*
X216130475Y-104991309D01*
X216130479Y-104991314D01*
X216130480Y-104991316D01*
X216242284Y-105103120D01*
X216242286Y-105103121D01*
X216242290Y-105103124D01*
X216344320Y-105162030D01*
X216379216Y-105182177D01*
X216531943Y-105223100D01*
X218216379Y-105223100D01*
X218283418Y-105242785D01*
X218315333Y-105272373D01*
X218438020Y-105434838D01*
X218602437Y-105584723D01*
X218602439Y-105584725D01*
X218791595Y-105701845D01*
X218791596Y-105701845D01*
X218791599Y-105701847D01*
X218999060Y-105782218D01*
X219217757Y-105823100D01*
X219217759Y-105823100D01*
X219440241Y-105823100D01*
X219440243Y-105823100D01*
X219658940Y-105782218D01*
X219866401Y-105701847D01*
X220055562Y-105584724D01*
X220219981Y-105434836D01*
X220354058Y-105257289D01*
X220453229Y-105058128D01*
X220514115Y-104844136D01*
X220534643Y-104622600D01*
X220531150Y-104584909D01*
X220514115Y-104401064D01*
X220514114Y-104401062D01*
X220484009Y-104295255D01*
X220453229Y-104187072D01*
X220375526Y-104031024D01*
X220354061Y-103987916D01*
X220354056Y-103987908D01*
X220219979Y-103810361D01*
X220055562Y-103660476D01*
X220055560Y-103660474D01*
X219866404Y-103543354D01*
X219866398Y-103543352D01*
X219845838Y-103535387D01*
X219658940Y-103462982D01*
X219440243Y-103422100D01*
X219217757Y-103422100D01*
X218999060Y-103462982D01*
X218867864Y-103513807D01*
X218791601Y-103543352D01*
X218791595Y-103543354D01*
X218602439Y-103660474D01*
X218602437Y-103660476D01*
X218438020Y-103810361D01*
X218315333Y-103972827D01*
X218259224Y-104014463D01*
X218216379Y-104022100D01*
X217335500Y-104022100D01*
X217268461Y-104002415D01*
X217222706Y-103949611D01*
X217211500Y-103898100D01*
X217211500Y-93586900D01*
X217231185Y-93519861D01*
X217283989Y-93474106D01*
X217335500Y-93462900D01*
X218165579Y-93462900D01*
X218232618Y-93482585D01*
X218264533Y-93512173D01*
X218387220Y-93674638D01*
X218551637Y-93824523D01*
X218551639Y-93824525D01*
X218740795Y-93941645D01*
X218740796Y-93941645D01*
X218740799Y-93941647D01*
X218948260Y-94022018D01*
X219155250Y-94060711D01*
X219217530Y-94092379D01*
X219252803Y-94152692D01*
X219249869Y-94222500D01*
X219209660Y-94279640D01*
X219144942Y-94305971D01*
X219132464Y-94306600D01*
X218299043Y-94306600D01*
X218146316Y-94347523D01*
X218146309Y-94347526D01*
X218009390Y-94426575D01*
X218009382Y-94426581D01*
X217897581Y-94538382D01*
X217897575Y-94538390D01*
X217818526Y-94675309D01*
X217818523Y-94675316D01*
X217777600Y-94828043D01*
X217777600Y-100606543D01*
X217777600Y-100764657D01*
X217815778Y-100907137D01*
X217818523Y-100917383D01*
X217818526Y-100917390D01*
X217897575Y-101054309D01*
X217897579Y-101054314D01*
X217897580Y-101054316D01*
X218009384Y-101166120D01*
X218009386Y-101166121D01*
X218009390Y-101166124D01*
X218143993Y-101243836D01*
X218146316Y-101245177D01*
X218295331Y-101285105D01*
X218354990Y-101321469D01*
X218362190Y-101330152D01*
X218488820Y-101497838D01*
X218653237Y-101647723D01*
X218653239Y-101647725D01*
X218842395Y-101764845D01*
X218842396Y-101764845D01*
X218842399Y-101764847D01*
X219049860Y-101845218D01*
X219268557Y-101886100D01*
X219268559Y-101886100D01*
X219491041Y-101886100D01*
X219491043Y-101886100D01*
X219709740Y-101845218D01*
X219917201Y-101764847D01*
X220106362Y-101647724D01*
X220270781Y-101497836D01*
X220404858Y-101320289D01*
X220504029Y-101121128D01*
X220564915Y-100907136D01*
X220585443Y-100685600D01*
X220583384Y-100663384D01*
X220564915Y-100464064D01*
X220564914Y-100464062D01*
X220533184Y-100352543D01*
X220504029Y-100250072D01*
X220504024Y-100250061D01*
X220404861Y-100050916D01*
X220404856Y-100050908D01*
X220270779Y-99873361D01*
X220106362Y-99723476D01*
X220106360Y-99723474D01*
X219917204Y-99606354D01*
X219917198Y-99606352D01*
X219709740Y-99525982D01*
X219491043Y-99485100D01*
X219268557Y-99485100D01*
X219125384Y-99511863D01*
X219055870Y-99504833D01*
X219001191Y-99461335D01*
X218978709Y-99395182D01*
X218978600Y-99389975D01*
X218978600Y-98247424D01*
X218998285Y-98180385D01*
X219051089Y-98134630D01*
X219120247Y-98124686D01*
X219125366Y-98125532D01*
X219268557Y-98152300D01*
X219268558Y-98152300D01*
X219491041Y-98152300D01*
X219491043Y-98152300D01*
X219709740Y-98111418D01*
X219917201Y-98031047D01*
X220106362Y-97913924D01*
X220246082Y-97786551D01*
X220270779Y-97764038D01*
X220270783Y-97764034D01*
X220393467Y-97601572D01*
X220449576Y-97559937D01*
X220492421Y-97552300D01*
X221393755Y-97552300D01*
X221393757Y-97552300D01*
X221546484Y-97511377D01*
X221683416Y-97432320D01*
X221795220Y-97320516D01*
X221874277Y-97183584D01*
X221915200Y-97030857D01*
X221915200Y-75389740D01*
X221934885Y-75322701D01*
X221951520Y-75302058D01*
X221988713Y-75264865D01*
X221988713Y-75264864D01*
X221988716Y-75264862D01*
X222084689Y-75112122D01*
X222144268Y-74941855D01*
X222152714Y-74866897D01*
X222164465Y-74762603D01*
X222164465Y-74762596D01*
X222144269Y-74583350D01*
X222144268Y-74583345D01*
X222118779Y-74510502D01*
X222084689Y-74413078D01*
X221988716Y-74260338D01*
X221988714Y-74260336D01*
X221988713Y-74260334D01*
X221986450Y-74257496D01*
X221985559Y-74255315D01*
X221985011Y-74254442D01*
X221985164Y-74254345D01*
X221960044Y-74192809D01*
X221959400Y-74180187D01*
X221959400Y-43074645D01*
X221959400Y-43074643D01*
X221918477Y-42921916D01*
X221850737Y-42804585D01*
X221839424Y-42784990D01*
X221839418Y-42784982D01*
X221727617Y-42673181D01*
X221727609Y-42673175D01*
X221590690Y-42594126D01*
X221590686Y-42594124D01*
X221590684Y-42594123D01*
X221437957Y-42553200D01*
X221437956Y-42553200D01*
X220103081Y-42553200D01*
X220036042Y-42533515D01*
X219990287Y-42480711D01*
X219980343Y-42411553D01*
X219983306Y-42397107D01*
X219985105Y-42390392D01*
X220015035Y-42278692D01*
X220034868Y-42052000D01*
X220033555Y-42036998D01*
X220015035Y-41825313D01*
X220015035Y-41825308D01*
X219961316Y-41624824D01*
X219956141Y-41605511D01*
X219956138Y-41605502D01*
X219945619Y-41582944D01*
X219859968Y-41399266D01*
X219729447Y-41212861D01*
X219729445Y-41212858D01*
X219568541Y-41051954D01*
X219382134Y-40921432D01*
X219382128Y-40921429D01*
X219324125Y-40894382D01*
X219271685Y-40848210D01*
X219252533Y-40781017D01*
X219272748Y-40714135D01*
X219324125Y-40669618D01*
X219326019Y-40668735D01*
X219382134Y-40642568D01*
X219568539Y-40512047D01*
X219729447Y-40351139D01*
X219859968Y-40164734D01*
X219956139Y-39958496D01*
X220015035Y-39738692D01*
X220034868Y-39512000D01*
X220033555Y-39496998D01*
X220026619Y-39417713D01*
X220015035Y-39285308D01*
X219956139Y-39065504D01*
X219859968Y-38859266D01*
X219729447Y-38672861D01*
X219729445Y-38672858D01*
X219568541Y-38511954D01*
X219382134Y-38381432D01*
X219382128Y-38381429D01*
X219324125Y-38354382D01*
X219271685Y-38308210D01*
X219252533Y-38241017D01*
X219272748Y-38174135D01*
X219324125Y-38129618D01*
X219326019Y-38128735D01*
X219382134Y-38102568D01*
X219568539Y-37972047D01*
X219729447Y-37811139D01*
X219859968Y-37624734D01*
X219956139Y-37418496D01*
X220015035Y-37198692D01*
X220034868Y-36972000D01*
X220033555Y-36956998D01*
X220026619Y-36877713D01*
X220015035Y-36745308D01*
X219956139Y-36525504D01*
X219859968Y-36319266D01*
X219729447Y-36132861D01*
X219729445Y-36132858D01*
X219568541Y-35971954D01*
X219382134Y-35841432D01*
X219382128Y-35841429D01*
X219324125Y-35814382D01*
X219271685Y-35768210D01*
X219252533Y-35701017D01*
X219272748Y-35634135D01*
X219324125Y-35589618D01*
X219382134Y-35562568D01*
X219568539Y-35432047D01*
X219729447Y-35271139D01*
X219859968Y-35084734D01*
X219956139Y-34878496D01*
X220015035Y-34658692D01*
X220034868Y-34432000D01*
X220033555Y-34416998D01*
X220026619Y-34337713D01*
X220015035Y-34205308D01*
X219956139Y-33985504D01*
X219859968Y-33779266D01*
X219729447Y-33592861D01*
X219729445Y-33592858D01*
X219568541Y-33431954D01*
X219382134Y-33301432D01*
X219382132Y-33301431D01*
X219175897Y-33205261D01*
X219175888Y-33205258D01*
X218956097Y-33146366D01*
X218956093Y-33146365D01*
X218956092Y-33146365D01*
X218956091Y-33146364D01*
X218956086Y-33146364D01*
X218729402Y-33126532D01*
X218729398Y-33126532D01*
X218502713Y-33146364D01*
X218502702Y-33146366D01*
X218282911Y-33205258D01*
X218282902Y-33205261D01*
X218076667Y-33301431D01*
X218076665Y-33301432D01*
X217890258Y-33431954D01*
X217729354Y-33592858D01*
X217598832Y-33779265D01*
X217598831Y-33779267D01*
X217502661Y-33985502D01*
X217502658Y-33985511D01*
X217443766Y-34205302D01*
X217443764Y-34205313D01*
X217423932Y-34431998D01*
X217423932Y-34432001D01*
X217443764Y-34658686D01*
X217443766Y-34658697D01*
X217502658Y-34878488D01*
X217502661Y-34878497D01*
X217598831Y-35084732D01*
X217598832Y-35084734D01*
X217729354Y-35271141D01*
X217890258Y-35432045D01*
X217924741Y-35456190D01*
X218076666Y-35562568D01*
X218134675Y-35589618D01*
X218187114Y-35635791D01*
X218206266Y-35702984D01*
X218186050Y-35769865D01*
X218134675Y-35814382D01*
X218076667Y-35841431D01*
X218076665Y-35841432D01*
X217890258Y-35971954D01*
X217729354Y-36132858D01*
X217652850Y-36242118D01*
X217599281Y-36318624D01*
X217544707Y-36362248D01*
X217497708Y-36371500D01*
X212341092Y-36371500D01*
X212274053Y-36351815D01*
X212239519Y-36318625D01*
X212109447Y-36132861D01*
X212109445Y-36132858D01*
X211948543Y-35971956D01*
X211923936Y-35954726D01*
X211880312Y-35900149D01*
X211873119Y-35830650D01*
X211904641Y-35768296D01*
X211964871Y-35732882D01*
X211981804Y-35729861D01*
X212016883Y-35726091D01*
X212151731Y-35675796D01*
X212266946Y-35589546D01*
X212353196Y-35474331D01*
X212403491Y-35339483D01*
X212409900Y-35279873D01*
X212409899Y-33584128D01*
X212403491Y-33524517D01*
X212371110Y-33437700D01*
X212353197Y-33389671D01*
X212353193Y-33389664D01*
X212266947Y-33274455D01*
X212266944Y-33274452D01*
X212151735Y-33188206D01*
X212151728Y-33188202D01*
X212016882Y-33137908D01*
X212016883Y-33137908D01*
X211957283Y-33131501D01*
X211957281Y-33131500D01*
X211957273Y-33131500D01*
X211957264Y-33131500D01*
X210261529Y-33131500D01*
X210261523Y-33131501D01*
X210201916Y-33137908D01*
X210067071Y-33188202D01*
X210067064Y-33188206D01*
X209951855Y-33274452D01*
X209951852Y-33274455D01*
X209865606Y-33389664D01*
X209865602Y-33389671D01*
X209815308Y-33524517D01*
X209808901Y-33584116D01*
X209808901Y-33584123D01*
X209808900Y-33584135D01*
X209808900Y-35279870D01*
X209808901Y-35279876D01*
X209815308Y-35339483D01*
X209865602Y-35474328D01*
X209865606Y-35474335D01*
X209951852Y-35589544D01*
X209951855Y-35589547D01*
X210067064Y-35675793D01*
X210067071Y-35675797D01*
X210112018Y-35692561D01*
X210201917Y-35726091D01*
X210236996Y-35729862D01*
X210301544Y-35756599D01*
X210341393Y-35813991D01*
X210343888Y-35883816D01*
X210308236Y-35943905D01*
X210294864Y-35954725D01*
X210270258Y-35971954D01*
X210109354Y-36132858D01*
X209978832Y-36319265D01*
X209978831Y-36319267D01*
X209882661Y-36525502D01*
X209882658Y-36525511D01*
X209823766Y-36745302D01*
X209823764Y-36745313D01*
X209803932Y-36971998D01*
X209803932Y-36972001D01*
X209823764Y-37198686D01*
X209823766Y-37198697D01*
X209882658Y-37418488D01*
X209882661Y-37418497D01*
X209978831Y-37624732D01*
X209978832Y-37624734D01*
X210109354Y-37811141D01*
X210270258Y-37972045D01*
X210270261Y-37972047D01*
X210456666Y-38102568D01*
X210512781Y-38128735D01*
X210514675Y-38129618D01*
X210567114Y-38175791D01*
X210586266Y-38242984D01*
X210566050Y-38309865D01*
X210514675Y-38354382D01*
X210456667Y-38381431D01*
X210456665Y-38381432D01*
X210270258Y-38511954D01*
X210109354Y-38672858D01*
X209978832Y-38859265D01*
X209978831Y-38859267D01*
X209882661Y-39065502D01*
X209882658Y-39065511D01*
X209823766Y-39285302D01*
X209823764Y-39285313D01*
X209803932Y-39511998D01*
X209803932Y-39512001D01*
X209823764Y-39738686D01*
X209823766Y-39738697D01*
X209882658Y-39958488D01*
X209884511Y-39963577D01*
X209883261Y-39964031D01*
X209892797Y-40026808D01*
X209864279Y-40090592D01*
X209810878Y-40127179D01*
X209658176Y-40180611D01*
X209505437Y-40276584D01*
X209377884Y-40404137D01*
X209281911Y-40556876D01*
X209222331Y-40727145D01*
X209222330Y-40727150D01*
X209202135Y-40906396D01*
X209202135Y-40906403D01*
X209222330Y-41085649D01*
X209222331Y-41085654D01*
X209281911Y-41255923D01*
X209338045Y-41345258D01*
X209371979Y-41399265D01*
X209377885Y-41408663D01*
X209380145Y-41411497D01*
X209381034Y-41413675D01*
X209381589Y-41414558D01*
X209381434Y-41414655D01*
X209406555Y-41476183D01*
X209407200Y-41488812D01*
X209407200Y-44512943D01*
X209407200Y-44671057D01*
X209444106Y-44808790D01*
X209448123Y-44823783D01*
X209448126Y-44823790D01*
X209527175Y-44960709D01*
X209527179Y-44960714D01*
X209527180Y-44960716D01*
X209638984Y-45072520D01*
X209638986Y-45072521D01*
X209638990Y-45072524D01*
X209775909Y-45151573D01*
X209775916Y-45151577D01*
X209902731Y-45185556D01*
X209962388Y-45221920D01*
X209978024Y-45243333D01*
X209978834Y-45244737D01*
X210109354Y-45431141D01*
X210270258Y-45592045D01*
X210270261Y-45592047D01*
X210456666Y-45722568D01*
X210512781Y-45748735D01*
X210514675Y-45749618D01*
X210567114Y-45795791D01*
X210586266Y-45862984D01*
X210566050Y-45929865D01*
X210514675Y-45974382D01*
X210456667Y-46001431D01*
X210456665Y-46001432D01*
X210270258Y-46131954D01*
X210109354Y-46292858D01*
X209978832Y-46479265D01*
X209978831Y-46479267D01*
X209882661Y-46685502D01*
X209882658Y-46685511D01*
X209823766Y-46905302D01*
X209823764Y-46905313D01*
X209803932Y-47131998D01*
X209803932Y-47132001D01*
X209823764Y-47358686D01*
X209823766Y-47358697D01*
X209882658Y-47578488D01*
X209882661Y-47578497D01*
X209978831Y-47784732D01*
X209978832Y-47784734D01*
X210109354Y-47971141D01*
X210270258Y-48132045D01*
X210270261Y-48132047D01*
X210456666Y-48262568D01*
X210485439Y-48275985D01*
X210514675Y-48289618D01*
X210567114Y-48335791D01*
X210586266Y-48402984D01*
X210566050Y-48469865D01*
X210514675Y-48514382D01*
X210456667Y-48541431D01*
X210456665Y-48541432D01*
X210270258Y-48671954D01*
X210109354Y-48832858D01*
X209978832Y-49019265D01*
X209978831Y-49019267D01*
X209882661Y-49225502D01*
X209882658Y-49225511D01*
X209823766Y-49445302D01*
X209823764Y-49445313D01*
X209803932Y-49671998D01*
X209803932Y-49672001D01*
X209823764Y-49898686D01*
X209823766Y-49898697D01*
X209882658Y-50118488D01*
X209882661Y-50118497D01*
X209978831Y-50324732D01*
X209978832Y-50324734D01*
X210109354Y-50511141D01*
X210270258Y-50672045D01*
X210273501Y-50674316D01*
X210456666Y-50802568D01*
X210515265Y-50829893D01*
X210567705Y-50876065D01*
X210586857Y-50943258D01*
X210566642Y-51010139D01*
X210515267Y-51054657D01*
X210456915Y-51081867D01*
X210270579Y-51212342D01*
X210109742Y-51373179D01*
X209979265Y-51559517D01*
X209883134Y-51765673D01*
X209883130Y-51765682D01*
X209830527Y-51961999D01*
X209830528Y-51962000D01*
X210793714Y-51962000D01*
X210789320Y-51966394D01*
X210736659Y-52057606D01*
X210709400Y-52159339D01*
X210709400Y-52264661D01*
X210736659Y-52366394D01*
X210789320Y-52457606D01*
X210793714Y-52462000D01*
X209830528Y-52462000D01*
X209883130Y-52658317D01*
X209883134Y-52658326D01*
X209979265Y-52864482D01*
X210109742Y-53050820D01*
X210270579Y-53211657D01*
X210456917Y-53342134D01*
X210663073Y-53438265D01*
X210663082Y-53438269D01*
X210859399Y-53490872D01*
X210859400Y-53490871D01*
X210859400Y-52527686D01*
X210863794Y-52532080D01*
X210955006Y-52584741D01*
X211056739Y-52612000D01*
X211162061Y-52612000D01*
X211263794Y-52584741D01*
X211355006Y-52532080D01*
X211359400Y-52527686D01*
X211359400Y-53490872D01*
X211555717Y-53438269D01*
X211555726Y-53438265D01*
X211761882Y-53342134D01*
X211948220Y-53211657D01*
X212109057Y-53050820D01*
X212239534Y-52864482D01*
X212335665Y-52658326D01*
X212335669Y-52658317D01*
X212388272Y-52462000D01*
X211425086Y-52462000D01*
X211429480Y-52457606D01*
X211482141Y-52366394D01*
X211509400Y-52264661D01*
X211509400Y-52159339D01*
X211482141Y-52057606D01*
X211429480Y-51966394D01*
X211425086Y-51962000D01*
X212388272Y-51962000D01*
X212388272Y-51961999D01*
X212335669Y-51765682D01*
X212335665Y-51765673D01*
X212239534Y-51559517D01*
X212109057Y-51373179D01*
X211948220Y-51212342D01*
X211761882Y-51081865D01*
X211703533Y-51054657D01*
X211651094Y-51008484D01*
X211631942Y-50941291D01*
X211652158Y-50874410D01*
X211703529Y-50829895D01*
X211762134Y-50802568D01*
X211948539Y-50672047D01*
X212109447Y-50511139D01*
X212239968Y-50324734D01*
X212336139Y-50118496D01*
X212395035Y-49898692D01*
X212414868Y-49672000D01*
X212413555Y-49656998D01*
X212406619Y-49577713D01*
X212395035Y-49445308D01*
X212336139Y-49225504D01*
X212239968Y-49019266D01*
X212109447Y-48832861D01*
X212109445Y-48832858D01*
X211948541Y-48671954D01*
X211762134Y-48541432D01*
X211762128Y-48541429D01*
X211704125Y-48514382D01*
X211651685Y-48468210D01*
X211632533Y-48401017D01*
X211652748Y-48334135D01*
X211704125Y-48289618D01*
X211762134Y-48262568D01*
X211948539Y-48132047D01*
X212109447Y-47971139D01*
X212239968Y-47784734D01*
X212336139Y-47578496D01*
X212395035Y-47358692D01*
X212414868Y-47132000D01*
X212413555Y-47116998D01*
X212406619Y-47037713D01*
X212395035Y-46905308D01*
X212336139Y-46685504D01*
X212239968Y-46479266D01*
X212109447Y-46292861D01*
X212109445Y-46292858D01*
X211948541Y-46131954D01*
X211762134Y-46001432D01*
X211762128Y-46001429D01*
X211704125Y-45974382D01*
X211651685Y-45928210D01*
X211632533Y-45861017D01*
X211652748Y-45794135D01*
X211704125Y-45749618D01*
X211706019Y-45748735D01*
X211762134Y-45722568D01*
X211948539Y-45592047D01*
X212109447Y-45431139D01*
X212239968Y-45244734D01*
X212336139Y-45038496D01*
X212395035Y-44818692D01*
X212414868Y-44592000D01*
X212413555Y-44576998D01*
X212406619Y-44497713D01*
X212395035Y-44365308D01*
X212341316Y-44164826D01*
X212336141Y-44145511D01*
X212336138Y-44145502D01*
X212314968Y-44100104D01*
X212239968Y-43939266D01*
X212121976Y-43770755D01*
X212109445Y-43752858D01*
X211948541Y-43591954D01*
X211762134Y-43461432D01*
X211762128Y-43461429D01*
X211729960Y-43446429D01*
X211704124Y-43434381D01*
X211651685Y-43388210D01*
X211632533Y-43321017D01*
X211652748Y-43254135D01*
X211704125Y-43209618D01*
X211706019Y-43208735D01*
X211762134Y-43182568D01*
X211948539Y-43052047D01*
X212109447Y-42891139D01*
X212239968Y-42704734D01*
X212336139Y-42498496D01*
X212395035Y-42278692D01*
X212414868Y-42052000D01*
X212413555Y-42036998D01*
X212395035Y-41825313D01*
X212395035Y-41825308D01*
X212341316Y-41624824D01*
X212336141Y-41605511D01*
X212336138Y-41605502D01*
X212325619Y-41582944D01*
X212239968Y-41399266D01*
X212109447Y-41212861D01*
X212109445Y-41212858D01*
X211948541Y-41051954D01*
X211762134Y-40921432D01*
X211762128Y-40921429D01*
X211704125Y-40894382D01*
X211651685Y-40848210D01*
X211632533Y-40781017D01*
X211652748Y-40714135D01*
X211704125Y-40669618D01*
X211706019Y-40668735D01*
X211762134Y-40642568D01*
X211948539Y-40512047D01*
X212109447Y-40351139D01*
X212239518Y-40165375D01*
X212294093Y-40121752D01*
X212341092Y-40112500D01*
X213291600Y-40112500D01*
X213358639Y-40132185D01*
X213404394Y-40184989D01*
X213415600Y-40236500D01*
X213415600Y-53762743D01*
X213415600Y-53920857D01*
X213453885Y-54063736D01*
X213456523Y-54073583D01*
X213456526Y-54073590D01*
X213535575Y-54210509D01*
X213535579Y-54210514D01*
X213535580Y-54210516D01*
X213647384Y-54322320D01*
X213647386Y-54322321D01*
X213647390Y-54322324D01*
X213740550Y-54376109D01*
X213784316Y-54401377D01*
X213937043Y-54442300D01*
X219112000Y-54442300D01*
X219179039Y-54461985D01*
X219224794Y-54514789D01*
X219236000Y-54566300D01*
X219236000Y-55609435D01*
X219216315Y-55676474D01*
X219163511Y-55722229D01*
X219094353Y-55732173D01*
X219079907Y-55729210D01*
X218984800Y-55703726D01*
X218984800Y-56666914D01*
X218980406Y-56662520D01*
X218889194Y-56609859D01*
X218787461Y-56582600D01*
X218682139Y-56582600D01*
X218580406Y-56609859D01*
X218489194Y-56662520D01*
X218484800Y-56666914D01*
X218484800Y-55703727D01*
X218288471Y-55756334D01*
X218082317Y-55852465D01*
X217895979Y-55982942D01*
X217735142Y-56143779D01*
X217604665Y-56330117D01*
X217508534Y-56536273D01*
X217508530Y-56536282D01*
X217455927Y-56732599D01*
X217455928Y-56732600D01*
X218419114Y-56732600D01*
X218414720Y-56736994D01*
X218362059Y-56828206D01*
X218334800Y-56929939D01*
X218334800Y-57035261D01*
X218362059Y-57136994D01*
X218414720Y-57228206D01*
X218419114Y-57232600D01*
X217455928Y-57232600D01*
X217508530Y-57428917D01*
X217508534Y-57428926D01*
X217604665Y-57635082D01*
X217735142Y-57821420D01*
X217895979Y-57982257D01*
X218082318Y-58112734D01*
X218082320Y-58112735D01*
X218140665Y-58139942D01*
X218193105Y-58186114D01*
X218212257Y-58253307D01*
X218192042Y-58320189D01*
X218140667Y-58364705D01*
X218082066Y-58392032D01*
X218082064Y-58392033D01*
X217895658Y-58522554D01*
X217734754Y-58683458D01*
X217604232Y-58869865D01*
X217604231Y-58869867D01*
X217508061Y-59076102D01*
X217508058Y-59076111D01*
X217449166Y-59295902D01*
X217449164Y-59295913D01*
X217429332Y-59522598D01*
X217429332Y-59522601D01*
X217449164Y-59749286D01*
X217449166Y-59749297D01*
X217508058Y-59969088D01*
X217508061Y-59969097D01*
X217604231Y-60175332D01*
X217604232Y-60175334D01*
X217734754Y-60361741D01*
X217895658Y-60522645D01*
X217895661Y-60522647D01*
X218082066Y-60653168D01*
X218140075Y-60680218D01*
X218192514Y-60726391D01*
X218211666Y-60793584D01*
X218191450Y-60860465D01*
X218140075Y-60904981D01*
X218136536Y-60906632D01*
X218082067Y-60932031D01*
X218082065Y-60932032D01*
X217895658Y-61062554D01*
X217734754Y-61223458D01*
X217604232Y-61409865D01*
X217604231Y-61409867D01*
X217508061Y-61616102D01*
X217508058Y-61616111D01*
X217449166Y-61835902D01*
X217449164Y-61835913D01*
X217429332Y-62062598D01*
X217429332Y-62062601D01*
X217449164Y-62289286D01*
X217449166Y-62289297D01*
X217508058Y-62509088D01*
X217508061Y-62509097D01*
X217604232Y-62715334D01*
X217604559Y-62715900D01*
X217604627Y-62716180D01*
X217606520Y-62720240D01*
X217605704Y-62720620D01*
X217621032Y-62783800D01*
X217598180Y-62849827D01*
X217543259Y-62893017D01*
X217497172Y-62901900D01*
X215881700Y-62901900D01*
X215814661Y-62882215D01*
X215768906Y-62829411D01*
X215757700Y-62777900D01*
X215757700Y-61983545D01*
X215757700Y-61983543D01*
X215716777Y-61830816D01*
X215649050Y-61713508D01*
X215637724Y-61693890D01*
X215637718Y-61693882D01*
X215525917Y-61582081D01*
X215525909Y-61582075D01*
X215388990Y-61503026D01*
X215388986Y-61503024D01*
X215388984Y-61503023D01*
X215236257Y-61462100D01*
X215236256Y-61462100D01*
X212346492Y-61462100D01*
X212279453Y-61442415D01*
X212244919Y-61409225D01*
X212129864Y-61244908D01*
X212114845Y-61223458D01*
X211953941Y-61062554D01*
X211767534Y-60932032D01*
X211767528Y-60932029D01*
X211739838Y-60919117D01*
X211709524Y-60904981D01*
X211657085Y-60858810D01*
X211637933Y-60791617D01*
X211658148Y-60724735D01*
X211709525Y-60680218D01*
X211767534Y-60653168D01*
X211953939Y-60522647D01*
X212114847Y-60361739D01*
X212245368Y-60175334D01*
X212341539Y-59969096D01*
X212400435Y-59749292D01*
X212420268Y-59522600D01*
X212400435Y-59295908D01*
X212341539Y-59076104D01*
X212245368Y-58869866D01*
X212114847Y-58683461D01*
X212114845Y-58683458D01*
X211953941Y-58522554D01*
X211767534Y-58392032D01*
X211767528Y-58392029D01*
X211739838Y-58379117D01*
X211709524Y-58364981D01*
X211657085Y-58318810D01*
X211637933Y-58251617D01*
X211658148Y-58184735D01*
X211709525Y-58140218D01*
X211710117Y-58139942D01*
X211767534Y-58113168D01*
X211953939Y-57982647D01*
X212114847Y-57821739D01*
X212245368Y-57635334D01*
X212341539Y-57429096D01*
X212400435Y-57209292D01*
X212420268Y-56982600D01*
X212400435Y-56755908D01*
X212341539Y-56536104D01*
X212245368Y-56329866D01*
X212114847Y-56143461D01*
X212114845Y-56143458D01*
X211953941Y-55982554D01*
X211767534Y-55852032D01*
X211767532Y-55852031D01*
X211561297Y-55755861D01*
X211561288Y-55755858D01*
X211341497Y-55696966D01*
X211341493Y-55696965D01*
X211341492Y-55696965D01*
X211341491Y-55696964D01*
X211341486Y-55696964D01*
X211114802Y-55677132D01*
X211114798Y-55677132D01*
X210888113Y-55696964D01*
X210888102Y-55696966D01*
X210668311Y-55755858D01*
X210668302Y-55755861D01*
X210462067Y-55852031D01*
X210462065Y-55852032D01*
X210275658Y-55982554D01*
X210114754Y-56143458D01*
X209984230Y-56329869D01*
X209983419Y-56331274D01*
X209982900Y-56331768D01*
X209981127Y-56334301D01*
X209980617Y-56333944D01*
X209932850Y-56379487D01*
X209908132Y-56389042D01*
X209855711Y-56403088D01*
X209781314Y-56423023D01*
X209781309Y-56423026D01*
X209644390Y-56502075D01*
X209644382Y-56502081D01*
X209532581Y-56613882D01*
X209532575Y-56613890D01*
X209453526Y-56750809D01*
X209453523Y-56750816D01*
X209412600Y-56903543D01*
X209412600Y-65728843D01*
X209412600Y-65886957D01*
X209446114Y-66012031D01*
X209453523Y-66039683D01*
X209453526Y-66039690D01*
X209532575Y-66176609D01*
X209532579Y-66176614D01*
X209532580Y-66176616D01*
X209644384Y-66288420D01*
X209644385Y-66288421D01*
X209644387Y-66288422D01*
X209781984Y-66367863D01*
X209830199Y-66418429D01*
X209843423Y-66487036D01*
X209817455Y-66551901D01*
X209781984Y-66582637D01*
X209644387Y-66662077D01*
X209644382Y-66662081D01*
X209532581Y-66773882D01*
X209532575Y-66773890D01*
X209453526Y-66910809D01*
X209453523Y-66910816D01*
X209412600Y-67063543D01*
X209412600Y-86132555D01*
X209412765Y-86133808D01*
X209412600Y-86134866D01*
X209412600Y-86140684D01*
X209411693Y-86140684D01*
X209402003Y-86202844D01*
X209355626Y-86255102D01*
X209289827Y-86274000D01*
X207613300Y-86274000D01*
X207546261Y-86254315D01*
X207500506Y-86201511D01*
X207489300Y-86150000D01*
X207489300Y-85190945D01*
X207489300Y-85190943D01*
X207448377Y-85038216D01*
X207430250Y-85006818D01*
X207369324Y-84901290D01*
X207369318Y-84901282D01*
X207257517Y-84789481D01*
X207257509Y-84789475D01*
X207120590Y-84710426D01*
X207120585Y-84710423D01*
X207038165Y-84688339D01*
X206987538Y-84674773D01*
X206927879Y-84638409D01*
X206897350Y-84575562D01*
X206905645Y-84506186D01*
X206915097Y-84489198D01*
X206914962Y-84489120D01*
X206917661Y-84484443D01*
X206917668Y-84484434D01*
X207013839Y-84278196D01*
X207072735Y-84058392D01*
X207092568Y-83831700D01*
X207090090Y-83803382D01*
X207086514Y-83762500D01*
X207072735Y-83605008D01*
X207013839Y-83385204D01*
X206917668Y-83178966D01*
X206787147Y-82992561D01*
X206787145Y-82992558D01*
X206626241Y-82831654D01*
X206439834Y-82701132D01*
X206439828Y-82701129D01*
X206381825Y-82674082D01*
X206329385Y-82627910D01*
X206310233Y-82560717D01*
X206330448Y-82493835D01*
X206381825Y-82449318D01*
X206382743Y-82448890D01*
X206439834Y-82422268D01*
X206626239Y-82291747D01*
X206787147Y-82130839D01*
X206917668Y-81944434D01*
X207013839Y-81738196D01*
X207072735Y-81518392D01*
X207092568Y-81291700D01*
X207091871Y-81283738D01*
X207074266Y-81082508D01*
X207072735Y-81065008D01*
X207029075Y-80902065D01*
X207030738Y-80832218D01*
X207069900Y-80774355D01*
X207111640Y-80752839D01*
X207111577Y-80752686D01*
X207113416Y-80751924D01*
X207116763Y-80750198D01*
X207119084Y-80749577D01*
X207256016Y-80670520D01*
X207367820Y-80558716D01*
X207446877Y-80421784D01*
X207487800Y-80269057D01*
X207487800Y-50827043D01*
X207446877Y-50674316D01*
X207436682Y-50656657D01*
X207367824Y-50537390D01*
X207367818Y-50537382D01*
X207256017Y-50425581D01*
X207256009Y-50425575D01*
X207119090Y-50346526D01*
X207119086Y-50346524D01*
X207119084Y-50346523D01*
X206966357Y-50305600D01*
X206966356Y-50305600D01*
X206615681Y-50305600D01*
X206548642Y-50285915D01*
X206502887Y-50233111D01*
X206492943Y-50163953D01*
X206495906Y-50149507D01*
X206508234Y-50103497D01*
X206527635Y-50031092D01*
X206547468Y-49804400D01*
X206544530Y-49770824D01*
X206536733Y-49681695D01*
X206527635Y-49577708D01*
X206468739Y-49357904D01*
X206372568Y-49151666D01*
X206242047Y-48965261D01*
X206242045Y-48965258D01*
X206081141Y-48804354D01*
X205894734Y-48673832D01*
X205894728Y-48673829D01*
X205836725Y-48646782D01*
X205784285Y-48600610D01*
X205765133Y-48533417D01*
X205785348Y-48466535D01*
X205836725Y-48422018D01*
X205894734Y-48394968D01*
X206081139Y-48264447D01*
X206242047Y-48103539D01*
X206372568Y-47917134D01*
X206468739Y-47710896D01*
X206527635Y-47491092D01*
X206547468Y-47264400D01*
X206527635Y-47037708D01*
X206479992Y-46859902D01*
X206468741Y-46817911D01*
X206468738Y-46817902D01*
X206422101Y-46717890D01*
X206372568Y-46611666D01*
X206242047Y-46425261D01*
X206242045Y-46425258D01*
X206081141Y-46264354D01*
X205894734Y-46133832D01*
X205894728Y-46133829D01*
X205836725Y-46106782D01*
X205784285Y-46060610D01*
X205765133Y-45993417D01*
X205785348Y-45926535D01*
X205836725Y-45882018D01*
X205894734Y-45854968D01*
X206081139Y-45724447D01*
X206242047Y-45563539D01*
X206372568Y-45377134D01*
X206468739Y-45170896D01*
X206527635Y-44951092D01*
X206547468Y-44724400D01*
X206527635Y-44497708D01*
X206479992Y-44319902D01*
X206468741Y-44277911D01*
X206468738Y-44277902D01*
X206436274Y-44208284D01*
X206372568Y-44071666D01*
X206242047Y-43885261D01*
X206242045Y-43885258D01*
X206081141Y-43724354D01*
X205894734Y-43593832D01*
X205894732Y-43593831D01*
X205836725Y-43566782D01*
X205836132Y-43566505D01*
X205783694Y-43520334D01*
X205764542Y-43453140D01*
X205784758Y-43386259D01*
X205836134Y-43341741D01*
X205894484Y-43314532D01*
X206080820Y-43184057D01*
X206241657Y-43023220D01*
X206372134Y-42836882D01*
X206468265Y-42630726D01*
X206468269Y-42630717D01*
X206520872Y-42434400D01*
X205557686Y-42434400D01*
X205562080Y-42430006D01*
X205614741Y-42338794D01*
X205642000Y-42237061D01*
X205642000Y-42131739D01*
X205614741Y-42030006D01*
X205562080Y-41938794D01*
X205557686Y-41934400D01*
X206520872Y-41934400D01*
X206520872Y-41934399D01*
X206468269Y-41738082D01*
X206468265Y-41738073D01*
X206372134Y-41531917D01*
X206241657Y-41345579D01*
X206080820Y-41184742D01*
X205894482Y-41054265D01*
X205836133Y-41027057D01*
X205783694Y-40980884D01*
X205764542Y-40913691D01*
X205784758Y-40846810D01*
X205836129Y-40802295D01*
X205894734Y-40774968D01*
X206081139Y-40644447D01*
X206242047Y-40483539D01*
X206372568Y-40297134D01*
X206468739Y-40090896D01*
X206527635Y-39871092D01*
X206547468Y-39644400D01*
X206527635Y-39417708D01*
X206468739Y-39197904D01*
X206372568Y-38991666D01*
X206242047Y-38805261D01*
X206242045Y-38805258D01*
X206081141Y-38644354D01*
X205894734Y-38513832D01*
X205894728Y-38513829D01*
X205836725Y-38486782D01*
X205784285Y-38440610D01*
X205765133Y-38373417D01*
X205785348Y-38306535D01*
X205836725Y-38262018D01*
X205894734Y-38234968D01*
X206081139Y-38104447D01*
X206242047Y-37943539D01*
X206372568Y-37757134D01*
X206468739Y-37550896D01*
X206527635Y-37331092D01*
X206547468Y-37104400D01*
X206527635Y-36877708D01*
X206468739Y-36657904D01*
X206372568Y-36451666D01*
X206242047Y-36265261D01*
X206242045Y-36265258D01*
X206081141Y-36104354D01*
X205894734Y-35973832D01*
X205894728Y-35973829D01*
X205836725Y-35946782D01*
X205784285Y-35900610D01*
X205765133Y-35833417D01*
X205785348Y-35766535D01*
X205836725Y-35722018D01*
X205894734Y-35694968D01*
X206081139Y-35564447D01*
X206242047Y-35403539D01*
X206372568Y-35217134D01*
X206468739Y-35010896D01*
X206527635Y-34791092D01*
X206547468Y-34564400D01*
X206527635Y-34337708D01*
X206479992Y-34159902D01*
X206468741Y-34117911D01*
X206468738Y-34117902D01*
X206372568Y-33911666D01*
X206242047Y-33725261D01*
X206242045Y-33725258D01*
X206081141Y-33564354D01*
X205894734Y-33433832D01*
X205894732Y-33433831D01*
X205688497Y-33337661D01*
X205688488Y-33337658D01*
X205468697Y-33278766D01*
X205468693Y-33278765D01*
X205468692Y-33278765D01*
X205468691Y-33278764D01*
X205468686Y-33278764D01*
X205242002Y-33258932D01*
X205241998Y-33258932D01*
X205015313Y-33278764D01*
X205015302Y-33278766D01*
X204795511Y-33337658D01*
X204795502Y-33337661D01*
X204589267Y-33433831D01*
X204589265Y-33433832D01*
X204402858Y-33564354D01*
X204241954Y-33725258D01*
X204111432Y-33911665D01*
X204111431Y-33911667D01*
X204015261Y-34117902D01*
X204015258Y-34117911D01*
X203956366Y-34337702D01*
X203956364Y-34337713D01*
X203936532Y-34564398D01*
X203936532Y-34564401D01*
X203956364Y-34791086D01*
X203956366Y-34791097D01*
X204015258Y-35010888D01*
X204015261Y-35010897D01*
X204111431Y-35217132D01*
X204111432Y-35217134D01*
X204241954Y-35403541D01*
X204402858Y-35564445D01*
X204402861Y-35564447D01*
X204589266Y-35694968D01*
X204647275Y-35722018D01*
X204699714Y-35768191D01*
X204718866Y-35835384D01*
X204698650Y-35902265D01*
X204647275Y-35946782D01*
X204589267Y-35973831D01*
X204589265Y-35973832D01*
X204402858Y-36104354D01*
X204241954Y-36265258D01*
X204111432Y-36451665D01*
X204111431Y-36451667D01*
X204015261Y-36657902D01*
X204015258Y-36657911D01*
X203956366Y-36877702D01*
X203956364Y-36877713D01*
X203936532Y-37104398D01*
X203936532Y-37104401D01*
X203956364Y-37331086D01*
X203956366Y-37331097D01*
X204015258Y-37550888D01*
X204015261Y-37550897D01*
X204111431Y-37757132D01*
X204111432Y-37757134D01*
X204241954Y-37943541D01*
X204402858Y-38104445D01*
X204402861Y-38104447D01*
X204589266Y-38234968D01*
X204647275Y-38262018D01*
X204699714Y-38308191D01*
X204718866Y-38375384D01*
X204698650Y-38442265D01*
X204647275Y-38486782D01*
X204589267Y-38513831D01*
X204589265Y-38513832D01*
X204402858Y-38644354D01*
X204241954Y-38805258D01*
X204111432Y-38991665D01*
X204111431Y-38991667D01*
X204015261Y-39197902D01*
X204015258Y-39197911D01*
X203956366Y-39417702D01*
X203956364Y-39417713D01*
X203936532Y-39644398D01*
X203936532Y-39644401D01*
X203956364Y-39871086D01*
X203956366Y-39871097D01*
X204015258Y-40090888D01*
X204015261Y-40090897D01*
X204111431Y-40297132D01*
X204111432Y-40297134D01*
X204241954Y-40483541D01*
X204402858Y-40644445D01*
X204402861Y-40644447D01*
X204589266Y-40774968D01*
X204647865Y-40802293D01*
X204700305Y-40848465D01*
X204719457Y-40915658D01*
X204699242Y-40982539D01*
X204647867Y-41027057D01*
X204589515Y-41054267D01*
X204403179Y-41184742D01*
X204242342Y-41345579D01*
X204111865Y-41531917D01*
X204015734Y-41738073D01*
X204015730Y-41738082D01*
X203963127Y-41934399D01*
X203963128Y-41934400D01*
X204926314Y-41934400D01*
X204921920Y-41938794D01*
X204869259Y-42030006D01*
X204842000Y-42131739D01*
X204842000Y-42237061D01*
X204869259Y-42338794D01*
X204921920Y-42430006D01*
X204926314Y-42434400D01*
X203963128Y-42434400D01*
X204015730Y-42630717D01*
X204015734Y-42630726D01*
X204111865Y-42836882D01*
X204242342Y-43023220D01*
X204403179Y-43184057D01*
X204589518Y-43314534D01*
X204589520Y-43314535D01*
X204647865Y-43341742D01*
X204700305Y-43387914D01*
X204719457Y-43455107D01*
X204699242Y-43521989D01*
X204647867Y-43566505D01*
X204589268Y-43593831D01*
X204589264Y-43593833D01*
X204402858Y-43724354D01*
X204241954Y-43885258D01*
X204111432Y-44071665D01*
X204111431Y-44071667D01*
X204015261Y-44277902D01*
X204015258Y-44277911D01*
X203956366Y-44497702D01*
X203956364Y-44497713D01*
X203936532Y-44724398D01*
X203936532Y-44724401D01*
X203956364Y-44951086D01*
X203956366Y-44951097D01*
X204015258Y-45170888D01*
X204015261Y-45170897D01*
X204111431Y-45377132D01*
X204111432Y-45377134D01*
X204241954Y-45563541D01*
X204402858Y-45724445D01*
X204402861Y-45724447D01*
X204589266Y-45854968D01*
X204647275Y-45882018D01*
X204699714Y-45928191D01*
X204718866Y-45995384D01*
X204698650Y-46062265D01*
X204647275Y-46106782D01*
X204589267Y-46133831D01*
X204589265Y-46133832D01*
X204402858Y-46264354D01*
X204241954Y-46425258D01*
X204170699Y-46527023D01*
X204111881Y-46611024D01*
X204057307Y-46654648D01*
X204010308Y-46663900D01*
X203201900Y-46663900D01*
X203134861Y-46644215D01*
X203089106Y-46591411D01*
X203077900Y-46539900D01*
X203077900Y-33205845D01*
X203077900Y-33205843D01*
X203036977Y-33053116D01*
X203036216Y-33051798D01*
X202957924Y-32916190D01*
X202957918Y-32916182D01*
X202846117Y-32804381D01*
X202846109Y-32804375D01*
X202709190Y-32725326D01*
X202709186Y-32725324D01*
X202709184Y-32725323D01*
X202556457Y-32684400D01*
X184315257Y-32684400D01*
X184157143Y-32684400D01*
X184004416Y-32725323D01*
X184004409Y-32725326D01*
X183867490Y-32804375D01*
X183867482Y-32804381D01*
X183755681Y-32916182D01*
X183755677Y-32916187D01*
X183693374Y-33024100D01*
X183642807Y-33072316D01*
X183585988Y-33086100D01*
X183388330Y-33086100D01*
X183388323Y-33086101D01*
X183328716Y-33092508D01*
X183193871Y-33142802D01*
X183193864Y-33142806D01*
X183078655Y-33229052D01*
X183078652Y-33229055D01*
X182992406Y-33344264D01*
X182992402Y-33344271D01*
X182942108Y-33479117D01*
X182935701Y-33538716D01*
X182935700Y-33538727D01*
X182935700Y-34337945D01*
X182935701Y-35100400D01*
X182916016Y-35167439D01*
X182863213Y-35213194D01*
X182811701Y-35224400D01*
X179738887Y-35224400D01*
X179671848Y-35204715D01*
X179626093Y-35151911D01*
X179616149Y-35082753D01*
X179626505Y-35047995D01*
X179643804Y-35010897D01*
X179712539Y-34863496D01*
X179771435Y-34643692D01*
X179791268Y-34417000D01*
X179788608Y-34386601D01*
X179781692Y-34307543D01*
X179771435Y-34190308D01*
X179721380Y-34003500D01*
X179712541Y-33970511D01*
X179712538Y-33970502D01*
X179706656Y-33957889D01*
X179616368Y-33764266D01*
X179490235Y-33584128D01*
X179485845Y-33577858D01*
X179324941Y-33416954D01*
X179138534Y-33286432D01*
X179138532Y-33286431D01*
X178932297Y-33190261D01*
X178932288Y-33190258D01*
X178712497Y-33131366D01*
X178712493Y-33131365D01*
X178712492Y-33131365D01*
X178712491Y-33131364D01*
X178712486Y-33131364D01*
X178485802Y-33111532D01*
X178485798Y-33111532D01*
X178259113Y-33131364D01*
X178259102Y-33131366D01*
X178039311Y-33190258D01*
X178039302Y-33190261D01*
X177833067Y-33286431D01*
X177833065Y-33286432D01*
X177646658Y-33416954D01*
X177485754Y-33577858D01*
X177355232Y-33764265D01*
X177355231Y-33764267D01*
X177259061Y-33970502D01*
X177259058Y-33970511D01*
X177200166Y-34190302D01*
X177200164Y-34190313D01*
X177180332Y-34416998D01*
X177180332Y-34417001D01*
X177200164Y-34643686D01*
X177200166Y-34643697D01*
X177259058Y-34863488D01*
X177259060Y-34863492D01*
X177259061Y-34863496D01*
X177327795Y-35010896D01*
X177345095Y-35047995D01*
X177355587Y-35117072D01*
X177327067Y-35180857D01*
X177268591Y-35219096D01*
X177232713Y-35224400D01*
X174764800Y-35224400D01*
X174697761Y-35204715D01*
X174652006Y-35151911D01*
X174640800Y-35100400D01*
X174640800Y-33236245D01*
X174640800Y-33236243D01*
X174599877Y-33083516D01*
X174582037Y-33052616D01*
X174520824Y-32946590D01*
X174520818Y-32946582D01*
X174409017Y-32834781D01*
X174409009Y-32834775D01*
X174272090Y-32755726D01*
X174272086Y-32755724D01*
X174272084Y-32755723D01*
X174119357Y-32714800D01*
X169843157Y-32714800D01*
X169685043Y-32714800D01*
X169532316Y-32755723D01*
X169532309Y-32755726D01*
X169395390Y-32834775D01*
X169395382Y-32834781D01*
X169283581Y-32946582D01*
X169283575Y-32946590D01*
X169204526Y-33083509D01*
X169204523Y-33083516D01*
X169163600Y-33236243D01*
X169163600Y-41957943D01*
X169163600Y-42116057D01*
X169203096Y-42263456D01*
X169204523Y-42268783D01*
X169204526Y-42268790D01*
X169283575Y-42405709D01*
X169283579Y-42405714D01*
X169283580Y-42405716D01*
X169395384Y-42517520D01*
X169395386Y-42517521D01*
X169395390Y-42517524D01*
X169528071Y-42594126D01*
X169532316Y-42596577D01*
X169659131Y-42630556D01*
X169718788Y-42666920D01*
X169734424Y-42688333D01*
X169735234Y-42689737D01*
X169865754Y-42876141D01*
X170026658Y-43037045D01*
X170048083Y-43052047D01*
X170213066Y-43167568D01*
X170271075Y-43194618D01*
X170323514Y-43240791D01*
X170342666Y-43307984D01*
X170322450Y-43374865D01*
X170271075Y-43419382D01*
X170213067Y-43446431D01*
X170213065Y-43446432D01*
X170026658Y-43576954D01*
X169865754Y-43737858D01*
X169789250Y-43847118D01*
X169735681Y-43923624D01*
X169681107Y-43967248D01*
X169634108Y-43976500D01*
X163480943Y-43976500D01*
X163328216Y-44017423D01*
X163328209Y-44017426D01*
X163191290Y-44096475D01*
X163191282Y-44096481D01*
X163079481Y-44208282D01*
X163079475Y-44208290D01*
X163000426Y-44345209D01*
X163000423Y-44345216D01*
X162959500Y-44497943D01*
X162959500Y-59056300D01*
X162939815Y-59123339D01*
X162887011Y-59169094D01*
X162835500Y-59180300D01*
X162226844Y-59180300D01*
X162159805Y-59160615D01*
X162114050Y-59107811D01*
X162104106Y-59038653D01*
X162125269Y-58985177D01*
X162179800Y-58907297D01*
X162226968Y-58839934D01*
X162323139Y-58633696D01*
X162382035Y-58413892D01*
X162401868Y-58187200D01*
X162401652Y-58184735D01*
X162393096Y-58086939D01*
X162382035Y-57960508D01*
X162323139Y-57740704D01*
X162226968Y-57534466D01*
X162102846Y-57357200D01*
X162096445Y-57348058D01*
X161935541Y-57187154D01*
X161749134Y-57056632D01*
X161749132Y-57056631D01*
X161542897Y-56960461D01*
X161542888Y-56960458D01*
X161323097Y-56901566D01*
X161323093Y-56901565D01*
X161323092Y-56901565D01*
X161323091Y-56901564D01*
X161323086Y-56901564D01*
X161096402Y-56881732D01*
X161096398Y-56881732D01*
X160869713Y-56901564D01*
X160869702Y-56901566D01*
X160649911Y-56960458D01*
X160649902Y-56960461D01*
X160443667Y-57056631D01*
X160443665Y-57056632D01*
X160257258Y-57187154D01*
X160096354Y-57348058D01*
X159965832Y-57534465D01*
X159965831Y-57534467D01*
X159869661Y-57740702D01*
X159869658Y-57740711D01*
X159810766Y-57960502D01*
X159810764Y-57960513D01*
X159790932Y-58187198D01*
X159790932Y-58187201D01*
X159810764Y-58413886D01*
X159810766Y-58413897D01*
X159869658Y-58633688D01*
X159869661Y-58633697D01*
X159965831Y-58839932D01*
X159965832Y-58839934D01*
X160067531Y-58985177D01*
X160089858Y-59051384D01*
X160072847Y-59119151D01*
X160021899Y-59166963D01*
X159965956Y-59180300D01*
X156715965Y-59180300D01*
X156648926Y-59160615D01*
X156603171Y-59107811D01*
X156593227Y-59038653D01*
X156596190Y-59024206D01*
X156627540Y-58907206D01*
X156627541Y-58907199D01*
X156647366Y-58680602D01*
X156647366Y-58680597D01*
X156627541Y-58454000D01*
X156627539Y-58453989D01*
X156568669Y-58234282D01*
X156568664Y-58234268D01*
X156472536Y-58028121D01*
X156472532Y-58028113D01*
X156421425Y-57955126D01*
X155742400Y-58634152D01*
X155742400Y-58627939D01*
X155715141Y-58526206D01*
X155662480Y-58434994D01*
X155588006Y-58360520D01*
X155496794Y-58307859D01*
X155395061Y-58280600D01*
X155388848Y-58280600D01*
X156067872Y-57601574D01*
X155994878Y-57550463D01*
X155788731Y-57454335D01*
X155788717Y-57454330D01*
X155569010Y-57395460D01*
X155568999Y-57395458D01*
X155342402Y-57375634D01*
X155342398Y-57375634D01*
X155115800Y-57395458D01*
X155115789Y-57395460D01*
X154896082Y-57454330D01*
X154896073Y-57454334D01*
X154689916Y-57550466D01*
X154689912Y-57550468D01*
X154616926Y-57601573D01*
X154616926Y-57601574D01*
X155295953Y-58280600D01*
X155289739Y-58280600D01*
X155188006Y-58307859D01*
X155096794Y-58360520D01*
X155022320Y-58434994D01*
X154969659Y-58526206D01*
X154942400Y-58627939D01*
X154942400Y-58634153D01*
X154602439Y-58294192D01*
X154570345Y-58238603D01*
X154569142Y-58234113D01*
X154569138Y-58234102D01*
X154552756Y-58198970D01*
X154472968Y-58027866D01*
X154342447Y-57841461D01*
X154342445Y-57841458D01*
X154181541Y-57680554D01*
X153995134Y-57550032D01*
X153995132Y-57550031D01*
X153788897Y-57453861D01*
X153788888Y-57453858D01*
X153569097Y-57394966D01*
X153569093Y-57394965D01*
X153569092Y-57394965D01*
X153569091Y-57394964D01*
X153569086Y-57394964D01*
X153342402Y-57375132D01*
X153342398Y-57375132D01*
X153115713Y-57394964D01*
X153115702Y-57394966D01*
X152895911Y-57453858D01*
X152895902Y-57453861D01*
X152689667Y-57550031D01*
X152689665Y-57550032D01*
X152503258Y-57680554D01*
X152342354Y-57841458D01*
X152211832Y-58027865D01*
X152211831Y-58027867D01*
X152115661Y-58234102D01*
X152115658Y-58234111D01*
X152056766Y-58453902D01*
X152056764Y-58453913D01*
X152036932Y-58680598D01*
X152036932Y-58680601D01*
X152056764Y-58907286D01*
X152056766Y-58907297D01*
X152115658Y-59127088D01*
X152115661Y-59127097D01*
X152211831Y-59333332D01*
X152211832Y-59333334D01*
X152342354Y-59519741D01*
X152503258Y-59680645D01*
X152503261Y-59680647D01*
X152689666Y-59811168D01*
X152895904Y-59907339D01*
X153115708Y-59966235D01*
X153277630Y-59980401D01*
X153342398Y-59986068D01*
X153342400Y-59986068D01*
X153342402Y-59986068D01*
X153399073Y-59981109D01*
X153569092Y-59966235D01*
X153788896Y-59907339D01*
X153995134Y-59811168D01*
X154181539Y-59680647D01*
X154342447Y-59519739D01*
X154472968Y-59333334D01*
X154569139Y-59127096D01*
X154570345Y-59122596D01*
X154602439Y-59067007D01*
X154942400Y-58727046D01*
X154942400Y-58733261D01*
X154969659Y-58834994D01*
X155022320Y-58926206D01*
X155096794Y-59000680D01*
X155188006Y-59053341D01*
X155289739Y-59080600D01*
X155295953Y-59080600D01*
X154616926Y-59759625D01*
X154689913Y-59810732D01*
X154689921Y-59810736D01*
X154896068Y-59906864D01*
X154896082Y-59906869D01*
X155115789Y-59965739D01*
X155115800Y-59965741D01*
X155342398Y-59985566D01*
X155342402Y-59985566D01*
X155568999Y-59965741D01*
X155569006Y-59965740D01*
X155747106Y-59918018D01*
X155816956Y-59919681D01*
X155874819Y-59958843D01*
X155902323Y-60023071D01*
X155903200Y-60037793D01*
X155903200Y-72452900D01*
X155883515Y-72519939D01*
X155830711Y-72565694D01*
X155779200Y-72576900D01*
X153538021Y-72576900D01*
X153470982Y-72557215D01*
X153439067Y-72527627D01*
X153431274Y-72517308D01*
X153364575Y-72428983D01*
X153316379Y-72365161D01*
X153151962Y-72215276D01*
X153151960Y-72215274D01*
X152962804Y-72098154D01*
X152962798Y-72098152D01*
X152755340Y-72017782D01*
X152536643Y-71976900D01*
X152314157Y-71976900D01*
X152095460Y-72017782D01*
X151964264Y-72068607D01*
X151888001Y-72098152D01*
X151887995Y-72098154D01*
X151698839Y-72215274D01*
X151698837Y-72215276D01*
X151534420Y-72365161D01*
X151400343Y-72542708D01*
X151400338Y-72542716D01*
X151301175Y-72741861D01*
X151301169Y-72741876D01*
X151240285Y-72955862D01*
X151240284Y-72955864D01*
X151219757Y-73177399D01*
X147585616Y-73177399D01*
X147586870Y-69316599D01*
X151245157Y-69316599D01*
X151245157Y-69316600D01*
X151265684Y-69538135D01*
X151265685Y-69538137D01*
X151326569Y-69752123D01*
X151326575Y-69752138D01*
X151425738Y-69951283D01*
X151425743Y-69951291D01*
X151559820Y-70128838D01*
X151724237Y-70278723D01*
X151724239Y-70278725D01*
X151913395Y-70395845D01*
X151913396Y-70395845D01*
X151913399Y-70395847D01*
X152120860Y-70476218D01*
X152339557Y-70517100D01*
X152339559Y-70517100D01*
X152562041Y-70517100D01*
X152562043Y-70517100D01*
X152780740Y-70476218D01*
X152988201Y-70395847D01*
X153177362Y-70278724D01*
X153341781Y-70128836D01*
X153475858Y-69951289D01*
X153575029Y-69752128D01*
X153635915Y-69538136D01*
X153656443Y-69316600D01*
X153642384Y-69164882D01*
X153635915Y-69095064D01*
X153635914Y-69095062D01*
X153632938Y-69084604D01*
X153575029Y-68881072D01*
X153556301Y-68843461D01*
X153475861Y-68681916D01*
X153475856Y-68681908D01*
X153341779Y-68504361D01*
X153177362Y-68354476D01*
X153177360Y-68354474D01*
X152988204Y-68237354D01*
X152988198Y-68237352D01*
X152780740Y-68156982D01*
X152562043Y-68116100D01*
X152339557Y-68116100D01*
X152120860Y-68156982D01*
X152024201Y-68194428D01*
X151913401Y-68237352D01*
X151913395Y-68237354D01*
X151724239Y-68354474D01*
X151724237Y-68354476D01*
X151559820Y-68504361D01*
X151425743Y-68681908D01*
X151425738Y-68681916D01*
X151326575Y-68881061D01*
X151326569Y-68881076D01*
X151265685Y-69095062D01*
X151265684Y-69095064D01*
X151245157Y-69316599D01*
X147586870Y-69316599D01*
X147587125Y-68529761D01*
X147592187Y-52933598D01*
X151724132Y-52933598D01*
X151724132Y-52933601D01*
X151743964Y-53160286D01*
X151743966Y-53160297D01*
X151802858Y-53380088D01*
X151802861Y-53380097D01*
X151899031Y-53586332D01*
X151899032Y-53586334D01*
X152029554Y-53772741D01*
X152190458Y-53933645D01*
X152190461Y-53933647D01*
X152376866Y-54064168D01*
X152583104Y-54160339D01*
X152802908Y-54219235D01*
X152964830Y-54233401D01*
X153029598Y-54239068D01*
X153029600Y-54239068D01*
X153029602Y-54239068D01*
X153086273Y-54234109D01*
X153256292Y-54219235D01*
X153476096Y-54160339D01*
X153682334Y-54064168D01*
X153868739Y-53933647D01*
X154029647Y-53772739D01*
X154160168Y-53586334D01*
X154167493Y-53570624D01*
X154213664Y-53518186D01*
X154280857Y-53499033D01*
X154347738Y-53519248D01*
X154392257Y-53570624D01*
X154399464Y-53586080D01*
X154450574Y-53659072D01*
X155129600Y-52980046D01*
X155129600Y-52986261D01*
X155156859Y-53087994D01*
X155209520Y-53179206D01*
X155283994Y-53253680D01*
X155375206Y-53306341D01*
X155476939Y-53333600D01*
X155483153Y-53333600D01*
X154804126Y-54012625D01*
X154877113Y-54063732D01*
X154877121Y-54063736D01*
X155083268Y-54159864D01*
X155083282Y-54159869D01*
X155302989Y-54218739D01*
X155303000Y-54218741D01*
X155529598Y-54238566D01*
X155529602Y-54238566D01*
X155756199Y-54218741D01*
X155756210Y-54218739D01*
X155975917Y-54159869D01*
X155975931Y-54159864D01*
X156182078Y-54063736D01*
X156255071Y-54012624D01*
X155576047Y-53333600D01*
X155582261Y-53333600D01*
X155683994Y-53306341D01*
X155775206Y-53253680D01*
X155849680Y-53179206D01*
X155902341Y-53087994D01*
X155929600Y-52986261D01*
X155929600Y-52980047D01*
X156608624Y-53659071D01*
X156659736Y-53586078D01*
X156755864Y-53379931D01*
X156755869Y-53379917D01*
X156814739Y-53160210D01*
X156814741Y-53160199D01*
X156834566Y-52933602D01*
X156834566Y-52933597D01*
X156814741Y-52707000D01*
X156814739Y-52706989D01*
X156755869Y-52487282D01*
X156755864Y-52487268D01*
X156659736Y-52281121D01*
X156659732Y-52281113D01*
X156608625Y-52208126D01*
X155929600Y-52887151D01*
X155929600Y-52880939D01*
X155902341Y-52779206D01*
X155849680Y-52687994D01*
X155775206Y-52613520D01*
X155683994Y-52560859D01*
X155582261Y-52533600D01*
X155576048Y-52533600D01*
X156255072Y-51854574D01*
X156182078Y-51803463D01*
X155975931Y-51707335D01*
X155975917Y-51707330D01*
X155756210Y-51648460D01*
X155756199Y-51648458D01*
X155529602Y-51628634D01*
X155529598Y-51628634D01*
X155303000Y-51648458D01*
X155302989Y-51648460D01*
X155083282Y-51707330D01*
X155083273Y-51707334D01*
X154877116Y-51803466D01*
X154877112Y-51803468D01*
X154804126Y-51854573D01*
X154804126Y-51854574D01*
X155483153Y-52533600D01*
X155476939Y-52533600D01*
X155375206Y-52560859D01*
X155283994Y-52613520D01*
X155209520Y-52687994D01*
X155156859Y-52779206D01*
X155129600Y-52880939D01*
X155129600Y-52887152D01*
X154450574Y-52208126D01*
X154450573Y-52208126D01*
X154399468Y-52281112D01*
X154399467Y-52281114D01*
X154392256Y-52296579D01*
X154346082Y-52349017D01*
X154278888Y-52368167D01*
X154212007Y-52347950D01*
X154167493Y-52296576D01*
X154160168Y-52280866D01*
X154029647Y-52094461D01*
X154029645Y-52094458D01*
X153868741Y-51933554D01*
X153682334Y-51803032D01*
X153682332Y-51803031D01*
X153476097Y-51706861D01*
X153476088Y-51706858D01*
X153256297Y-51647966D01*
X153256293Y-51647965D01*
X153256292Y-51647965D01*
X153256291Y-51647964D01*
X153256286Y-51647964D01*
X153029602Y-51628132D01*
X153029598Y-51628132D01*
X152802913Y-51647964D01*
X152802902Y-51647966D01*
X152583111Y-51706858D01*
X152583102Y-51706861D01*
X152376867Y-51803031D01*
X152376865Y-51803032D01*
X152190458Y-51933554D01*
X152029554Y-52094458D01*
X151899032Y-52280865D01*
X151899031Y-52280867D01*
X151802861Y-52487102D01*
X151802858Y-52487111D01*
X151743966Y-52706902D01*
X151743964Y-52706913D01*
X151724132Y-52933598D01*
X147592187Y-52933598D01*
X147593564Y-48691798D01*
X151647932Y-48691798D01*
X151647932Y-48691801D01*
X151667764Y-48918486D01*
X151667766Y-48918497D01*
X151726658Y-49138288D01*
X151726661Y-49138297D01*
X151822831Y-49344532D01*
X151822832Y-49344534D01*
X151953354Y-49530941D01*
X152114258Y-49691845D01*
X152124168Y-49698784D01*
X152300666Y-49822368D01*
X152506904Y-49918539D01*
X152726708Y-49977435D01*
X152888630Y-49991601D01*
X152953398Y-49997268D01*
X152953400Y-49997268D01*
X152953402Y-49997268D01*
X153010073Y-49992309D01*
X153180092Y-49977435D01*
X153399896Y-49918539D01*
X153606134Y-49822368D01*
X153792539Y-49691847D01*
X153953447Y-49530939D01*
X154083968Y-49344534D01*
X154091293Y-49328824D01*
X154137464Y-49276386D01*
X154204657Y-49257233D01*
X154271538Y-49277448D01*
X154316057Y-49328824D01*
X154323264Y-49344280D01*
X154374374Y-49417272D01*
X155053400Y-48738246D01*
X155053400Y-48744461D01*
X155080659Y-48846194D01*
X155133320Y-48937406D01*
X155207794Y-49011880D01*
X155299006Y-49064541D01*
X155400739Y-49091800D01*
X155406953Y-49091800D01*
X154727926Y-49770825D01*
X154800913Y-49821932D01*
X154800921Y-49821936D01*
X155007068Y-49918064D01*
X155007082Y-49918069D01*
X155226789Y-49976939D01*
X155226800Y-49976941D01*
X155453398Y-49996766D01*
X155453402Y-49996766D01*
X155679999Y-49976941D01*
X155680010Y-49976939D01*
X155899717Y-49918069D01*
X155899731Y-49918064D01*
X156105878Y-49821936D01*
X156178871Y-49770824D01*
X155499847Y-49091800D01*
X155506061Y-49091800D01*
X155607794Y-49064541D01*
X155699006Y-49011880D01*
X155773480Y-48937406D01*
X155826141Y-48846194D01*
X155853400Y-48744461D01*
X155853400Y-48738247D01*
X156532424Y-49417271D01*
X156583536Y-49344278D01*
X156679664Y-49138131D01*
X156679669Y-49138117D01*
X156738539Y-48918410D01*
X156738541Y-48918399D01*
X156758366Y-48691802D01*
X156758366Y-48691797D01*
X156738541Y-48465200D01*
X156738539Y-48465189D01*
X156679669Y-48245482D01*
X156679664Y-48245468D01*
X156583536Y-48039321D01*
X156583532Y-48039313D01*
X156532425Y-47966326D01*
X155853400Y-48645351D01*
X155853400Y-48639139D01*
X155826141Y-48537406D01*
X155773480Y-48446194D01*
X155699006Y-48371720D01*
X155607794Y-48319059D01*
X155506061Y-48291800D01*
X155499848Y-48291800D01*
X156178872Y-47612774D01*
X156105878Y-47561663D01*
X155899731Y-47465535D01*
X155899717Y-47465530D01*
X155680010Y-47406660D01*
X155679999Y-47406658D01*
X155453402Y-47386834D01*
X155453398Y-47386834D01*
X155226800Y-47406658D01*
X155226789Y-47406660D01*
X155007082Y-47465530D01*
X155007073Y-47465534D01*
X154800916Y-47561666D01*
X154800912Y-47561668D01*
X154727926Y-47612773D01*
X154727926Y-47612774D01*
X155406953Y-48291800D01*
X155400739Y-48291800D01*
X155299006Y-48319059D01*
X155207794Y-48371720D01*
X155133320Y-48446194D01*
X155080659Y-48537406D01*
X155053400Y-48639139D01*
X155053400Y-48645352D01*
X154374374Y-47966326D01*
X154374373Y-47966326D01*
X154323268Y-48039312D01*
X154323267Y-48039314D01*
X154316056Y-48054779D01*
X154269882Y-48107217D01*
X154202688Y-48126367D01*
X154135807Y-48106150D01*
X154091293Y-48054776D01*
X154083968Y-48039066D01*
X153966205Y-47870882D01*
X153953445Y-47852658D01*
X153792541Y-47691754D01*
X153606134Y-47561232D01*
X153606132Y-47561231D01*
X153399897Y-47465061D01*
X153399888Y-47465058D01*
X153180097Y-47406166D01*
X153180093Y-47406165D01*
X153180092Y-47406165D01*
X153180091Y-47406164D01*
X153180086Y-47406164D01*
X152953402Y-47386332D01*
X152953398Y-47386332D01*
X152726713Y-47406164D01*
X152726702Y-47406166D01*
X152506911Y-47465058D01*
X152506902Y-47465061D01*
X152300667Y-47561231D01*
X152300665Y-47561232D01*
X152114258Y-47691754D01*
X151953354Y-47852658D01*
X151822832Y-48039065D01*
X151822831Y-48039067D01*
X151726661Y-48245302D01*
X151726658Y-48245311D01*
X151667766Y-48465102D01*
X151667764Y-48465113D01*
X151647932Y-48691798D01*
X147593564Y-48691798D01*
X147594021Y-47285035D01*
X158951300Y-47285035D01*
X158951300Y-49285770D01*
X158951301Y-49285776D01*
X158957708Y-49345383D01*
X159008002Y-49480228D01*
X159008006Y-49480235D01*
X159094252Y-49595444D01*
X159094255Y-49595447D01*
X159209464Y-49681693D01*
X159209467Y-49681695D01*
X159209468Y-49681695D01*
X159209469Y-49681696D01*
X159237825Y-49692272D01*
X159293758Y-49734142D01*
X159318176Y-49799606D01*
X159303325Y-49867879D01*
X159294810Y-49881339D01*
X159162013Y-50064119D01*
X159058217Y-50267829D01*
X158987565Y-50485271D01*
X158973291Y-50575400D01*
X159961052Y-50575400D01*
X159939282Y-50613108D01*
X159901800Y-50752991D01*
X159901800Y-50897809D01*
X159939282Y-51037692D01*
X159961052Y-51075400D01*
X158973291Y-51075400D01*
X158987565Y-51165528D01*
X159058217Y-51382970D01*
X159162011Y-51586676D01*
X159296397Y-51771642D01*
X159458057Y-51933302D01*
X159458063Y-51933307D01*
X159542663Y-51994772D01*
X159585329Y-52050101D01*
X159591308Y-52119715D01*
X159558703Y-52181510D01*
X159542664Y-52195407D01*
X159457740Y-52257109D01*
X159457731Y-52257116D01*
X159296016Y-52418831D01*
X159296016Y-52418832D01*
X159296014Y-52418834D01*
X159264652Y-52462000D01*
X159161583Y-52603861D01*
X159057750Y-52807644D01*
X158987078Y-53025150D01*
X158987078Y-53025153D01*
X158951300Y-53251046D01*
X158951300Y-53479753D01*
X158987078Y-53705646D01*
X158987078Y-53705649D01*
X159057750Y-53923155D01*
X159129600Y-54064168D01*
X159161583Y-54126938D01*
X159296014Y-54311966D01*
X159457734Y-54473686D01*
X159642762Y-54608117D01*
X159846542Y-54711948D01*
X159846544Y-54711949D01*
X160064051Y-54782621D01*
X160064052Y-54782621D01*
X160064055Y-54782622D01*
X160289946Y-54818400D01*
X160289947Y-54818400D01*
X160613653Y-54818400D01*
X160613654Y-54818400D01*
X160839545Y-54782622D01*
X160839548Y-54782621D01*
X160839549Y-54782621D01*
X161057055Y-54711949D01*
X161057055Y-54711948D01*
X161057058Y-54711948D01*
X161260838Y-54608117D01*
X161445866Y-54473686D01*
X161607586Y-54311966D01*
X161742017Y-54126938D01*
X161845848Y-53923158D01*
X161916522Y-53705645D01*
X161952300Y-53479754D01*
X161952300Y-53251046D01*
X161916522Y-53025155D01*
X161916521Y-53025151D01*
X161916521Y-53025150D01*
X161845849Y-52807644D01*
X161794524Y-52706913D01*
X161742017Y-52603862D01*
X161607586Y-52418834D01*
X161445866Y-52257114D01*
X161360934Y-52195407D01*
X161318270Y-52140078D01*
X161312291Y-52070464D01*
X161344897Y-52008669D01*
X161360937Y-51994771D01*
X161445539Y-51933305D01*
X161607202Y-51771642D01*
X161741588Y-51586676D01*
X161845382Y-51382970D01*
X161916034Y-51165528D01*
X161930309Y-51075400D01*
X160942548Y-51075400D01*
X160964318Y-51037692D01*
X161001800Y-50897809D01*
X161001800Y-50752991D01*
X160964318Y-50613108D01*
X160942548Y-50575400D01*
X161930309Y-50575400D01*
X161916034Y-50485271D01*
X161845382Y-50267829D01*
X161741588Y-50064123D01*
X161608788Y-49881340D01*
X161585308Y-49815533D01*
X161601133Y-49747479D01*
X161651239Y-49698784D01*
X161665766Y-49692275D01*
X161694131Y-49681696D01*
X161809346Y-49595446D01*
X161895596Y-49480231D01*
X161945891Y-49345383D01*
X161952300Y-49285773D01*
X161952299Y-47285028D01*
X161945891Y-47225417D01*
X161905454Y-47117001D01*
X161895597Y-47090571D01*
X161895593Y-47090564D01*
X161809347Y-46975355D01*
X161809344Y-46975352D01*
X161694135Y-46889106D01*
X161694128Y-46889102D01*
X161559282Y-46838808D01*
X161559283Y-46838808D01*
X161499683Y-46832401D01*
X161499681Y-46832400D01*
X161499673Y-46832400D01*
X161499664Y-46832400D01*
X159403929Y-46832400D01*
X159403923Y-46832401D01*
X159344316Y-46838808D01*
X159209471Y-46889102D01*
X159209464Y-46889106D01*
X159094255Y-46975352D01*
X159094252Y-46975355D01*
X159008006Y-47090564D01*
X159008002Y-47090571D01*
X158957708Y-47225417D01*
X158951301Y-47285016D01*
X158951301Y-47285023D01*
X158951300Y-47285035D01*
X147594021Y-47285035D01*
X147596326Y-40182535D01*
X155024900Y-40182535D01*
X155024900Y-42258270D01*
X155024901Y-42258276D01*
X155031308Y-42317883D01*
X155081602Y-42452728D01*
X155081606Y-42452735D01*
X155167852Y-42567944D01*
X155167855Y-42567947D01*
X155283064Y-42654193D01*
X155283071Y-42654197D01*
X155417917Y-42704491D01*
X155417916Y-42704491D01*
X155424844Y-42705235D01*
X155477527Y-42710900D01*
X159533272Y-42710899D01*
X159592883Y-42704491D01*
X159727731Y-42654196D01*
X159842946Y-42567946D01*
X159929196Y-42452731D01*
X159979491Y-42317883D01*
X159985900Y-42258273D01*
X159985899Y-40182528D01*
X159979491Y-40122917D01*
X159979056Y-40121752D01*
X159929197Y-39988071D01*
X159929193Y-39988064D01*
X159842947Y-39872855D01*
X159842944Y-39872852D01*
X159727735Y-39786606D01*
X159727728Y-39786602D01*
X159592882Y-39736308D01*
X159592883Y-39736308D01*
X159533283Y-39729901D01*
X159533281Y-39729900D01*
X159533273Y-39729900D01*
X159533264Y-39729900D01*
X155477529Y-39729900D01*
X155477523Y-39729901D01*
X155417916Y-39736308D01*
X155283071Y-39786602D01*
X155283064Y-39786606D01*
X155167855Y-39872852D01*
X155167852Y-39872855D01*
X155081606Y-39988064D01*
X155081602Y-39988071D01*
X155031308Y-40122917D01*
X155025106Y-40180611D01*
X155024901Y-40182523D01*
X155024900Y-40182535D01*
X147596326Y-40182535D01*
X147597693Y-35970400D01*
X155046423Y-35970400D01*
X156894575Y-35970400D01*
X156870764Y-36027885D01*
X156845400Y-36155396D01*
X156845400Y-36285404D01*
X156870764Y-36412915D01*
X156894575Y-36470400D01*
X155046423Y-36470400D01*
X155062088Y-36569305D01*
X155062088Y-36569306D01*
X155134564Y-36792363D01*
X155241038Y-37001330D01*
X155378894Y-37191072D01*
X155544727Y-37356905D01*
X155734469Y-37494761D01*
X155943434Y-37601235D01*
X156166490Y-37673710D01*
X156398135Y-37710400D01*
X157255400Y-37710400D01*
X157255400Y-36831224D01*
X157312885Y-36855036D01*
X157440396Y-36880400D01*
X157570404Y-36880400D01*
X157697915Y-36855036D01*
X157755400Y-36831224D01*
X157755400Y-37710400D01*
X158612665Y-37710400D01*
X158844309Y-37673710D01*
X159067365Y-37601235D01*
X159276330Y-37494761D01*
X159466072Y-37356905D01*
X159631905Y-37191072D01*
X159769761Y-37001330D01*
X159876235Y-36792363D01*
X159948711Y-36569306D01*
X159948711Y-36569305D01*
X159964377Y-36470400D01*
X158116225Y-36470400D01*
X158140036Y-36412915D01*
X158165400Y-36285404D01*
X158165400Y-36155396D01*
X158140036Y-36027885D01*
X158116225Y-35970400D01*
X159964377Y-35970400D01*
X159948711Y-35871494D01*
X159948711Y-35871493D01*
X159876235Y-35648436D01*
X159769761Y-35439469D01*
X159631905Y-35249727D01*
X159466072Y-35083894D01*
X159276330Y-34946038D01*
X159067365Y-34839564D01*
X158844309Y-34767089D01*
X158612665Y-34730400D01*
X157755400Y-34730400D01*
X157755400Y-35609575D01*
X157697915Y-35585764D01*
X157570404Y-35560400D01*
X157440396Y-35560400D01*
X157312885Y-35585764D01*
X157255400Y-35609575D01*
X157255400Y-34730400D01*
X156398135Y-34730400D01*
X156166490Y-34767089D01*
X155943434Y-34839564D01*
X155734469Y-34946038D01*
X155544727Y-35083894D01*
X155378894Y-35249727D01*
X155241038Y-35439469D01*
X155134564Y-35648436D01*
X155062088Y-35871493D01*
X155062088Y-35871494D01*
X155046423Y-35970400D01*
X147597693Y-35970400D01*
X147598524Y-33409260D01*
X147618230Y-33342227D01*
X147671049Y-33296489D01*
X147722524Y-33285300D01*
X147737916Y-33285300D01*
X147737918Y-33285300D01*
X147737921Y-33285299D01*
X147737929Y-33285299D01*
X147946644Y-33258932D01*
X148050073Y-33245866D01*
X148354825Y-33167619D01*
X148354828Y-33167618D01*
X148647357Y-33051798D01*
X148647358Y-33051797D01*
X148647356Y-33051797D01*
X148647366Y-33051794D01*
X148923084Y-32900216D01*
X149177630Y-32715278D01*
X149406990Y-32499894D01*
X149607547Y-32257463D01*
X149776137Y-31991807D01*
X149910103Y-31707115D01*
X150007331Y-31407879D01*
X150066288Y-31098815D01*
X150083028Y-30832728D01*
X150106882Y-30767058D01*
X150162455Y-30724709D01*
X150207152Y-30716517D01*
X220313802Y-30929392D01*
G37*
%TD.AperFunction*%
%TD*%
M02*
